999
DXF from OpenSCAD
  0
SECTION
  2
HEADER
  9
$ACADVER
  1
AC1006
  9
$INSBASE
 10
0.0
 20
0.0
 30
0.0
  9
$EXTMIN
 10
-119.333
 20
-150.4
  9
$EXTMAX
 10
104
 20
150.4
  9
$LINMIN
 10
-119.333
 20
-150.4
  9
$LINMAX
 10
104
 20
150.4
  0
ENDSEC
  0
SECTION
  2
TABLES
  0
TABLE
  2
LTYPE
 70
1
  0
LTYPE
  2
CONTINUOUS
 70
64
  3
Solid line
 72
65
 73
0
 40
0.000000
  0
ENDTAB
  0
TABLE
  2
LAYER
 70
6
  0
LAYER
  2
0
 70
64
 62
7
  6
CONTINUOUS
  0
ENDTAB
  0
TABLE
  2
STYLE
 70
0
  0
ENDTAB
  0
ENDSEC
  0
SECTION
  2
BLOCKS
  0
ENDSEC
  0
SECTION
  2
ENTITIES
  0
LWPOLYLINE
100
AcDbEntity
  8
0
100
AcDbPolyline
 90
216
 70
1
 10
-119.333
 20
0
 10
-119.323
 20
-1.15186
 10
-119.293
 20
-2.30337
 10
-119.243
 20
-3.45417
 10
-119.173
 20
-4.60393
 10
-119.082
 20
-5.75228
 10
-118.972
 20
-6.89888
 10
-118.841
 20
-8.04338
 10
-118.691
 20
-9.18542
 10
-118.521
 20
-10.3247
 10
-118.331
 20
-11.4608
 10
-118.121
 20
-12.5934
 10
-117.891
 20
-13.7222
 10
-117.642
 20
-14.8468
 10
-117.373
 20
-15.9668
 10
-117.084
 20
-17.0821
 10
-116.777
 20
-18.1921
 10
-116.449
 20
-19.2965
 10
-116.103
 20
-20.3951
 10
-115.738
 20
-21.4875
 10
-115.353
 20
-22.5733
 10
-114.95
 20
-23.6523
 10
-114.527
 20
-24.724
 10
-114.087
 20
-25.7883
 10
-113.627
 20
-26.8446
 10
-113.15
 20
-27.8928
 10
-112.654
 20
-28.9325
 10
-112.14
 20
-29.9634
 10
-111.608
 20
-30.9851
 10
-111.058
 20
-31.9974
 10
-110.491
 20
-33
 10
-109.906
 20
-33.9925
 10
-109.305
 20
-34.9747
 10
-108.686
 20
-35.9462
 10
-108.05
 20
-36.9067
 10
-107.397
 20
-37.856
 10
-106.728
 20
-38.7938
 10
-106.043
 20
-39.7198
 10
-105.342
 20
-40.6337
 10
-104.625
 20
-41.5351
 10
-103.892
 20
-42.424
 10
-103.144
 20
-43.2999
 10
-15.1602
 20
-143.65
 10
-13.6503
 20
-145.16
 10
-11.9908
 20
-146.504
 10
-10.2
 20
-147.667
 10
-8.29743
 20
-148.636
 10
-6.30395
 20
-149.402
 10
-4.2414
 20
-149.954
 10
-2.13238
 20
-150.288
 10
0
 20
-150.4
 10
2.13238
 20
-150.288
 10
4.2414
 20
-149.954
 10
6.30395
 20
-149.402
 10
8.29743
 20
-148.636
 10
10.2
 20
-147.667
 10
11.9908
 20
-146.504
 10
13.6503
 20
-145.16
 10
69.9666
 20
-95.9989
 10
70.8293
 20
-95.2356
 10
71.6786
 20
-94.4574
 10
72.5141
 20
-93.6644
 10
73.3357
 20
-92.8571
 10
74.1431
 20
-92.0355
 10
74.936
 20
-91.1999
 10
75.7142
 20
-90.3506
 10
76.4775
 20
-89.4879
 10
77.2256
 20
-88.612
 10
77.9583
 20
-87.7232
 10
78.6754
 20
-86.8217
 10
79.3766
 20
-85.9078
 10
80.0618
 20
-84.9818
 10
80.7307
 20
-84.0441
 10
81.3831
 20
-83.0948
 10
82.0189
 20
-82.1342
 10
82.6378
 20
-81.1627
 10
83.2397
 20
-80.1805
 10
83.8243
 20
-79.188
 10
84.3916
 20
-78.1855
 10
84.9412
 20
-77.1731
 10
85.4731
 20
-76.1514
 10
85.9871
 20
-75.1205
 10
86.483
 20
-74.0808
 10
86.9607
 20
-73.0326
 10
87.42
 20
-71.9763
 10
87.8608
 20
-70.9121
 10
88.283
 20
-69.8403
 10
88.6864
 20
-68.7614
 10
89.0709
 20
-67.6755
 10
89.4364
 20
-66.5831
 10
89.7828
 20
-65.4846
 10
90.1099
 20
-64.3801
 10
90.4178
 20
-63.2701
 10
90.7062
 20
-62.1549
 10
90.9751
 20
-61.0348
 10
102.872
 20
-9.89785
 10
103.038
 20
-9.14811
 10
103.192
 20
-8.3956
 10
103.332
 20
-7.64052
 10
103.458
 20
-6.88312
 10
103.572
 20
-6.12362
 10
103.672
 20
-5.36225
 10
103.759
 20
-4.59925
 10
103.833
 20
-3.83485
 10
103.893
 20
-3.06928
 10
103.94
 20
-2.30278
 10
103.973
 20
-1.53558
 10
103.993
 20
-0.767905
 10
104
 20
0
 10
103.993
 20
0.767905
 10
103.973
 20
1.53558
 10
103.94
 20
2.30278
 10
103.893
 20
3.06928
 10
103.833
 20
3.83485
 10
103.759
 20
4.59925
 10
103.672
 20
5.36225
 10
103.572
 20
6.12362
 10
103.458
 20
6.88312
 10
103.332
 20
7.64052
 10
103.192
 20
8.3956
 10
103.038
 20
9.14811
 10
102.872
 20
9.89785
 10
90.9751
 20
61.0348
 10
90.7062
 20
62.1549
 10
90.4178
 20
63.2701
 10
90.1099
 20
64.3801
 10
89.7828
 20
65.4846
 10
89.4364
 20
66.5831
 10
89.0709
 20
67.6755
 10
88.6864
 20
68.7614
 10
88.283
 20
69.8403
 10
87.8608
 20
70.9121
 10
87.42
 20
71.9763
 10
86.9607
 20
73.0326
 10
86.483
 20
74.0808
 10
85.9871
 20
75.1205
 10
85.4731
 20
76.1514
 10
84.9412
 20
77.1731
 10
84.3916
 20
78.1855
 10
83.8243
 20
79.188
 10
83.2397
 20
80.1805
 10
82.6378
 20
81.1627
 10
82.0189
 20
82.1342
 10
81.3831
 20
83.0948
 10
80.7307
 20
84.0441
 10
80.0618
 20
84.9818
 10
79.3766
 20
85.9078
 10
78.6754
 20
86.8217
 10
77.9583
 20
87.7232
 10
77.2256
 20
88.612
 10
76.4775
 20
89.4879
 10
75.7142
 20
90.3506
 10
74.936
 20
91.1999
 10
74.1431
 20
92.0355
 10
73.3357
 20
92.8571
 10
72.5141
 20
93.6644
 10
71.6786
 20
94.4574
 10
70.8293
 20
95.2356
 10
69.9666
 20
95.9989
 10
13.6503
 20
145.16
 10
11.9908
 20
146.504
 10
10.2
 20
147.667
 10
8.29743
 20
148.636
 10
6.30395
 20
149.402
 10
4.2414
 20
149.954
 10
2.13238
 20
150.288
 10
0
 20
150.4
 10
-2.13238
 20
150.288
 10
-4.2414
 20
149.954
 10
-6.30395
 20
149.402
 10
-8.29743
 20
148.636
 10
-10.2
 20
147.667
 10
-11.9908
 20
146.504
 10
-13.6503
 20
145.16
 10
-15.1602
 20
143.65
 10
-103.144
 20
43.2999
 10
-103.892
 20
42.424
 10
-104.625
 20
41.5351
 10
-105.342
 20
40.6337
 10
-106.043
 20
39.7198
 10
-106.728
 20
38.7938
 10
-107.397
 20
37.856
 10
-108.05
 20
36.9067
 10
-108.686
 20
35.9462
 10
-109.305
 20
34.9747
 10
-109.906
 20
33.9925
 10
-110.491
 20
33
 10
-111.058
 20
31.9974
 10
-111.608
 20
30.9851
 10
-112.14
 20
29.9634
 10
-112.654
 20
28.9325
 10
-113.15
 20
27.8928
 10
-113.627
 20
26.8446
 10
-114.087
 20
25.7883
 10
-114.527
 20
24.724
 10
-114.95
 20
23.6523
 10
-115.353
 20
22.5733
 10
-115.738
 20
21.4875
 10
-116.103
 20
20.3951
 10
-116.449
 20
19.2965
 10
-116.777
 20
18.1921
 10
-117.084
 20
17.0821
 10
-117.373
 20
15.9668
 10
-117.642
 20
14.8468
 10
-117.891
 20
13.7222
 10
-118.121
 20
12.5934
 10
-118.331
 20
11.4608
 10
-118.521
 20
10.3247
 10
-118.691
 20
9.18542
 10
-118.841
 20
8.04338
 10
-118.972
 20
6.89888
 10
-119.082
 20
5.75228
 10
-119.173
 20
4.60393
 10
-119.243
 20
3.45417
 10
-119.293
 20
2.30337
 10
-119.323
 20
1.15186
  0
LWPOLYLINE
100
AcDbEntity
  8
0
100
AcDbPolyline
 90
30
 70
1
 10
-111.709
 20
-14.1048
 10
-111.679
 20
-13.6668
 10
-111.558
 20
-13.2448
 10
-111.351
 20
-12.8572
 10
-111.069
 20
-12.5209
 10
-110.723
 20
-12.2506
 10
-110.329
 20
-12.0581
 10
-109.903
 20
-11.9519
 10
-109.464
 20
-11.9366
 10
-109.032
 20
-12.0128
 10
-108.625
 20
-12.1773
 10
-108.261
 20
-12.4228
 10
-107.956
 20
-12.7386
 10
-107.723
 20
-13.1109
 10
-107.573
 20
-13.5234
 10
-107.512
 20
-13.9582
 10
-107.542
 20
-14.3961
 10
-107.663
 20
-14.8181
 10
-107.87
 20
-15.2058
 10
-108.152
 20
-15.5421
 10
-108.498
 20
-15.8124
 10
-108.892
 20
-16.0048
 10
-109.318
 20
-16.111
 10
-109.757
 20
-16.1264
 10
-110.189
 20
-16.0501
 10
-110.596
 20
-15.8857
 10
-110.96
 20
-15.6402
 10
-111.265
 20
-15.3244
 10
-111.498
 20
-14.952
 10
-111.648
 20
-14.5395
  0
LWPOLYLINE
100
AcDbEntity
  8
0
100
AcDbPolyline
 90
30
 70
1
 10
-111.709
 20
14.1048
 10
-111.648
 20
14.5395
 10
-111.498
 20
14.952
 10
-111.265
 20
15.3244
 10
-110.96
 20
15.6402
 10
-110.596
 20
15.8857
 10
-110.189
 20
16.0501
 10
-109.757
 20
16.1264
 10
-109.318
 20
16.111
 10
-108.892
 20
16.0048
 10
-108.498
 20
15.8124
 10
-108.152
 20
15.5421
 10
-107.87
 20
15.2058
 10
-107.663
 20
14.8181
 10
-107.542
 20
14.3961
 10
-107.512
 20
13.9582
 10
-107.573
 20
13.5234
 10
-107.723
 20
13.1109
 10
-107.956
 20
12.7386
 10
-108.261
 20
12.4228
 10
-108.625
 20
12.1773
 10
-109.032
 20
12.0128
 10
-109.464
 20
11.9366
 10
-109.903
 20
11.9519
 10
-110.329
 20
12.0581
 10
-110.723
 20
12.2506
 10
-111.069
 20
12.5209
 10
-111.351
 20
12.8572
 10
-111.558
 20
13.2448
 10
-111.679
 20
13.6668
  0
LWPOLYLINE
100
AcDbEntity
  8
0
100
AcDbPolyline
 90
30
 70
1
 10
-98.5242
 20
-39.0291
 10
-98.5242
 20
-38.5901
 10
-98.433
 20
-38.1606
 10
-98.2544
 20
-37.7596
 10
-97.9963
 20
-37.4044
 10
-97.6701
 20
-37.1106
 10
-97.2899
 20
-36.8911
 10
-96.8723
 20
-36.7555
 10
-96.4357
 20
-36.7096
 10
-95.9991
 20
-36.7555
 10
-95.5816
 20
-36.8911
 10
-95.2014
 20
-37.1106
 10
-94.8751
 20
-37.4044
 10
-94.6171
 20
-37.7596
 10
-94.4385
 20
-38.1606
 10
-94.3472
 20
-38.5901
 10
-94.3472
 20
-39.0291
 10
-94.4385
 20
-39.4585
 10
-94.6171
 20
-39.8596
 10
-94.8751
 20
-40.2147
 10
-95.2014
 20
-40.5085
 10
-95.5816
 20
-40.728
 10
-95.9991
 20
-40.8637
 10
-96.4357
 20
-40.9096
 10
-96.8723
 20
-40.8637
 10
-97.2899
 20
-40.728
 10
-97.6701
 20
-40.5085
 10
-97.9963
 20
-40.2147
 10
-98.2544
 20
-39.8596
 10
-98.433
 20
-39.4585
  0
LWPOLYLINE
100
AcDbEntity
  8
0
100
AcDbPolyline
 90
30
 70
1
 10
-98.5242
 20
38.5901
 10
-98.5242
 20
39.0291
 10
-98.433
 20
39.4585
 10
-98.2544
 20
39.8596
 10
-97.9963
 20
40.2147
 10
-97.6701
 20
40.5085
 10
-97.2899
 20
40.728
 10
-96.8723
 20
40.8637
 10
-96.4357
 20
40.9096
 10
-95.9991
 20
40.8637
 10
-95.5816
 20
40.728
 10
-95.2014
 20
40.5085
 10
-94.8751
 20
40.2147
 10
-94.6171
 20
39.8596
 10
-94.4385
 20
39.4585
 10
-94.3472
 20
39.0291
 10
-94.3472
 20
38.5901
 10
-94.4385
 20
38.1606
 10
-94.6171
 20
37.7596
 10
-94.8751
 20
37.4044
 10
-95.2014
 20
37.1106
 10
-95.5816
 20
36.8911
 10
-95.9991
 20
36.7555
 10
-96.4357
 20
36.7096
 10
-96.8723
 20
36.7555
 10
-97.2899
 20
36.8911
 10
-97.6701
 20
37.1106
 10
-97.9963
 20
37.4044
 10
-98.2544
 20
37.7596
 10
-98.433
 20
38.1606
  0
LWPOLYLINE
100
AcDbEntity
  8
0
100
AcDbPolyline
 90
30
 70
1
 10
-75.2692
 20
-54.4289
 10
-75.2081
 20
-53.9941
 10
-75.058
 20
-53.5816
 10
-74.8253
 20
-53.2093
 10
-74.5204
 20
-52.8935
 10
-74.1564
 20
-52.648
 10
-73.7493
 20
-52.4835
 10
-73.317
 20
-52.4073
 10
-72.8782
 20
-52.4226
 10
-72.4523
 20
-52.5288
 10
-72.0577
 20
-52.7213
 10
-71.7117
 20
-52.9916
 10
-71.4295
 20
-53.3279
 10
-71.2234
 20
-53.7155
 10
-71.1024
 20
-54.1375
 10
-71.0718
 20
-54.5755
 10
-71.1329
 20
-55.0102
 10
-71.283
 20
-55.4228
 10
-71.5157
 20
-55.7951
 10
-71.8206
 20
-56.1109
 10
-72.1846
 20
-56.3564
 10
-72.5917
 20
-56.5208
 10
-73.024
 20
-56.5971
 10
-73.4628
 20
-56.5817
 10
-73.8887
 20
-56.4755
 10
-74.2833
 20
-56.2831
 10
-74.6293
 20
-56.0128
 10
-74.9115
 20
-55.6765
 10
-75.1176
 20
-55.2888
 10
-75.2386
 20
-54.8668
  0
LWPOLYLINE
100
AcDbEntity
  8
0
100
AcDbPolyline
 90
30
 70
1
 10
-75.2692
 20
54.4289
 10
-75.2386
 20
54.8668
 10
-75.1176
 20
55.2888
 10
-74.9115
 20
55.6765
 10
-74.6293
 20
56.0128
 10
-74.2833
 20
56.2831
 10
-73.8887
 20
56.4755
 10
-73.4628
 20
56.5817
 10
-73.024
 20
56.5971
 10
-72.5917
 20
56.5208
 10
-72.1846
 20
56.3564
 10
-71.8206
 20
56.1109
 10
-71.5157
 20
55.7951
 10
-71.283
 20
55.4228
 10
-71.1329
 20
55.0102
 10
-71.0718
 20
54.5755
 10
-71.1024
 20
54.1375
 10
-71.2234
 20
53.7155
 10
-71.4295
 20
53.3279
 10
-71.7117
 20
52.9916
 10
-72.0577
 20
52.7213
 10
-72.4523
 20
52.5288
 10
-72.8782
 20
52.4226
 10
-73.317
 20
52.4073
 10
-73.7493
 20
52.4835
 10
-74.1564
 20
52.648
 10
-74.5204
 20
52.8935
 10
-74.8253
 20
53.2093
 10
-75.058
 20
53.5816
 10
-75.2081
 20
53.9941
  0
LWPOLYLINE
100
AcDbEntity
  8
0
100
AcDbPolyline
 90
60
 70
1
 10
-57.4333
 20
0
 10
-57.4109
 20
0.428566
 10
-57.3437
 20
0.852437
 10
-57.2327
 20
1.26697
 10
-57.0789
 20
1.66762
 10
-56.884
 20
2.05
 10
-56.6503
 20
2.40992
 10
-56.3802
 20
2.74343
 10
-56.0768
 20
3.04689
 10
-55.7433
 20
3.31697
 10
-55.3833
 20
3.5507
 10
-55.001
 20
3.74554
 10
-54.6003
 20
3.89933
 10
-54.1858
 20
4.0104
 10
-53.7619
 20
4.07754
 10
-53.3333
 20
4.1
 10
-52.9048
 20
4.07754
 10
-52.4809
 20
4.0104
 10
-52.0664
 20
3.89933
 10
-51.6657
 20
3.74554
 10
-51.2833
 20
3.5507
 10
-50.9234
 20
3.31697
 10
-50.5899
 20
3.04689
 10
-50.2864
 20
2.74343
 10
-50.0164
 20
2.40992
 10
-49.7826
 20
2.05
 10
-49.5878
 20
1.66762
 10
-49.434
 20
1.26697
 10
-49.3229
 20
0.852437
 10
-49.2558
 20
0.428566
 10
-49.2333
 20
0
 10
-49.2558
 20
-0.428566
 10
-49.3229
 20
-0.852437
 10
-49.434
 20
-1.26697
 10
-49.5878
 20
-1.66762
 10
-49.7826
 20
-2.05
 10
-50.0164
 20
-2.40992
 10
-50.2864
 20
-2.74343
 10
-50.5899
 20
-3.04689
 10
-50.9234
 20
-3.31697
 10
-51.2833
 20
-3.5507
 10
-51.6657
 20
-3.74554
 10
-52.0664
 20
-3.89933
 10
-52.4809
 20
-4.0104
 10
-52.9048
 20
-4.07754
 10
-53.3333
 20
-4.1
 10
-53.7619
 20
-4.07754
 10
-54.1858
 20
-4.0104
 10
-54.6003
 20
-3.89933
 10
-55.001
 20
-3.74554
 10
-55.3833
 20
-3.5507
 10
-55.7433
 20
-3.31697
 10
-56.0768
 20
-3.04689
 10
-56.3802
 20
-2.74343
 10
-56.6503
 20
-2.40992
 10
-56.884
 20
-2.05
 10
-57.0789
 20
-1.66762
 10
-57.2327
 20
-1.26697
 10
-57.3437
 20
-0.852437
 10
-57.4109
 20
-0.428566
  0
LWPOLYLINE
100
AcDbEntity
  8
0
100
AcDbPolyline
 90
30
 70
1
 10
-54.05
 20
-30.2195
 10
-54.05
 20
-29.7805
 10
-53.9587
 20
-29.3511
 10
-53.7802
 20
-28.95
 10
-53.5221
 20
-28.5948
 10
-53.1959
 20
-28.3011
 10
-52.8157
 20
-28.0816
 10
-52.3981
 20
-27.9459
 10
-51.9615
 20
-27.9
 10
-51.5249
 20
-27.9459
 10
-51.1074
 20
-28.0816
 10
-50.7272
 20
-28.3011
 10
-50.4009
 20
-28.5948
 10
-50.1429
 20
-28.95
 10
-49.9643
 20
-29.3511
 10
-49.873
 20
-29.7805
 10
-49.873
 20
-30.2195
 10
-49.9643
 20
-30.6489
 10
-50.1429
 20
-31.05
 10
-50.4009
 20
-31.4052
 10
-50.7272
 20
-31.6989
 10
-51.1074
 20
-31.9184
 10
-51.5249
 20
-32.0541
 10
-51.9615
 20
-32.1
 10
-52.3981
 20
-32.0541
 10
-52.8157
 20
-31.9184
 10
-53.1959
 20
-31.6989
 10
-53.5221
 20
-31.4052
 10
-53.7802
 20
-31.05
 10
-53.9587
 20
-30.6489
  0
LWPOLYLINE
100
AcDbEntity
  8
0
100
AcDbPolyline
 90
30
 70
1
 10
-50.1
 20
-83.1384
 10
-50.0541
 20
-82.7018
 10
-49.9184
 20
-82.2843
 10
-49.6989
 20
-81.9041
 10
-49.4052
 20
-81.5778
 10
-49.05
 20
-81.3198
 10
-48.6489
 20
-81.1412
 10
-48.2195
 20
-81.0499
 10
-47.7805
 20
-81.0499
 10
-47.3511
 20
-81.1412
 10
-46.95
 20
-81.3198
 10
-46.5948
 20
-81.5778
 10
-46.3011
 20
-81.9041
 10
-46.0816
 20
-82.2843
 10
-45.9459
 20
-82.7018
 10
-45.9
 20
-83.1384
 10
-45.9459
 20
-83.5751
 10
-46.0816
 20
-83.9926
 10
-46.3011
 20
-84.3728
 10
-46.5948
 20
-84.699
 10
-46.95
 20
-84.9571
 10
-47.3511
 20
-85.1357
 10
-47.7805
 20
-85.2269
 10
-48.2195
 20
-85.2269
 10
-48.6489
 20
-85.1357
 10
-49.05
 20
-84.9571
 10
-49.4052
 20
-84.699
 10
-49.6989
 20
-84.3728
 10
-49.9184
 20
-83.9926
 10
-50.0541
 20
-83.5751
  0
LWPOLYLINE
100
AcDbEntity
  8
0
100
AcDbPolyline
 90
30
 70
1
 10
-50.1
 20
83.1384
 10
-50.0541
 20
83.5751
 10
-49.9184
 20
83.9926
 10
-49.6989
 20
84.3728
 10
-49.4052
 20
84.699
 10
-49.05
 20
84.9571
 10
-48.6489
 20
85.1357
 10
-48.2195
 20
85.2269
 10
-47.7805
 20
85.2269
 10
-47.3511
 20
85.1357
 10
-46.95
 20
84.9571
 10
-46.5948
 20
84.699
 10
-46.3011
 20
84.3728
 10
-46.0816
 20
83.9926
 10
-45.9459
 20
83.5751
 10
-45.9
 20
83.1384
 10
-45.9459
 20
82.7018
 10
-46.0816
 20
82.2843
 10
-46.3011
 20
81.9041
 10
-46.5948
 20
81.5778
 10
-46.95
 20
81.3198
 10
-47.3511
 20
81.1412
 10
-47.7805
 20
81.0499
 10
-48.2195
 20
81.0499
 10
-48.6489
 20
81.1412
 10
-49.05
 20
81.3198
 10
-49.4052
 20
81.5778
 10
-49.6989
 20
81.9041
 10
-49.9184
 20
82.2843
 10
-50.0541
 20
82.7018
  0
LWPOLYLINE
100
AcDbEntity
  8
0
100
AcDbPolyline
 90
360
 70
1
 10
-33.2
 20
0
 10
-33.1949
 20
0.579419
 10
-33.1798
 20
1.15866
 10
-33.1545
 20
1.73755
 10
-33.1191
 20
2.31591
 10
-33.0737
 20
2.89357
 10
-33.0181
 20
3.47034
 10
-32.9525
 20
4.04606
 10
-32.8769
 20
4.62055
 10
-32.7913
 20
5.19362
 10
-32.6956
 20
5.76512
 10
-32.59
 20
6.33486
 10
-32.4745
 20
6.90267
 10
-32.3491
 20
7.46837
 10
-32.2138
 20
8.03181
 10
-32.0687
 20
8.59279
 10
-31.9139
 20
9.15116
 10
-31.7493
 20
9.70674
 10
-31.5751
 20
10.2594
 10
-31.3912
 20
10.8089
 10
-31.1978
 20
11.3551
 10
-30.9949
 20
11.8978
 10
-30.7825
 20
12.4369
 10
-30.5608
 20
12.9723
 10
-30.3297
 20
13.5037
 10
-30.0894
 20
14.0309
 10
-29.84
 20
14.5539
 10
-29.5814
 20
15.0725
 10
-29.3139
 20
15.5865
 10
-29.0374
 20
16.0957
 10
-28.752
 20
16.6
 10
-28.458
 20
17.0993
 10
-28.1552
 20
17.5933
 10
-27.8439
 20
18.082
 10
-27.524
 20
18.5652
 10
-27.1958
 20
19.0427
 10
-26.8594
 20
19.5145
 10
-26.5147
 20
19.9803
 10
-26.162
 20
20.44
 10
-25.8012
 20
20.8934
 10
-25.4327
 20
21.3405
 10
-25.0564
 20
21.7812
 10
-24.6724
 20
22.2151
 10
-24.2809
 20
22.6423
 10
-23.8821
 20
23.0627
 10
-23.4759
 20
23.4759
 10
-23.0627
 20
23.8821
 10
-22.6423
 20
24.2809
 10
-22.2151
 20
24.6724
 10
-21.7812
 20
25.0564
 10
-21.3405
 20
25.4327
 10
-20.8934
 20
25.8012
 10
-20.44
 20
26.162
 10
-19.9803
 20
26.5147
 10
-19.5145
 20
26.8594
 10
-19.0427
 20
27.1958
 10
-18.5652
 20
27.524
 10
-18.082
 20
27.8439
 10
-17.5933
 20
28.1552
 10
-17.0993
 20
28.458
 10
-16.6
 20
28.752
 10
-16.0957
 20
29.0374
 10
-15.5865
 20
29.3139
 10
-15.0725
 20
29.5814
 10
-14.5539
 20
29.84
 10
-14.0309
 20
30.0894
 10
-13.5037
 20
30.3297
 10
-12.9723
 20
30.5608
 10
-12.4369
 20
30.7825
 10
-11.8978
 20
30.9949
 10
-11.3551
 20
31.1978
 10
-10.8089
 20
31.3912
 10
-10.2594
 20
31.5751
 10
-9.70674
 20
31.7493
 10
-9.15116
 20
31.9139
 10
-8.59279
 20
32.0687
 10
-8.03181
 20
32.2138
 10
-7.46837
 20
32.3491
 10
-6.90267
 20
32.4745
 10
-6.33486
 20
32.59
 10
-5.76512
 20
32.6956
 10
-5.19362
 20
32.7913
 10
-4.62055
 20
32.8769
 10
-4.04606
 20
32.9525
 10
-3.47034
 20
33.0181
 10
-2.89357
 20
33.0737
 10
-2.31591
 20
33.1191
 10
-1.73755
 20
33.1545
 10
-1.15866
 20
33.1798
 10
-0.579419
 20
33.1949
 10
0
 20
33.2
 10
0.579419
 20
33.1949
 10
1.15866
 20
33.1798
 10
1.73755
 20
33.1545
 10
2.31591
 20
33.1191
 10
2.89357
 20
33.0737
 10
3.47034
 20
33.0181
 10
4.04606
 20
32.9525
 10
4.62055
 20
32.8769
 10
5.19362
 20
32.7913
 10
5.76512
 20
32.6956
 10
6.33486
 20
32.59
 10
6.90267
 20
32.4745
 10
7.46837
 20
32.3491
 10
8.03181
 20
32.2138
 10
8.59279
 20
32.0687
 10
9.15116
 20
31.9139
 10
9.70674
 20
31.7493
 10
10.2594
 20
31.5751
 10
10.8089
 20
31.3912
 10
11.3551
 20
31.1978
 10
11.8978
 20
30.9949
 10
12.4369
 20
30.7825
 10
12.9723
 20
30.5608
 10
13.5037
 20
30.3297
 10
14.0309
 20
30.0894
 10
14.5539
 20
29.84
 10
15.0725
 20
29.5814
 10
15.5865
 20
29.3139
 10
16.0957
 20
29.0374
 10
16.6
 20
28.752
 10
17.0993
 20
28.458
 10
17.5933
 20
28.1552
 10
18.082
 20
27.8439
 10
18.5652
 20
27.524
 10
19.0427
 20
27.1958
 10
19.5145
 20
26.8594
 10
19.9803
 20
26.5147
 10
20.44
 20
26.162
 10
20.8934
 20
25.8012
 10
21.3405
 20
25.4327
 10
21.7812
 20
25.0564
 10
22.2151
 20
24.6724
 10
22.6423
 20
24.2809
 10
23.0627
 20
23.8821
 10
23.4759
 20
23.4759
 10
23.8821
 20
23.0627
 10
24.2809
 20
22.6423
 10
24.6724
 20
22.2151
 10
25.0564
 20
21.7812
 10
25.4327
 20
21.3405
 10
25.8012
 20
20.8934
 10
26.162
 20
20.44
 10
26.5147
 20
19.9803
 10
26.8594
 20
19.5145
 10
27.1958
 20
19.0427
 10
27.524
 20
18.5652
 10
27.8439
 20
18.082
 10
28.1552
 20
17.5933
 10
28.458
 20
17.0993
 10
28.752
 20
16.6
 10
29.0374
 20
16.0957
 10
29.3139
 20
15.5865
 10
29.5814
 20
15.0725
 10
29.84
 20
14.5539
 10
30.0894
 20
14.0309
 10
30.3297
 20
13.5037
 10
30.5608
 20
12.9723
 10
30.7825
 20
12.4369
 10
30.9949
 20
11.8978
 10
31.1978
 20
11.3551
 10
31.3912
 20
10.8089
 10
31.5751
 20
10.2594
 10
31.7493
 20
9.70674
 10
31.9139
 20
9.15116
 10
32.0687
 20
8.59279
 10
32.2138
 20
8.03181
 10
32.3491
 20
7.46837
 10
32.4745
 20
6.90267
 10
32.59
 20
6.33486
 10
32.6956
 20
5.76512
 10
32.7913
 20
5.19362
 10
32.8769
 20
4.62055
 10
32.9525
 20
4.04606
 10
33.0181
 20
3.47034
 10
33.0737
 20
2.89357
 10
33.1191
 20
2.31591
 10
33.1545
 20
1.73755
 10
33.1798
 20
1.15866
 10
33.1949
 20
0.579419
 10
33.2
 20
0
 10
33.1949
 20
-0.579419
 10
33.1798
 20
-1.15866
 10
33.1545
 20
-1.73755
 10
33.1191
 20
-2.31591
 10
33.0737
 20
-2.89357
 10
33.0181
 20
-3.47034
 10
32.9525
 20
-4.04606
 10
32.8769
 20
-4.62055
 10
32.7913
 20
-5.19362
 10
32.6956
 20
-5.76512
 10
32.59
 20
-6.33486
 10
32.4745
 20
-6.90267
 10
32.3491
 20
-7.46837
 10
32.2138
 20
-8.03181
 10
32.0687
 20
-8.59279
 10
31.9139
 20
-9.15116
 10
31.7493
 20
-9.70674
 10
31.5751
 20
-10.2594
 10
31.3912
 20
-10.8089
 10
31.1978
 20
-11.3551
 10
30.9949
 20
-11.8978
 10
30.7825
 20
-12.4369
 10
30.5608
 20
-12.9723
 10
30.3297
 20
-13.5037
 10
30.0894
 20
-14.0309
 10
29.84
 20
-14.5539
 10
29.5814
 20
-15.0725
 10
29.3139
 20
-15.5865
 10
29.0374
 20
-16.0957
 10
28.752
 20
-16.6
 10
28.458
 20
-17.0993
 10
28.1552
 20
-17.5933
 10
27.8439
 20
-18.082
 10
27.524
 20
-18.5652
 10
27.1958
 20
-19.0427
 10
26.8594
 20
-19.5145
 10
26.5147
 20
-19.9803
 10
26.162
 20
-20.44
 10
25.8012
 20
-20.8934
 10
25.4327
 20
-21.3405
 10
25.0564
 20
-21.7812
 10
24.6724
 20
-22.2151
 10
24.2809
 20
-22.6423
 10
23.8821
 20
-23.0627
 10
23.4759
 20
-23.4759
 10
23.0627
 20
-23.8821
 10
22.6423
 20
-24.2809
 10
22.2151
 20
-24.6724
 10
21.7812
 20
-25.0564
 10
21.3405
 20
-25.4327
 10
20.8934
 20
-25.8012
 10
20.44
 20
-26.162
 10
19.9803
 20
-26.5147
 10
19.5145
 20
-26.8594
 10
19.0427
 20
-27.1958
 10
18.5652
 20
-27.524
 10
18.082
 20
-27.8439
 10
17.5933
 20
-28.1552
 10
17.0993
 20
-28.458
 10
16.6
 20
-28.752
 10
16.0957
 20
-29.0374
 10
15.5865
 20
-29.3139
 10
15.0725
 20
-29.5814
 10
14.5539
 20
-29.84
 10
14.0309
 20
-30.0894
 10
13.5037
 20
-30.3297
 10
12.9723
 20
-30.5608
 10
12.4369
 20
-30.7825
 10
11.8978
 20
-30.9949
 10
11.3551
 20
-31.1978
 10
10.8089
 20
-31.3912
 10
10.2594
 20
-31.5751
 10
9.70674
 20
-31.7493
 10
9.15116
 20
-31.9139
 10
8.59279
 20
-32.0687
 10
8.03181
 20
-32.2138
 10
7.46837
 20
-32.3491
 10
6.90267
 20
-32.4745
 10
6.33486
 20
-32.59
 10
5.76512
 20
-32.6956
 10
5.19362
 20
-32.7913
 10
4.62055
 20
-32.8769
 10
4.04606
 20
-32.9525
 10
3.47034
 20
-33.0181
 10
2.89357
 20
-33.0737
 10
2.31591
 20
-33.1191
 10
1.73755
 20
-33.1545
 10
1.15866
 20
-33.1798
 10
0.579419
 20
-33.1949
 10
0
 20
-33.2
 10
-0.579419
 20
-33.1949
 10
-1.15866
 20
-33.1798
 10
-1.73755
 20
-33.1545
 10
-2.31591
 20
-33.1191
 10
-2.89357
 20
-33.0737
 10
-3.47034
 20
-33.0181
 10
-4.04606
 20
-32.9525
 10
-4.62055
 20
-32.8769
 10
-5.19362
 20
-32.7913
 10
-5.76512
 20
-32.6956
 10
-6.33486
 20
-32.59
 10
-6.90267
 20
-32.4745
 10
-7.46837
 20
-32.3491
 10
-8.03181
 20
-32.2138
 10
-8.59279
 20
-32.0687
 10
-9.15116
 20
-31.9139
 10
-9.70674
 20
-31.7493
 10
-10.2594
 20
-31.5751
 10
-10.8089
 20
-31.3912
 10
-11.3551
 20
-31.1978
 10
-11.8978
 20
-30.9949
 10
-12.4369
 20
-30.7825
 10
-12.9723
 20
-30.5608
 10
-13.5037
 20
-30.3297
 10
-14.0309
 20
-30.0894
 10
-14.5539
 20
-29.84
 10
-15.0725
 20
-29.5814
 10
-15.5865
 20
-29.3139
 10
-16.0957
 20
-29.0374
 10
-16.6
 20
-28.752
 10
-17.0993
 20
-28.458
 10
-17.5933
 20
-28.1552
 10
-18.082
 20
-27.8439
 10
-18.5652
 20
-27.524
 10
-19.0427
 20
-27.1958
 10
-19.5145
 20
-26.8594
 10
-19.9803
 20
-26.5147
 10
-20.44
 20
-26.162
 10
-20.8934
 20
-25.8012
 10
-21.3405
 20
-25.4327
 10
-21.7812
 20
-25.0564
 10
-22.2151
 20
-24.6724
 10
-22.6423
 20
-24.2809
 10
-23.0627
 20
-23.8821
 10
-23.4759
 20
-23.4759
 10
-23.8821
 20
-23.0627
 10
-24.2809
 20
-22.6423
 10
-24.6724
 20
-22.2151
 10
-25.0564
 20
-21.7812
 10
-25.4327
 20
-21.3405
 10
-25.8012
 20
-20.8934
 10
-26.162
 20
-20.44
 10
-26.5147
 20
-19.9803
 10
-26.8594
 20
-19.5145
 10
-27.1958
 20
-19.0427
 10
-27.524
 20
-18.5652
 10
-27.8439
 20
-18.082
 10
-28.1552
 20
-17.5933
 10
-28.458
 20
-17.0993
 10
-28.752
 20
-16.6
 10
-29.0374
 20
-16.0957
 10
-29.3139
 20
-15.5865
 10
-29.5814
 20
-15.0725
 10
-29.84
 20
-14.5539
 10
-30.0894
 20
-14.0309
 10
-30.3297
 20
-13.5037
 10
-30.5608
 20
-12.9723
 10
-30.7825
 20
-12.4369
 10
-30.9949
 20
-11.8978
 10
-31.1978
 20
-11.3551
 10
-31.3912
 20
-10.8089
 10
-31.5751
 20
-10.2594
 10
-31.7493
 20
-9.70674
 10
-31.9139
 20
-9.15116
 10
-32.0687
 20
-8.59279
 10
-32.2138
 20
-8.03181
 10
-32.3491
 20
-7.46837
 10
-32.4745
 20
-6.90267
 10
-32.59
 20
-6.33486
 10
-32.6956
 20
-5.76512
 10
-32.7913
 20
-5.19362
 10
-32.8769
 20
-4.62055
 10
-32.9525
 20
-4.04606
 10
-33.0181
 20
-3.47034
 10
-33.0737
 20
-2.89357
 10
-33.1191
 20
-2.31591
 10
-33.1545
 20
-1.73755
 10
-33.1798
 20
-1.15866
 10
-33.1949
 20
-0.579419
  0
LWPOLYLINE
100
AcDbEntity
  8
0
100
AcDbPolyline
 90
60
 70
1
 10
-28.3667
 20
-46.188
 10
-28.3574
 20
-46.0103
 10
-28.3295
 20
-45.8346
 10
-28.2835
 20
-45.6627
 10
-28.2197
 20
-45.4966
 10
-28.1389
 20
-45.338
 10
-28.042
 20
-45.1888
 10
-27.93
 20
-45.0505
 10
-27.8042
 20
-44.9247
 10
-27.6659
 20
-44.8127
 10
-27.5167
 20
-44.7158
 10
-27.3581
 20
-44.635
 10
-27.192
 20
-44.5712
 10
-27.0201
 20
-44.5252
 10
-26.8444
 20
-44.4973
 10
-26.6667
 20
-44.488
 10
-26.489
 20
-44.4973
 10
-26.3132
 20
-44.5252
 10
-26.1413
 20
-44.5712
 10
-25.9752
 20
-44.635
 10
-25.8167
 20
-44.7158
 10
-25.6674
 20
-44.8127
 10
-25.5291
 20
-44.9247
 10
-25.4033
 20
-45.0505
 10
-25.2913
 20
-45.1888
 10
-25.1944
 20
-45.338
 10
-25.1136
 20
-45.4966
 10
-25.0499
 20
-45.6627
 10
-25.0038
 20
-45.8346
 10
-24.976
 20
-46.0103
 10
-24.9667
 20
-46.188
 10
-24.976
 20
-46.3657
 10
-25.0038
 20
-46.5415
 10
-25.0499
 20
-46.7134
 10
-25.1136
 20
-46.8795
 10
-25.1944
 20
-47.038
 10
-25.2913
 20
-47.1873
 10
-25.4033
 20
-47.3255
 10
-25.5291
 20
-47.4514
 10
-25.6674
 20
-47.5633
 10
-25.8167
 20
-47.6603
 10
-25.9752
 20
-47.741
 10
-26.1413
 20
-47.8048
 10
-26.3132
 20
-47.8509
 10
-26.489
 20
-47.8787
 10
-26.6667
 20
-47.888
 10
-26.8444
 20
-47.8787
 10
-27.0201
 20
-47.8509
 10
-27.192
 20
-47.8048
 10
-27.3581
 20
-47.741
 10
-27.5167
 20
-47.6603
 10
-27.6659
 20
-47.5633
 10
-27.8042
 20
-47.4514
 10
-27.93
 20
-47.3255
 10
-28.042
 20
-47.1873
 10
-28.1389
 20
-47.038
 10
-28.2197
 20
-46.8795
 10
-28.2835
 20
-46.7134
 10
-28.3295
 20
-46.5415
 10
-28.3574
 20
-46.3657
  0
LWPOLYLINE
100
AcDbEntity
  8
0
100
AcDbPolyline
 90
60
 70
1
 10
-28.3667
 20
46.188
 10
-28.3574
 20
46.3657
 10
-28.3295
 20
46.5415
 10
-28.2835
 20
46.7134
 10
-28.2197
 20
46.8795
 10
-28.1389
 20
47.038
 10
-28.042
 20
47.1873
 10
-27.93
 20
47.3255
 10
-27.8042
 20
47.4514
 10
-27.6659
 20
47.5633
 10
-27.5167
 20
47.6603
 10
-27.3581
 20
47.741
 10
-27.192
 20
47.8048
 10
-27.0201
 20
47.8509
 10
-26.8444
 20
47.8787
 10
-26.6667
 20
47.888
 10
-26.489
 20
47.8787
 10
-26.3132
 20
47.8509
 10
-26.1413
 20
47.8048
 10
-25.9752
 20
47.741
 10
-25.8167
 20
47.6603
 10
-25.6674
 20
47.5633
 10
-25.5291
 20
47.4514
 10
-25.4033
 20
47.3255
 10
-25.2913
 20
47.1873
 10
-25.1944
 20
47.038
 10
-25.1136
 20
46.8795
 10
-25.0499
 20
46.7134
 10
-25.0038
 20
46.5415
 10
-24.976
 20
46.3657
 10
-24.9667
 20
46.188
 10
-24.976
 20
46.0103
 10
-25.0038
 20
45.8346
 10
-25.0499
 20
45.6627
 10
-25.1136
 20
45.4966
 10
-25.1944
 20
45.338
 10
-25.2913
 20
45.1888
 10
-25.4033
 20
45.0505
 10
-25.5291
 20
44.9247
 10
-25.6674
 20
44.8127
 10
-25.8167
 20
44.7158
 10
-25.9752
 20
44.635
 10
-26.1413
 20
44.5712
 10
-26.3132
 20
44.5252
 10
-26.489
 20
44.4973
 10
-26.6667
 20
44.488
 10
-26.8444
 20
44.4973
 10
-27.0201
 20
44.5252
 10
-27.192
 20
44.5712
 10
-27.3581
 20
44.635
 10
-27.5167
 20
44.7158
 10
-27.6659
 20
44.8127
 10
-27.8042
 20
44.9247
 10
-27.93
 20
45.0505
 10
-28.042
 20
45.1888
 10
-28.1389
 20
45.338
 10
-28.2197
 20
45.4966
 10
-28.2835
 20
45.6627
 10
-28.3295
 20
45.8346
 10
-28.3574
 20
46.0103
  0
LWPOLYLINE
100
AcDbEntity
  8
0
100
AcDbPolyline
 90
30
 70
1
 10
-20.4461
 20
57.243
 10
-20.3938
 20
57.5734
 10
-20.2739
 20
57.8857
 10
-20.0918
 20
58.1662
 10
-19.8552
 20
58.4027
 10
-19.5747
 20
58.5849
 10
-19.2624
 20
58.7048
 10
-18.9321
 20
58.7571
 10
-18.598
 20
58.7396
 10
-18.2749
 20
58.653
 10
-17.9769
 20
58.5012
 10
-17.717
 20
58.2907
 10
-17.5065
 20
58.0307
 10
-17.3546
 20
57.7327
 10
-17.268
 20
57.4096
 10
-17.2505
 20
57.0756
 10
-17.3028
 20
56.7452
 10
-17.4227
 20
56.4329
 10
-17.6049
 20
56.1524
 10
-17.8414
 20
55.9159
 10
-18.1219
 20
55.7337
 10
-18.4342
 20
55.6138
 10
-18.7646
 20
55.5615
 10
-19.0986
 20
55.579
 10
-19.4217
 20
55.6656
 10
-19.7197
 20
55.8174
 10
-19.9797
 20
56.0279
 10
-20.1902
 20
56.2879
 10
-20.3421
 20
56.5859
 10
-20.4286
 20
56.909
  0
LWPOLYLINE
100
AcDbEntity
  8
0
100
AcDbPolyline
 90
30
 70
1
 10
-12.7137
 20
-90.6919
 10
-12.6831
 20
-90.2539
 10
-12.5621
 20
-89.8319
 10
-12.356
 20
-89.4443
 10
-12.0738
 20
-89.108
 10
-11.7278
 20
-88.8377
 10
-11.3333
 20
-88.6452
 10
-10.9073
 20
-88.539
 10
-10.4685
 20
-88.5237
 10
-10.0362
 20
-88.5999
 10
-9.62912
 20
-88.7644
 10
-9.26516
 20
-89.0099
 10
-8.96019
 20
-89.3257
 10
-8.72755
 20
-89.698
 10
-8.57739
 20
-90.1106
 10
-8.51629
 20
-90.5453
 10
-8.54692
 20
-90.9833
 10
-8.66793
 20
-91.4053
 10
-8.87404
 20
-91.7929
 10
-9.15623
 20
-92.1292
 10
-9.50218
 20
-92.3995
 10
-9.89677
 20
-92.592
 10
-10.3228
 20
-92.6982
 10
-10.7615
 20
-92.7135
 10
-11.1939
 20
-92.6372
 10
-11.6009
 20
-92.4728
 10
-11.9649
 20
-92.2273
 10
-12.2698
 20
-91.9115
 10
-12.5025
 20
-91.5392
 10
-12.6526
 20
-91.1266
  0
LWPOLYLINE
100
AcDbEntity
  8
0
100
AcDbPolyline
 90
30
 70
1
 10
-12.7137
 20
90.6919
 10
-12.6526
 20
91.1266
 10
-12.5025
 20
91.5392
 10
-12.2698
 20
91.9115
 10
-11.9649
 20
92.2273
 10
-11.6009
 20
92.4728
 10
-11.1939
 20
92.6372
 10
-10.7615
 20
92.7135
 10
-10.3228
 20
92.6982
 10
-9.89677
 20
92.592
 10
-9.50218
 20
92.3995
 10
-9.15623
 20
92.1292
 10
-8.87404
 20
91.7929
 10
-8.66793
 20
91.4053
 10
-8.54692
 20
90.9833
 10
-8.51629
 20
90.5453
 10
-8.57739
 20
90.1106
 10
-8.72755
 20
89.698
 10
-8.96019
 20
89.3257
 10
-9.26516
 20
89.0099
 10
-9.62912
 20
88.7644
 10
-10.0362
 20
88.5999
 10
-10.4685
 20
88.5237
 10
-10.9073
 20
88.539
 10
-11.3333
 20
88.6452
 10
-11.7278
 20
88.8377
 10
-12.0738
 20
89.108
 10
-12.356
 20
89.4443
 10
-12.5621
 20
89.8319
 10
-12.6831
 20
90.2539
  0
LWPOLYLINE
100
AcDbEntity
  8
0
100
AcDbPolyline
 90
60
 70
1
 10
-5.1
 20
-130
 10
-5.07206
 20
-129.467
 10
-4.98855
 20
-128.94
 10
-4.85039
 20
-128.424
 10
-4.65908
 20
-127.926
 10
-4.41673
 20
-127.45
 10
-4.12599
 20
-127.002
 10
-3.79004
 20
-126.587
 10
-3.41257
 20
-126.21
 10
-2.9977
 20
-125.874
 10
-2.55
 20
-125.583
 10
-2.07436
 20
-125.341
 10
-1.57599
 20
-125.15
 10
-1.06035
 20
-125.011
 10
-0.533094
 20
-124.928
 10
0
 20
-124.9
 10
0.533094
 20
-124.928
 10
1.06035
 20
-125.011
 10
1.57599
 20
-125.15
 10
2.07436
 20
-125.341
 10
2.55
 20
-125.583
 10
2.9977
 20
-125.874
 10
3.41257
 20
-126.21
 10
3.79004
 20
-126.587
 10
4.12599
 20
-127.002
 10
4.41673
 20
-127.45
 10
4.65908
 20
-127.926
 10
4.85039
 20
-128.424
 10
4.98855
 20
-128.94
 10
5.07206
 20
-129.467
 10
5.1
 20
-130
 10
5.07206
 20
-130.533
 10
4.98855
 20
-131.06
 10
4.85039
 20
-131.576
 10
4.65908
 20
-132.074
 10
4.41673
 20
-132.55
 10
4.12599
 20
-132.998
 10
3.79004
 20
-133.413
 10
3.41257
 20
-133.79
 10
2.9977
 20
-134.126
 10
2.55
 20
-134.417
 10
2.07436
 20
-134.659
 10
1.57599
 20
-134.85
 10
1.06035
 20
-134.989
 10
0.533094
 20
-135.072
 10
0
 20
-135.1
 10
-0.533094
 20
-135.072
 10
-1.06035
 20
-134.989
 10
-1.57599
 20
-134.85
 10
-2.07436
 20
-134.659
 10
-2.55
 20
-134.417
 10
-2.9977
 20
-134.126
 10
-3.41257
 20
-133.79
 10
-3.79004
 20
-133.413
 10
-4.12599
 20
-132.998
 10
-4.41673
 20
-132.55
 10
-4.65908
 20
-132.074
 10
-4.85039
 20
-131.576
 10
-4.98855
 20
-131.06
 10
-5.07206
 20
-130.533
  0
LWPOLYLINE
100
AcDbEntity
  8
0
100
AcDbPolyline
 90
60
 70
1
 10
-5.1
 20
130
 10
-5.07206
 20
130.533
 10
-4.98855
 20
131.06
 10
-4.85039
 20
131.576
 10
-4.65908
 20
132.074
 10
-4.41673
 20
132.55
 10
-4.12599
 20
132.998
 10
-3.79004
 20
133.413
 10
-3.41257
 20
133.79
 10
-2.9977
 20
134.126
 10
-2.55
 20
134.417
 10
-2.07436
 20
134.659
 10
-1.57599
 20
134.85
 10
-1.06035
 20
134.989
 10
-0.533094
 20
135.072
 10
0
 20
135.1
 10
0.533094
 20
135.072
 10
1.06035
 20
134.989
 10
1.57599
 20
134.85
 10
2.07436
 20
134.659
 10
2.55
 20
134.417
 10
2.9977
 20
134.126
 10
3.41257
 20
133.79
 10
3.79004
 20
133.413
 10
4.12599
 20
132.998
 10
4.41673
 20
132.55
 10
4.65908
 20
132.074
 10
4.85039
 20
131.576
 10
4.98855
 20
131.06
 10
5.07206
 20
130.533
 10
5.1
 20
130
 10
5.07206
 20
129.467
 10
4.98855
 20
128.94
 10
4.85039
 20
128.424
 10
4.65908
 20
127.926
 10
4.41673
 20
127.45
 10
4.12599
 20
127.002
 10
3.79004
 20
126.587
 10
3.41257
 20
126.21
 10
2.9977
 20
125.874
 10
2.55
 20
125.583
 10
2.07436
 20
125.341
 10
1.57599
 20
125.15
 10
1.06035
 20
125.011
 10
0.533094
 20
124.928
 10
0
 20
124.9
 10
-0.533094
 20
124.928
 10
-1.06035
 20
125.011
 10
-1.57599
 20
125.15
 10
-2.07436
 20
125.341
 10
-2.55
 20
125.583
 10
-2.9977
 20
125.874
 10
-3.41257
 20
126.21
 10
-3.79004
 20
126.587
 10
-4.12599
 20
127.002
 10
-4.41673
 20
127.45
 10
-4.65908
 20
127.926
 10
-4.85039
 20
128.424
 10
-4.98855
 20
128.94
 10
-5.07206
 20
129.467
  0
LWPOLYLINE
100
AcDbEntity
  8
0
100
AcDbPolyline
 90
30
 70
1
 10
-2.0885
 20
-60.2195
 10
-2.0885
 20
-59.7805
 10
-1.99722
 20
-59.3511
 10
-1.81865
 20
-58.95
 10
-1.5606
 20
-58.5948
 10
-1.23435
 20
-58.3011
 10
-0.854146
 20
-58.0816
 10
-0.436614
 20
-57.9459
 10
0
 20
-57.9
 10
0.436614
 20
-57.9459
 10
0.854146
 20
-58.0816
 10
1.23435
 20
-58.3011
 10
1.5606
 20
-58.5948
 10
1.81865
 20
-58.95
 10
1.99722
 20
-59.3511
 10
2.0885
 20
-59.7805
 10
2.0885
 20
-60.2195
 10
1.99722
 20
-60.6489
 10
1.81865
 20
-61.05
 10
1.5606
 20
-61.4052
 10
1.23435
 20
-61.6989
 10
0.854146
 20
-61.9184
 10
0.436614
 20
-62.0541
 10
0
 20
-62.1
 10
-0.436614
 20
-62.0541
 10
-0.854146
 20
-61.9184
 10
-1.23435
 20
-61.6989
 10
-1.5606
 20
-61.4052
 10
-1.81865
 20
-61.05
 10
-1.99722
 20
-60.6489
  0
LWPOLYLINE
100
AcDbEntity
  8
0
100
AcDbPolyline
 90
30
 70
1
 10
3.66325
 20
61.4463
 10
3.71558
 20
61.7767
 10
3.83545
 20
62.0889
 10
4.01763
 20
62.3695
 10
4.25415
 20
62.606
 10
4.53468
 20
62.7882
 10
4.84695
 20
62.908
 10
5.17732
 20
62.9604
 10
5.51136
 20
62.9428
 10
5.83445
 20
62.8563
 10
6.13248
 20
62.7044
 10
6.39243
 20
62.4939
 10
6.60293
 20
62.234
 10
6.75479
 20
61.9359
 10
6.84136
 20
61.6128
 10
6.85887
 20
61.2788
 10
6.80654
 20
60.9484
 10
6.68667
 20
60.6362
 10
6.5045
 20
60.3556
 10
6.26797
 20
60.1191
 10
5.98745
 20
59.9369
 10
5.67517
 20
59.8171
 10
5.3448
 20
59.7647
 10
5.01077
 20
59.7822
 10
4.68767
 20
59.8688
 10
4.38964
 20
60.0207
 10
4.12969
 20
60.2312
 10
3.91919
 20
60.4911
 10
3.76733
 20
60.7892
 10
3.68076
 20
61.1123
  0
LWPOLYLINE
100
AcDbEntity
  8
0
100
AcDbPolyline
 90
30
 70
1
 10
12.5193
 20
-102.701
 10
12.6106
 20
-102.272
 10
12.7891
 20
-101.871
 10
13.0472
 20
-101.515
 10
13.3734
 20
-101.222
 10
13.7536
 20
-101.002
 10
14.1712
 20
-100.866
 10
14.6078
 20
-100.821
 10
15.0444
 20
-100.866
 10
15.4619
 20
-101.002
 10
15.8421
 20
-101.222
 10
16.1684
 20
-101.515
 10
16.4264
 20
-101.871
 10
16.605
 20
-102.272
 10
16.6963
 20
-102.701
 10
16.6963
 20
-103.14
 10
16.605
 20
-103.57
 10
16.4264
 20
-103.971
 10
16.1684
 20
-104.326
 10
15.8421
 20
-104.62
 10
15.4619
 20
-104.839
 10
15.0444
 20
-104.975
 10
14.6078
 20
-105.021
 10
14.1712
 20
-104.975
 10
13.7536
 20
-104.839
 10
13.3734
 20
-104.62
 10
13.0472
 20
-104.326
 10
12.7891
 20
-103.971
 10
12.6106
 20
-103.57
 10
12.5193
 20
-103.14
  0
LWPOLYLINE
100
AcDbEntity
  8
0
100
AcDbPolyline
 90
30
 70
1
 10
12.5193
 20
102.701
 10
12.5193
 20
103.14
 10
12.6106
 20
103.57
 10
12.7891
 20
103.971
 10
13.0472
 20
104.326
 10
13.3734
 20
104.62
 10
13.7536
 20
104.839
 10
14.1712
 20
104.975
 10
14.6078
 20
105.021
 10
15.0444
 20
104.975
 10
15.4619
 20
104.839
 10
15.8421
 20
104.62
 10
16.1684
 20
104.326
 10
16.4264
 20
103.971
 10
16.605
 20
103.57
 10
16.6963
 20
103.14
 10
16.6963
 20
102.701
 10
16.605
 20
102.272
 10
16.4264
 20
101.871
 10
16.1684
 20
101.515
 10
15.8421
 20
101.222
 10
15.4619
 20
101.002
 10
15.0444
 20
100.866
 10
14.6078
 20
100.821
 10
14.1712
 20
100.866
 10
13.7536
 20
101.002
 10
13.3734
 20
101.222
 10
13.0472
 20
101.515
 10
12.7891
 20
101.871
 10
12.6106
 20
102.272
  0
LWPOLYLINE
100
AcDbEntity
  8
0
100
AcDbPolyline
 90
60
 70
1
 10
22.5667
 20
-46.188
 10
22.5891
 20
-45.7595
 10
22.6563
 20
-45.3356
 10
22.7673
 20
-44.9211
 10
22.9211
 20
-44.5204
 10
23.116
 20
-44.138
 10
23.3497
 20
-43.7781
 10
23.6198
 20
-43.4446
 10
23.9232
 20
-43.1411
 10
24.2567
 20
-42.8711
 10
24.6167
 20
-42.6373
 10
24.999
 20
-42.4425
 10
25.3997
 20
-42.2887
 10
25.8142
 20
-42.1776
 10
26.2381
 20
-42.1105
 10
26.6667
 20
-42.088
 10
27.0952
 20
-42.1105
 10
27.5191
 20
-42.1776
 10
27.9336
 20
-42.2887
 10
28.3343
 20
-42.4425
 10
28.7167
 20
-42.6373
 10
29.0766
 20
-42.8711
 10
29.4101
 20
-43.1411
 10
29.7136
 20
-43.4446
 10
29.9836
 20
-43.7781
 10
30.2174
 20
-44.138
 10
30.4122
 20
-44.5204
 10
30.566
 20
-44.9211
 10
30.6771
 20
-45.3356
 10
30.7442
 20
-45.7595
 10
30.7667
 20
-46.188
 10
30.7442
 20
-46.6166
 10
30.6771
 20
-47.0405
 10
30.566
 20
-47.455
 10
30.4122
 20
-47.8556
 10
30.2174
 20
-48.238
 10
29.9836
 20
-48.5979
 10
29.7136
 20
-48.9315
 10
29.4101
 20
-49.2349
 10
29.0766
 20
-49.505
 10
28.7167
 20
-49.7387
 10
28.3343
 20
-49.9336
 10
27.9336
 20
-50.0874
 10
27.5191
 20
-50.1984
 10
27.0952
 20
-50.2656
 10
26.6667
 20
-50.288
 10
26.2381
 20
-50.2656
 10
25.8142
 20
-50.1984
 10
25.3997
 20
-50.0874
 10
24.999
 20
-49.9336
 10
24.6167
 20
-49.7387
 10
24.2567
 20
-49.505
 10
23.9232
 20
-49.2349
 10
23.6198
 20
-48.9315
 10
23.3497
 20
-48.5979
 10
23.116
 20
-48.238
 10
22.9211
 20
-47.8556
 10
22.7673
 20
-47.455
 10
22.6563
 20
-47.0405
 10
22.5891
 20
-46.6166
  0
LWPOLYLINE
100
AcDbEntity
  8
0
100
AcDbPolyline
 90
60
 70
1
 10
22.5667
 20
46.188
 10
22.5891
 20
46.6166
 10
22.6563
 20
47.0405
 10
22.7673
 20
47.455
 10
22.9211
 20
47.8556
 10
23.116
 20
48.238
 10
23.3497
 20
48.5979
 10
23.6198
 20
48.9315
 10
23.9232
 20
49.2349
 10
24.2567
 20
49.505
 10
24.6167
 20
49.7387
 10
24.999
 20
49.9336
 10
25.3997
 20
50.0874
 10
25.8142
 20
50.1984
 10
26.2381
 20
50.2656
 10
26.6667
 20
50.288
 10
27.0952
 20
50.2656
 10
27.5191
 20
50.1984
 10
27.9336
 20
50.0874
 10
28.3343
 20
49.9336
 10
28.7167
 20
49.7387
 10
29.0766
 20
49.505
 10
29.4101
 20
49.2349
 10
29.7136
 20
48.9315
 10
29.9836
 20
48.5979
 10
30.2174
 20
48.238
 10
30.4122
 20
47.8556
 10
30.566
 20
47.455
 10
30.6771
 20
47.0405
 10
30.7442
 20
46.6166
 10
30.7667
 20
46.188
 10
30.7442
 20
45.7595
 10
30.6771
 20
45.3356
 10
30.566
 20
44.9211
 10
30.4122
 20
44.5204
 10
30.2174
 20
44.138
 10
29.9836
 20
43.7781
 10
29.7136
 20
43.4446
 10
29.4101
 20
43.1411
 10
29.0766
 20
42.8711
 10
28.7167
 20
42.6373
 10
28.3343
 20
42.4425
 10
27.9336
 20
42.2887
 10
27.5191
 20
42.1776
 10
27.0952
 20
42.1105
 10
26.6667
 20
42.088
 10
26.2381
 20
42.1105
 10
25.8142
 20
42.1776
 10
25.3997
 20
42.2887
 10
24.999
 20
42.4425
 10
24.6167
 20
42.6373
 10
24.2567
 20
42.8711
 10
23.9232
 20
43.1411
 10
23.6198
 20
43.4446
 10
23.3497
 20
43.7781
 10
23.116
 20
44.138
 10
22.9211
 20
44.5204
 10
22.7673
 20
44.9211
 10
22.6563
 20
45.3356
 10
22.5891
 20
45.7595
  0
LWPOLYLINE
100
AcDbEntity
  8
0
100
AcDbPolyline
 90
30
 70
1
 10
40.5549
 20
-101.868
 10
40.616
 20
-101.433
 10
40.7662
 20
-101.021
 10
40.9988
 20
-100.648
 10
41.3038
 20
-100.333
 10
41.6677
 20
-100.087
 10
42.0748
 20
-99.9225
 10
42.5071
 20
-99.8463
 10
42.9459
 20
-99.8616
 10
43.3719
 20
-99.9678
 10
43.7665
 20
-100.16
 10
44.1124
 20
-100.431
 10
44.3946
 20
-100.767
 10
44.6007
 20
-101.155
 10
44.7217
 20
-101.577
 10
44.7524
 20
-102.014
 10
44.6913
 20
-102.449
 10
44.5411
 20
-102.862
 10
44.3085
 20
-103.234
 10
44.0035
 20
-103.55
 10
43.6395
 20
-103.795
 10
43.2325
 20
-103.96
 10
42.8001
 20
-104.036
 10
42.3614
 20
-104.021
 10
41.9354
 20
-103.915
 10
41.5408
 20
-103.722
 10
41.1949
 20
-103.452
 10
40.9127
 20
-103.116
 10
40.7065
 20
-102.728
 10
40.5855
 20
-102.306
  0
LWPOLYLINE
100
AcDbEntity
  8
0
100
AcDbPolyline
 90
30
 70
1
 10
40.5549
 20
101.868
 10
40.5855
 20
102.306
 10
40.7065
 20
102.728
 10
40.9127
 20
103.116
 10
41.1949
 20
103.452
 10
41.5408
 20
103.722
 10
41.9354
 20
103.915
 10
42.3614
 20
104.021
 10
42.8001
 20
104.036
 10
43.2325
 20
103.96
 10
43.6395
 20
103.795
 10
44.0035
 20
103.55
 10
44.3085
 20
103.234
 10
44.5411
 20
102.862
 10
44.6913
 20
102.449
 10
44.7524
 20
102.014
 10
44.7217
 20
101.577
 10
44.6007
 20
101.155
 10
44.3946
 20
100.767
 10
44.1124
 20
100.431
 10
43.7665
 20
100.16
 10
43.3719
 20
99.9678
 10
42.9459
 20
99.8616
 10
42.5071
 20
99.8463
 10
42.0748
 20
99.9225
 10
41.6677
 20
100.087
 10
41.3038
 20
100.333
 10
40.9988
 20
100.648
 10
40.7662
 20
101.021
 10
40.616
 20
101.433
  0
LWPOLYLINE
100
AcDbEntity
  8
0
100
AcDbPolyline
 90
60
 70
1
 10
51.6333
 20
0
 10
51.6426
 20
0.177698
 10
51.6705
 20
0.35345
 10
51.7165
 20
0.525329
 10
51.7803
 20
0.691452
 10
51.8611
 20
0.849999
 10
51.958
 20
0.999234
 10
52.07
 20
1.13752
 10
52.1958
 20
1.26335
 10
52.3341
 20
1.37533
 10
52.4833
 20
1.47224
 10
52.6419
 20
1.55303
 10
52.808
 20
1.6168
 10
52.9799
 20
1.66285
 10
53.1556
 20
1.69069
 10
53.3333
 20
1.7
 10
53.511
 20
1.69069
 10
53.6868
 20
1.66285
 10
53.8587
 20
1.6168
 10
54.0248
 20
1.55303
 10
54.1833
 20
1.47224
 10
54.3326
 20
1.37533
 10
54.4709
 20
1.26335
 10
54.5967
 20
1.13752
 10
54.7087
 20
0.999234
 10
54.8056
 20
0.849999
 10
54.8864
 20
0.691452
 10
54.9501
 20
0.525329
 10
54.9962
 20
0.35345
 10
55.024
 20
0.177698
 10
55.0333
 20
0
 10
55.024
 20
-0.177698
 10
54.9962
 20
-0.35345
 10
54.9501
 20
-0.525329
 10
54.8864
 20
-0.691452
 10
54.8056
 20
-0.849999
 10
54.7087
 20
-0.999234
 10
54.5967
 20
-1.13752
 10
54.4709
 20
-1.26335
 10
54.3326
 20
-1.37533
 10
54.1833
 20
-1.47224
 10
54.0248
 20
-1.55303
 10
53.8587
 20
-1.6168
 10
53.6868
 20
-1.66285
 10
53.511
 20
-1.69069
 10
53.3333
 20
-1.7
 10
53.1556
 20
-1.69069
 10
52.9799
 20
-1.66285
 10
52.808
 20
-1.6168
 10
52.6419
 20
-1.55303
 10
52.4833
 20
-1.47224
 10
52.3341
 20
-1.37533
 10
52.1958
 20
-1.26335
 10
52.07
 20
-1.13752
 10
51.958
 20
-0.999234
 10
51.8611
 20
-0.849999
 10
51.7803
 20
-0.691452
 10
51.7165
 20
-0.525329
 10
51.6705
 20
-0.35345
 10
51.6426
 20
-0.177698
  0
LWPOLYLINE
100
AcDbEntity
  8
0
100
AcDbPolyline
 90
30
 70
1
 10
64.8581
 20
-87.983
 10
64.8888
 20
-87.5451
 10
65.0098
 20
-87.1231
 10
65.2159
 20
-86.7354
 10
65.4981
 20
-86.3991
 10
65.844
 20
-86.1288
 10
66.2386
 20
-85.9364
 10
66.6646
 20
-85.8302
 10
67.1033
 20
-85.8148
 10
67.5357
 20
-85.8911
 10
67.9427
 20
-86.0555
 10
68.3067
 20
-86.301
 10
68.6117
 20
-86.6168
 10
68.8443
 20
-86.9891
 10
68.9945
 20
-87.4017
 10
69.0556
 20
-87.8364
 10
69.0249
 20
-88.2744
 10
68.9039
 20
-88.6964
 10
68.6978
 20
-89.084
 10
68.4156
 20
-89.4203
 10
68.0697
 20
-89.6906
 10
67.6751
 20
-89.8831
 10
67.2491
 20
-89.9893
 10
66.8104
 20
-90.0046
 10
66.378
 20
-89.9284
 10
65.971
 20
-89.7639
 10
65.607
 20
-89.5184
 10
65.302
 20
-89.2026
 10
65.0694
 20
-88.8303
 10
64.9192
 20
-88.4178
  0
LWPOLYLINE
100
AcDbEntity
  8
0
100
AcDbPolyline
 90
30
 70
1
 10
64.8581
 20
87.983
 10
64.9192
 20
88.4178
 10
65.0694
 20
88.8303
 10
65.302
 20
89.2026
 10
65.607
 20
89.5184
 10
65.971
 20
89.7639
 10
66.378
 20
89.9284
 10
66.8104
 20
90.0046
 10
67.2491
 20
89.9893
 10
67.6751
 20
89.8831
 10
68.0697
 20
89.6906
 10
68.4156
 20
89.4203
 10
68.6978
 20
89.084
 10
68.9039
 20
88.6964
 10
69.0249
 20
88.2744
 10
69.0556
 20
87.8364
 10
68.9945
 20
87.4017
 10
68.8443
 20
86.9891
 10
68.6117
 20
86.6168
 10
68.3067
 20
86.301
 10
67.9427
 20
86.0555
 10
67.5357
 20
85.8911
 10
67.1033
 20
85.8148
 10
66.6646
 20
85.8302
 10
66.2386
 20
85.9364
 10
65.844
 20
86.1288
 10
65.4981
 20
86.3991
 10
65.2159
 20
86.7354
 10
65.0098
 20
87.1231
 10
64.8888
 20
87.5451
  0
LWPOLYLINE
100
AcDbEntity
  8
0
100
AcDbPolyline
 90
30
 70
1
 10
79.7394
 20
-63.8915
 10
79.8307
 20
-63.4621
 10
80.0093
 20
-63.061
 10
80.2673
 20
-62.7058
 10
80.5936
 20
-62.4121
 10
80.9738
 20
-62.1926
 10
81.3913
 20
-62.0569
 10
81.8279
 20
-62.011
 10
82.2646
 20
-62.0569
 10
82.6821
 20
-62.1926
 10
83.0623
 20
-62.4121
 10
83.3885
 20
-62.7058
 10
83.6466
 20
-63.061
 10
83.8252
 20
-63.4621
 10
83.9164
 20
-63.8915
 10
83.9164
 20
-64.3305
 10
83.8252
 20
-64.7599
 10
83.6466
 20
-65.161
 10
83.3885
 20
-65.5162
 10
83.0623
 20
-65.8099
 10
82.6821
 20
-66.0295
 10
82.2646
 20
-66.1651
 10
81.8279
 20
-66.211
 10
81.3913
 20
-66.1651
 10
80.9738
 20
-66.0295
 10
80.5936
 20
-65.8099
 10
80.2673
 20
-65.5162
 10
80.0093
 20
-65.161
 10
79.8307
 20
-64.7599
 10
79.7394
 20
-64.3305
  0
LWPOLYLINE
100
AcDbEntity
  8
0
100
AcDbPolyline
 90
30
 70
1
 10
79.7394
 20
63.8915
 10
79.7394
 20
64.3305
 10
79.8307
 20
64.7599
 10
80.0093
 20
65.161
 10
80.2673
 20
65.5162
 10
80.5936
 20
65.8099
 10
80.9738
 20
66.0295
 10
81.3913
 20
66.1651
 10
81.8279
 20
66.211
 10
82.2646
 20
66.1651
 10
82.6821
 20
66.0295
 10
83.0623
 20
65.8099
 10
83.3885
 20
65.5162
 10
83.6466
 20
65.161
 10
83.8252
 20
64.7599
 10
83.9164
 20
64.3305
 10
83.9164
 20
63.8915
 10
83.8252
 20
63.4621
 10
83.6466
 20
63.061
 10
83.3885
 20
62.7058
 10
83.0623
 20
62.4121
 10
82.6821
 20
62.1926
 10
82.2646
 20
62.0569
 10
81.8279
 20
62.011
 10
81.3913
 20
62.0569
 10
80.9738
 20
62.1926
 10
80.5936
 20
62.4121
 10
80.2673
 20
62.7058
 10
80.0093
 20
63.061
 10
79.8307
 20
63.4621
  0
LWPOLYLINE
100
AcDbEntity
  8
0
100
AcDbPolyline
 90
30
 70
1
 10
81.6868
 20
-36.0431
 10
81.7479
 20
-35.6084
 10
81.898
 20
-35.1958
 10
82.1307
 20
-34.8235
 10
82.4357
 20
-34.5077
 10
82.7996
 20
-34.2622
 10
83.2067
 20
-34.0978
 10
83.639
 20
-34.0215
 10
84.0778
 20
-34.0369
 10
84.5038
 20
-34.1431
 10
84.8983
 20
-34.3355
 10
85.2443
 20
-34.6058
 10
85.5265
 20
-34.9421
 10
85.7326
 20
-35.3298
 10
85.8536
 20
-35.7518
 10
85.8842
 20
-36.1897
 10
85.8231
 20
-36.6245
 10
85.673
 20
-37.037
 10
85.4403
 20
-37.4093
 10
85.1354
 20
-37.7251
 10
84.7714
 20
-37.9706
 10
84.3644
 20
-38.1351
 10
83.932
 20
-38.2113
 10
83.4933
 20
-38.196
 10
83.0673
 20
-38.0898
 10
82.6727
 20
-37.8973
 10
82.3267
 20
-37.627
 10
82.0445
 20
-37.2907
 10
81.8384
 20
-36.9031
 10
81.7174
 20
-36.4811
  0
LWPOLYLINE
100
AcDbEntity
  8
0
100
AcDbPolyline
 90
30
 70
1
 10
81.6868
 20
36.0431
 10
81.7174
 20
36.4811
 10
81.8384
 20
36.9031
 10
82.0445
 20
37.2907
 10
82.3267
 20
37.627
 10
82.6727
 20
37.8973
 10
83.0673
 20
38.0898
 10
83.4933
 20
38.196
 10
83.932
 20
38.2113
 10
84.3644
 20
38.1351
 10
84.7714
 20
37.9706
 10
85.1354
 20
37.7251
 10
85.4403
 20
37.4093
 10
85.673
 20
37.037
 10
85.8231
 20
36.6245
 10
85.8842
 20
36.1897
 10
85.8536
 20
35.7518
 10
85.7326
 20
35.3298
 10
85.5265
 20
34.9421
 10
85.2443
 20
34.6058
 10
84.8983
 20
34.3355
 10
84.5038
 20
34.1431
 10
84.0778
 20
34.0369
 10
83.639
 20
34.0215
 10
83.2067
 20
34.0978
 10
82.7996
 20
34.2622
 10
82.4357
 20
34.5077
 10
82.1307
 20
34.8235
 10
81.898
 20
35.1958
 10
81.7479
 20
35.6084
  0
LWPOLYLINE
100
AcDbEntity
  8
0
100
AcDbPolyline
 90
30
 70
1
 10
93.9
 20
0
 10
93.9459
 20
0.436614
 10
94.0816
 20
0.854146
 10
94.3011
 20
1.23435
 10
94.5948
 20
1.5606
 10
94.95
 20
1.81865
 10
95.3511
 20
1.99722
 10
95.7805
 20
2.0885
 10
96.2195
 20
2.0885
 10
96.6489
 20
1.99722
 10
97.05
 20
1.81865
 10
97.4052
 20
1.5606
 10
97.6989
 20
1.23435
 10
97.9184
 20
0.854146
 10
98.0541
 20
0.436614
 10
98.1
 20
0
 10
98.0541
 20
-0.436614
 10
97.9184
 20
-0.854146
 10
97.6989
 20
-1.23435
 10
97.4052
 20
-1.5606
 10
97.05
 20
-1.81865
 10
96.6489
 20
-1.99722
 10
96.2195
 20
-2.0885
 10
95.7805
 20
-2.0885
 10
95.3511
 20
-1.99722
 10
94.95
 20
-1.81865
 10
94.5948
 20
-1.5606
 10
94.3011
 20
-1.23435
 10
94.0816
 20
-0.854146
 10
93.9459
 20
-0.436614
  0
ENDSEC
  0
EOF
