999
DXF from OpenSCAD
  0
SECTION
  2
HEADER
  9
$ACADVER
  1
AC1006
  9
$INSBASE
 10
0.0
 20
0.0
 30
0.0
  9
$EXTMIN
 10
-122.667
 20
-150.4
  9
$EXTMAX
 10
96
 20
150.4
  9
$LINMIN
 10
-122.667
 20
-150.4
  9
$LINMAX
 10
96
 20
150.4
  0
ENDSEC
  0
SECTION
  2
TABLES
  0
TABLE
  2
LTYPE
 70
1
  0
LTYPE
  2
CONTINUOUS
 70
64
  3
Solid line
 72
65
 73
0
 40
0.000000
  0
ENDTAB
  0
TABLE
  2
LAYER
 70
6
  0
LAYER
  2
0
 70
64
 62
7
  6
CONTINUOUS
  0
ENDTAB
  0
TABLE
  2
STYLE
 70
0
  0
ENDTAB
  0
ENDSEC
  0
SECTION
  2
BLOCKS
  0
ENDSEC
  0
SECTION
  2
ENTITIES
  0
LWPOLYLINE
100
AcDbEntity
  8
0
100
AcDbPolyline
 90
222
 70
1
 10
-122.667
 20
0
 10
-122.656
 20
-1.21003
 10
-122.624
 20
-2.4197
 10
-122.572
 20
-3.62863
 10
-122.498
 20
-4.83645
 10
-122.403
 20
-6.0428
 10
-122.287
 20
-7.24731
 10
-122.15
 20
-8.44961
 10
-121.992
 20
-9.64933
 10
-121.813
 20
-10.8461
 10
-121.613
 20
-12.0396
 10
-121.393
 20
-13.2294
 10
-121.152
 20
-14.4152
 10
-120.89
 20
-15.5966
 10
-120.607
 20
-16.7733
 10
-120.304
 20
-17.9448
 10
-119.981
 20
-19.1109
 10
-119.637
 20
-20.2711
 10
-119.273
 20
-21.4252
 10
-118.889
 20
-22.5727
 10
-118.485
 20
-23.7134
 10
-118.062
 20
-24.8468
 10
-117.618
 20
-25.9727
 10
-117.155
 20
-27.0907
 10
-116.672
 20
-28.2004
 10
-116.171
 20
-29.3015
 10
-115.65
 20
-30.3937
 10
-115.11
 20
-31.4767
 10
-114.551
 20
-32.55
 10
-113.974
 20
-33.6135
 10
-113.378
 20
-34.6667
 10
-112.764
 20
-35.7093
 10
-112.131
 20
-36.7411
 10
-111.481
 20
-37.7616
 10
-110.813
 20
-38.7707
 10
-110.128
 20
-39.768
 10
-109.425
 20
-40.7531
 10
-108.705
 20
-41.7258
 10
-107.969
 20
-42.6859
 10
-107.215
 20
-43.6329
 10
-106.446
 20
-44.5666
 10
-105.66
 20
-45.4868
 10
-104.858
 20
-46.3931
 10
-104.041
 20
-47.2852
 10
-15.1602
 20
-143.65
 10
-13.6503
 20
-145.16
 10
-11.9908
 20
-146.504
 10
-10.2
 20
-147.667
 10
-8.29743
 20
-148.636
 10
-6.30395
 20
-149.402
 10
-4.2414
 20
-149.954
 10
-2.13238
 20
-150.288
 10
0
 20
-150.4
 10
2.13238
 20
-150.288
 10
4.2414
 20
-149.954
 10
6.30395
 20
-149.402
 10
8.29743
 20
-148.636
 10
10.2
 20
-147.667
 10
11.9908
 20
-146.504
 10
70.2995
 20
-100.07
 10
71.2333
 20
-99.3004
 10
72.1534
 20
-98.5146
 10
73.0597
 20
-97.7127
 10
73.9519
 20
-96.8952
 10
74.8296
 20
-96.0622
 10
75.6927
 20
-95.2141
 10
76.5409
 20
-94.351
 10
77.3739
 20
-93.4732
 10
78.1914
 20
-92.5811
 10
78.9932
 20
-91.6748
 10
79.7791
 20
-90.7546
 10
80.5488
 20
-89.8209
 10
81.3021
 20
-88.8739
 10
82.0387
 20
-87.9139
 10
82.7585
 20
-86.9411
 10
83.4612
 20
-85.956
 10
84.1466
 20
-84.9587
 10
84.8145
 20
-83.9497
 10
85.4647
 20
-82.9291
 10
86.0969
 20
-81.8973
 10
86.7111
 20
-80.8547
 10
87.307
 20
-79.8015
 10
87.8844
 20
-78.738
 10
88.4431
 20
-77.6647
 10
88.9831
 20
-76.5818
 10
89.504
 20
-75.4896
 10
90.0058
 20
-74.3884
 10
90.4883
 20
-73.2787
 10
90.9514
 20
-72.1607
 10
91.3949
 20
-71.0349
 10
91.8187
 20
-69.9014
 10
92.2226
 20
-68.7607
 10
92.6066
 20
-67.6132
 10
92.9705
 20
-66.4591
 10
93.3141
 20
-65.2989
 10
93.6375
 20
-64.1328
 10
93.9405
 20
-62.9613
 10
94.223
 20
-61.7846
 10
94.4849
 20
-60.6032
 10
94.7262
 20
-59.4174
 10
94.9467
 20
-58.2276
 10
95.1464
 20
-57.0341
 10
95.3253
 20
-55.8374
 10
95.4832
 20
-54.6376
 10
95.6202
 20
-53.4353
 10
95.7362
 20
-52.2308
 10
95.8311
 20
-51.0245
 10
95.905
 20
-49.8166
 10
95.9578
 20
-48.6077
 10
95.9894
 20
-47.3981
 10
96
 20
-46.188
 10
96
 20
0
 10
96
 20
46.188
 10
95.9894
 20
47.3981
 10
95.9578
 20
48.6077
 10
95.905
 20
49.8166
 10
95.8311
 20
51.0245
 10
95.7362
 20
52.2308
 10
95.6202
 20
53.4353
 10
95.4832
 20
54.6376
 10
95.3253
 20
55.8374
 10
95.1464
 20
57.0341
 10
94.9467
 20
58.2276
 10
94.7262
 20
59.4174
 10
94.4849
 20
60.6032
 10
94.223
 20
61.7846
 10
93.9405
 20
62.9613
 10
93.6375
 20
64.1328
 10
93.3141
 20
65.2989
 10
92.9705
 20
66.4591
 10
92.6066
 20
67.6132
 10
92.2226
 20
68.7607
 10
91.8187
 20
69.9014
 10
91.3949
 20
71.0349
 10
90.9514
 20
72.1607
 10
90.4883
 20
73.2787
 10
90.0058
 20
74.3884
 10
89.504
 20
75.4896
 10
88.9831
 20
76.5818
 10
88.4431
 20
77.6647
 10
87.8844
 20
78.738
 10
87.307
 20
79.8015
 10
86.7111
 20
80.8547
 10
86.0969
 20
81.8973
 10
85.4647
 20
82.9291
 10
84.8145
 20
83.9497
 10
84.1466
 20
84.9587
 10
83.4612
 20
85.956
 10
82.7585
 20
86.9411
 10
82.0387
 20
87.9139
 10
81.3021
 20
88.8739
 10
80.5488
 20
89.8209
 10
79.7791
 20
90.7546
 10
78.9932
 20
91.6748
 10
78.1914
 20
92.5811
 10
77.3739
 20
93.4732
 10
76.5409
 20
94.351
 10
75.6927
 20
95.2141
 10
74.8296
 20
96.0622
 10
73.9519
 20
96.8952
 10
73.0597
 20
97.7127
 10
72.1534
 20
98.5146
 10
71.2333
 20
99.3004
 10
70.2995
 20
100.07
 10
11.9908
 20
146.504
 10
10.2
 20
147.667
 10
8.29743
 20
148.636
 10
6.30395
 20
149.402
 10
4.2414
 20
149.954
 10
2.13238
 20
150.288
 10
0
 20
150.4
 10
-2.13238
 20
150.288
 10
-4.2414
 20
149.954
 10
-6.30395
 20
149.402
 10
-8.29743
 20
148.636
 10
-10.2
 20
147.667
 10
-11.9908
 20
146.504
 10
-13.6503
 20
145.16
 10
-15.1602
 20
143.65
 10
-104.041
 20
47.2852
 10
-104.858
 20
46.3931
 10
-105.66
 20
45.4868
 10
-106.446
 20
44.5666
 10
-107.215
 20
43.6329
 10
-107.969
 20
42.6859
 10
-108.705
 20
41.7258
 10
-109.425
 20
40.7531
 10
-110.128
 20
39.768
 10
-110.813
 20
38.7707
 10
-111.481
 20
37.7616
 10
-112.131
 20
36.7411
 10
-112.764
 20
35.7093
 10
-113.378
 20
34.6667
 10
-113.974
 20
33.6135
 10
-114.551
 20
32.55
 10
-115.11
 20
31.4767
 10
-115.65
 20
30.3937
 10
-116.171
 20
29.3015
 10
-116.672
 20
28.2004
 10
-117.155
 20
27.0907
 10
-117.618
 20
25.9727
 10
-118.062
 20
24.8468
 10
-118.485
 20
23.7134
 10
-118.889
 20
22.5727
 10
-119.273
 20
21.4252
 10
-119.637
 20
20.2711
 10
-119.981
 20
19.1109
 10
-120.304
 20
17.9448
 10
-120.607
 20
16.7733
 10
-120.89
 20
15.5966
 10
-121.152
 20
14.4152
 10
-121.393
 20
13.2294
 10
-121.613
 20
12.0396
 10
-121.813
 20
10.8461
 10
-121.992
 20
9.64933
 10
-122.15
 20
8.44961
 10
-122.287
 20
7.24731
 10
-122.403
 20
6.0428
 10
-122.498
 20
4.83645
 10
-122.572
 20
3.62863
 10
-122.624
 20
2.4197
 10
-122.656
 20
1.21003
  0
LWPOLYLINE
100
AcDbEntity
  8
0
100
AcDbPolyline
 90
30
 70
1
 10
-116.767
 20
0
 10
-116.721
 20
0.436614
 10
-116.585
 20
0.854146
 10
-116.366
 20
1.23435
 10
-116.072
 20
1.5606
 10
-115.717
 20
1.81865
 10
-115.316
 20
1.99722
 10
-114.886
 20
2.0885
 10
-114.447
 20
2.0885
 10
-114.018
 20
1.99722
 10
-113.617
 20
1.81865
 10
-113.261
 20
1.5606
 10
-112.968
 20
1.23435
 10
-112.748
 20
0.854146
 10
-112.613
 20
0.436614
 10
-112.567
 20
0
 10
-112.613
 20
-0.436614
 10
-112.748
 20
-0.854146
 10
-112.968
 20
-1.23435
 10
-113.261
 20
-1.5606
 10
-113.617
 20
-1.81865
 10
-114.018
 20
-1.99722
 10
-114.447
 20
-2.0885
 10
-114.886
 20
-2.0885
 10
-115.316
 20
-1.99722
 10
-115.717
 20
-1.81865
 10
-116.072
 20
-1.5606
 10
-116.366
 20
-1.23435
 10
-116.585
 20
-0.854146
 10
-116.721
 20
-0.436614
  0
LWPOLYLINE
100
AcDbEntity
  8
0
100
AcDbPolyline
 90
30
 70
1
 10
-113.063
 20
-20.8307
 10
-112.986
 20
-20.3984
 10
-112.822
 20
-19.9913
 10
-112.577
 20
-19.6274
 10
-112.261
 20
-19.3224
 10
-111.888
 20
-19.0898
 10
-111.476
 20
-18.9396
 10
-111.041
 20
-18.8785
 10
-110.603
 20
-18.9091
 10
-110.181
 20
-19.0301
 10
-109.794
 20
-19.2363
 10
-109.457
 20
-19.5185
 10
-109.187
 20
-19.8644
 10
-108.994
 20
-20.259
 10
-108.888
 20
-20.685
 10
-108.873
 20
-21.1237
 10
-108.949
 20
-21.5561
 10
-109.114
 20
-21.9631
 10
-109.359
 20
-22.3271
 10
-109.675
 20
-22.6321
 10
-110.047
 20
-22.8647
 10
-110.46
 20
-23.0149
 10
-110.895
 20
-23.076
 10
-111.332
 20
-23.0453
 10
-111.754
 20
-22.9243
 10
-112.142
 20
-22.7182
 10
-112.478
 20
-22.436
 10
-112.749
 20
-22.0901
 10
-112.941
 20
-21.6955
 10
-113.047
 20
-21.2695
  0
LWPOLYLINE
100
AcDbEntity
  8
0
100
AcDbPolyline
 90
30
 70
1
 10
-113.063
 20
20.8307
 10
-113.047
 20
21.2695
 10
-112.941
 20
21.6955
 10
-112.749
 20
22.0901
 10
-112.478
 20
22.436
 10
-112.142
 20
22.7182
 10
-111.754
 20
22.9243
 10
-111.332
 20
23.0453
 10
-110.895
 20
23.076
 10
-110.46
 20
23.0149
 10
-110.047
 20
22.8647
 10
-109.675
 20
22.6321
 10
-109.359
 20
22.3271
 10
-109.114
 20
21.9631
 10
-108.949
 20
21.5561
 10
-108.873
 20
21.1237
 10
-108.888
 20
20.685
 10
-108.994
 20
20.259
 10
-109.187
 20
19.8644
 10
-109.457
 20
19.5185
 10
-109.794
 20
19.2363
 10
-110.181
 20
19.0301
 10
-110.603
 20
18.9091
 10
-111.041
 20
18.8785
 10
-111.476
 20
18.9396
 10
-111.888
 20
19.0898
 10
-112.261
 20
19.3224
 10
-112.577
 20
19.6274
 10
-112.822
 20
19.9913
 10
-112.986
 20
20.3984
  0
LWPOLYLINE
100
AcDbEntity
  8
0
100
AcDbPolyline
 90
30
 70
1
 10
-102.412
 20
-39.5708
 10
-102.397
 20
-39.132
 10
-102.291
 20
-38.7061
 10
-102.098
 20
-38.3115
 10
-101.828
 20
-37.9655
 10
-101.492
 20
-37.6833
 10
-101.104
 20
-37.4772
 10
-100.682
 20
-37.3562
 10
-100.244
 20
-37.3256
 10
-99.8094
 20
-37.3867
 10
-99.3968
 20
-37.5368
 10
-99.0245
 20
-37.7695
 10
-98.7087
 20
-38.0745
 10
-98.4632
 20
-38.4384
 10
-98.2987
 20
-38.8455
 10
-98.2225
 20
-39.2778
 10
-98.2378
 20
-39.7166
 10
-98.344
 20
-40.1425
 10
-98.5365
 20
-40.5371
 10
-98.8068
 20
-40.8831
 10
-99.1431
 20
-41.1653
 10
-99.5307
 20
-41.3714
 10
-99.9527
 20
-41.4924
 10
-100.391
 20
-41.523
 10
-100.825
 20
-41.4619
 10
-101.238
 20
-41.3118
 10
-101.61
 20
-41.0791
 10
-101.926
 20
-40.7742
 10
-102.172
 20
-40.4102
 10
-102.336
 20
-40.0031
  0
LWPOLYLINE
100
AcDbEntity
  8
0
100
AcDbPolyline
 90
30
 70
1
 10
-102.412
 20
39.5708
 10
-102.336
 20
40.0031
 10
-102.172
 20
40.4102
 10
-101.926
 20
40.7742
 10
-101.61
 20
41.0791
 10
-101.238
 20
41.3118
 10
-100.825
 20
41.4619
 10
-100.391
 20
41.523
 10
-99.9527
 20
41.4924
 10
-99.5307
 20
41.3714
 10
-99.1431
 20
41.1653
 10
-98.8068
 20
40.8831
 10
-98.5365
 20
40.5371
 10
-98.344
 20
40.1425
 10
-98.2378
 20
39.7166
 10
-98.2225
 20
39.2778
 10
-98.2987
 20
38.8455
 10
-98.4632
 20
38.4384
 10
-98.7087
 20
38.0745
 10
-99.0245
 20
37.7695
 10
-99.3968
 20
37.5368
 10
-99.8094
 20
37.3867
 10
-100.244
 20
37.3256
 10
-100.682
 20
37.3562
 10
-101.104
 20
37.4772
 10
-101.492
 20
37.6833
 10
-101.828
 20
37.9655
 10
-102.098
 20
38.3115
 10
-102.291
 20
38.7061
 10
-102.397
 20
39.132
  0
LWPOLYLINE
100
AcDbEntity
  8
0
100
AcDbPolyline
 90
30
 70
1
 10
-86.1
 20
-53.1162
 10
-86.0541
 20
-52.6796
 10
-85.9184
 20
-52.2621
 10
-85.6989
 20
-51.8819
 10
-85.4052
 20
-51.5556
 10
-85.05
 20
-51.2976
 10
-84.6489
 20
-51.119
 10
-84.2195
 20
-51.0277
 10
-83.7805
 20
-51.0277
 10
-83.3511
 20
-51.119
 10
-82.95
 20
-51.2976
 10
-82.5948
 20
-51.5556
 10
-82.3011
 20
-51.8819
 10
-82.0816
 20
-52.2621
 10
-81.9459
 20
-52.6796
 10
-81.9
 20
-53.1162
 10
-81.9459
 20
-53.5528
 10
-82.0816
 20
-53.9704
 10
-82.3011
 20
-54.3506
 10
-82.5948
 20
-54.6768
 10
-82.95
 20
-54.9349
 10
-83.3511
 20
-55.1134
 10
-83.7805
 20
-55.2047
 10
-84.2195
 20
-55.2047
 10
-84.6489
 20
-55.1134
 10
-85.05
 20
-54.9349
 10
-85.4052
 20
-54.6768
 10
-85.6989
 20
-54.3506
 10
-85.9184
 20
-53.9704
 10
-86.0541
 20
-53.5528
  0
LWPOLYLINE
100
AcDbEntity
  8
0
100
AcDbPolyline
 90
30
 70
1
 10
-86.1
 20
53.1162
 10
-86.0541
 20
53.5528
 10
-85.9184
 20
53.9704
 10
-85.6989
 20
54.3506
 10
-85.4052
 20
54.6768
 10
-85.05
 20
54.9349
 10
-84.6489
 20
55.1134
 10
-84.2195
 20
55.2047
 10
-83.7805
 20
55.2047
 10
-83.3511
 20
55.1134
 10
-82.95
 20
54.9349
 10
-82.5948
 20
54.6768
 10
-82.3011
 20
54.3506
 10
-82.0816
 20
53.9704
 10
-81.9459
 20
53.5528
 10
-81.9
 20
53.1162
 10
-81.9459
 20
52.6796
 10
-82.0816
 20
52.2621
 10
-82.3011
 20
51.8819
 10
-82.5948
 20
51.5556
 10
-82.95
 20
51.2976
 10
-83.3511
 20
51.119
 10
-83.7805
 20
51.0277
 10
-84.2195
 20
51.0277
 10
-84.6489
 20
51.119
 10
-85.05
 20
51.2976
 10
-85.4052
 20
51.5556
 10
-85.6989
 20
51.8819
 10
-85.9184
 20
52.2621
 10
-86.0541
 20
52.6796
  0
LWPOLYLINE
100
AcDbEntity
  8
0
100
AcDbPolyline
 90
30
 70
1
 10
-66.0786
 20
-60.2551
 10
-66.0024
 20
-59.8227
 10
-65.8379
 20
-59.4157
 10
-65.5924
 20
-59.0517
 10
-65.2766
 20
-58.7467
 10
-64.9043
 20
-58.5141
 10
-64.4918
 20
-58.3639
 10
-64.057
 20
-58.3028
 10
-63.6191
 20
-58.3334
 10
-63.1971
 20
-58.4545
 10
-62.8094
 20
-58.6606
 10
-62.4731
 20
-58.9428
 10
-62.2029
 20
-59.2887
 10
-62.0104
 20
-59.6833
 10
-61.9042
 20
-60.1093
 10
-61.8889
 20
-60.548
 10
-61.9651
 20
-60.9804
 10
-62.1296
 20
-61.3874
 10
-62.3751
 20
-61.7514
 10
-62.6909
 20
-62.0564
 10
-63.0632
 20
-62.289
 10
-63.4757
 20
-62.4392
 10
-63.9105
 20
-62.5003
 10
-64.3484
 20
-62.4696
 10
-64.7704
 20
-62.3486
 10
-65.1581
 20
-62.1425
 10
-65.4944
 20
-61.8603
 10
-65.7647
 20
-61.5144
 10
-65.9571
 20
-61.1198
 10
-66.0633
 20
-60.6938
  0
LWPOLYLINE
100
AcDbEntity
  8
0
100
AcDbPolyline
 90
30
 70
1
 10
-66.0786
 20
60.2551
 10
-66.0633
 20
60.6938
 10
-65.9571
 20
61.1198
 10
-65.7647
 20
61.5144
 10
-65.4944
 20
61.8603
 10
-65.1581
 20
62.1425
 10
-64.7704
 20
62.3486
 10
-64.3484
 20
62.4696
 10
-63.9105
 20
62.5003
 10
-63.4757
 20
62.4392
 10
-63.0632
 20
62.289
 10
-62.6909
 20
62.0564
 10
-62.3751
 20
61.7514
 10
-62.1296
 20
61.3874
 10
-61.9651
 20
60.9804
 10
-61.8889
 20
60.548
 10
-61.9042
 20
60.1093
 10
-62.0104
 20
59.6833
 10
-62.2029
 20
59.2887
 10
-62.4731
 20
58.9428
 10
-62.8094
 20
58.6606
 10
-63.1971
 20
58.4545
 10
-63.6191
 20
58.3334
 10
-64.057
 20
58.3028
 10
-64.4918
 20
58.3639
 10
-64.9043
 20
58.5141
 10
-65.2766
 20
58.7467
 10
-65.5924
 20
59.0517
 10
-65.8379
 20
59.4157
 10
-66.0024
 20
59.8227
  0
LWPOLYLINE
100
AcDbEntity
  8
0
100
AcDbPolyline
 90
60
 70
1
 10
-57.4333
 20
0
 10
-57.4109
 20
0.428566
 10
-57.3437
 20
0.852437
 10
-57.2327
 20
1.26697
 10
-57.0789
 20
1.66762
 10
-56.884
 20
2.05
 10
-56.6503
 20
2.40992
 10
-56.3802
 20
2.74343
 10
-56.0768
 20
3.04689
 10
-55.7433
 20
3.31697
 10
-55.3833
 20
3.5507
 10
-55.001
 20
3.74554
 10
-54.6003
 20
3.89933
 10
-54.1858
 20
4.0104
 10
-53.7619
 20
4.07754
 10
-53.3333
 20
4.1
 10
-52.9048
 20
4.07754
 10
-52.4809
 20
4.0104
 10
-52.0664
 20
3.89933
 10
-51.6657
 20
3.74554
 10
-51.2833
 20
3.5507
 10
-50.9234
 20
3.31697
 10
-50.5899
 20
3.04689
 10
-50.2864
 20
2.74343
 10
-50.0164
 20
2.40992
 10
-49.7826
 20
2.05
 10
-49.5878
 20
1.66762
 10
-49.434
 20
1.26697
 10
-49.3229
 20
0.852437
 10
-49.2558
 20
0.428566
 10
-49.2333
 20
0
 10
-49.2558
 20
-0.428566
 10
-49.3229
 20
-0.852437
 10
-49.434
 20
-1.26697
 10
-49.5878
 20
-1.66762
 10
-49.7826
 20
-2.05
 10
-50.0164
 20
-2.40992
 10
-50.2864
 20
-2.74343
 10
-50.5899
 20
-3.04689
 10
-50.9234
 20
-3.31697
 10
-51.2833
 20
-3.5507
 10
-51.6657
 20
-3.74554
 10
-52.0664
 20
-3.89933
 10
-52.4809
 20
-4.0104
 10
-52.9048
 20
-4.07754
 10
-53.3333
 20
-4.1
 10
-53.7619
 20
-4.07754
 10
-54.1858
 20
-4.0104
 10
-54.6003
 20
-3.89933
 10
-55.001
 20
-3.74554
 10
-55.3833
 20
-3.5507
 10
-55.7433
 20
-3.31697
 10
-56.0768
 20
-3.04689
 10
-56.3802
 20
-2.74343
 10
-56.6503
 20
-2.40992
 10
-56.884
 20
-2.05
 10
-57.0789
 20
-1.66762
 10
-57.2327
 20
-1.26697
 10
-57.3437
 20
-0.852437
 10
-57.4109
 20
-0.428566
  0
LWPOLYLINE
100
AcDbEntity
  8
0
100
AcDbPolyline
 90
30
 70
1
 10
-52.1255
 20
-29.1084
 10
-52.1255
 20
-28.6694
 10
-52.0342
 20
-28.24
 10
-51.8557
 20
-27.8389
 10
-51.5976
 20
-27.4837
 10
-51.2714
 20
-27.19
 10
-50.8912
 20
-26.9704
 10
-50.4736
 20
-26.8348
 10
-50.037
 20
-26.7889
 10
-49.6004
 20
-26.8348
 10
-49.1829
 20
-26.9704
 10
-48.8027
 20
-27.19
 10
-48.4764
 20
-27.4837
 10
-48.2184
 20
-27.8389
 10
-48.0398
 20
-28.24
 10
-47.9485
 20
-28.6694
 10
-47.9485
 20
-29.1084
 10
-48.0398
 20
-29.5378
 10
-48.2184
 20
-29.9389
 10
-48.4764
 20
-30.2941
 10
-48.8027
 20
-30.5878
 10
-49.1829
 20
-30.8073
 10
-49.6004
 20
-30.943
 10
-50.037
 20
-30.9889
 10
-50.4736
 20
-30.943
 10
-50.8912
 20
-30.8073
 10
-51.2714
 20
-30.5878
 10
-51.5976
 20
-30.2941
 10
-51.8557
 20
-29.9389
 10
-52.0342
 20
-29.5378
  0
LWPOLYLINE
100
AcDbEntity
  8
0
100
AcDbPolyline
 90
30
 70
1
 10
-46.1
 20
-76.2102
 10
-46.0541
 20
-75.7736
 10
-45.9184
 20
-75.3561
 10
-45.6989
 20
-74.9759
 10
-45.4052
 20
-74.6496
 10
-45.05
 20
-74.3916
 10
-44.6489
 20
-74.213
 10
-44.2195
 20
-74.1217
 10
-43.7805
 20
-74.1217
 10
-43.3511
 20
-74.213
 10
-42.95
 20
-74.3916
 10
-42.5948
 20
-74.6496
 10
-42.3011
 20
-74.9759
 10
-42.0816
 20
-75.3561
 10
-41.9459
 20
-75.7736
 10
-41.9
 20
-76.2102
 10
-41.9459
 20
-76.6468
 10
-42.0816
 20
-77.0644
 10
-42.3011
 20
-77.4446
 10
-42.5948
 20
-77.7708
 10
-42.95
 20
-78.0289
 10
-43.3511
 20
-78.2075
 10
-43.7805
 20
-78.2987
 10
-44.2195
 20
-78.2987
 10
-44.6489
 20
-78.2075
 10
-45.05
 20
-78.0289
 10
-45.4052
 20
-77.7708
 10
-45.6989
 20
-77.4446
 10
-45.9184
 20
-77.0644
 10
-46.0541
 20
-76.6468
  0
LWPOLYLINE
100
AcDbEntity
  8
0
100
AcDbPolyline
 90
30
 70
1
 10
-46.1
 20
76.2102
 10
-46.0541
 20
76.6468
 10
-45.9184
 20
77.0644
 10
-45.6989
 20
77.4446
 10
-45.4052
 20
77.7708
 10
-45.05
 20
78.0289
 10
-44.6489
 20
78.2075
 10
-44.2195
 20
78.2987
 10
-43.7805
 20
78.2987
 10
-43.3511
 20
78.2075
 10
-42.95
 20
78.0289
 10
-42.5948
 20
77.7708
 10
-42.3011
 20
77.4446
 10
-42.0816
 20
77.0644
 10
-41.9459
 20
76.6468
 10
-41.9
 20
76.2102
 10
-41.9459
 20
75.7736
 10
-42.0816
 20
75.3561
 10
-42.3011
 20
74.9759
 10
-42.5948
 20
74.6496
 10
-42.95
 20
74.3916
 10
-43.3511
 20
74.213
 10
-43.7805
 20
74.1217
 10
-44.2195
 20
74.1217
 10
-44.6489
 20
74.213
 10
-45.05
 20
74.3916
 10
-45.4052
 20
74.6496
 10
-45.6989
 20
74.9759
 10
-45.9184
 20
75.3561
 10
-46.0541
 20
75.7736
  0
LWPOLYLINE
100
AcDbEntity
  8
0
100
AcDbPolyline
 90
360
 70
1
 10
-33.2
 20
0
 10
-33.1949
 20
0.579419
 10
-33.1798
 20
1.15866
 10
-33.1545
 20
1.73755
 10
-33.1191
 20
2.31591
 10
-33.0737
 20
2.89357
 10
-33.0181
 20
3.47034
 10
-32.9525
 20
4.04606
 10
-32.8769
 20
4.62055
 10
-32.7913
 20
5.19362
 10
-32.6956
 20
5.76512
 10
-32.59
 20
6.33486
 10
-32.4745
 20
6.90267
 10
-32.3491
 20
7.46837
 10
-32.2138
 20
8.03181
 10
-32.0687
 20
8.59279
 10
-31.9139
 20
9.15116
 10
-31.7493
 20
9.70674
 10
-31.5751
 20
10.2594
 10
-31.3912
 20
10.8089
 10
-31.1978
 20
11.3551
 10
-30.9949
 20
11.8978
 10
-30.7825
 20
12.4369
 10
-30.5608
 20
12.9723
 10
-30.3297
 20
13.5037
 10
-30.0894
 20
14.0309
 10
-29.84
 20
14.5539
 10
-29.5814
 20
15.0725
 10
-29.3139
 20
15.5865
 10
-29.0374
 20
16.0957
 10
-28.752
 20
16.6
 10
-28.458
 20
17.0993
 10
-28.1552
 20
17.5933
 10
-27.8439
 20
18.082
 10
-27.524
 20
18.5652
 10
-27.1958
 20
19.0427
 10
-26.8594
 20
19.5145
 10
-26.5147
 20
19.9803
 10
-26.162
 20
20.44
 10
-25.8012
 20
20.8934
 10
-25.4327
 20
21.3405
 10
-25.0564
 20
21.7812
 10
-24.6724
 20
22.2151
 10
-24.2809
 20
22.6423
 10
-23.8821
 20
23.0627
 10
-23.4759
 20
23.4759
 10
-23.0627
 20
23.8821
 10
-22.6423
 20
24.2809
 10
-22.2151
 20
24.6724
 10
-21.7812
 20
25.0564
 10
-21.3405
 20
25.4327
 10
-20.8934
 20
25.8012
 10
-20.44
 20
26.162
 10
-19.9803
 20
26.5147
 10
-19.5145
 20
26.8594
 10
-19.0427
 20
27.1958
 10
-18.5652
 20
27.524
 10
-18.082
 20
27.8439
 10
-17.5933
 20
28.1552
 10
-17.0993
 20
28.458
 10
-16.6
 20
28.752
 10
-16.0957
 20
29.0374
 10
-15.5865
 20
29.3139
 10
-15.0725
 20
29.5814
 10
-14.5539
 20
29.84
 10
-14.0309
 20
30.0894
 10
-13.5037
 20
30.3297
 10
-12.9723
 20
30.5608
 10
-12.4369
 20
30.7825
 10
-11.8978
 20
30.9949
 10
-11.3551
 20
31.1978
 10
-10.8089
 20
31.3912
 10
-10.2594
 20
31.5751
 10
-9.70674
 20
31.7493
 10
-9.15116
 20
31.9139
 10
-8.59279
 20
32.0687
 10
-8.03181
 20
32.2138
 10
-7.46837
 20
32.3491
 10
-6.90267
 20
32.4745
 10
-6.33486
 20
32.59
 10
-5.76512
 20
32.6956
 10
-5.19362
 20
32.7913
 10
-4.62055
 20
32.8769
 10
-4.04606
 20
32.9525
 10
-3.47034
 20
33.0181
 10
-2.89357
 20
33.0737
 10
-2.31591
 20
33.1191
 10
-1.73755
 20
33.1545
 10
-1.15866
 20
33.1798
 10
-0.579419
 20
33.1949
 10
0
 20
33.2
 10
0.579419
 20
33.1949
 10
1.15866
 20
33.1798
 10
1.73755
 20
33.1545
 10
2.31591
 20
33.1191
 10
2.89357
 20
33.0737
 10
3.47034
 20
33.0181
 10
4.04606
 20
32.9525
 10
4.62055
 20
32.8769
 10
5.19362
 20
32.7913
 10
5.76512
 20
32.6956
 10
6.33486
 20
32.59
 10
6.90267
 20
32.4745
 10
7.46837
 20
32.3491
 10
8.03181
 20
32.2138
 10
8.59279
 20
32.0687
 10
9.15116
 20
31.9139
 10
9.70674
 20
31.7493
 10
10.2594
 20
31.5751
 10
10.8089
 20
31.3912
 10
11.3551
 20
31.1978
 10
11.8978
 20
30.9949
 10
12.4369
 20
30.7825
 10
12.9723
 20
30.5608
 10
13.5037
 20
30.3297
 10
14.0309
 20
30.0894
 10
14.5539
 20
29.84
 10
15.0725
 20
29.5814
 10
15.5865
 20
29.3139
 10
16.0957
 20
29.0374
 10
16.6
 20
28.752
 10
17.0993
 20
28.458
 10
17.5933
 20
28.1552
 10
18.082
 20
27.8439
 10
18.5652
 20
27.524
 10
19.0427
 20
27.1958
 10
19.5145
 20
26.8594
 10
19.9803
 20
26.5147
 10
20.44
 20
26.162
 10
20.8934
 20
25.8012
 10
21.3405
 20
25.4327
 10
21.7812
 20
25.0564
 10
22.2151
 20
24.6724
 10
22.6423
 20
24.2809
 10
23.0627
 20
23.8821
 10
23.4759
 20
23.4759
 10
23.8821
 20
23.0627
 10
24.2809
 20
22.6423
 10
24.6724
 20
22.2151
 10
25.0564
 20
21.7812
 10
25.4327
 20
21.3405
 10
25.8012
 20
20.8934
 10
26.162
 20
20.44
 10
26.5147
 20
19.9803
 10
26.8594
 20
19.5145
 10
27.1958
 20
19.0427
 10
27.524
 20
18.5652
 10
27.8439
 20
18.082
 10
28.1552
 20
17.5933
 10
28.458
 20
17.0993
 10
28.752
 20
16.6
 10
29.0374
 20
16.0957
 10
29.3139
 20
15.5865
 10
29.5814
 20
15.0725
 10
29.84
 20
14.5539
 10
30.0894
 20
14.0309
 10
30.3297
 20
13.5037
 10
30.5608
 20
12.9723
 10
30.7825
 20
12.4369
 10
30.9949
 20
11.8978
 10
31.1978
 20
11.3551
 10
31.3912
 20
10.8089
 10
31.5751
 20
10.2594
 10
31.7493
 20
9.70674
 10
31.9139
 20
9.15116
 10
32.0687
 20
8.59279
 10
32.2138
 20
8.03181
 10
32.3491
 20
7.46837
 10
32.4745
 20
6.90267
 10
32.59
 20
6.33486
 10
32.6956
 20
5.76512
 10
32.7913
 20
5.19362
 10
32.8769
 20
4.62055
 10
32.9525
 20
4.04606
 10
33.0181
 20
3.47034
 10
33.0737
 20
2.89357
 10
33.1191
 20
2.31591
 10
33.1545
 20
1.73755
 10
33.1798
 20
1.15866
 10
33.1949
 20
0.579419
 10
33.2
 20
0
 10
33.1949
 20
-0.579419
 10
33.1798
 20
-1.15866
 10
33.1545
 20
-1.73755
 10
33.1191
 20
-2.31591
 10
33.0737
 20
-2.89357
 10
33.0181
 20
-3.47034
 10
32.9525
 20
-4.04606
 10
32.8769
 20
-4.62055
 10
32.7913
 20
-5.19362
 10
32.6956
 20
-5.76512
 10
32.59
 20
-6.33486
 10
32.4745
 20
-6.90267
 10
32.3491
 20
-7.46837
 10
32.2138
 20
-8.03181
 10
32.0687
 20
-8.59279
 10
31.9139
 20
-9.15116
 10
31.7493
 20
-9.70674
 10
31.5751
 20
-10.2594
 10
31.3912
 20
-10.8089
 10
31.1978
 20
-11.3551
 10
30.9949
 20
-11.8978
 10
30.7825
 20
-12.4369
 10
30.5608
 20
-12.9723
 10
30.3297
 20
-13.5037
 10
30.0894
 20
-14.0309
 10
29.84
 20
-14.5539
 10
29.5814
 20
-15.0725
 10
29.3139
 20
-15.5865
 10
29.0374
 20
-16.0957
 10
28.752
 20
-16.6
 10
28.458
 20
-17.0993
 10
28.1552
 20
-17.5933
 10
27.8439
 20
-18.082
 10
27.524
 20
-18.5652
 10
27.1958
 20
-19.0427
 10
26.8594
 20
-19.5145
 10
26.5147
 20
-19.9803
 10
26.162
 20
-20.44
 10
25.8012
 20
-20.8934
 10
25.4327
 20
-21.3405
 10
25.0564
 20
-21.7812
 10
24.6724
 20
-22.2151
 10
24.2809
 20
-22.6423
 10
23.8821
 20
-23.0627
 10
23.4759
 20
-23.4759
 10
23.0627
 20
-23.8821
 10
22.6423
 20
-24.2809
 10
22.2151
 20
-24.6724
 10
21.7812
 20
-25.0564
 10
21.3405
 20
-25.4327
 10
20.8934
 20
-25.8012
 10
20.44
 20
-26.162
 10
19.9803
 20
-26.5147
 10
19.5145
 20
-26.8594
 10
19.0427
 20
-27.1958
 10
18.5652
 20
-27.524
 10
18.082
 20
-27.8439
 10
17.5933
 20
-28.1552
 10
17.0993
 20
-28.458
 10
16.6
 20
-28.752
 10
16.0957
 20
-29.0374
 10
15.5865
 20
-29.3139
 10
15.0725
 20
-29.5814
 10
14.5539
 20
-29.84
 10
14.0309
 20
-30.0894
 10
13.5037
 20
-30.3297
 10
12.9723
 20
-30.5608
 10
12.4369
 20
-30.7825
 10
11.8978
 20
-30.9949
 10
11.3551
 20
-31.1978
 10
10.8089
 20
-31.3912
 10
10.2594
 20
-31.5751
 10
9.70674
 20
-31.7493
 10
9.15116
 20
-31.9139
 10
8.59279
 20
-32.0687
 10
8.03181
 20
-32.2138
 10
7.46837
 20
-32.3491
 10
6.90267
 20
-32.4745
 10
6.33486
 20
-32.59
 10
5.76512
 20
-32.6956
 10
5.19362
 20
-32.7913
 10
4.62055
 20
-32.8769
 10
4.04606
 20
-32.9525
 10
3.47034
 20
-33.0181
 10
2.89357
 20
-33.0737
 10
2.31591
 20
-33.1191
 10
1.73755
 20
-33.1545
 10
1.15866
 20
-33.1798
 10
0.579419
 20
-33.1949
 10
0
 20
-33.2
 10
-0.579419
 20
-33.1949
 10
-1.15866
 20
-33.1798
 10
-1.73755
 20
-33.1545
 10
-2.31591
 20
-33.1191
 10
-2.89357
 20
-33.0737
 10
-3.47034
 20
-33.0181
 10
-4.04606
 20
-32.9525
 10
-4.62055
 20
-32.8769
 10
-5.19362
 20
-32.7913
 10
-5.76512
 20
-32.6956
 10
-6.33486
 20
-32.59
 10
-6.90267
 20
-32.4745
 10
-7.46837
 20
-32.3491
 10
-8.03181
 20
-32.2138
 10
-8.59279
 20
-32.0687
 10
-9.15116
 20
-31.9139
 10
-9.70674
 20
-31.7493
 10
-10.2594
 20
-31.5751
 10
-10.8089
 20
-31.3912
 10
-11.3551
 20
-31.1978
 10
-11.8978
 20
-30.9949
 10
-12.4369
 20
-30.7825
 10
-12.9723
 20
-30.5608
 10
-13.5037
 20
-30.3297
 10
-14.0309
 20
-30.0894
 10
-14.5539
 20
-29.84
 10
-15.0725
 20
-29.5814
 10
-15.5865
 20
-29.3139
 10
-16.0957
 20
-29.0374
 10
-16.6
 20
-28.752
 10
-17.0993
 20
-28.458
 10
-17.5933
 20
-28.1552
 10
-18.082
 20
-27.8439
 10
-18.5652
 20
-27.524
 10
-19.0427
 20
-27.1958
 10
-19.5145
 20
-26.8594
 10
-19.9803
 20
-26.5147
 10
-20.44
 20
-26.162
 10
-20.8934
 20
-25.8012
 10
-21.3405
 20
-25.4327
 10
-21.7812
 20
-25.0564
 10
-22.2151
 20
-24.6724
 10
-22.6423
 20
-24.2809
 10
-23.0627
 20
-23.8821
 10
-23.4759
 20
-23.4759
 10
-23.8821
 20
-23.0627
 10
-24.2809
 20
-22.6423
 10
-24.6724
 20
-22.2151
 10
-25.0564
 20
-21.7812
 10
-25.4327
 20
-21.3405
 10
-25.8012
 20
-20.8934
 10
-26.162
 20
-20.44
 10
-26.5147
 20
-19.9803
 10
-26.8594
 20
-19.5145
 10
-27.1958
 20
-19.0427
 10
-27.524
 20
-18.5652
 10
-27.8439
 20
-18.082
 10
-28.1552
 20
-17.5933
 10
-28.458
 20
-17.0993
 10
-28.752
 20
-16.6
 10
-29.0374
 20
-16.0957
 10
-29.3139
 20
-15.5865
 10
-29.5814
 20
-15.0725
 10
-29.84
 20
-14.5539
 10
-30.0894
 20
-14.0309
 10
-30.3297
 20
-13.5037
 10
-30.5608
 20
-12.9723
 10
-30.7825
 20
-12.4369
 10
-30.9949
 20
-11.8978
 10
-31.1978
 20
-11.3551
 10
-31.3912
 20
-10.8089
 10
-31.5751
 20
-10.2594
 10
-31.7493
 20
-9.70674
 10
-31.9139
 20
-9.15116
 10
-32.0687
 20
-8.59279
 10
-32.2138
 20
-8.03181
 10
-32.3491
 20
-7.46837
 10
-32.4745
 20
-6.90267
 10
-32.59
 20
-6.33486
 10
-32.6956
 20
-5.76512
 10
-32.7913
 20
-5.19362
 10
-32.8769
 20
-4.62055
 10
-32.9525
 20
-4.04606
 10
-33.0181
 20
-3.47034
 10
-33.0737
 20
-2.89357
 10
-33.1191
 20
-2.31591
 10
-33.1545
 20
-1.73755
 10
-33.1798
 20
-1.15866
 10
-33.1949
 20
-0.579419
  0
LWPOLYLINE
100
AcDbEntity
  8
0
100
AcDbPolyline
 90
60
 70
1
 10
-28.7667
 20
-46.188
 10
-28.7552
 20
-45.9685
 10
-28.7208
 20
-45.7514
 10
-28.6639
 20
-45.5391
 10
-28.5851
 20
-45.3339
 10
-28.4853
 20
-45.138
 10
-28.3656
 20
-44.9537
 10
-28.2273
 20
-44.7828
 10
-28.0718
 20
-44.6274
 10
-27.901
 20
-44.4891
 10
-27.7167
 20
-44.3694
 10
-27.5208
 20
-44.2696
 10
-27.3156
 20
-44.1908
 10
-27.1033
 20
-44.1339
 10
-26.8862
 20
-44.0995
 10
-26.6667
 20
-44.088
 10
-26.4472
 20
-44.0995
 10
-26.2301
 20
-44.1339
 10
-26.0177
 20
-44.1908
 10
-25.8125
 20
-44.2696
 10
-25.6167
 20
-44.3694
 10
-25.4323
 20
-44.4891
 10
-25.2615
 20
-44.6274
 10
-25.1061
 20
-44.7828
 10
-24.9677
 20
-44.9537
 10
-24.848
 20
-45.138
 10
-24.7482
 20
-45.3339
 10
-24.6694
 20
-45.5391
 10
-24.6126
 20
-45.7514
 10
-24.5782
 20
-45.9685
 10
-24.5667
 20
-46.188
 10
-24.5782
 20
-46.4075
 10
-24.6126
 20
-46.6246
 10
-24.6694
 20
-46.837
 10
-24.7482
 20
-47.0422
 10
-24.848
 20
-47.238
 10
-24.9677
 20
-47.4224
 10
-25.1061
 20
-47.5932
 10
-25.2615
 20
-47.7486
 10
-25.4323
 20
-47.887
 10
-25.6167
 20
-48.0067
 10
-25.8125
 20
-48.1065
 10
-26.0177
 20
-48.1852
 10
-26.2301
 20
-48.2421
 10
-26.4472
 20
-48.2765
 10
-26.6667
 20
-48.288
 10
-26.8862
 20
-48.2765
 10
-27.1033
 20
-48.2421
 10
-27.3156
 20
-48.1852
 10
-27.5208
 20
-48.1065
 10
-27.7167
 20
-48.0067
 10
-27.901
 20
-47.887
 10
-28.0718
 20
-47.7486
 10
-28.2273
 20
-47.5932
 10
-28.3656
 20
-47.4224
 10
-28.4853
 20
-47.238
 10
-28.5851
 20
-47.0422
 10
-28.6639
 20
-46.837
 10
-28.7208
 20
-46.6246
 10
-28.7552
 20
-46.4075
  0
LWPOLYLINE
100
AcDbEntity
  8
0
100
AcDbPolyline
 90
60
 70
1
 10
-28.7667
 20
46.188
 10
-28.7552
 20
46.4075
 10
-28.7208
 20
46.6246
 10
-28.6639
 20
46.837
 10
-28.5851
 20
47.0422
 10
-28.4853
 20
47.238
 10
-28.3656
 20
47.4224
 10
-28.2273
 20
47.5932
 10
-28.0718
 20
47.7486
 10
-27.901
 20
47.887
 10
-27.7167
 20
48.0067
 10
-27.5208
 20
48.1065
 10
-27.3156
 20
48.1852
 10
-27.1033
 20
48.2421
 10
-26.8862
 20
48.2765
 10
-26.6667
 20
48.288
 10
-26.4472
 20
48.2765
 10
-26.2301
 20
48.2421
 10
-26.0177
 20
48.1852
 10
-25.8125
 20
48.1065
 10
-25.6167
 20
48.0067
 10
-25.4323
 20
47.887
 10
-25.2615
 20
47.7486
 10
-25.1061
 20
47.5932
 10
-24.9677
 20
47.4224
 10
-24.848
 20
47.238
 10
-24.7482
 20
47.0422
 10
-24.6694
 20
46.837
 10
-24.6126
 20
46.6246
 10
-24.5782
 20
46.4075
 10
-24.5667
 20
46.188
 10
-24.5782
 20
45.9685
 10
-24.6126
 20
45.7514
 10
-24.6694
 20
45.5391
 10
-24.7482
 20
45.3339
 10
-24.848
 20
45.138
 10
-24.9677
 20
44.9537
 10
-25.1061
 20
44.7828
 10
-25.2615
 20
44.6274
 10
-25.4323
 20
44.4891
 10
-25.6167
 20
44.3694
 10
-25.8125
 20
44.2696
 10
-26.0177
 20
44.1908
 10
-26.2301
 20
44.1339
 10
-26.4472
 20
44.0995
 10
-26.6667
 20
44.088
 10
-26.8862
 20
44.0995
 10
-27.1033
 20
44.1339
 10
-27.3156
 20
44.1908
 10
-27.5208
 20
44.2696
 10
-27.7167
 20
44.3694
 10
-27.901
 20
44.4891
 10
-28.0718
 20
44.6274
 10
-28.2273
 20
44.7828
 10
-28.3656
 20
44.9537
 10
-28.4853
 20
45.138
 10
-28.5851
 20
45.3339
 10
-28.6639
 20
45.5391
 10
-28.7208
 20
45.7514
 10
-28.7552
 20
45.9685
  0
LWPOLYLINE
100
AcDbEntity
  8
0
100
AcDbPolyline
 90
30
 70
1
 10
-22.4123
 20
-85.7588
 10
-22.397
 20
-85.3201
 10
-22.2907
 20
-84.8941
 10
-22.0983
 20
-84.4995
 10
-21.828
 20
-84.1535
 10
-21.4917
 20
-83.8713
 10
-21.1041
 20
-83.6652
 10
-20.6821
 20
-83.5442
 10
-20.2441
 20
-83.5136
 10
-19.8094
 20
-83.5747
 10
-19.3968
 20
-83.7249
 10
-19.0245
 20
-83.9575
 10
-18.7087
 20
-84.2625
 10
-18.4632
 20
-84.6264
 10
-18.2987
 20
-85.0335
 10
-18.2225
 20
-85.4658
 10
-18.2378
 20
-85.9046
 10
-18.344
 20
-86.3306
 10
-18.5365
 20
-86.7252
 10
-18.8068
 20
-87.0711
 10
-19.1431
 20
-87.3533
 10
-19.5307
 20
-87.5594
 10
-19.9527
 20
-87.6804
 10
-20.3907
 20
-87.711
 10
-20.8254
 20
-87.6499
 10
-21.238
 20
-87.4998
 10
-21.6103
 20
-87.2672
 10
-21.9261
 20
-86.9622
 10
-22.1716
 20
-86.5982
 10
-22.336
 20
-86.1912
  0
LWPOLYLINE
100
AcDbEntity
  8
0
100
AcDbPolyline
 90
30
 70
1
 10
-22.4123
 20
85.7588
 10
-22.336
 20
86.1912
 10
-22.1716
 20
86.5982
 10
-21.9261
 20
86.9622
 10
-21.6103
 20
87.2672
 10
-21.238
 20
87.4998
 10
-20.8254
 20
87.6499
 10
-20.3907
 20
87.711
 10
-19.9527
 20
87.6804
 10
-19.5307
 20
87.5594
 10
-19.1431
 20
87.3533
 10
-18.8068
 20
87.0711
 10
-18.5365
 20
86.7252
 10
-18.344
 20
86.3306
 10
-18.2378
 20
85.9046
 10
-18.2225
 20
85.4658
 10
-18.2987
 20
85.0335
 10
-18.4632
 20
84.6264
 10
-18.7087
 20
84.2625
 10
-19.0245
 20
83.9575
 10
-19.3968
 20
83.7249
 10
-19.8094
 20
83.5747
 10
-20.2441
 20
83.5136
 10
-20.6821
 20
83.5442
 10
-21.1041
 20
83.6652
 10
-21.4917
 20
83.8713
 10
-21.828
 20
84.1535
 10
-22.0983
 20
84.4995
 10
-22.2907
 20
84.8941
 10
-22.397
 20
85.3201
  0
LWPOLYLINE
100
AcDbEntity
  8
0
100
AcDbPolyline
 90
30
 70
1
 10
-20.4461
 20
57.243
 10
-20.3938
 20
57.5734
 10
-20.2739
 20
57.8857
 10
-20.0918
 20
58.1662
 10
-19.8552
 20
58.4027
 10
-19.5747
 20
58.5849
 10
-19.2624
 20
58.7048
 10
-18.9321
 20
58.7571
 10
-18.598
 20
58.7396
 10
-18.2749
 20
58.653
 10
-17.9769
 20
58.5012
 10
-17.717
 20
58.2907
 10
-17.5065
 20
58.0307
 10
-17.3546
 20
57.7327
 10
-17.268
 20
57.4096
 10
-17.2505
 20
57.0756
 10
-17.3028
 20
56.7452
 10
-17.4227
 20
56.4329
 10
-17.6049
 20
56.1524
 10
-17.8414
 20
55.9159
 10
-18.1219
 20
55.7337
 10
-18.4342
 20
55.6138
 10
-18.7646
 20
55.5615
 10
-19.0986
 20
55.579
 10
-19.4217
 20
55.6656
 10
-19.7197
 20
55.8174
 10
-19.9797
 20
56.0279
 10
-20.1902
 20
56.2879
 10
-20.3421
 20
56.5859
 10
-20.4286
 20
56.909
  0
LWPOLYLINE
100
AcDbEntity
  8
0
100
AcDbPolyline
 90
30
 70
1
 10
-6.1
 20
-99.3042
 10
-6.05411
 20
-98.8676
 10
-5.91845
 20
-98.4501
 10
-5.69894
 20
-98.0699
 10
-5.40517
 20
-97.7436
 10
-5.05
 20
-97.4856
 10
-4.64894
 20
-97.307
 10
-4.21951
 20
-97.2157
 10
-3.78049
 20
-97.2157
 10
-3.35106
 20
-97.307
 10
-2.95
 20
-97.4856
 10
-2.59483
 20
-97.7436
 10
-2.30106
 20
-98.0699
 10
-2.08155
 20
-98.4501
 10
-1.94589
 20
-98.8676
 10
-1.9
 20
-99.3042
 10
-1.94589
 20
-99.7409
 10
-2.08155
 20
-100.158
 10
-2.30106
 20
-100.539
 10
-2.59483
 20
-100.865
 10
-2.95
 20
-101.123
 10
-3.35106
 20
-101.301
 10
-3.78049
 20
-101.393
 10
-4.21951
 20
-101.393
 10
-4.64894
 20
-101.301
 10
-5.05
 20
-101.123
 10
-5.40517
 20
-100.865
 10
-5.69894
 20
-100.539
 10
-5.91845
 20
-100.158
 10
-6.05411
 20
-99.7409
  0
LWPOLYLINE
100
AcDbEntity
  8
0
100
AcDbPolyline
 90
30
 70
1
 10
-6.1
 20
99.3042
 10
-6.05411
 20
99.7409
 10
-5.91845
 20
100.158
 10
-5.69894
 20
100.539
 10
-5.40517
 20
100.865
 10
-5.05
 20
101.123
 10
-4.64894
 20
101.301
 10
-4.21951
 20
101.393
 10
-3.78049
 20
101.393
 10
-3.35106
 20
101.301
 10
-2.95
 20
101.123
 10
-2.59483
 20
100.865
 10
-2.30106
 20
100.539
 10
-2.08155
 20
100.158
 10
-1.94589
 20
99.7409
 10
-1.9
 20
99.3042
 10
-1.94589
 20
98.8676
 10
-2.08155
 20
98.4501
 10
-2.30106
 20
98.0699
 10
-2.59483
 20
97.7436
 10
-2.95
 20
97.4856
 10
-3.35106
 20
97.307
 10
-3.78049
 20
97.2157
 10
-4.21951
 20
97.2157
 10
-4.64894
 20
97.307
 10
-5.05
 20
97.4856
 10
-5.40517
 20
97.7436
 10
-5.69894
 20
98.0699
 10
-5.91845
 20
98.4501
 10
-6.05411
 20
98.8676
  0
LWPOLYLINE
100
AcDbEntity
  8
0
100
AcDbPolyline
 90
60
 70
1
 10
-5.1
 20
-130
 10
-5.07206
 20
-129.467
 10
-4.98855
 20
-128.94
 10
-4.85039
 20
-128.424
 10
-4.65908
 20
-127.926
 10
-4.41673
 20
-127.45
 10
-4.12599
 20
-127.002
 10
-3.79004
 20
-126.587
 10
-3.41257
 20
-126.21
 10
-2.9977
 20
-125.874
 10
-2.55
 20
-125.583
 10
-2.07436
 20
-125.341
 10
-1.57599
 20
-125.15
 10
-1.06035
 20
-125.011
 10
-0.533094
 20
-124.928
 10
0
 20
-124.9
 10
0.533094
 20
-124.928
 10
1.06035
 20
-125.011
 10
1.57599
 20
-125.15
 10
2.07436
 20
-125.341
 10
2.55
 20
-125.583
 10
2.9977
 20
-125.874
 10
3.41257
 20
-126.21
 10
3.79004
 20
-126.587
 10
4.12599
 20
-127.002
 10
4.41673
 20
-127.45
 10
4.65908
 20
-127.926
 10
4.85039
 20
-128.424
 10
4.98855
 20
-128.94
 10
5.07206
 20
-129.467
 10
5.1
 20
-130
 10
5.07206
 20
-130.533
 10
4.98855
 20
-131.06
 10
4.85039
 20
-131.576
 10
4.65908
 20
-132.074
 10
4.41673
 20
-132.55
 10
4.12599
 20
-132.998
 10
3.79004
 20
-133.413
 10
3.41257
 20
-133.79
 10
2.9977
 20
-134.126
 10
2.55
 20
-134.417
 10
2.07436
 20
-134.659
 10
1.57599
 20
-134.85
 10
1.06035
 20
-134.989
 10
0.533094
 20
-135.072
 10
0
 20
-135.1
 10
-0.533094
 20
-135.072
 10
-1.06035
 20
-134.989
 10
-1.57599
 20
-134.85
 10
-2.07436
 20
-134.659
 10
-2.55
 20
-134.417
 10
-2.9977
 20
-134.126
 10
-3.41257
 20
-133.79
 10
-3.79004
 20
-133.413
 10
-4.12599
 20
-132.998
 10
-4.41673
 20
-132.55
 10
-4.65908
 20
-132.074
 10
-4.85039
 20
-131.576
 10
-4.98855
 20
-131.06
 10
-5.07206
 20
-130.533
  0
LWPOLYLINE
100
AcDbEntity
  8
0
100
AcDbPolyline
 90
60
 70
1
 10
-5.1
 20
130
 10
-5.07206
 20
130.533
 10
-4.98855
 20
131.06
 10
-4.85039
 20
131.576
 10
-4.65908
 20
132.074
 10
-4.41673
 20
132.55
 10
-4.12599
 20
132.998
 10
-3.79004
 20
133.413
 10
-3.41257
 20
133.79
 10
-2.9977
 20
134.126
 10
-2.55
 20
134.417
 10
-2.07436
 20
134.659
 10
-1.57599
 20
134.85
 10
-1.06035
 20
134.989
 10
-0.533094
 20
135.072
 10
0
 20
135.1
 10
0.533094
 20
135.072
 10
1.06035
 20
134.989
 10
1.57599
 20
134.85
 10
2.07436
 20
134.659
 10
2.55
 20
134.417
 10
2.9977
 20
134.126
 10
3.41257
 20
133.79
 10
3.79004
 20
133.413
 10
4.12599
 20
132.998
 10
4.41673
 20
132.55
 10
4.65908
 20
132.074
 10
4.85039
 20
131.576
 10
4.98855
 20
131.06
 10
5.07206
 20
130.533
 10
5.1
 20
130
 10
5.07206
 20
129.467
 10
4.98855
 20
128.94
 10
4.85039
 20
128.424
 10
4.65908
 20
127.926
 10
4.41673
 20
127.45
 10
4.12599
 20
127.002
 10
3.79004
 20
126.587
 10
3.41257
 20
126.21
 10
2.9977
 20
125.874
 10
2.55
 20
125.583
 10
2.07436
 20
125.341
 10
1.57599
 20
125.15
 10
1.06035
 20
125.011
 10
0.533094
 20
124.928
 10
0
 20
124.9
 10
-0.533094
 20
124.928
 10
-1.06035
 20
125.011
 10
-1.57599
 20
125.15
 10
-2.07436
 20
125.341
 10
-2.55
 20
125.583
 10
-2.9977
 20
125.874
 10
-3.41257
 20
126.21
 10
-3.79004
 20
126.587
 10
-4.12599
 20
127.002
 10
-4.41673
 20
127.45
 10
-4.65908
 20
127.926
 10
-4.85039
 20
128.424
 10
-4.98855
 20
128.94
 10
-5.07206
 20
129.467
  0
LWPOLYLINE
100
AcDbEntity
  8
0
100
AcDbPolyline
 90
30
 70
1
 10
-2.0885
 20
-57.9973
 10
-2.0885
 20
-57.5583
 10
-1.99722
 20
-57.1288
 10
-1.81865
 20
-56.7278
 10
-1.5606
 20
-56.3726
 10
-1.23435
 20
-56.0788
 10
-0.854146
 20
-55.8593
 10
-0.436614
 20
-55.7237
 10
0
 20
-55.6778
 10
0.436614
 20
-55.7237
 10
0.854146
 20
-55.8593
 10
1.23435
 20
-56.0788
 10
1.5606
 20
-56.3726
 10
1.81865
 20
-56.7278
 10
1.99722
 20
-57.1288
 10
2.0885
 20
-57.5583
 10
2.0885
 20
-57.9973
 10
1.99722
 20
-58.4267
 10
1.81865
 20
-58.8278
 10
1.5606
 20
-59.183
 10
1.23435
 20
-59.4767
 10
0.854146
 20
-59.6962
 10
0.436614
 20
-59.8319
 10
0
 20
-59.8778
 10
-0.436614
 20
-59.8319
 10
-0.854146
 20
-59.6962
 10
-1.23435
 20
-59.4767
 10
-1.5606
 20
-59.183
 10
-1.81865
 20
-58.8278
 10
-1.99722
 20
-58.4267
  0
LWPOLYLINE
100
AcDbEntity
  8
0
100
AcDbPolyline
 90
30
 70
1
 10
3.66325
 20
61.4463
 10
3.71558
 20
61.7767
 10
3.83545
 20
62.0889
 10
4.01763
 20
62.3695
 10
4.25415
 20
62.606
 10
4.53468
 20
62.7882
 10
4.84695
 20
62.908
 10
5.17732
 20
62.9604
 10
5.51136
 20
62.9428
 10
5.83445
 20
62.8563
 10
6.13248
 20
62.7044
 10
6.39243
 20
62.4939
 10
6.60293
 20
62.234
 10
6.75479
 20
61.9359
 10
6.84136
 20
61.6128
 10
6.85887
 20
61.2788
 10
6.80654
 20
60.9484
 10
6.68667
 20
60.6362
 10
6.5045
 20
60.3556
 10
6.26797
 20
60.1191
 10
5.98745
 20
59.9369
 10
5.67517
 20
59.8171
 10
5.3448
 20
59.7647
 10
5.01077
 20
59.7822
 10
4.68767
 20
59.8688
 10
4.38964
 20
60.0207
 10
4.12969
 20
60.2312
 10
3.91919
 20
60.4911
 10
3.76733
 20
60.7892
 10
3.68076
 20
61.1123
  0
LWPOLYLINE
100
AcDbEntity
  8
0
100
AcDbPolyline
 90
30
 70
1
 10
13.9214
 20
-106.443
 10
13.9976
 20
-106.011
 10
14.1621
 20
-105.604
 10
14.4076
 20
-105.24
 10
14.7234
 20
-104.935
 10
15.0957
 20
-104.702
 10
15.5082
 20
-104.552
 10
15.943
 20
-104.491
 10
16.3809
 20
-104.521
 10
16.8029
 20
-104.642
 10
17.1906
 20
-104.849
 10
17.5269
 20
-105.131
 10
17.7971
 20
-105.477
 10
17.9896
 20
-105.871
 10
18.0958
 20
-106.297
 10
18.1111
 20
-106.736
 10
18.0349
 20
-107.168
 10
17.8704
 20
-107.575
 10
17.6249
 20
-107.939
 10
17.3091
 20
-108.244
 10
16.9368
 20
-108.477
 10
16.5243
 20
-108.627
 10
16.0895
 20
-108.688
 10
15.6516
 20
-108.658
 10
15.2296
 20
-108.537
 10
14.8419
 20
-108.331
 10
14.5056
 20
-108.048
 10
14.2353
 20
-107.702
 10
14.0429
 20
-107.308
 10
13.9367
 20
-106.882
  0
LWPOLYLINE
100
AcDbEntity
  8
0
100
AcDbPolyline
 90
30
 70
1
 10
13.9214
 20
106.443
 10
13.9367
 20
106.882
 10
14.0429
 20
107.308
 10
14.2353
 20
107.702
 10
14.5056
 20
108.048
 10
14.8419
 20
108.331
 10
15.2296
 20
108.537
 10
15.6516
 20
108.658
 10
16.0895
 20
108.688
 10
16.5243
 20
108.627
 10
16.9368
 20
108.477
 10
17.3091
 20
108.244
 10
17.6249
 20
107.939
 10
17.8704
 20
107.575
 10
18.0349
 20
107.168
 10
18.1111
 20
106.736
 10
18.0958
 20
106.297
 10
17.9896
 20
105.871
 10
17.7971
 20
105.477
 10
17.5269
 20
105.131
 10
17.1906
 20
104.849
 10
16.8029
 20
104.642
 10
16.3809
 20
104.521
 10
15.943
 20
104.491
 10
15.5082
 20
104.552
 10
15.0957
 20
104.702
 10
14.7234
 20
104.935
 10
14.4076
 20
105.24
 10
14.1621
 20
105.604
 10
13.9976
 20
106.011
  0
LWPOLYLINE
100
AcDbEntity
  8
0
100
AcDbPolyline
 90
60
 70
1
 10
22.5667
 20
-46.188
 10
22.5891
 20
-45.7595
 10
22.6563
 20
-45.3356
 10
22.7673
 20
-44.9211
 10
22.9211
 20
-44.5204
 10
23.116
 20
-44.138
 10
23.3497
 20
-43.7781
 10
23.6198
 20
-43.4446
 10
23.9232
 20
-43.1411
 10
24.2567
 20
-42.8711
 10
24.6167
 20
-42.6373
 10
24.999
 20
-42.4425
 10
25.3997
 20
-42.2887
 10
25.8142
 20
-42.1776
 10
26.2381
 20
-42.1105
 10
26.6667
 20
-42.088
 10
27.0952
 20
-42.1105
 10
27.5191
 20
-42.1776
 10
27.9336
 20
-42.2887
 10
28.3343
 20
-42.4425
 10
28.7167
 20
-42.6373
 10
29.0766
 20
-42.8711
 10
29.4101
 20
-43.1411
 10
29.7136
 20
-43.4446
 10
29.9836
 20
-43.7781
 10
30.2174
 20
-44.138
 10
30.4122
 20
-44.5204
 10
30.566
 20
-44.9211
 10
30.6771
 20
-45.3356
 10
30.7442
 20
-45.7595
 10
30.7667
 20
-46.188
 10
30.7442
 20
-46.6166
 10
30.6771
 20
-47.0405
 10
30.566
 20
-47.455
 10
30.4122
 20
-47.8556
 10
30.2174
 20
-48.238
 10
29.9836
 20
-48.5979
 10
29.7136
 20
-48.9315
 10
29.4101
 20
-49.2349
 10
29.0766
 20
-49.505
 10
28.7167
 20
-49.7387
 10
28.3343
 20
-49.9336
 10
27.9336
 20
-50.0874
 10
27.5191
 20
-50.1984
 10
27.0952
 20
-50.2656
 10
26.6667
 20
-50.288
 10
26.2381
 20
-50.2656
 10
25.8142
 20
-50.1984
 10
25.3997
 20
-50.0874
 10
24.999
 20
-49.9336
 10
24.6167
 20
-49.7387
 10
24.2567
 20
-49.505
 10
23.9232
 20
-49.2349
 10
23.6198
 20
-48.9315
 10
23.3497
 20
-48.5979
 10
23.116
 20
-48.238
 10
22.9211
 20
-47.8556
 10
22.7673
 20
-47.455
 10
22.6563
 20
-47.0405
 10
22.5891
 20
-46.6166
  0
LWPOLYLINE
100
AcDbEntity
  8
0
100
AcDbPolyline
 90
60
 70
1
 10
22.5667
 20
46.188
 10
22.5891
 20
46.6166
 10
22.6563
 20
47.0405
 10
22.7673
 20
47.455
 10
22.9211
 20
47.8556
 10
23.116
 20
48.238
 10
23.3497
 20
48.5979
 10
23.6198
 20
48.9315
 10
23.9232
 20
49.2349
 10
24.2567
 20
49.505
 10
24.6167
 20
49.7387
 10
24.999
 20
49.9336
 10
25.3997
 20
50.0874
 10
25.8142
 20
50.1984
 10
26.2381
 20
50.2656
 10
26.6667
 20
50.288
 10
27.0952
 20
50.2656
 10
27.5191
 20
50.1984
 10
27.9336
 20
50.0874
 10
28.3343
 20
49.9336
 10
28.7167
 20
49.7387
 10
29.0766
 20
49.505
 10
29.4101
 20
49.2349
 10
29.7136
 20
48.9315
 10
29.9836
 20
48.5979
 10
30.2174
 20
48.238
 10
30.4122
 20
47.8556
 10
30.566
 20
47.455
 10
30.6771
 20
47.0405
 10
30.7442
 20
46.6166
 10
30.7667
 20
46.188
 10
30.7442
 20
45.7595
 10
30.6771
 20
45.3356
 10
30.566
 20
44.9211
 10
30.4122
 20
44.5204
 10
30.2174
 20
44.138
 10
29.9836
 20
43.7781
 10
29.7136
 20
43.4446
 10
29.4101
 20
43.1411
 10
29.0766
 20
42.8711
 10
28.7167
 20
42.6373
 10
28.3343
 20
42.4425
 10
27.9336
 20
42.2887
 10
27.5191
 20
42.1776
 10
27.0952
 20
42.1105
 10
26.6667
 20
42.088
 10
26.2381
 20
42.1105
 10
25.8142
 20
42.1776
 10
25.3997
 20
42.2887
 10
24.999
 20
42.4425
 10
24.6167
 20
42.6373
 10
24.2567
 20
42.8711
 10
23.9232
 20
43.1411
 10
23.6198
 20
43.4446
 10
23.3497
 20
43.7781
 10
23.116
 20
44.138
 10
22.9211
 20
44.5204
 10
22.7673
 20
44.9211
 10
22.6563
 20
45.3356
 10
22.5891
 20
45.7595
  0
LWPOLYLINE
100
AcDbEntity
  8
0
100
AcDbPolyline
 90
30
 70
1
 10
35.2222
 20
-106.736
 10
35.2375
 20
-106.297
 10
35.3437
 20
-105.871
 10
35.5362
 20
-105.477
 10
35.8065
 20
-105.131
 10
36.1428
 20
-104.849
 10
36.5304
 20
-104.642
 10
36.9524
 20
-104.521
 10
37.3904
 20
-104.491
 10
37.8251
 20
-104.552
 10
38.2377
 20
-104.702
 10
38.61
 20
-104.935
 10
38.9258
 20
-105.24
 10
39.1713
 20
-105.604
 10
39.3357
 20
-106.011
 10
39.412
 20
-106.443
 10
39.3967
 20
-106.882
 10
39.2904
 20
-107.308
 10
39.098
 20
-107.702
 10
38.8277
 20
-108.048
 10
38.4914
 20
-108.331
 10
38.1038
 20
-108.537
 10
37.6817
 20
-108.658
 10
37.2438
 20
-108.688
 10
36.8091
 20
-108.627
 10
36.3965
 20
-108.477
 10
36.0242
 20
-108.244
 10
35.7084
 20
-107.939
 10
35.4629
 20
-107.575
 10
35.2984
 20
-107.168
  0
LWPOLYLINE
100
AcDbEntity
  8
0
100
AcDbPolyline
 90
30
 70
1
 10
35.2222
 20
106.736
 10
35.2984
 20
107.168
 10
35.4629
 20
107.575
 10
35.7084
 20
107.939
 10
36.0242
 20
108.244
 10
36.3965
 20
108.477
 10
36.8091
 20
108.627
 10
37.2438
 20
108.688
 10
37.6817
 20
108.658
 10
38.1038
 20
108.537
 10
38.4914
 20
108.331
 10
38.8277
 20
108.048
 10
39.098
 20
107.702
 10
39.2904
 20
107.308
 10
39.3967
 20
106.882
 10
39.412
 20
106.443
 10
39.3357
 20
106.011
 10
39.1713
 20
105.604
 10
38.9258
 20
105.24
 10
38.61
 20
104.935
 10
38.2377
 20
104.702
 10
37.8251
 20
104.552
 10
37.3904
 20
104.491
 10
36.9524
 20
104.521
 10
36.5304
 20
104.642
 10
36.1428
 20
104.849
 10
35.8065
 20
105.131
 10
35.5362
 20
105.477
 10
35.3437
 20
105.871
 10
35.2375
 20
106.297
  0
LWPOLYLINE
100
AcDbEntity
  8
0
100
AcDbPolyline
 90
60
 70
1
 10
51.2333
 20
0
 10
51.2448
 20
0.219509
 10
51.2792
 20
0.436614
 10
51.3361
 20
0.648935
 10
51.4149
 20
0.854146
 10
51.5147
 20
1.05
 10
51.6344
 20
1.23435
 10
51.7727
 20
1.40517
 10
51.9282
 20
1.5606
 10
52.099
 20
1.69894
 10
52.2833
 20
1.81865
 10
52.4792
 20
1.91844
 10
52.6844
 20
1.99722
 10
52.8967
 20
2.05411
 10
53.1138
 20
2.0885
 10
53.3333
 20
2.1
 10
53.5528
 20
2.0885
 10
53.7699
 20
2.05411
 10
53.9823
 20
1.99722
 10
54.1875
 20
1.91844
 10
54.3833
 20
1.81865
 10
54.5677
 20
1.69894
 10
54.7385
 20
1.5606
 10
54.8939
 20
1.40517
 10
55.0323
 20
1.23435
 10
55.152
 20
1.05
 10
55.2518
 20
0.854146
 10
55.3306
 20
0.648935
 10
55.3874
 20
0.436614
 10
55.4218
 20
0.219509
 10
55.4333
 20
0
 10
55.4218
 20
-0.219509
 10
55.3874
 20
-0.436614
 10
55.3306
 20
-0.648935
 10
55.2518
 20
-0.854146
 10
55.152
 20
-1.05
 10
55.0323
 20
-1.23435
 10
54.8939
 20
-1.40517
 10
54.7385
 20
-1.5606
 10
54.5677
 20
-1.69894
 10
54.3833
 20
-1.81865
 10
54.1875
 20
-1.91844
 10
53.9823
 20
-1.99722
 10
53.7699
 20
-2.05411
 10
53.5528
 20
-2.0885
 10
53.3333
 20
-2.1
 10
53.1138
 20
-2.0885
 10
52.8967
 20
-2.05411
 10
52.6844
 20
-1.99722
 10
52.4792
 20
-1.91844
 10
52.2833
 20
-1.81865
 10
52.099
 20
-1.69894
 10
51.9282
 20
-1.5606
 10
51.7727
 20
-1.40517
 10
51.6344
 20
-1.23435
 10
51.5147
 20
-1.05
 10
51.4149
 20
-0.854146
 10
51.3361
 20
-0.648935
 10
51.2792
 20
-0.436614
 10
51.2448
 20
-0.219509
  0
LWPOLYLINE
100
AcDbEntity
  8
0
100
AcDbPolyline
 90
30
 70
1
 10
55.2333
 20
-99.3042
 10
55.2792
 20
-98.8676
 10
55.4149
 20
-98.4501
 10
55.6344
 20
-98.0699
 10
55.9282
 20
-97.7436
 10
56.2833
 20
-97.4856
 10
56.6844
 20
-97.307
 10
57.1138
 20
-97.2158
 10
57.5528
 20
-97.2158
 10
57.9823
 20
-97.307
 10
58.3833
 20
-97.4856
 10
58.7385
 20
-97.7436
 10
59.0323
 20
-98.0699
 10
59.2518
 20
-98.4501
 10
59.3874
 20
-98.8676
 10
59.4333
 20
-99.3042
 10
59.3874
 20
-99.7409
 10
59.2518
 20
-100.158
 10
59.0323
 20
-100.539
 10
58.7385
 20
-100.865
 10
58.3833
 20
-101.123
 10
57.9823
 20
-101.301
 10
57.5528
 20
-101.393
 10
57.1138
 20
-101.393
 10
56.6844
 20
-101.301
 10
56.2833
 20
-101.123
 10
55.9282
 20
-100.865
 10
55.6344
 20
-100.539
 10
55.4149
 20
-100.158
 10
55.2792
 20
-99.7409
  0
LWPOLYLINE
100
AcDbEntity
  8
0
100
AcDbPolyline
 90
30
 70
1
 10
55.2333
 20
99.3042
 10
55.2792
 20
99.7409
 10
55.4149
 20
100.158
 10
55.6344
 20
100.539
 10
55.9282
 20
100.865
 10
56.2833
 20
101.123
 10
56.6844
 20
101.301
 10
57.1138
 20
101.393
 10
57.5528
 20
101.393
 10
57.9823
 20
101.301
 10
58.3833
 20
101.123
 10
58.7385
 20
100.865
 10
59.0323
 20
100.539
 10
59.2518
 20
100.158
 10
59.3874
 20
99.7409
 10
59.4333
 20
99.3042
 10
59.3874
 20
98.8676
 10
59.2518
 20
98.4501
 10
59.0323
 20
98.0699
 10
58.7385
 20
97.7436
 10
58.3833
 20
97.4856
 10
57.9823
 20
97.307
 10
57.5528
 20
97.2158
 10
57.1138
 20
97.2158
 10
56.6844
 20
97.307
 10
56.2833
 20
97.4856
 10
55.9282
 20
97.7436
 10
55.6344
 20
98.0699
 10
55.4149
 20
98.4501
 10
55.2792
 20
98.8676
  0
LWPOLYLINE
100
AcDbEntity
  8
0
100
AcDbPolyline
 90
30
 70
1
 10
71.5558
 20
-85.4658
 10
71.6321
 20
-85.0335
 10
71.7965
 20
-84.6264
 10
72.042
 20
-84.2625
 10
72.3578
 20
-83.9575
 10
72.7301
 20
-83.7249
 10
73.1427
 20
-83.5747
 10
73.5774
 20
-83.5136
 10
74.0154
 20
-83.5442
 10
74.4374
 20
-83.6652
 10
74.825
 20
-83.8713
 10
75.1613
 20
-84.1535
 10
75.4316
 20
-84.4995
 10
75.6241
 20
-84.8941
 10
75.7303
 20
-85.3201
 10
75.7456
 20
-85.7588
 10
75.6694
 20
-86.1912
 10
75.5049
 20
-86.5982
 10
75.2594
 20
-86.9622
 10
74.9436
 20
-87.2672
 10
74.5713
 20
-87.4998
 10
74.1588
 20
-87.6499
 10
73.724
 20
-87.711
 10
73.2861
 20
-87.6804
 10
72.8641
 20
-87.5594
 10
72.4764
 20
-87.3533
 10
72.1401
 20
-87.0711
 10
71.8698
 20
-86.7252
 10
71.6774
 20
-86.3306
 10
71.5712
 20
-85.9046
  0
LWPOLYLINE
100
AcDbEntity
  8
0
100
AcDbPolyline
 90
30
 70
1
 10
71.5558
 20
85.4658
 10
71.5712
 20
85.9046
 10
71.6774
 20
86.3306
 10
71.8698
 20
86.7252
 10
72.1401
 20
87.0711
 10
72.4764
 20
87.3533
 10
72.8641
 20
87.5594
 10
73.2861
 20
87.6804
 10
73.724
 20
87.711
 10
74.1588
 20
87.6499
 10
74.5713
 20
87.4998
 10
74.9436
 20
87.2672
 10
75.2594
 20
86.9622
 10
75.5049
 20
86.5982
 10
75.6694
 20
86.1912
 10
75.7456
 20
85.7588
 10
75.7303
 20
85.3201
 10
75.6241
 20
84.8941
 10
75.4316
 20
84.4995
 10
75.1613
 20
84.1535
 10
74.825
 20
83.8713
 10
74.4374
 20
83.6652
 10
74.0154
 20
83.5442
 10
73.5774
 20
83.5136
 10
73.1427
 20
83.5747
 10
72.7301
 20
83.7249
 10
72.3578
 20
83.9575
 10
72.042
 20
84.2625
 10
71.7965
 20
84.6264
 10
71.6321
 20
85.0335
  0
LWPOLYLINE
100
AcDbEntity
  8
0
100
AcDbPolyline
 90
30
 70
1
 10
82.2063
 20
-25.0643
 10
82.2825
 20
-24.6319
 10
82.447
 20
-24.2249
 10
82.6925
 20
-23.8609
 10
83.0083
 20
-23.556
 10
83.3806
 20
-23.3233
 10
83.7931
 20
-23.1732
 10
84.2279
 20
-23.1121
 10
84.6658
 20
-23.1427
 10
85.0878
 20
-23.2637
 10
85.4755
 20
-23.4698
 10
85.8118
 20
-23.752
 10
86.082
 20
-24.098
 10
86.2745
 20
-24.4925
 10
86.3807
 20
-24.9185
 10
86.396
 20
-25.3573
 10
86.3198
 20
-25.7896
 10
86.1553
 20
-26.1967
 10
85.9098
 20
-26.5606
 10
85.594
 20
-26.8656
 10
85.2217
 20
-27.0983
 10
84.8092
 20
-27.2484
 10
84.3744
 20
-27.3095
 10
83.9365
 20
-27.2789
 10
83.5145
 20
-27.1579
 10
83.1268
 20
-26.9518
 10
82.7905
 20
-26.6696
 10
82.5202
 20
-26.3236
 10
82.3278
 20
-25.929
 10
82.2216
 20
-25.503
  0
LWPOLYLINE
100
AcDbEntity
  8
0
100
AcDbPolyline
 90
30
 70
1
 10
82.2063
 20
25.0643
 10
82.2216
 20
25.503
 10
82.3278
 20
25.929
 10
82.5202
 20
26.3236
 10
82.7905
 20
26.6696
 10
83.1268
 20
26.9518
 10
83.5145
 20
27.1579
 10
83.9365
 20
27.2789
 10
84.3744
 20
27.3095
 10
84.8092
 20
27.2484
 10
85.2217
 20
27.0983
 10
85.594
 20
26.8656
 10
85.9098
 20
26.5606
 10
86.1553
 20
26.1967
 10
86.3198
 20
25.7896
 10
86.396
 20
25.3573
 10
86.3807
 20
24.9185
 10
86.2745
 20
24.4925
 10
86.082
 20
24.098
 10
85.8118
 20
23.752
 10
85.4755
 20
23.4698
 10
85.0878
 20
23.2637
 10
84.6658
 20
23.1427
 10
84.2279
 20
23.1121
 10
83.7931
 20
23.1732
 10
83.3806
 20
23.3233
 10
83.0083
 20
23.556
 10
82.6925
 20
23.8609
 10
82.447
 20
24.2249
 10
82.2825
 20
24.6319
  0
LWPOLYLINE
100
AcDbEntity
  8
0
100
AcDbPolyline
 90
30
 70
1
 10
82.2063
 20
-67.3117
 10
82.2216
 20
-66.873
 10
82.3278
 20
-66.447
 10
82.5202
 20
-66.0524
 10
82.7905
 20
-65.7065
 10
83.1268
 20
-65.4243
 10
83.5145
 20
-65.2182
 10
83.9365
 20
-65.0972
 10
84.3744
 20
-65.0665
 10
84.8092
 20
-65.1276
 10
85.2217
 20
-65.2778
 10
85.594
 20
-65.5104
 10
85.9098
 20
-65.8154
 10
86.1553
 20
-66.1794
 10
86.3198
 20
-66.5864
 10
86.396
 20
-67.0188
 10
86.3807
 20
-67.4575
 10
86.2745
 20
-67.8835
 10
86.082
 20
-68.2781
 10
85.8118
 20
-68.624
 10
85.4755
 20
-68.9062
 10
85.0878
 20
-69.1123
 10
84.6658
 20
-69.2334
 10
84.2279
 20
-69.264
 10
83.7931
 20
-69.2029
 10
83.3806
 20
-69.0527
 10
83.0083
 20
-68.8201
 10
82.6925
 20
-68.5151
 10
82.447
 20
-68.1511
 10
82.2825
 20
-67.7441
  0
LWPOLYLINE
100
AcDbEntity
  8
0
100
AcDbPolyline
 90
30
 70
1
 10
82.2063
 20
67.3117
 10
82.2825
 20
67.7441
 10
82.447
 20
68.1511
 10
82.6925
 20
68.5151
 10
83.0083
 20
68.8201
 10
83.3806
 20
69.0527
 10
83.7931
 20
69.2029
 10
84.2279
 20
69.264
 10
84.6658
 20
69.2334
 10
85.0878
 20
69.1123
 10
85.4755
 20
68.9062
 10
85.8118
 20
68.624
 10
86.082
 20
68.2781
 10
86.2745
 20
67.8835
 10
86.3807
 20
67.4575
 10
86.396
 20
67.0188
 10
86.3198
 20
66.5864
 10
86.1553
 20
66.1794
 10
85.9098
 20
65.8154
 10
85.594
 20
65.5104
 10
85.2217
 20
65.2778
 10
84.8092
 20
65.1276
 10
84.3744
 20
65.0665
 10
83.9365
 20
65.0972
 10
83.5145
 20
65.2182
 10
83.1268
 20
65.4243
 10
82.7905
 20
65.7065
 10
82.5202
 20
66.0524
 10
82.3278
 20
66.447
 10
82.2216
 20
66.873
  0
LWPOLYLINE
100
AcDbEntity
  8
0
100
AcDbPolyline
 90
30
 70
1
 10
85.9
 20
0
 10
85.9459
 20
0.436614
 10
86.0816
 20
0.854146
 10
86.3011
 20
1.23435
 10
86.5948
 20
1.5606
 10
86.95
 20
1.81865
 10
87.3511
 20
1.99722
 10
87.7805
 20
2.0885
 10
88.2195
 20
2.0885
 10
88.6489
 20
1.99722
 10
89.05
 20
1.81865
 10
89.4052
 20
1.5606
 10
89.6989
 20
1.23435
 10
89.9184
 20
0.854146
 10
90.0541
 20
0.436614
 10
90.1
 20
0
 10
90.0541
 20
-0.436614
 10
89.9184
 20
-0.854146
 10
89.6989
 20
-1.23435
 10
89.4052
 20
-1.5606
 10
89.05
 20
-1.81865
 10
88.6489
 20
-1.99722
 10
88.2195
 20
-2.0885
 10
87.7805
 20
-2.0885
 10
87.3511
 20
-1.99722
 10
86.95
 20
-1.81865
 10
86.5948
 20
-1.5606
 10
86.3011
 20
-1.23435
 10
86.0816
 20
-0.854146
 10
85.9459
 20
-0.436614
  0
LWPOLYLINE
100
AcDbEntity
  8
0
100
AcDbPolyline
 90
30
 70
1
 10
85.9
 20
-46.188
 10
85.9459
 20
-45.7514
 10
86.0816
 20
-45.3339
 10
86.3011
 20
-44.9537
 10
86.5948
 20
-44.6274
 10
86.95
 20
-44.3694
 10
87.3511
 20
-44.1908
 10
87.7805
 20
-44.0995
 10
88.2195
 20
-44.0995
 10
88.6489
 20
-44.1908
 10
89.05
 20
-44.3694
 10
89.4052
 20
-44.6274
 10
89.6989
 20
-44.9537
 10
89.9184
 20
-45.3339
 10
90.0541
 20
-45.7514
 10
90.1
 20
-46.188
 10
90.0541
 20
-46.6246
 10
89.9184
 20
-47.0422
 10
89.6989
 20
-47.4224
 10
89.4052
 20
-47.7486
 10
89.05
 20
-48.0067
 10
88.6489
 20
-48.1852
 10
88.2195
 20
-48.2765
 10
87.7805
 20
-48.2765
 10
87.3511
 20
-48.1852
 10
86.95
 20
-48.0067
 10
86.5948
 20
-47.7486
 10
86.3011
 20
-47.4224
 10
86.0816
 20
-47.0422
 10
85.9459
 20
-46.6246
  0
LWPOLYLINE
100
AcDbEntity
  8
0
100
AcDbPolyline
 90
30
 70
1
 10
85.9
 20
46.188
 10
85.9459
 20
46.6246
 10
86.0816
 20
47.0422
 10
86.3011
 20
47.4224
 10
86.5948
 20
47.7486
 10
86.95
 20
48.0067
 10
87.3511
 20
48.1852
 10
87.7805
 20
48.2765
 10
88.2195
 20
48.2765
 10
88.6489
 20
48.1852
 10
89.05
 20
48.0067
 10
89.4052
 20
47.7486
 10
89.6989
 20
47.4224
 10
89.9184
 20
47.0422
 10
90.0541
 20
46.6246
 10
90.1
 20
46.188
 10
90.0541
 20
45.7514
 10
89.9184
 20
45.3339
 10
89.6989
 20
44.9537
 10
89.4052
 20
44.6274
 10
89.05
 20
44.3694
 10
88.6489
 20
44.1908
 10
88.2195
 20
44.0995
 10
87.7805
 20
44.0995
 10
87.3511
 20
44.1908
 10
86.95
 20
44.3694
 10
86.5948
 20
44.6274
 10
86.3011
 20
44.9537
 10
86.0816
 20
45.3339
 10
85.9459
 20
45.7514
  0
ENDSEC
  0
EOF
