999
DXF from OpenSCAD
  0
SECTION
  2
HEADER
  9
$ACADVER
  1
AC1006
  9
$INSBASE
 10
0.0
 20
0.0
 30
0.0
  9
$EXTMIN
 10
-63.7492
 20
-63.7492
  9
$EXTMAX
 10
63.7492
 20
63.7492
  9
$LINMIN
 10
-63.7492
 20
-63.7492
  9
$LINMAX
 10
63.7492
 20
63.7492
  0
ENDSEC
  0
SECTION
  2
TABLES
  0
TABLE
  2
LTYPE
 70
1
  0
LTYPE
  2
CONTINUOUS
 70
64
  3
Solid line
 72
65
 73
0
 40
0.000000
  0
ENDTAB
  0
TABLE
  2
LAYER
 70
6
  0
LAYER
  2
0
 70
64
 62
7
  6
CONTINUOUS
  0
ENDTAB
  0
TABLE
  2
STYLE
 70
0
  0
ENDTAB
  0
ENDSEC
  0
SECTION
  2
BLOCKS
  0
ENDSEC
  0
SECTION
  2
ENTITIES
  0
LWPOLYLINE
100
AcDbEntity
  8
0
100
AcDbPolyline
 90
720
 70
1
 10
-63.7492
 20
0
 10
-63.7401
 20
-1.03965
 10
-63.7395
 20
-1.11258
 10
-63.7123
 20
-2.15191
 10
-63.7104
 20
-2.22482
 10
-63.7072
 20
-2.29768
 10
-63.6618
 20
-3.33638
 10
-63.5984
 20
-4.37413
 10
-63.5939
 20
-4.44692
 10
-63.5882
 20
-4.51963
 10
-63.5066
 20
-5.55611
 10
-63.407
 20
-6.59101
 10
-63.4
 20
-6.66361
 10
-63.3917
 20
-6.73607
 10
-63.274
 20
-7.76907
 10
-63.1383
 20
-8.79987
 10
-63.1288
 20
-8.87218
 10
-63.118
 20
-8.9443
 10
-62.9644
 20
-9.97257
 10
-62.7928
 20
-10.998
 10
-62.7807
 20
-11.0699
 10
-62.5913
 20
-12.0922
 10
-62.578
 20
-12.1639
 10
-62.5634
 20
-12.2354
 10
-62.3561
 20
-13.2542
 10
-62.1311
 20
-14.2693
 10
-62.1153
 20
-14.3405
 10
-61.8726
 20
-15.3514
 10
-61.8556
 20
-15.4223
 10
-61.8373
 20
-15.4929
 10
-61.577
 20
-16.4995
 10
-61.2992
 20
-17.5014
 10
-61.2797
 20
-17.5717
 10
-60.9844
 20
-18.5685
 10
-60.9637
 20
-18.6385
 10
-60.9417
 20
-18.708
 10
-60.6291
 20
-19.6996
 10
-60.2992
 20
-20.6856
 10
-60.2761
 20
-20.7547
 10
-60.2517
 20
-20.8235
 10
-59.9047
 20
-21.8035
 10
-59.8791
 20
-21.8718
 10
-59.515
 20
-22.8457
 10
-59.134
 20
-23.813
 10
-59.1072
 20
-23.8809
 10
-58.7094
 20
-24.8414
 10
-58.6815
 20
-24.9088
 10
-58.6524
 20
-24.9757
 10
-58.2378
 20
-25.9291
 10
-58.2076
 20
-25.9955
 10
-57.7764
 20
-26.9416
 10
-57.3288
 20
-27.88
 10
-57.2974
 20
-27.9458
 10
-57.2649
 20
-28.0111
 10
-56.801
 20
-28.9415
 10
-56.7673
 20
-29.0062
 10
-56.2872
 20
-29.9284
 10
-55.7911
 20
-30.8421
 10
-55.7563
 20
-30.9062
 10
-55.2444
 20
-31.8111
 10
-55.2084
 20
-31.8746
 10
-54.6808
 20
-32.7704
 10
-54.6437
 20
-32.8333
 10
-54.6056
 20
-32.8955
 10
-54.0624
 20
-33.7819
 10
-54.0232
 20
-33.8434
 10
-53.4646
 20
-34.7203
 10
-52.8907
 20
-35.5873
 10
-52.8505
 20
-35.6481
 10
-52.2616
 20
-36.5049
 10
-52.2203
 20
-36.565
 10
-52.1779
 20
-36.6244
 10
-51.5742
 20
-37.4708
 10
-50.9558
 20
-38.3066
 10
-50.9124
 20
-38.3652
 10
-50.868
 20
-38.4231
 10
-50.2351
 20
-39.2479
 10
-50.1897
 20
-39.305
 10
-49.5424
 20
-40.1187
 10
-48.8811
 20
-40.9209
 10
-48.8347
 20
-40.9772
 10
-48.1595
 20
-41.7678
 10
-48.1121
 20
-41.8232
 10
-47.4232
 20
-42.6019
 10
-47.3749
 20
-42.6566
 10
-47.3256
 20
-42.7103
 10
-46.6232
 20
-43.4769
 10
-46.573
 20
-43.5298
 10
-45.8573
 20
-44.2839
 10
-45.1286
 20
-45.0255
 10
-45.0775
 20
-45.0775
 10
-45.0255
 20
-45.1286
 10
-44.2839
 20
-45.8573
 10
-43.5298
 20
-46.573
 10
-43.4769
 20
-46.6232
 10
-42.7103
 20
-47.3256
 10
-42.6566
 20
-47.3749
 10
-42.6019
 20
-47.4232
 10
-41.8232
 20
-48.1121
 10
-41.7678
 20
-48.1595
 10
-40.9772
 20
-48.8347
 10
-40.9209
 20
-48.8811
 10
-40.1187
 20
-49.5424
 10
-39.305
 20
-50.1897
 10
-39.2479
 20
-50.2351
 10
-38.4231
 20
-50.868
 10
-38.3652
 20
-50.9124
 10
-38.3066
 20
-50.9558
 10
-37.4708
 20
-51.5742
 10
-36.6244
 20
-52.1779
 10
-36.565
 20
-52.2203
 10
-36.5049
 20
-52.2616
 10
-35.6481
 20
-52.8505
 10
-35.5873
 20
-52.8907
 10
-34.7203
 20
-53.4646
 10
-33.8434
 20
-54.0232
 10
-33.7819
 20
-54.0624
 10
-32.8955
 20
-54.6056
 10
-32.8333
 20
-54.6437
 10
-32.7704
 20
-54.6808
 10
-31.8746
 20
-55.2084
 10
-31.8111
 20
-55.2444
 10
-30.9062
 20
-55.7563
 10
-30.8421
 20
-55.7911
 10
-29.9284
 20
-56.2872
 10
-29.0062
 20
-56.7673
 10
-28.9415
 20
-56.801
 10
-28.0111
 20
-57.2649
 10
-27.9458
 20
-57.2974
 10
-27.88
 20
-57.3288
 10
-26.9416
 20
-57.7764
 10
-25.9955
 20
-58.2076
 10
-25.9291
 20
-58.2378
 10
-24.9757
 20
-58.6524
 10
-24.9088
 20
-58.6815
 10
-24.8414
 20
-58.7094
 10
-23.8809
 20
-59.1072
 10
-23.813
 20
-59.134
 10
-22.8457
 20
-59.515
 10
-21.8718
 20
-59.8791
 10
-21.8035
 20
-59.9047
 10
-20.8235
 20
-60.2517
 10
-20.7547
 20
-60.2761
 10
-20.6856
 20
-60.2992
 10
-19.6996
 20
-60.6291
 10
-18.708
 20
-60.9417
 10
-18.6385
 20
-60.9637
 10
-18.5685
 20
-60.9844
 10
-17.5717
 20
-61.2797
 10
-17.5014
 20
-61.2992
 10
-16.4995
 20
-61.577
 10
-15.4929
 20
-61.8373
 10
-15.4223
 20
-61.8556
 10
-15.3514
 20
-61.8726
 10
-14.3405
 20
-62.1153
 10
-14.2693
 20
-62.1311
 10
-13.2542
 20
-62.3561
 10
-12.2354
 20
-62.5634
 10
-12.1639
 20
-62.578
 10
-12.0922
 20
-62.5913
 10
-11.0699
 20
-62.7807
 10
-10.998
 20
-62.7928
 10
-9.97257
 20
-62.9644
 10
-8.9443
 20
-63.118
 10
-8.87218
 20
-63.1288
 10
-8.79987
 20
-63.1383
 10
-7.76907
 20
-63.274
 10
-6.73607
 20
-63.3917
 10
-6.66361
 20
-63.4
 10
-6.59101
 20
-63.407
 10
-5.55611
 20
-63.5066
 10
-4.51963
 20
-63.5882
 10
-4.44692
 20
-63.5939
 10
-4.37413
 20
-63.5984
 10
-3.33638
 20
-63.6618
 10
-2.29768
 20
-63.7072
 10
-2.22482
 20
-63.7104
 10
-2.15191
 20
-63.7123
 10
-1.11258
 20
-63.7395
 10
-1.03965
 20
-63.7401
 10
0
 20
-63.7492
 10
1.03965
 20
-63.7401
 10
1.11258
 20
-63.7395
 10
2.15191
 20
-63.7123
 10
2.22482
 20
-63.7104
 10
2.29768
 20
-63.7072
 10
3.33638
 20
-63.6618
 10
4.37413
 20
-63.5984
 10
4.44692
 20
-63.5939
 10
4.51963
 20
-63.5882
 10
5.55611
 20
-63.5066
 10
6.59101
 20
-63.407
 10
6.66361
 20
-63.4
 10
6.73607
 20
-63.3917
 10
7.76907
 20
-63.274
 10
8.79987
 20
-63.1383
 10
8.87218
 20
-63.1288
 10
8.9443
 20
-63.118
 10
9.97257
 20
-62.9644
 10
10.998
 20
-62.7928
 10
11.0699
 20
-62.7807
 10
12.0922
 20
-62.5913
 10
12.1639
 20
-62.578
 10
12.2354
 20
-62.5634
 10
13.2542
 20
-62.3561
 10
14.2693
 20
-62.1311
 10
14.3405
 20
-62.1153
 10
15.3514
 20
-61.8726
 10
15.4223
 20
-61.8556
 10
15.4929
 20
-61.8373
 10
16.4995
 20
-61.577
 10
17.5014
 20
-61.2992
 10
17.5717
 20
-61.2797
 10
18.5685
 20
-60.9844
 10
18.6385
 20
-60.9637
 10
18.708
 20
-60.9417
 10
19.6996
 20
-60.6291
 10
20.6856
 20
-60.2992
 10
20.7547
 20
-60.2761
 10
20.8235
 20
-60.2517
 10
21.8035
 20
-59.9047
 10
21.8718
 20
-59.8791
 10
22.8457
 20
-59.515
 10
23.813
 20
-59.134
 10
23.8809
 20
-59.1072
 10
24.8414
 20
-58.7094
 10
24.9088
 20
-58.6815
 10
24.9757
 20
-58.6524
 10
25.9291
 20
-58.2378
 10
25.9955
 20
-58.2076
 10
26.9416
 20
-57.7764
 10
27.88
 20
-57.3288
 10
27.9458
 20
-57.2974
 10
28.0111
 20
-57.2649
 10
28.9415
 20
-56.801
 10
29.0062
 20
-56.7673
 10
29.9284
 20
-56.2872
 10
30.8421
 20
-55.7911
 10
30.9062
 20
-55.7563
 10
31.8111
 20
-55.2444
 10
31.8746
 20
-55.2084
 10
32.7704
 20
-54.6808
 10
32.8333
 20
-54.6437
 10
32.8955
 20
-54.6056
 10
33.7819
 20
-54.0624
 10
33.8434
 20
-54.0232
 10
34.7203
 20
-53.4646
 10
35.5873
 20
-52.8907
 10
35.6481
 20
-52.8505
 10
36.5049
 20
-52.2616
 10
36.565
 20
-52.2203
 10
36.6244
 20
-52.1779
 10
37.4708
 20
-51.5742
 10
38.3066
 20
-50.9558
 10
38.3652
 20
-50.9124
 10
38.4231
 20
-50.868
 10
39.2479
 20
-50.2351
 10
39.305
 20
-50.1897
 10
40.1187
 20
-49.5424
 10
40.9209
 20
-48.8811
 10
40.9772
 20
-48.8347
 10
41.7678
 20
-48.1595
 10
41.8232
 20
-48.1121
 10
42.6019
 20
-47.4232
 10
42.6566
 20
-47.3749
 10
42.7103
 20
-47.3256
 10
43.4769
 20
-46.6232
 10
43.5298
 20
-46.573
 10
44.2839
 20
-45.8573
 10
45.0255
 20
-45.1286
 10
45.0775
 20
-45.0775
 10
45.1286
 20
-45.0255
 10
45.8573
 20
-44.2839
 10
46.573
 20
-43.5298
 10
46.6232
 20
-43.4769
 10
47.3256
 20
-42.7103
 10
47.3749
 20
-42.6566
 10
47.4232
 20
-42.6019
 10
48.1121
 20
-41.8232
 10
48.1595
 20
-41.7678
 10
48.8347
 20
-40.9772
 10
48.8811
 20
-40.9209
 10
49.5424
 20
-40.1187
 10
50.1897
 20
-39.305
 10
50.2351
 20
-39.2479
 10
50.868
 20
-38.4231
 10
50.9124
 20
-38.3652
 10
50.9558
 20
-38.3066
 10
51.5742
 20
-37.4708
 10
52.1779
 20
-36.6244
 10
52.2203
 20
-36.565
 10
52.2616
 20
-36.5049
 10
52.8505
 20
-35.6481
 10
52.8907
 20
-35.5873
 10
53.4646
 20
-34.7203
 10
54.0232
 20
-33.8434
 10
54.0624
 20
-33.7819
 10
54.6056
 20
-32.8955
 10
54.6437
 20
-32.8333
 10
54.6808
 20
-32.7704
 10
55.2084
 20
-31.8746
 10
55.2444
 20
-31.8111
 10
55.7563
 20
-30.9062
 10
55.7911
 20
-30.8421
 10
56.2872
 20
-29.9284
 10
56.7673
 20
-29.0062
 10
56.801
 20
-28.9415
 10
57.2649
 20
-28.0111
 10
57.2974
 20
-27.9458
 10
57.3288
 20
-27.88
 10
57.7764
 20
-26.9416
 10
58.2076
 20
-25.9955
 10
58.2378
 20
-25.9291
 10
58.6524
 20
-24.9757
 10
58.6815
 20
-24.9088
 10
58.7094
 20
-24.8414
 10
59.1072
 20
-23.8809
 10
59.134
 20
-23.813
 10
59.515
 20
-22.8457
 10
59.8791
 20
-21.8718
 10
59.9047
 20
-21.8035
 10
60.2517
 20
-20.8235
 10
60.2761
 20
-20.7547
 10
60.2992
 20
-20.6856
 10
60.6291
 20
-19.6996
 10
60.9417
 20
-18.708
 10
60.9637
 20
-18.6385
 10
60.9844
 20
-18.5685
 10
61.2797
 20
-17.5717
 10
61.2992
 20
-17.5014
 10
61.577
 20
-16.4995
 10
61.8373
 20
-15.4929
 10
61.8556
 20
-15.4223
 10
61.8726
 20
-15.3514
 10
62.1153
 20
-14.3405
 10
62.1311
 20
-14.2693
 10
62.3561
 20
-13.2542
 10
62.5634
 20
-12.2354
 10
62.578
 20
-12.1639
 10
62.5913
 20
-12.0922
 10
62.7807
 20
-11.0699
 10
62.7928
 20
-10.998
 10
62.9644
 20
-9.97257
 10
63.118
 20
-8.9443
 10
63.1288
 20
-8.87218
 10
63.1383
 20
-8.79987
 10
63.274
 20
-7.76907
 10
63.3917
 20
-6.73607
 10
63.4
 20
-6.66361
 10
63.407
 20
-6.59101
 10
63.5066
 20
-5.55611
 10
63.5882
 20
-4.51963
 10
63.5939
 20
-4.44692
 10
63.5984
 20
-4.37413
 10
63.6618
 20
-3.33638
 10
63.7072
 20
-2.29768
 10
63.7104
 20
-2.22482
 10
63.7123
 20
-2.15191
 10
63.7395
 20
-1.11258
 10
63.7401
 20
-1.03965
 10
63.7492
 20
0
 10
63.7401
 20
1.03965
 10
63.7395
 20
1.11258
 10
63.7123
 20
2.15191
 10
63.7104
 20
2.22482
 10
63.7072
 20
2.29768
 10
63.6618
 20
3.33638
 10
63.5984
 20
4.37413
 10
63.5939
 20
4.44692
 10
63.5882
 20
4.51963
 10
63.5066
 20
5.55611
 10
63.407
 20
6.59101
 10
63.4
 20
6.66361
 10
63.3917
 20
6.73607
 10
63.274
 20
7.76907
 10
63.1383
 20
8.79987
 10
63.1288
 20
8.87218
 10
63.118
 20
8.9443
 10
62.9644
 20
9.97257
 10
62.7928
 20
10.998
 10
62.7807
 20
11.0699
 10
62.5913
 20
12.0922
 10
62.578
 20
12.1639
 10
62.5634
 20
12.2354
 10
62.3561
 20
13.2542
 10
62.1311
 20
14.2693
 10
62.1153
 20
14.3405
 10
61.8726
 20
15.3514
 10
61.8556
 20
15.4223
 10
61.8373
 20
15.4929
 10
61.577
 20
16.4995
 10
61.2992
 20
17.5014
 10
61.2797
 20
17.5717
 10
60.9844
 20
18.5685
 10
60.9637
 20
18.6385
 10
60.9417
 20
18.708
 10
60.6291
 20
19.6996
 10
60.2992
 20
20.6856
 10
60.2761
 20
20.7547
 10
60.2517
 20
20.8235
 10
59.9047
 20
21.8035
 10
59.8791
 20
21.8718
 10
59.515
 20
22.8457
 10
59.134
 20
23.813
 10
59.1072
 20
23.8809
 10
58.7094
 20
24.8414
 10
58.6815
 20
24.9088
 10
58.6524
 20
24.9757
 10
58.2378
 20
25.9291
 10
58.2076
 20
25.9955
 10
57.7764
 20
26.9416
 10
57.3288
 20
27.88
 10
57.2974
 20
27.9458
 10
57.2649
 20
28.0111
 10
56.801
 20
28.9415
 10
56.7673
 20
29.0062
 10
56.2872
 20
29.9284
 10
55.7911
 20
30.8421
 10
55.7563
 20
30.9062
 10
55.2444
 20
31.8111
 10
55.2084
 20
31.8746
 10
54.6808
 20
32.7704
 10
54.6437
 20
32.8333
 10
54.6056
 20
32.8955
 10
54.0624
 20
33.7819
 10
54.0232
 20
33.8434
 10
53.4646
 20
34.7203
 10
52.8907
 20
35.5873
 10
52.8505
 20
35.6481
 10
52.2616
 20
36.5049
 10
52.2203
 20
36.565
 10
52.1779
 20
36.6244
 10
51.5742
 20
37.4708
 10
50.9558
 20
38.3066
 10
50.9124
 20
38.3652
 10
50.868
 20
38.4231
 10
50.2351
 20
39.2479
 10
50.1897
 20
39.305
 10
49.5424
 20
40.1187
 10
48.8811
 20
40.9209
 10
48.8347
 20
40.9772
 10
48.1595
 20
41.7678
 10
48.1121
 20
41.8232
 10
47.4232
 20
42.6019
 10
47.3749
 20
42.6566
 10
47.3256
 20
42.7103
 10
46.6232
 20
43.4769
 10
46.573
 20
43.5298
 10
45.8573
 20
44.2839
 10
45.1286
 20
45.0255
 10
45.0775
 20
45.0775
 10
45.0255
 20
45.1286
 10
44.2839
 20
45.8573
 10
43.5298
 20
46.573
 10
43.4769
 20
46.6232
 10
42.7103
 20
47.3256
 10
42.6566
 20
47.3749
 10
42.6019
 20
47.4232
 10
41.8232
 20
48.1121
 10
41.7678
 20
48.1595
 10
40.9772
 20
48.8347
 10
40.9209
 20
48.8811
 10
40.1187
 20
49.5424
 10
39.305
 20
50.1897
 10
39.2479
 20
50.2351
 10
38.4231
 20
50.868
 10
38.3652
 20
50.9124
 10
38.3066
 20
50.9558
 10
37.4708
 20
51.5742
 10
36.6244
 20
52.1779
 10
36.565
 20
52.2203
 10
36.5049
 20
52.2616
 10
35.6481
 20
52.8505
 10
35.5873
 20
52.8907
 10
34.7203
 20
53.4646
 10
33.8434
 20
54.0232
 10
33.7819
 20
54.0624
 10
32.8955
 20
54.6056
 10
32.8333
 20
54.6437
 10
32.7704
 20
54.6808
 10
31.8746
 20
55.2084
 10
31.8111
 20
55.2444
 10
30.9062
 20
55.7563
 10
30.8421
 20
55.7911
 10
29.9284
 20
56.2872
 10
29.0062
 20
56.7673
 10
28.9415
 20
56.801
 10
28.0111
 20
57.2649
 10
27.9458
 20
57.2974
 10
27.88
 20
57.3288
 10
26.9416
 20
57.7764
 10
25.9955
 20
58.2076
 10
25.9291
 20
58.2378
 10
24.9757
 20
58.6524
 10
24.9088
 20
58.6815
 10
24.8414
 20
58.7094
 10
23.8809
 20
59.1072
 10
23.813
 20
59.134
 10
22.8457
 20
59.515
 10
21.8718
 20
59.8791
 10
21.8035
 20
59.9047
 10
20.8235
 20
60.2517
 10
20.7547
 20
60.2761
 10
20.6856
 20
60.2992
 10
19.6996
 20
60.6291
 10
18.708
 20
60.9417
 10
18.6385
 20
60.9637
 10
18.5685
 20
60.9844
 10
17.5717
 20
61.2797
 10
17.5014
 20
61.2992
 10
16.4995
 20
61.577
 10
15.4929
 20
61.8373
 10
15.4223
 20
61.8556
 10
15.3514
 20
61.8726
 10
14.3405
 20
62.1153
 10
14.2693
 20
62.1311
 10
13.2542
 20
62.3561
 10
12.2354
 20
62.5634
 10
12.1639
 20
62.578
 10
12.0922
 20
62.5913
 10
11.0699
 20
62.7807
 10
10.998
 20
62.7928
 10
9.97257
 20
62.9644
 10
8.9443
 20
63.118
 10
8.87218
 20
63.1288
 10
8.79987
 20
63.1383
 10
7.76907
 20
63.274
 10
6.73607
 20
63.3917
 10
6.66361
 20
63.4
 10
6.59101
 20
63.407
 10
5.55611
 20
63.5066
 10
4.51963
 20
63.5882
 10
4.44692
 20
63.5939
 10
4.37413
 20
63.5984
 10
3.33638
 20
63.6618
 10
2.29768
 20
63.7072
 10
2.22482
 20
63.7104
 10
2.15191
 20
63.7123
 10
1.11258
 20
63.7395
 10
1.03965
 20
63.7401
 10
0
 20
63.7492
 10
-1.03965
 20
63.7401
 10
-1.11258
 20
63.7395
 10
-2.15191
 20
63.7123
 10
-2.22482
 20
63.7104
 10
-2.29768
 20
63.7072
 10
-3.33638
 20
63.6618
 10
-4.37413
 20
63.5984
 10
-4.44692
 20
63.5939
 10
-4.51963
 20
63.5882
 10
-5.55611
 20
63.5066
 10
-6.59101
 20
63.407
 10
-6.66361
 20
63.4
 10
-6.73607
 20
63.3917
 10
-7.76907
 20
63.274
 10
-8.79987
 20
63.1383
 10
-8.87218
 20
63.1288
 10
-8.9443
 20
63.118
 10
-9.97257
 20
62.9644
 10
-10.998
 20
62.7928
 10
-11.0699
 20
62.7807
 10
-12.0922
 20
62.5913
 10
-12.1639
 20
62.578
 10
-12.2354
 20
62.5634
 10
-13.2542
 20
62.3561
 10
-14.2693
 20
62.1311
 10
-14.3405
 20
62.1153
 10
-15.3514
 20
61.8726
 10
-15.4223
 20
61.8556
 10
-15.4929
 20
61.8373
 10
-16.4995
 20
61.577
 10
-17.5014
 20
61.2992
 10
-17.5717
 20
61.2797
 10
-18.5685
 20
60.9844
 10
-18.6385
 20
60.9637
 10
-18.708
 20
60.9417
 10
-19.6996
 20
60.6291
 10
-20.6856
 20
60.2992
 10
-20.7547
 20
60.2761
 10
-20.8235
 20
60.2517
 10
-21.8035
 20
59.9047
 10
-21.8718
 20
59.8791
 10
-22.8457
 20
59.515
 10
-23.813
 20
59.134
 10
-23.8809
 20
59.1072
 10
-24.8414
 20
58.7094
 10
-24.9088
 20
58.6815
 10
-24.9757
 20
58.6524
 10
-25.9291
 20
58.2378
 10
-25.9955
 20
58.2076
 10
-26.9416
 20
57.7764
 10
-27.88
 20
57.3288
 10
-27.9458
 20
57.2974
 10
-28.0111
 20
57.2649
 10
-28.9415
 20
56.801
 10
-29.0062
 20
56.7673
 10
-29.9284
 20
56.2872
 10
-30.8421
 20
55.7911
 10
-30.9062
 20
55.7563
 10
-31.8111
 20
55.2444
 10
-31.8746
 20
55.2084
 10
-32.7704
 20
54.6808
 10
-32.8333
 20
54.6437
 10
-32.8955
 20
54.6056
 10
-33.7819
 20
54.0624
 10
-33.8434
 20
54.0232
 10
-34.7203
 20
53.4646
 10
-35.5873
 20
52.8907
 10
-35.6481
 20
52.8505
 10
-36.5049
 20
52.2616
 10
-36.565
 20
52.2203
 10
-36.6244
 20
52.1779
 10
-37.4708
 20
51.5742
 10
-38.3066
 20
50.9558
 10
-38.3652
 20
50.9124
 10
-38.4231
 20
50.868
 10
-39.2479
 20
50.2351
 10
-39.305
 20
50.1897
 10
-40.1187
 20
49.5424
 10
-40.9209
 20
48.8811
 10
-40.9772
 20
48.8347
 10
-41.7678
 20
48.1595
 10
-41.8232
 20
48.1121
 10
-42.6019
 20
47.4232
 10
-42.6566
 20
47.3749
 10
-42.7103
 20
47.3256
 10
-43.4769
 20
46.6232
 10
-43.5298
 20
46.573
 10
-44.2839
 20
45.8573
 10
-45.0255
 20
45.1286
 10
-45.0775
 20
45.0775
 10
-45.1286
 20
45.0255
 10
-45.8573
 20
44.2839
 10
-46.573
 20
43.5298
 10
-46.6232
 20
43.4769
 10
-47.3256
 20
42.7103
 10
-47.3749
 20
42.6566
 10
-47.4232
 20
42.6019
 10
-48.1121
 20
41.8232
 10
-48.1595
 20
41.7678
 10
-48.8347
 20
40.9772
 10
-48.8811
 20
40.9209
 10
-49.5424
 20
40.1187
 10
-50.1897
 20
39.305
 10
-50.2351
 20
39.2479
 10
-50.868
 20
38.4231
 10
-50.9124
 20
38.3652
 10
-50.9558
 20
38.3066
 10
-51.5742
 20
37.4708
 10
-52.1779
 20
36.6244
 10
-52.2203
 20
36.565
 10
-52.2616
 20
36.5049
 10
-52.8505
 20
35.6481
 10
-52.8907
 20
35.5873
 10
-53.4646
 20
34.7203
 10
-54.0232
 20
33.8434
 10
-54.0624
 20
33.7819
 10
-54.6056
 20
32.8955
 10
-54.6437
 20
32.8333
 10
-54.6808
 20
32.7704
 10
-55.2084
 20
31.8746
 10
-55.2444
 20
31.8111
 10
-55.7563
 20
30.9062
 10
-55.7911
 20
30.8421
 10
-56.2872
 20
29.9284
 10
-56.7673
 20
29.0062
 10
-56.801
 20
28.9415
 10
-57.2649
 20
28.0111
 10
-57.2974
 20
27.9458
 10
-57.3288
 20
27.88
 10
-57.7764
 20
26.9416
 10
-58.2076
 20
25.9955
 10
-58.2378
 20
25.9291
 10
-58.6524
 20
24.9757
 10
-58.6815
 20
24.9088
 10
-58.7094
 20
24.8414
 10
-59.1072
 20
23.8809
 10
-59.134
 20
23.813
 10
-59.515
 20
22.8457
 10
-59.8791
 20
21.8718
 10
-59.9047
 20
21.8035
 10
-60.2517
 20
20.8235
 10
-60.2761
 20
20.7547
 10
-60.2992
 20
20.6856
 10
-60.6291
 20
19.6996
 10
-60.9417
 20
18.708
 10
-60.9637
 20
18.6385
 10
-60.9844
 20
18.5685
 10
-61.2797
 20
17.5717
 10
-61.2992
 20
17.5014
 10
-61.577
 20
16.4995
 10
-61.8373
 20
15.4929
 10
-61.8556
 20
15.4223
 10
-61.8726
 20
15.3514
 10
-62.1153
 20
14.3405
 10
-62.1311
 20
14.2693
 10
-62.3561
 20
13.2542
 10
-62.5634
 20
12.2354
 10
-62.578
 20
12.1639
 10
-62.5913
 20
12.0922
 10
-62.7807
 20
11.0699
 10
-62.7928
 20
10.998
 10
-62.9644
 20
9.97257
 10
-63.118
 20
8.9443
 10
-63.1288
 20
8.87218
 10
-63.1383
 20
8.79987
 10
-63.274
 20
7.76907
 10
-63.3917
 20
6.73607
 10
-63.4
 20
6.66361
 10
-63.407
 20
6.59101
 10
-63.5066
 20
5.55611
 10
-63.5882
 20
4.51963
 10
-63.5939
 20
4.44692
 10
-63.5984
 20
4.37413
 10
-63.6618
 20
3.33638
 10
-63.7072
 20
2.29768
 10
-63.7104
 20
2.22482
 10
-63.7123
 20
2.15191
 10
-63.7395
 20
1.11258
 10
-63.7401
 20
1.03965
  0
LWPOLYLINE
100
AcDbEntity
  8
0
100
AcDbPolyline
 90
60
 70
1
 10
-29
 20
0
 10
-28.9781
 20
0.418114
 10
-28.9126
 20
0.831646
 10
-28.8042
 20
1.23607
 10
-28.6542
 20
1.62695
 10
-28.4641
 20
2
 10
-28.2361
 20
2.35114
 10
-27.9726
 20
2.67652
 10
-27.6765
 20
2.97258
 10
-27.3511
 20
3.23607
 10
-27
 20
3.4641
 10
-26.6269
 20
3.65418
 10
-26.2361
 20
3.80423
 10
-25.8316
 20
3.91259
 10
-25.4181
 20
3.97809
 10
-25
 20
4
 10
-24.5819
 20
3.97809
 10
-24.1684
 20
3.91259
 10
-23.7639
 20
3.80423
 10
-23.3731
 20
3.65418
 10
-23
 20
3.4641
 10
-22.6489
 20
3.23607
 10
-22.3235
 20
2.97258
 10
-22.0274
 20
2.67652
 10
-21.7639
 20
2.35114
 10
-21.5359
 20
2
 10
-21.3458
 20
1.62695
 10
-21.1958
 20
1.23607
 10
-21.0874
 20
0.831646
 10
-21.0219
 20
0.418114
 10
-21
 20
0
 10
-21.0219
 20
-0.418114
 10
-21.0874
 20
-0.831646
 10
-21.1958
 20
-1.23607
 10
-21.3458
 20
-1.62695
 10
-21.5359
 20
-2
 10
-21.7639
 20
-2.35114
 10
-22.0274
 20
-2.67652
 10
-22.3235
 20
-2.97258
 10
-22.6489
 20
-3.23607
 10
-23
 20
-3.4641
 10
-23.3731
 20
-3.65418
 10
-23.7639
 20
-3.80423
 10
-24.1684
 20
-3.91259
 10
-24.5819
 20
-3.97809
 10
-25
 20
-4
 10
-25.4181
 20
-3.97809
 10
-25.8316
 20
-3.91259
 10
-26.2361
 20
-3.80423
 10
-26.6269
 20
-3.65418
 10
-27
 20
-3.4641
 10
-27.3511
 20
-3.23607
 10
-27.6765
 20
-2.97258
 10
-27.9726
 20
-2.67652
 10
-28.2361
 20
-2.35114
 10
-28.4641
 20
-2
 10
-28.6542
 20
-1.62695
 10
-28.8042
 20
-1.23607
 10
-28.9126
 20
-0.831646
 10
-28.9781
 20
-0.418114
  0
LWPOLYLINE
100
AcDbEntity
  8
0
100
AcDbPolyline
 90
60
 70
1
 10
-4
 20
-25
 10
-3.97809
 20
-24.5819
 10
-3.91259
 20
-24.1684
 10
-3.80423
 20
-23.7639
 10
-3.65418
 20
-23.3731
 10
-3.4641
 20
-23
 10
-3.23607
 20
-22.6489
 10
-2.97258
 20
-22.3235
 10
-2.67652
 20
-22.0274
 10
-2.35114
 20
-21.7639
 10
-2
 20
-21.5359
 10
-1.62695
 20
-21.3458
 10
-1.23607
 20
-21.1958
 10
-0.831646
 20
-21.0874
 10
-0.418114
 20
-21.0219
 10
0
 20
-21
 10
0.418114
 20
-21.0219
 10
0.831646
 20
-21.0874
 10
1.23607
 20
-21.1958
 10
1.62695
 20
-21.3458
 10
2
 20
-21.5359
 10
2.35114
 20
-21.7639
 10
2.67652
 20
-22.0274
 10
2.97258
 20
-22.3235
 10
3.23607
 20
-22.6489
 10
3.4641
 20
-23
 10
3.65418
 20
-23.3731
 10
3.80423
 20
-23.7639
 10
3.91259
 20
-24.1684
 10
3.97809
 20
-24.5819
 10
4
 20
-25
 10
3.97809
 20
-25.4181
 10
3.91259
 20
-25.8316
 10
3.80423
 20
-26.2361
 10
3.65418
 20
-26.6269
 10
3.4641
 20
-27
 10
3.23607
 20
-27.3511
 10
2.97258
 20
-27.6765
 10
2.67652
 20
-27.9726
 10
2.35114
 20
-28.2361
 10
2
 20
-28.4641
 10
1.62695
 20
-28.6542
 10
1.23607
 20
-28.8042
 10
0.831646
 20
-28.9126
 10
0.418114
 20
-28.9781
 10
0
 20
-29
 10
-0.418114
 20
-28.9781
 10
-0.831646
 20
-28.9126
 10
-1.23607
 20
-28.8042
 10
-1.62695
 20
-28.6542
 10
-2
 20
-28.4641
 10
-2.35114
 20
-28.2361
 10
-2.67652
 20
-27.9726
 10
-2.97258
 20
-27.6765
 10
-3.23607
 20
-27.3511
 10
-3.4641
 20
-27
 10
-3.65418
 20
-26.6269
 10
-3.80423
 20
-26.2361
 10
-3.91259
 20
-25.8316
 10
-3.97809
 20
-25.4181
  0
LWPOLYLINE
100
AcDbEntity
  8
0
100
AcDbPolyline
 90
60
 70
1
 10
-4
 20
25
 10
-3.97809
 20
25.4181
 10
-3.91259
 20
25.8316
 10
-3.80423
 20
26.2361
 10
-3.65418
 20
26.6269
 10
-3.4641
 20
27
 10
-3.23607
 20
27.3511
 10
-2.97258
 20
27.6765
 10
-2.67652
 20
27.9726
 10
-2.35114
 20
28.2361
 10
-2
 20
28.4641
 10
-1.62695
 20
28.6542
 10
-1.23607
 20
28.8042
 10
-0.831646
 20
28.9126
 10
-0.418114
 20
28.9781
 10
0
 20
29
 10
0.418114
 20
28.9781
 10
0.831646
 20
28.9126
 10
1.23607
 20
28.8042
 10
1.62695
 20
28.6542
 10
2
 20
28.4641
 10
2.35114
 20
28.2361
 10
2.67652
 20
27.9726
 10
2.97258
 20
27.6765
 10
3.23607
 20
27.3511
 10
3.4641
 20
27
 10
3.65418
 20
26.6269
 10
3.80423
 20
26.2361
 10
3.91259
 20
25.8316
 10
3.97809
 20
25.4181
 10
4
 20
25
 10
3.97809
 20
24.5819
 10
3.91259
 20
24.1684
 10
3.80423
 20
23.7639
 10
3.65418
 20
23.3731
 10
3.4641
 20
23
 10
3.23607
 20
22.6489
 10
2.97258
 20
22.3235
 10
2.67652
 20
22.0274
 10
2.35114
 20
21.7639
 10
2
 20
21.5359
 10
1.62695
 20
21.3458
 10
1.23607
 20
21.1958
 10
0.831646
 20
21.0874
 10
0.418114
 20
21.0219
 10
0
 20
21
 10
-0.418114
 20
21.0219
 10
-0.831646
 20
21.0874
 10
-1.23607
 20
21.1958
 10
-1.62695
 20
21.3458
 10
-2
 20
21.5359
 10
-2.35114
 20
21.7639
 10
-2.67652
 20
22.0274
 10
-2.97258
 20
22.3235
 10
-3.23607
 20
22.6489
 10
-3.4641
 20
23
 10
-3.65418
 20
23.3731
 10
-3.80423
 20
23.7639
 10
-3.91259
 20
24.1684
 10
-3.97809
 20
24.5819
  0
LWPOLYLINE
100
AcDbEntity
  8
0
100
AcDbPolyline
 90
60
 70
1
 10
21
 20
0
 10
21.0219
 20
0.418114
 10
21.0874
 20
0.831646
 10
21.1958
 20
1.23607
 10
21.3458
 20
1.62695
 10
21.5359
 20
2
 10
21.7639
 20
2.35114
 10
22.0274
 20
2.67652
 10
22.3235
 20
2.97258
 10
22.6489
 20
3.23607
 10
23
 20
3.4641
 10
23.3731
 20
3.65418
 10
23.7639
 20
3.80423
 10
24.1684
 20
3.91259
 10
24.5819
 20
3.97809
 10
25
 20
4
 10
25.4181
 20
3.97809
 10
25.8316
 20
3.91259
 10
26.2361
 20
3.80423
 10
26.6269
 20
3.65418
 10
27
 20
3.4641
 10
27.3511
 20
3.23607
 10
27.6765
 20
2.97258
 10
27.9726
 20
2.67652
 10
28.2361
 20
2.35114
 10
28.4641
 20
2
 10
28.6542
 20
1.62695
 10
28.8042
 20
1.23607
 10
28.9126
 20
0.831646
 10
28.9781
 20
0.418114
 10
29
 20
0
 10
28.9781
 20
-0.418114
 10
28.9126
 20
-0.831646
 10
28.8042
 20
-1.23607
 10
28.6542
 20
-1.62695
 10
28.4641
 20
-2
 10
28.2361
 20
-2.35114
 10
27.9726
 20
-2.67652
 10
27.6765
 20
-2.97258
 10
27.3511
 20
-3.23607
 10
27
 20
-3.4641
 10
26.6269
 20
-3.65418
 10
26.2361
 20
-3.80423
 10
25.8316
 20
-3.91259
 10
25.4181
 20
-3.97809
 10
25
 20
-4
 10
24.5819
 20
-3.97809
 10
24.1684
 20
-3.91259
 10
23.7639
 20
-3.80423
 10
23.3731
 20
-3.65418
 10
23
 20
-3.4641
 10
22.6489
 20
-3.23607
 10
22.3235
 20
-2.97258
 10
22.0274
 20
-2.67652
 10
21.7639
 20
-2.35114
 10
21.5359
 20
-2
 10
21.3458
 20
-1.62695
 10
21.1958
 20
-1.23607
 10
21.0874
 20
-0.831646
 10
21.0219
 20
-0.418114
  0
ENDSEC
  0
EOF
