999
DXF from OpenSCAD
  0
SECTION
  2
HEADER
  9
$ACADVER
  1
AC1006
  9
$INSBASE
 10
0.0
 20
0.0
 30
0.0
  9
$EXTMIN
 10
-98.6667
 20
-120.4
  9
$EXTMAX
 10
90.6667
 20
120.4
  9
$LINMIN
 10
-98.6667
 20
-120.4
  9
$LINMAX
 10
90.6667
 20
120.4
  0
ENDSEC
  0
SECTION
  2
TABLES
  0
TABLE
  2
LTYPE
 70
1
  0
LTYPE
  2
CONTINUOUS
 70
64
  3
Solid line
 72
65
 73
0
 40
0.000000
  0
ENDTAB
  0
TABLE
  2
LAYER
 70
6
  0
LAYER
  2
0
 70
64
 62
7
  6
CONTINUOUS
  0
ENDTAB
  0
TABLE
  2
STYLE
 70
0
  0
ENDTAB
  0
ENDSEC
  0
SECTION
  2
BLOCKS
  0
ENDSEC
  0
SECTION
  2
ENTITIES
  0
LWPOLYLINE
100
AcDbEntity
  8
0
100
AcDbPolyline
 90
224
 70
1
 10
-98.6667
 20
0
 10
-98.6581
 20
-0.977334
 10
-98.6326
 20
-1.95437
 10
-98.5899
 20
-2.93081
 10
-98.5303
 20
-3.90636
 10
-98.4536
 20
-4.88072
 10
-98.3599
 20
-5.85359
 10
-98.2493
 20
-6.82468
 10
-98.1217
 20
-7.79369
 10
-97.9772
 20
-8.76033
 10
-97.8159
 20
-9.7243
 10
-97.6378
 20
-10.6853
 10
-97.4429
 20
-11.6431
 10
-97.2314
 20
-12.5973
 10
-97.0032
 20
-13.5476
 10
-96.7585
 20
-14.4939
 10
-96.4973
 20
-15.4357
 10
-96.2197
 20
-16.3728
 10
-95.9258
 20
-17.305
 10
-95.6157
 20
-18.2318
 10
-95.2895
 20
-19.1531
 10
-94.9472
 20
-20.0686
 10
-94.589
 20
-20.978
 10
-94.2149
 20
-21.8809
 10
-93.8252
 20
-22.7773
 10
-93.4199
 20
-23.6666
 10
-92.9991
 20
-24.5488
 10
-92.563
 20
-25.4235
 10
-92.1117
 20
-26.2904
 10
-91.6454
 20
-27.1493
 10
-91.1641
 20
-28
 10
-90.668
 20
-28.8421
 10
-90.1574
 20
-29.6755
 10
-89.6322
 20
-30.4998
 10
-89.0928
 20
-31.3148
 10
-88.5392
 20
-32.1203
 10
-87.9716
 20
-32.916
 10
-87.3903
 20
-33.7016
 10
-86.7953
 20
-34.477
 10
-86.1868
 20
-35.2419
 10
-85.5652
 20
-35.9961
 10
-84.9304
 20
-36.7393
 10
-55.7481
 20
-69.9343
 10
-55.2753
 20
-70.4688
 10
-54.7931
 20
-70.995
 10
-15.1602
 20
-113.65
 10
-13.6503
 20
-115.16
 10
-11.9908
 20
-116.504
 10
-10.2
 20
-117.667
 10
-8.29743
 20
-118.636
 10
-6.30395
 20
-119.402
 10
-4.2414
 20
-119.954
 10
-2.13238
 20
-120.288
 10
0
 20
-120.4
 10
2.13238
 20
-120.288
 10
4.2414
 20
-119.954
 10
6.30395
 20
-119.402
 10
8.29743
 20
-118.636
 10
10.2
 20
-117.667
 10
11.9908
 20
-116.504
 10
56.5753
 20
-80.4706
 10
57.3294
 20
-79.8489
 10
58.0726
 20
-79.2142
 10
58.8046
 20
-78.5665
 10
59.5252
 20
-77.9062
 10
60.2342
 20
-77.2334
 10
60.9313
 20
-76.5484
 10
61.6164
 20
-75.8513
 10
62.2891
 20
-75.1423
 10
62.9494
 20
-74.4217
 10
63.5971
 20
-73.6897
 10
64.2318
 20
-72.9465
 10
64.8535
 20
-72.1924
 10
65.4619
 20
-71.4275
 10
66.0569
 20
-70.6521
 10
66.6383
 20
-69.8664
 10
67.2058
 20
-69.0707
 10
67.7594
 20
-68.2652
 10
68.2989
 20
-67.4502
 10
68.824
 20
-66.6259
 10
69.3347
 20
-65.7925
 10
69.8308
 20
-64.9504
 10
70.312
 20
-64.0998
 10
70.7784
 20
-63.2408
 10
71.2297
 20
-62.3739
 10
71.6658
 20
-61.4992
 10
72.0866
 20
-60.617
 10
72.4919
 20
-59.7277
 10
72.8816
 20
-58.8314
 10
73.2556
 20
-57.9284
 10
73.6138
 20
-57.019
 10
73.9561
 20
-56.1035
 10
74.2824
 20
-55.1822
 10
88.439
 20
-13.3121
 10
88.6654
 20
-12.6354
 10
88.88
 20
-11.9548
 10
89.0827
 20
-11.2705
 10
89.2734
 20
-10.5828
 10
89.4521
 20
-9.89192
 10
89.6187
 20
-9.198
 10
89.7731
 20
-8.50128
 10
89.9154
 20
-7.80197
 10
90.0455
 20
-7.10028
 10
90.1633
 20
-6.39643
 10
90.2687
 20
-5.69063
 10
90.3619
 20
-4.9831
 10
90.4427
 20
-4.27405
 10
90.5111
 20
-3.5637
 10
90.5671
 20
-2.85226
 10
90.6106
 20
-2.13996
 10
90.6418
 20
-1.427
 10
90.6604
 20
-0.713609
 10
90.6667
 20
0
 10
90.6604
 20
0.713609
 10
90.6418
 20
1.427
 10
90.6106
 20
2.13996
 10
90.5671
 20
2.85226
 10
90.5111
 20
3.5637
 10
90.4427
 20
4.27405
 10
90.3619
 20
4.9831
 10
90.2687
 20
5.69063
 10
90.1633
 20
6.39643
 10
90.0455
 20
7.10028
 10
89.9154
 20
7.80197
 10
89.7731
 20
8.50128
 10
89.6187
 20
9.198
 10
89.4521
 20
9.89192
 10
89.2734
 20
10.5828
 10
89.0827
 20
11.2705
 10
88.88
 20
11.9548
 10
88.6654
 20
12.6354
 10
88.439
 20
13.3121
 10
74.2824
 20
55.1822
 10
73.9561
 20
56.1035
 10
73.6138
 20
57.019
 10
73.2556
 20
57.9284
 10
72.8816
 20
58.8314
 10
72.4919
 20
59.7277
 10
72.0866
 20
60.617
 10
71.6658
 20
61.4992
 10
71.2297
 20
62.3739
 10
70.7784
 20
63.2408
 10
70.312
 20
64.0998
 10
69.8308
 20
64.9504
 10
69.3347
 20
65.7925
 10
68.824
 20
66.6259
 10
68.2989
 20
67.4502
 10
67.7594
 20
68.2652
 10
67.2058
 20
69.0707
 10
66.6383
 20
69.8664
 10
66.0569
 20
70.6521
 10
65.4619
 20
71.4275
 10
64.8535
 20
72.1924
 10
64.2318
 20
72.9465
 10
63.5971
 20
73.6897
 10
62.9494
 20
74.4217
 10
62.2891
 20
75.1423
 10
61.6164
 20
75.8513
 10
60.9313
 20
76.5484
 10
60.2342
 20
77.2334
 10
59.5252
 20
77.9062
 10
58.8046
 20
78.5665
 10
58.0726
 20
79.2142
 10
57.3294
 20
79.8489
 10
56.5753
 20
80.4706
 10
11.9908
 20
116.504
 10
10.2
 20
117.667
 10
8.29743
 20
118.636
 10
6.30395
 20
119.402
 10
4.2414
 20
119.954
 10
2.13238
 20
120.288
 10
0
 20
120.4
 10
-2.13238
 20
120.288
 10
-4.2414
 20
119.954
 10
-6.30395
 20
119.402
 10
-8.29743
 20
118.636
 10
-10.2
 20
117.667
 10
-11.9908
 20
116.504
 10
-13.6503
 20
115.16
 10
-15.1602
 20
113.65
 10
-54.7931
 20
70.995
 10
-55.2753
 20
70.4688
 10
-55.7481
 20
69.9343
 10
-84.9304
 20
36.7393
 10
-85.5652
 20
35.9961
 10
-86.1868
 20
35.2419
 10
-86.7953
 20
34.477
 10
-87.3903
 20
33.7016
 10
-87.9716
 20
32.916
 10
-88.5392
 20
32.1203
 10
-89.0928
 20
31.3148
 10
-89.6322
 20
30.4998
 10
-90.1574
 20
29.6755
 10
-90.668
 20
28.8421
 10
-91.1641
 20
28
 10
-91.6454
 20
27.1493
 10
-92.1117
 20
26.2904
 10
-92.563
 20
25.4235
 10
-92.9991
 20
24.5488
 10
-93.4199
 20
23.6666
 10
-93.8252
 20
22.7773
 10
-94.2149
 20
21.8809
 10
-94.589
 20
20.978
 10
-94.9472
 20
20.0686
 10
-95.2895
 20
19.1531
 10
-95.6157
 20
18.2318
 10
-95.9258
 20
17.305
 10
-96.2197
 20
16.3728
 10
-96.4973
 20
15.4357
 10
-96.7585
 20
14.4939
 10
-97.0032
 20
13.5476
 10
-97.2314
 20
12.5973
 10
-97.4429
 20
11.6431
 10
-97.6378
 20
10.6853
 10
-97.8159
 20
9.7243
 10
-97.9772
 20
8.76033
 10
-98.1217
 20
7.79369
 10
-98.2493
 20
6.82468
 10
-98.3599
 20
5.85359
 10
-98.4536
 20
4.88072
 10
-98.5303
 20
3.90636
 10
-98.5899
 20
2.93081
 10
-98.6326
 20
1.95437
 10
-98.6581
 20
0.977334
  0
LWPOLYLINE
100
AcDbEntity
  8
0
100
AcDbPolyline
 90
30
 70
1
 10
-91.3396
 20
-11.6855
 10
-91.309
 20
-11.2476
 10
-91.1879
 20
-10.8256
 10
-90.9818
 20
-10.4379
 10
-90.6996
 20
-10.1016
 10
-90.3537
 20
-9.83135
 10
-89.9591
 20
-9.6389
 10
-89.5331
 20
-9.53269
 10
-89.0944
 20
-9.51737
 10
-88.662
 20
-9.5936
 10
-88.255
 20
-9.75806
 10
-87.891
 20
-10.0036
 10
-87.586
 20
-10.3194
 10
-87.3534
 20
-10.6917
 10
-87.2032
 20
-11.1042
 10
-87.1421
 20
-11.539
 10
-87.1728
 20
-11.9769
 10
-87.2938
 20
-12.3989
 10
-87.4999
 20
-12.7866
 10
-87.7821
 20
-13.1229
 10
-88.128
 20
-13.3932
 10
-88.5226
 20
-13.5856
 10
-88.9486
 20
-13.6918
 10
-89.3874
 20
-13.7071
 10
-89.8197
 20
-13.6309
 10
-90.2268
 20
-13.4664
 10
-90.5907
 20
-13.2209
 10
-90.8957
 20
-12.9051
 10
-91.1283
 20
-12.5328
 10
-91.2785
 20
-12.1203
  0
LWPOLYLINE
100
AcDbEntity
  8
0
100
AcDbPolyline
 90
30
 70
1
 10
-91.3396
 20
11.6855
 10
-91.2785
 20
12.1203
 10
-91.1283
 20
12.5328
 10
-90.8957
 20
12.9051
 10
-90.5907
 20
13.2209
 10
-90.2268
 20
13.4664
 10
-89.8197
 20
13.6309
 10
-89.3874
 20
13.7071
 10
-88.9486
 20
13.6918
 10
-88.5226
 20
13.5856
 10
-88.128
 20
13.3932
 10
-87.7821
 20
13.1229
 10
-87.4999
 20
12.7866
 10
-87.2938
 20
12.3989
 10
-87.1728
 20
11.9769
 10
-87.1421
 20
11.539
 10
-87.2032
 20
11.1042
 10
-87.3534
 20
10.6917
 10
-87.586
 20
10.3194
 10
-87.891
 20
10.0036
 10
-88.255
 20
9.75806
 10
-88.662
 20
9.5936
 10
-89.0944
 20
9.51737
 10
-89.5331
 20
9.53269
 10
-89.9591
 20
9.6389
 10
-90.3537
 20
9.83135
 10
-90.6996
 20
10.1016
 10
-90.9818
 20
10.4379
 10
-91.1879
 20
10.8256
 10
-91.309
 20
11.2476
  0
LWPOLYLINE
100
AcDbEntity
  8
0
100
AcDbPolyline
 90
30
 70
1
 10
-80.4261
 20
-32.3378
 10
-80.4261
 20
-31.8988
 10
-80.3348
 20
-31.4693
 10
-80.1563
 20
-31.0683
 10
-79.8982
 20
-30.7131
 10
-79.572
 20
-30.4193
 10
-79.1918
 20
-30.1998
 10
-78.7742
 20
-30.0642
 10
-78.3376
 20
-30.0183
 10
-77.901
 20
-30.0642
 10
-77.4835
 20
-30.1998
 10
-77.1033
 20
-30.4193
 10
-76.777
 20
-30.7131
 10
-76.519
 20
-31.0683
 10
-76.3404
 20
-31.4693
 10
-76.2491
 20
-31.8988
 10
-76.2491
 20
-32.3378
 10
-76.3404
 20
-32.7672
 10
-76.519
 20
-33.1683
 10
-76.777
 20
-33.5234
 10
-77.1033
 20
-33.8172
 10
-77.4835
 20
-34.0367
 10
-77.901
 20
-34.1724
 10
-78.3376
 20
-34.2183
 10
-78.7742
 20
-34.1724
 10
-79.1918
 20
-34.0367
 10
-79.572
 20
-33.8172
 10
-79.8982
 20
-33.5234
 10
-80.1563
 20
-33.1683
 10
-80.3348
 20
-32.7672
  0
LWPOLYLINE
100
AcDbEntity
  8
0
100
AcDbPolyline
 90
30
 70
1
 10
-80.4261
 20
31.8988
 10
-80.4261
 20
32.3378
 10
-80.3348
 20
32.7672
 10
-80.1563
 20
33.1683
 10
-79.8982
 20
33.5234
 10
-79.572
 20
33.8172
 10
-79.1918
 20
34.0367
 10
-78.7742
 20
34.1724
 10
-78.3376
 20
34.2183
 10
-77.901
 20
34.1724
 10
-77.4835
 20
34.0367
 10
-77.1033
 20
33.8172
 10
-76.777
 20
33.5234
 10
-76.519
 20
33.1683
 10
-76.3404
 20
32.7672
 10
-76.2491
 20
32.3378
 10
-76.2491
 20
31.8988
 10
-76.3404
 20
31.4693
 10
-76.519
 20
31.0683
 10
-76.777
 20
30.7131
 10
-77.1033
 20
30.4193
 10
-77.4835
 20
30.1998
 10
-77.901
 20
30.0642
 10
-78.3376
 20
30.0183
 10
-78.7742
 20
30.0642
 10
-79.1918
 20
30.1998
 10
-79.572
 20
30.4193
 10
-79.8982
 20
30.7131
 10
-80.1563
 20
31.0683
 10
-80.3348
 20
31.4693
  0
LWPOLYLINE
100
AcDbEntity
  8
0
100
AcDbPolyline
 90
30
 70
1
 10
-61.1824
 20
-45.032
 10
-61.1213
 20
-44.5972
 10
-60.9711
 20
-44.1847
 10
-60.7385
 20
-43.8124
 10
-60.4335
 20
-43.4966
 10
-60.0695
 20
-43.2511
 10
-59.6625
 20
-43.0866
 10
-59.2301
 20
-43.0104
 10
-58.7914
 20
-43.0257
 10
-58.3654
 20
-43.1319
 10
-57.9708
 20
-43.3243
 10
-57.6249
 20
-43.5946
 10
-57.3427
 20
-43.9309
 10
-57.1365
 20
-44.3186
 10
-57.0155
 20
-44.7406
 10
-56.9849
 20
-45.1785
 10
-57.046
 20
-45.6133
 10
-57.1962
 20
-46.0258
 10
-57.4288
 20
-46.3981
 10
-57.7338
 20
-46.7139
 10
-58.0977
 20
-46.9594
 10
-58.5048
 20
-47.1239
 10
-58.9371
 20
-47.2001
 10
-59.3759
 20
-47.1848
 10
-59.8019
 20
-47.0786
 10
-60.1965
 20
-46.8861
 10
-60.5424
 20
-46.6159
 10
-60.8246
 20
-46.2796
 10
-61.0307
 20
-45.8919
 10
-61.1517
 20
-45.4699
  0
LWPOLYLINE
100
AcDbEntity
  8
0
100
AcDbPolyline
 90
30
 70
1
 10
-61.1824
 20
45.032
 10
-61.1517
 20
45.4699
 10
-61.0307
 20
45.8919
 10
-60.8246
 20
46.2796
 10
-60.5424
 20
46.6159
 10
-60.1965
 20
46.8861
 10
-59.8019
 20
47.0786
 10
-59.3759
 20
47.1848
 10
-58.9371
 20
47.2001
 10
-58.5048
 20
47.1239
 10
-58.0977
 20
46.9594
 10
-57.7338
 20
46.7139
 10
-57.4288
 20
46.3981
 10
-57.1962
 20
46.0258
 10
-57.046
 20
45.6133
 10
-56.9849
 20
45.1785
 10
-57.0155
 20
44.7406
 10
-57.1365
 20
44.3186
 10
-57.3427
 20
43.9309
 10
-57.6249
 20
43.5946
 10
-57.9708
 20
43.3243
 10
-58.3654
 20
43.1319
 10
-58.7914
 20
43.0257
 10
-59.2301
 20
43.0104
 10
-59.6625
 20
43.0866
 10
-60.0695
 20
43.2511
 10
-60.4335
 20
43.4966
 10
-60.7385
 20
43.8124
 10
-60.9711
 20
44.1847
 10
-61.1213
 20
44.5972
  0
LWPOLYLINE
100
AcDbEntity
  8
0
100
AcDbPolyline
 90
60
 70
1
 10
-46.7667
 20
0
 10
-46.7442
 20
0.428566
 10
-46.6771
 20
0.852437
 10
-46.566
 20
1.26697
 10
-46.4122
 20
1.66762
 10
-46.2174
 20
2.05
 10
-45.9836
 20
2.40992
 10
-45.7136
 20
2.74343
 10
-45.4101
 20
3.04689
 10
-45.0766
 20
3.31697
 10
-44.7167
 20
3.5507
 10
-44.3343
 20
3.74554
 10
-43.9336
 20
3.89933
 10
-43.5191
 20
4.0104
 10
-43.0952
 20
4.07754
 10
-42.6667
 20
4.1
 10
-42.2381
 20
4.07754
 10
-41.8142
 20
4.0104
 10
-41.3997
 20
3.89933
 10
-40.999
 20
3.74554
 10
-40.6167
 20
3.5507
 10
-40.2567
 20
3.31697
 10
-39.9232
 20
3.04689
 10
-39.6198
 20
2.74343
 10
-39.3497
 20
2.40992
 10
-39.116
 20
2.05
 10
-38.9211
 20
1.66762
 10
-38.7673
 20
1.26697
 10
-38.6563
 20
0.852437
 10
-38.5891
 20
0.428566
 10
-38.5667
 20
0
 10
-38.5891
 20
-0.428566
 10
-38.6563
 20
-0.852437
 10
-38.7673
 20
-1.26697
 10
-38.9211
 20
-1.66762
 10
-39.116
 20
-2.05
 10
-39.3497
 20
-2.40992
 10
-39.6198
 20
-2.74343
 10
-39.9232
 20
-3.04689
 10
-40.2567
 20
-3.31697
 10
-40.6167
 20
-3.5507
 10
-40.999
 20
-3.74554
 10
-41.3997
 20
-3.89933
 10
-41.8142
 20
-4.0104
 10
-42.2381
 20
-4.07754
 10
-42.6667
 20
-4.1
 10
-43.0952
 20
-4.07754
 10
-43.5191
 20
-4.0104
 10
-43.9336
 20
-3.89933
 10
-44.3343
 20
-3.74554
 10
-44.7167
 20
-3.5507
 10
-45.0766
 20
-3.31697
 10
-45.4101
 20
-3.04689
 10
-45.7136
 20
-2.74343
 10
-45.9836
 20
-2.40992
 10
-46.2174
 20
-2.05
 10
-46.4122
 20
-1.66762
 10
-46.566
 20
-1.26697
 10
-46.6771
 20
-0.852437
 10
-46.7442
 20
-0.428566
  0
LWPOLYLINE
100
AcDbEntity
  8
0
100
AcDbPolyline
 90
30
 70
1
 10
-45.1973
 20
-25.1084
 10
-45.1973
 20
-24.6694
 10
-45.106
 20
-24.24
 10
-44.9275
 20
-23.8389
 10
-44.6694
 20
-23.4837
 10
-44.3432
 20
-23.19
 10
-43.963
 20
-22.9704
 10
-43.5454
 20
-22.8348
 10
-43.1088
 20
-22.7889
 10
-42.6722
 20
-22.8348
 10
-42.2547
 20
-22.9704
 10
-41.8745
 20
-23.19
 10
-41.5482
 20
-23.4837
 10
-41.2902
 20
-23.8389
 10
-41.1116
 20
-24.24
 10
-41.0203
 20
-24.6694
 10
-41.0203
 20
-25.1084
 10
-41.1116
 20
-25.5378
 10
-41.2902
 20
-25.9389
 10
-41.5482
 20
-26.2941
 10
-41.8745
 20
-26.5878
 10
-42.2547
 20
-26.8073
 10
-42.6722
 20
-26.943
 10
-43.1088
 20
-26.9889
 10
-43.5454
 20
-26.943
 10
-43.963
 20
-26.8073
 10
-44.3432
 20
-26.5878
 10
-44.6694
 20
-26.2941
 10
-44.9275
 20
-25.9389
 10
-45.106
 20
-25.5378
  0
LWPOLYLINE
100
AcDbEntity
  8
0
100
AcDbPolyline
 90
30
 70
1
 10
-43.4333
 20
-71.5914
 10
-43.3874
 20
-71.1548
 10
-43.2518
 20
-70.7373
 10
-43.0323
 20
-70.3571
 10
-42.7385
 20
-70.0308
 10
-42.3833
 20
-69.7728
 10
-41.9823
 20
-69.5942
 10
-41.5528
 20
-69.5029
 10
-41.1138
 20
-69.5029
 10
-40.6844
 20
-69.5942
 10
-40.2833
 20
-69.7728
 10
-39.9282
 20
-70.0308
 10
-39.6344
 20
-70.3571
 10
-39.4149
 20
-70.7373
 10
-39.2792
 20
-71.1548
 10
-39.2333
 20
-71.5914
 10
-39.2792
 20
-72.028
 10
-39.4149
 20
-72.4456
 10
-39.6344
 20
-72.8258
 10
-39.9282
 20
-73.152
 10
-40.2833
 20
-73.4101
 10
-40.6844
 20
-73.5887
 10
-41.1138
 20
-73.6799
 10
-41.5528
 20
-73.6799
 10
-41.9823
 20
-73.5887
 10
-42.3833
 20
-73.4101
 10
-42.7385
 20
-73.152
 10
-43.0323
 20
-72.8258
 10
-43.2518
 20
-72.4456
 10
-43.3874
 20
-72.028
  0
LWPOLYLINE
100
AcDbEntity
  8
0
100
AcDbPolyline
 90
30
 70
1
 10
-43.4333
 20
71.5914
 10
-43.3874
 20
72.028
 10
-43.2518
 20
72.4456
 10
-43.0323
 20
72.8258
 10
-42.7385
 20
73.152
 10
-42.3833
 20
73.4101
 10
-41.9823
 20
73.5887
 10
-41.5528
 20
73.6799
 10
-41.1138
 20
73.6799
 10
-40.6844
 20
73.5887
 10
-40.2833
 20
73.4101
 10
-39.9282
 20
73.152
 10
-39.6344
 20
72.8258
 10
-39.4149
 20
72.4456
 10
-39.2792
 20
72.028
 10
-39.2333
 20
71.5914
 10
-39.2792
 20
71.1548
 10
-39.4149
 20
70.7373
 10
-39.6344
 20
70.3571
 10
-39.9282
 20
70.0308
 10
-40.2833
 20
69.7728
 10
-40.6844
 20
69.5942
 10
-41.1138
 20
69.5029
 10
-41.5528
 20
69.5029
 10
-41.9823
 20
69.5942
 10
-42.3833
 20
69.7728
 10
-42.7385
 20
70.0308
 10
-43.0323
 20
70.3571
 10
-43.2518
 20
70.7373
 10
-43.3874
 20
71.1548
  0
LWPOLYLINE
100
AcDbEntity
  8
0
100
AcDbPolyline
 90
360
 70
1
 10
-25.2
 20
0
 10
-25.1962
 20
0.4398
 10
-25.1846
 20
0.879467
 10
-25.1655
 20
1.31887
 10
-25.1386
 20
1.75786
 10
-25.1041
 20
2.19632
 10
-25.062
 20
2.63412
 10
-25.0122
 20
3.07111
 10
-24.9548
 20
3.50716
 10
-24.8897
 20
3.94215
 10
-24.8172
 20
4.37593
 10
-24.737
 20
4.80839
 10
-24.6493
 20
5.23937
 10
-24.5541
 20
5.66877
 10
-24.4515
 20
6.09643
 10
-24.3413
 20
6.52224
 10
-24.2238
 20
6.94606
 10
-24.0989
 20
7.36777
 10
-23.9666
 20
7.78723
 10
-23.8271
 20
8.20432
 10
-23.6803
 20
8.61891
 10
-23.5262
 20
9.03087
 10
-23.365
 20
9.44009
 10
-23.1967
 20
9.84642
 10
-23.0213
 20
10.2498
 10
-22.839
 20
10.65
 10
-22.6496
 20
11.047
 10
-22.4534
 20
11.4406
 10
-22.2503
 20
11.8307
 10
-22.0404
 20
12.2172
 10
-21.8238
 20
12.6
 10
-21.6006
 20
12.979
 10
-21.3708
 20
13.354
 10
-21.1345
 20
13.7249
 10
-20.8917
 20
14.0917
 10
-20.6426
 20
14.4541
 10
-20.3872
 20
14.8122
 10
-20.1256
 20
15.1657
 10
-19.8579
 20
15.5147
 10
-19.5841
 20
15.8589
 10
-19.3043
 20
16.1982
 10
-19.0187
 20
16.5327
 10
-18.7272
 20
16.8621
 10
-18.4301
 20
17.1864
 10
-18.1274
 20
17.5054
 10
-17.8191
 20
17.8191
 10
-17.5054
 20
18.1274
 10
-17.1864
 20
18.4301
 10
-16.8621
 20
18.7272
 10
-16.5327
 20
19.0187
 10
-16.1982
 20
19.3043
 10
-15.8589
 20
19.5841
 10
-15.5147
 20
19.8579
 10
-15.1657
 20
20.1256
 10
-14.8122
 20
20.3872
 10
-14.4541
 20
20.6426
 10
-14.0917
 20
20.8917
 10
-13.7249
 20
21.1345
 10
-13.354
 20
21.3708
 10
-12.979
 20
21.6006
 10
-12.6
 20
21.8238
 10
-12.2172
 20
22.0404
 10
-11.8307
 20
22.2503
 10
-11.4406
 20
22.4534
 10
-11.047
 20
22.6496
 10
-10.65
 20
22.839
 10
-10.2498
 20
23.0213
 10
-9.84642
 20
23.1967
 10
-9.44009
 20
23.365
 10
-9.03087
 20
23.5262
 10
-8.61891
 20
23.6803
 10
-8.20432
 20
23.8271
 10
-7.78723
 20
23.9666
 10
-7.36777
 20
24.0989
 10
-6.94606
 20
24.2238
 10
-6.52224
 20
24.3413
 10
-6.09643
 20
24.4515
 10
-5.66877
 20
24.5541
 10
-5.23937
 20
24.6493
 10
-4.80839
 20
24.737
 10
-4.37593
 20
24.8172
 10
-3.94215
 20
24.8897
 10
-3.50716
 20
24.9548
 10
-3.07111
 20
25.0122
 10
-2.63412
 20
25.062
 10
-2.19632
 20
25.1041
 10
-1.75786
 20
25.1386
 10
-1.31887
 20
25.1655
 10
-0.879467
 20
25.1846
 10
-0.4398
 20
25.1962
 10
0
 20
25.2
 10
0.4398
 20
25.1962
 10
0.879467
 20
25.1846
 10
1.31887
 20
25.1655
 10
1.75786
 20
25.1386
 10
2.19632
 20
25.1041
 10
2.63412
 20
25.062
 10
3.07111
 20
25.0122
 10
3.50716
 20
24.9548
 10
3.94215
 20
24.8897
 10
4.37593
 20
24.8172
 10
4.80839
 20
24.737
 10
5.23937
 20
24.6493
 10
5.66877
 20
24.5541
 10
6.09643
 20
24.4515
 10
6.52224
 20
24.3413
 10
6.94606
 20
24.2238
 10
7.36777
 20
24.0989
 10
7.78723
 20
23.9666
 10
8.20432
 20
23.8271
 10
8.61891
 20
23.6803
 10
9.03087
 20
23.5262
 10
9.44009
 20
23.365
 10
9.84642
 20
23.1967
 10
10.2498
 20
23.0213
 10
10.65
 20
22.839
 10
11.047
 20
22.6496
 10
11.4406
 20
22.4534
 10
11.8307
 20
22.2503
 10
12.2172
 20
22.0404
 10
12.6
 20
21.8238
 10
12.979
 20
21.6006
 10
13.354
 20
21.3708
 10
13.7249
 20
21.1345
 10
14.0917
 20
20.8917
 10
14.4541
 20
20.6426
 10
14.8122
 20
20.3872
 10
15.1657
 20
20.1256
 10
15.5147
 20
19.8579
 10
15.8589
 20
19.5841
 10
16.1982
 20
19.3043
 10
16.5327
 20
19.0187
 10
16.8621
 20
18.7272
 10
17.1864
 20
18.4301
 10
17.5054
 20
18.1274
 10
17.8191
 20
17.8191
 10
18.1274
 20
17.5054
 10
18.4301
 20
17.1864
 10
18.7272
 20
16.8621
 10
19.0187
 20
16.5327
 10
19.3043
 20
16.1982
 10
19.5841
 20
15.8589
 10
19.8579
 20
15.5147
 10
20.1256
 20
15.1657
 10
20.3872
 20
14.8122
 10
20.6426
 20
14.4541
 10
20.8917
 20
14.0917
 10
21.1345
 20
13.7249
 10
21.3708
 20
13.354
 10
21.6006
 20
12.979
 10
21.8238
 20
12.6
 10
22.0404
 20
12.2172
 10
22.2503
 20
11.8307
 10
22.4534
 20
11.4406
 10
22.6496
 20
11.047
 10
22.839
 20
10.65
 10
23.0213
 20
10.2498
 10
23.1967
 20
9.84642
 10
23.365
 20
9.44009
 10
23.5262
 20
9.03087
 10
23.6803
 20
8.61891
 10
23.8271
 20
8.20432
 10
23.9666
 20
7.78723
 10
24.0989
 20
7.36777
 10
24.2238
 20
6.94606
 10
24.3413
 20
6.52224
 10
24.4515
 20
6.09643
 10
24.5541
 20
5.66877
 10
24.6493
 20
5.23937
 10
24.737
 20
4.80839
 10
24.8172
 20
4.37593
 10
24.8897
 20
3.94215
 10
24.9548
 20
3.50716
 10
25.0122
 20
3.07111
 10
25.062
 20
2.63412
 10
25.1041
 20
2.19632
 10
25.1386
 20
1.75786
 10
25.1655
 20
1.31887
 10
25.1846
 20
0.879467
 10
25.1962
 20
0.4398
 10
25.2
 20
0
 10
25.1962
 20
-0.4398
 10
25.1846
 20
-0.879467
 10
25.1655
 20
-1.31887
 10
25.1386
 20
-1.75786
 10
25.1041
 20
-2.19632
 10
25.062
 20
-2.63412
 10
25.0122
 20
-3.07111
 10
24.9548
 20
-3.50716
 10
24.8897
 20
-3.94215
 10
24.8172
 20
-4.37593
 10
24.737
 20
-4.80839
 10
24.6493
 20
-5.23937
 10
24.5541
 20
-5.66877
 10
24.4515
 20
-6.09643
 10
24.3413
 20
-6.52224
 10
24.2238
 20
-6.94606
 10
24.0989
 20
-7.36777
 10
23.9666
 20
-7.78723
 10
23.8271
 20
-8.20432
 10
23.6803
 20
-8.61891
 10
23.5262
 20
-9.03087
 10
23.365
 20
-9.44009
 10
23.1967
 20
-9.84642
 10
23.0213
 20
-10.2498
 10
22.839
 20
-10.65
 10
22.6496
 20
-11.047
 10
22.4534
 20
-11.4406
 10
22.2503
 20
-11.8307
 10
22.0404
 20
-12.2172
 10
21.8238
 20
-12.6
 10
21.6006
 20
-12.979
 10
21.3708
 20
-13.354
 10
21.1345
 20
-13.7249
 10
20.8917
 20
-14.0917
 10
20.6426
 20
-14.4541
 10
20.3872
 20
-14.8122
 10
20.1256
 20
-15.1657
 10
19.8579
 20
-15.5147
 10
19.5841
 20
-15.8589
 10
19.3043
 20
-16.1982
 10
19.0187
 20
-16.5327
 10
18.7272
 20
-16.8621
 10
18.4301
 20
-17.1864
 10
18.1274
 20
-17.5054
 10
17.8191
 20
-17.8191
 10
17.5054
 20
-18.1274
 10
17.1864
 20
-18.4301
 10
16.8621
 20
-18.7272
 10
16.5327
 20
-19.0187
 10
16.1982
 20
-19.3043
 10
15.8589
 20
-19.5841
 10
15.5147
 20
-19.8579
 10
15.1657
 20
-20.1256
 10
14.8122
 20
-20.3872
 10
14.4541
 20
-20.6426
 10
14.0917
 20
-20.8917
 10
13.7249
 20
-21.1345
 10
13.354
 20
-21.3708
 10
12.979
 20
-21.6006
 10
12.6
 20
-21.8238
 10
12.2172
 20
-22.0404
 10
11.8307
 20
-22.2503
 10
11.4406
 20
-22.4534
 10
11.047
 20
-22.6496
 10
10.65
 20
-22.839
 10
10.2498
 20
-23.0213
 10
9.84642
 20
-23.1967
 10
9.44009
 20
-23.365
 10
9.03087
 20
-23.5262
 10
8.61891
 20
-23.6803
 10
8.20432
 20
-23.8271
 10
7.78723
 20
-23.9666
 10
7.36777
 20
-24.0989
 10
6.94606
 20
-24.2238
 10
6.52224
 20
-24.3413
 10
6.09643
 20
-24.4515
 10
5.66877
 20
-24.5541
 10
5.23937
 20
-24.6493
 10
4.80839
 20
-24.737
 10
4.37593
 20
-24.8172
 10
3.94215
 20
-24.8897
 10
3.50716
 20
-24.9548
 10
3.07111
 20
-25.0122
 10
2.63412
 20
-25.062
 10
2.19632
 20
-25.1041
 10
1.75786
 20
-25.1386
 10
1.31887
 20
-25.1655
 10
0.879467
 20
-25.1846
 10
0.4398
 20
-25.1962
 10
0
 20
-25.2
 10
-0.4398
 20
-25.1962
 10
-0.879467
 20
-25.1846
 10
-1.31887
 20
-25.1655
 10
-1.75786
 20
-25.1386
 10
-2.19632
 20
-25.1041
 10
-2.63412
 20
-25.062
 10
-3.07111
 20
-25.0122
 10
-3.50716
 20
-24.9548
 10
-3.94215
 20
-24.8897
 10
-4.37593
 20
-24.8172
 10
-4.80839
 20
-24.737
 10
-5.23937
 20
-24.6493
 10
-5.66877
 20
-24.5541
 10
-6.09643
 20
-24.4515
 10
-6.52224
 20
-24.3413
 10
-6.94606
 20
-24.2238
 10
-7.36777
 20
-24.0989
 10
-7.78723
 20
-23.9666
 10
-8.20432
 20
-23.8271
 10
-8.61891
 20
-23.6803
 10
-9.03087
 20
-23.5262
 10
-9.44009
 20
-23.365
 10
-9.84642
 20
-23.1967
 10
-10.2498
 20
-23.0213
 10
-10.65
 20
-22.839
 10
-11.047
 20
-22.6496
 10
-11.4406
 20
-22.4534
 10
-11.8307
 20
-22.2503
 10
-12.2172
 20
-22.0404
 10
-12.6
 20
-21.8238
 10
-12.979
 20
-21.6006
 10
-13.354
 20
-21.3708
 10
-13.7249
 20
-21.1345
 10
-14.0917
 20
-20.8917
 10
-14.4541
 20
-20.6426
 10
-14.8122
 20
-20.3872
 10
-15.1657
 20
-20.1256
 10
-15.5147
 20
-19.8579
 10
-15.8589
 20
-19.5841
 10
-16.1982
 20
-19.3043
 10
-16.5327
 20
-19.0187
 10
-16.8621
 20
-18.7272
 10
-17.1864
 20
-18.4301
 10
-17.5054
 20
-18.1274
 10
-17.8191
 20
-17.8191
 10
-18.1274
 20
-17.5054
 10
-18.4301
 20
-17.1864
 10
-18.7272
 20
-16.8621
 10
-19.0187
 20
-16.5327
 10
-19.3043
 20
-16.1982
 10
-19.5841
 20
-15.8589
 10
-19.8579
 20
-15.5147
 10
-20.1256
 20
-15.1657
 10
-20.3872
 20
-14.8122
 10
-20.6426
 20
-14.4541
 10
-20.8917
 20
-14.0917
 10
-21.1345
 20
-13.7249
 10
-21.3708
 20
-13.354
 10
-21.6006
 20
-12.979
 10
-21.8238
 20
-12.6
 10
-22.0404
 20
-12.2172
 10
-22.2503
 20
-11.8307
 10
-22.4534
 20
-11.4406
 10
-22.6496
 20
-11.047
 10
-22.839
 20
-10.65
 10
-23.0213
 20
-10.2498
 10
-23.1967
 20
-9.84642
 10
-23.365
 20
-9.44009
 10
-23.5262
 20
-9.03087
 10
-23.6803
 20
-8.61891
 10
-23.8271
 20
-8.20432
 10
-23.9666
 20
-7.78723
 10
-24.0989
 20
-7.36777
 10
-24.2238
 20
-6.94606
 10
-24.3413
 20
-6.52224
 10
-24.4515
 20
-6.09643
 10
-24.5541
 20
-5.66877
 10
-24.6493
 20
-5.23937
 10
-24.737
 20
-4.80839
 10
-24.8172
 20
-4.37593
 10
-24.8897
 20
-3.94215
 10
-24.9548
 20
-3.50716
 10
-25.0122
 20
-3.07111
 10
-25.062
 20
-2.63412
 10
-25.1041
 20
-2.19632
 10
-25.1386
 20
-1.75786
 10
-25.1655
 20
-1.31887
 10
-25.1846
 20
-0.879467
 10
-25.1962
 20
-0.4398
  0
LWPOLYLINE
100
AcDbEntity
  8
0
100
AcDbPolyline
 90
30
 70
1
 10
-23.2069
 20
46.9398
 10
-23.1545
 20
47.2702
 10
-23.0347
 20
47.5825
 10
-22.8525
 20
47.863
 10
-22.616
 20
48.0995
 10
-22.3354
 20
48.2817
 10
-22.0232
 20
48.4016
 10
-21.6928
 20
48.4539
 10
-21.3588
 20
48.4364
 10
-21.0357
 20
48.3498
 10
-20.7376
 20
48.198
 10
-20.4777
 20
47.9875
 10
-20.2672
 20
47.7275
 10
-20.1153
 20
47.4295
 10
-20.0288
 20
47.1064
 10
-20.0113
 20
46.7723
 10
-20.0636
 20
46.442
 10
-20.1835
 20
46.1297
 10
-20.3656
 20
45.8492
 10
-20.6021
 20
45.6127
 10
-20.8827
 20
45.4305
 10
-21.195
 20
45.3106
 10
-21.5253
 20
45.2583
 10
-21.8594
 20
45.2758
 10
-22.1825
 20
45.3624
 10
-22.4805
 20
45.5142
 10
-22.7404
 20
45.7247
 10
-22.9509
 20
45.9847
 10
-23.1028
 20
46.2827
 10
-23.1894
 20
46.6058
  0
LWPOLYLINE
100
AcDbEntity
  8
0
100
AcDbPolyline
 90
60
 70
1
 10
-23.0333
 20
-36.9504
 10
-23.024
 20
-36.7727
 10
-22.9962
 20
-36.597
 10
-22.9501
 20
-36.4251
 10
-22.8864
 20
-36.259
 10
-22.8056
 20
-36.1004
 10
-22.7087
 20
-35.9512
 10
-22.5967
 20
-35.8129
 10
-22.4709
 20
-35.6871
 10
-22.3326
 20
-35.5751
 10
-22.1833
 20
-35.4782
 10
-22.0248
 20
-35.3974
 10
-21.8587
 20
-35.3336
 10
-21.6868
 20
-35.2876
 10
-21.511
 20
-35.2597
 10
-21.3333
 20
-35.2504
 10
-21.1556
 20
-35.2597
 10
-20.9799
 20
-35.2876
 10
-20.808
 20
-35.3336
 10
-20.6419
 20
-35.3974
 10
-20.4833
 20
-35.4782
 10
-20.3341
 20
-35.5751
 10
-20.1958
 20
-35.6871
 10
-20.07
 20
-35.8129
 10
-19.958
 20
-35.9512
 10
-19.8611
 20
-36.1004
 10
-19.7803
 20
-36.259
 10
-19.7165
 20
-36.4251
 10
-19.6705
 20
-36.597
 10
-19.6426
 20
-36.7727
 10
-19.6333
 20
-36.9504
 10
-19.6426
 20
-37.1281
 10
-19.6705
 20
-37.3039
 10
-19.7165
 20
-37.4757
 10
-19.7803
 20
-37.6419
 10
-19.8611
 20
-37.8004
 10
-19.958
 20
-37.9497
 10
-20.07
 20
-38.0879
 10
-20.1958
 20
-38.2138
 10
-20.3341
 20
-38.3257
 10
-20.4833
 20
-38.4227
 10
-20.6419
 20
-38.5034
 10
-20.808
 20
-38.5672
 10
-20.9799
 20
-38.6133
 10
-21.1556
 20
-38.6411
 10
-21.3333
 20
-38.6504
 10
-21.511
 20
-38.6411
 10
-21.6868
 20
-38.6133
 10
-21.8587
 20
-38.5672
 10
-22.0248
 20
-38.5034
 10
-22.1833
 20
-38.4227
 10
-22.3326
 20
-38.3257
 10
-22.4709
 20
-38.2138
 10
-22.5967
 20
-38.0879
 10
-22.7087
 20
-37.9497
 10
-22.8056
 20
-37.8004
 10
-22.8864
 20
-37.6419
 10
-22.9501
 20
-37.4757
 10
-22.9962
 20
-37.3039
 10
-23.024
 20
-37.1281
  0
LWPOLYLINE
100
AcDbEntity
  8
0
100
AcDbPolyline
 90
60
 70
1
 10
-23.0333
 20
36.9504
 10
-23.024
 20
37.1281
 10
-22.9962
 20
37.3039
 10
-22.9501
 20
37.4757
 10
-22.8864
 20
37.6419
 10
-22.8056
 20
37.8004
 10
-22.7087
 20
37.9497
 10
-22.5967
 20
38.0879
 10
-22.4709
 20
38.2138
 10
-22.3326
 20
38.3257
 10
-22.1833
 20
38.4227
 10
-22.0248
 20
38.5034
 10
-21.8587
 20
38.5672
 10
-21.6868
 20
38.6133
 10
-21.511
 20
38.6411
 10
-21.3333
 20
38.6504
 10
-21.1556
 20
38.6411
 10
-20.9799
 20
38.6133
 10
-20.808
 20
38.5672
 10
-20.6419
 20
38.5034
 10
-20.4833
 20
38.4227
 10
-20.3341
 20
38.3257
 10
-20.1958
 20
38.2138
 10
-20.07
 20
38.0879
 10
-19.958
 20
37.9497
 10
-19.8611
 20
37.8004
 10
-19.7803
 20
37.6419
 10
-19.7165
 20
37.4757
 10
-19.6705
 20
37.3039
 10
-19.6426
 20
37.1281
 10
-19.6333
 20
36.9504
 10
-19.6426
 20
36.7727
 10
-19.6705
 20
36.597
 10
-19.7165
 20
36.4251
 10
-19.7803
 20
36.259
 10
-19.8611
 20
36.1004
 10
-19.958
 20
35.9512
 10
-20.07
 20
35.8129
 10
-20.1958
 20
35.6871
 10
-20.3341
 20
35.5751
 10
-20.4833
 20
35.4782
 10
-20.6419
 20
35.3974
 10
-20.808
 20
35.3336
 10
-20.9799
 20
35.2876
 10
-21.1556
 20
35.2597
 10
-21.3333
 20
35.2504
 10
-21.511
 20
35.2597
 10
-21.6868
 20
35.2876
 10
-21.8587
 20
35.3336
 10
-22.0248
 20
35.3974
 10
-22.1833
 20
35.4782
 10
-22.3326
 20
35.5751
 10
-22.4709
 20
35.6871
 10
-22.5967
 20
35.8129
 10
-22.7087
 20
35.9512
 10
-22.8056
 20
36.1004
 10
-22.8864
 20
36.259
 10
-22.9501
 20
36.4251
 10
-22.9962
 20
36.597
 10
-23.024
 20
36.7727
  0
LWPOLYLINE
100
AcDbEntity
  8
0
100
AcDbPolyline
 90
30
 70
1
 10
-11.6192
 20
-73.7938
 10
-11.5886
 20
-73.3559
 10
-11.4676
 20
-72.9339
 10
-11.2615
 20
-72.5462
 10
-10.9793
 20
-72.2099
 10
-10.6333
 20
-71.9396
 10
-10.2387
 20
-71.7472
 10
-9.81273
 20
-71.641
 10
-9.37398
 20
-71.6257
 10
-8.94163
 20
-71.7019
 10
-8.53458
 20
-71.8664
 10
-8.17062
 20
-72.1119
 10
-7.86565
 20
-72.4277
 10
-7.633
 20
-72.8
 10
-7.48285
 20
-73.2125
 10
-7.42175
 20
-73.6473
 10
-7.45238
 20
-74.0852
 10
-7.57339
 20
-74.5072
 10
-7.77949
 20
-74.8949
 10
-8.06169
 20
-75.2312
 10
-8.40764
 20
-75.5015
 10
-8.80223
 20
-75.6939
 10
-9.22821
 20
-75.8001
 10
-9.66696
 20
-75.8154
 10
-10.0993
 20
-75.7392
 10
-10.5064
 20
-75.5747
 10
-10.8703
 20
-75.3292
 10
-11.1753
 20
-75.0134
 10
-11.4079
 20
-74.6411
 10
-11.5581
 20
-74.2286
  0
LWPOLYLINE
100
AcDbEntity
  8
0
100
AcDbPolyline
 90
30
 70
1
 10
-11.6192
 20
73.7938
 10
-11.5581
 20
74.2286
 10
-11.4079
 20
74.6411
 10
-11.1753
 20
75.0134
 10
-10.8703
 20
75.3292
 10
-10.5064
 20
75.5747
 10
-10.0993
 20
75.7392
 10
-9.66696
 20
75.8154
 10
-9.22821
 20
75.8001
 10
-8.80223
 20
75.6939
 10
-8.40764
 20
75.5015
 10
-8.06169
 20
75.2312
 10
-7.77949
 20
74.8949
 10
-7.57339
 20
74.5072
 10
-7.45238
 20
74.0852
 10
-7.42175
 20
73.6473
 10
-7.48285
 20
73.2125
 10
-7.633
 20
72.8
 10
-7.86565
 20
72.4277
 10
-8.17062
 20
72.1119
 10
-8.53458
 20
71.8664
 10
-8.94163
 20
71.7019
 10
-9.37398
 20
71.6257
 10
-9.81273
 20
71.641
 10
-10.2387
 20
71.7472
 10
-10.6333
 20
71.9396
 10
-10.9793
 20
72.2099
 10
-11.2615
 20
72.5462
 10
-11.4676
 20
72.9339
 10
-11.5886
 20
73.3559
  0
LWPOLYLINE
100
AcDbEntity
  8
0
100
AcDbPolyline
 90
60
 70
1
 10
-5.1
 20
-100
 10
-5.07206
 20
-99.4669
 10
-4.98855
 20
-98.9396
 10
-4.85039
 20
-98.424
 10
-4.65908
 20
-97.9256
 10
-4.41673
 20
-97.45
 10
-4.12599
 20
-97.0023
 10
-3.79004
 20
-96.5874
 10
-3.41257
 20
-96.21
 10
-2.9977
 20
-95.874
 10
-2.55
 20
-95.5833
 10
-2.07436
 20
-95.3409
 10
-1.57599
 20
-95.1496
 10
-1.06035
 20
-95.0114
 10
-0.533094
 20
-94.9279
 10
0
 20
-94.9
 10
0.533094
 20
-94.9279
 10
1.06035
 20
-95.0114
 10
1.57599
 20
-95.1496
 10
2.07436
 20
-95.3409
 10
2.55
 20
-95.5833
 10
2.9977
 20
-95.874
 10
3.41257
 20
-96.21
 10
3.79004
 20
-96.5874
 10
4.12599
 20
-97.0023
 10
4.41673
 20
-97.45
 10
4.65908
 20
-97.9256
 10
4.85039
 20
-98.424
 10
4.98855
 20
-98.9396
 10
5.07206
 20
-99.4669
 10
5.1
 20
-100
 10
5.07206
 20
-100.533
 10
4.98855
 20
-101.06
 10
4.85039
 20
-101.576
 10
4.65908
 20
-102.074
 10
4.41673
 20
-102.55
 10
4.12599
 20
-102.998
 10
3.79004
 20
-103.413
 10
3.41257
 20
-103.79
 10
2.9977
 20
-104.126
 10
2.55
 20
-104.417
 10
2.07436
 20
-104.659
 10
1.57599
 20
-104.85
 10
1.06035
 20
-104.989
 10
0.533094
 20
-105.072
 10
0
 20
-105.1
 10
-0.533094
 20
-105.072
 10
-1.06035
 20
-104.989
 10
-1.57599
 20
-104.85
 10
-2.07436
 20
-104.659
 10
-2.55
 20
-104.417
 10
-2.9977
 20
-104.126
 10
-3.41257
 20
-103.79
 10
-3.79004
 20
-103.413
 10
-4.12599
 20
-102.998
 10
-4.41673
 20
-102.55
 10
-4.65908
 20
-102.074
 10
-4.85039
 20
-101.576
 10
-4.98855
 20
-101.06
 10
-5.07206
 20
-100.533
  0
LWPOLYLINE
100
AcDbEntity
  8
0
100
AcDbPolyline
 90
60
 70
1
 10
-5.1
 20
100
 10
-5.07206
 20
100.533
 10
-4.98855
 20
101.06
 10
-4.85039
 20
101.576
 10
-4.65908
 20
102.074
 10
-4.41673
 20
102.55
 10
-4.12599
 20
102.998
 10
-3.79004
 20
103.413
 10
-3.41257
 20
103.79
 10
-2.9977
 20
104.126
 10
-2.55
 20
104.417
 10
-2.07436
 20
104.659
 10
-1.57599
 20
104.85
 10
-1.06035
 20
104.989
 10
-0.533094
 20
105.072
 10
0
 20
105.1
 10
0.533094
 20
105.072
 10
1.06035
 20
104.989
 10
1.57599
 20
104.85
 10
2.07436
 20
104.659
 10
2.55
 20
104.417
 10
2.9977
 20
104.126
 10
3.41257
 20
103.79
 10
3.79004
 20
103.413
 10
4.12599
 20
102.998
 10
4.41673
 20
102.55
 10
4.65908
 20
102.074
 10
4.85039
 20
101.576
 10
4.98855
 20
101.06
 10
5.07206
 20
100.533
 10
5.1
 20
100
 10
5.07206
 20
99.4669
 10
4.98855
 20
98.9396
 10
4.85039
 20
98.424
 10
4.65908
 20
97.9256
 10
4.41673
 20
97.45
 10
4.12599
 20
97.0023
 10
3.79004
 20
96.5874
 10
3.41257
 20
96.21
 10
2.9977
 20
95.874
 10
2.55
 20
95.5833
 10
2.07436
 20
95.3409
 10
1.57599
 20
95.1496
 10
1.06035
 20
95.0114
 10
0.533094
 20
94.9279
 10
0
 20
94.9
 10
-0.533094
 20
94.9279
 10
-1.06035
 20
95.0114
 10
-1.57599
 20
95.1496
 10
-2.07436
 20
95.3409
 10
-2.55
 20
95.5833
 10
-2.9977
 20
95.874
 10
-3.41257
 20
96.21
 10
-3.79004
 20
96.5874
 10
-4.12599
 20
97.0023
 10
-4.41673
 20
97.45
 10
-4.65908
 20
97.9256
 10
-4.85039
 20
98.424
 10
-4.98855
 20
98.9396
 10
-5.07206
 20
99.4669
  0
LWPOLYLINE
100
AcDbEntity
  8
0
100
AcDbPolyline
 90
30
 70
1
 10
-2.0885
 20
-49.9973
 10
-2.0885
 20
-49.5583
 10
-1.99722
 20
-49.1288
 10
-1.81865
 20
-48.7278
 10
-1.5606
 20
-48.3726
 10
-1.23435
 20
-48.0788
 10
-0.854146
 20
-47.8593
 10
-0.436614
 20
-47.7237
 10
0
 20
-47.6778
 10
0.436614
 20
-47.7237
 10
0.854146
 20
-47.8593
 10
1.23435
 20
-48.0788
 10
1.5606
 20
-48.3726
 10
1.81865
 20
-48.7278
 10
1.99722
 20
-49.1288
 10
2.0885
 20
-49.5583
 10
2.0885
 20
-49.9973
 10
1.99722
 20
-50.4267
 10
1.81865
 20
-50.8278
 10
1.5606
 20
-51.183
 10
1.23435
 20
-51.4767
 10
0.854146
 20
-51.6962
 10
0.436614
 20
-51.8319
 10
0
 20
-51.8778
 10
-0.436614
 20
-51.8319
 10
-0.854146
 20
-51.6962
 10
-1.23435
 20
-51.4767
 10
-1.5606
 20
-51.183
 10
-1.81865
 20
-50.8278
 10
-1.99722
 20
-50.4267
  0
LWPOLYLINE
100
AcDbEntity
  8
0
100
AcDbPolyline
 90
30
 70
1
 10
0.902518
 20
51.1431
 10
0.954844
 20
51.4734
 10
1.07471
 20
51.7857
 10
1.25689
 20
52.0663
 10
1.49341
 20
52.3028
 10
1.77394
 20
52.4849
 10
2.08622
 20
52.6048
 10
2.41659
 20
52.6571
 10
2.75062
 20
52.6396
 10
3.07371
 20
52.5531
 10
3.37175
 20
52.4012
 10
3.6317
 20
52.1907
 10
3.8422
 20
51.9308
 10
3.99405
 20
51.6327
 10
4.08063
 20
51.3096
 10
4.09813
 20
50.9756
 10
4.04581
 20
50.6452
 10
3.92594
 20
50.333
 10
3.74376
 20
50.0524
 10
3.50724
 20
49.8159
 10
3.22671
 20
49.6337
 10
2.91444
 20
49.5139
 10
2.58406
 20
49.4615
 10
2.25003
 20
49.479
 10
1.92694
 20
49.5656
 10
1.6289
 20
49.7175
 10
1.36895
 20
49.928
 10
1.15845
 20
50.1879
 10
1.0066
 20
50.486
 10
0.920024
 20
50.809
  0
LWPOLYLINE
100
AcDbEntity
  8
0
100
AcDbPolyline
 90
30
 70
1
 10
9.26508
 20
-84.121
 10
9.26508
 20
-83.682
 10
9.35635
 20
-83.2526
 10
9.53492
 20
-82.8515
 10
9.79297
 20
-82.4963
 10
10.1192
 20
-82.2026
 10
10.4994
 20
-81.9831
 10
10.917
 20
-81.8474
 10
11.3536
 20
-81.8015
 10
11.7902
 20
-81.8474
 10
12.2077
 20
-81.9831
 10
12.5879
 20
-82.2026
 10
12.9142
 20
-82.4963
 10
13.1722
 20
-82.8515
 10
13.3508
 20
-83.2526
 10
13.4421
 20
-83.682
 10
13.4421
 20
-84.121
 10
13.3508
 20
-84.5504
 10
13.1722
 20
-84.9515
 10
12.9142
 20
-85.3067
 10
12.5879
 20
-85.6004
 10
12.2077
 20
-85.8199
 10
11.7902
 20
-85.9556
 10
11.3536
 20
-86.0015
 10
10.917
 20
-85.9556
 10
10.4994
 20
-85.8199
 10
10.1192
 20
-85.6004
 10
9.79297
 20
-85.3067
 10
9.53492
 20
-84.9515
 10
9.35635
 20
-84.5504
  0
LWPOLYLINE
100
AcDbEntity
  8
0
100
AcDbPolyline
 90
30
 70
1
 10
9.26508
 20
84.121
 10
9.35635
 20
84.5504
 10
9.53492
 20
84.9515
 10
9.79297
 20
85.3067
 10
10.1192
 20
85.6004
 10
10.4994
 20
85.8199
 10
10.917
 20
85.9556
 10
11.3536
 20
86.0015
 10
11.7902
 20
85.9556
 10
12.2077
 20
85.8199
 10
12.5879
 20
85.6004
 10
12.9142
 20
85.3067
 10
13.1722
 20
84.9515
 10
13.3508
 20
84.5504
 10
13.4421
 20
84.121
 10
13.4421
 20
83.682
 10
13.3508
 20
83.2526
 10
13.1722
 20
82.8515
 10
12.9142
 20
82.4963
 10
12.5879
 20
82.2026
 10
12.2077
 20
81.9831
 10
11.7902
 20
81.8474
 10
11.3536
 20
81.8015
 10
10.917
 20
81.8474
 10
10.4994
 20
81.9831
 10
10.1192
 20
82.2026
 10
9.79297
 20
82.4963
 10
9.53492
 20
82.8515
 10
9.35635
 20
83.2526
 10
9.26508
 20
83.682
  0
LWPOLYLINE
100
AcDbEntity
  8
0
100
AcDbPolyline
 90
60
 70
1
 10
17.2333
 20
-36.9504
 10
17.2558
 20
-36.5218
 10
17.3229
 20
-36.098
 10
17.434
 20
-35.6834
 10
17.5878
 20
-35.2828
 10
17.7826
 20
-34.9004
 10
18.0164
 20
-34.5405
 10
18.2864
 20
-34.207
 10
18.5899
 20
-33.9035
 10
18.9234
 20
-33.6334
 10
19.2833
 20
-33.3997
 10
19.6657
 20
-33.2049
 10
20.0664
 20
-33.0511
 10
20.4809
 20
-32.94
 10
20.9048
 20
-32.8729
 10
21.3333
 20
-32.8504
 10
21.7619
 20
-32.8729
 10
22.1858
 20
-32.94
 10
22.6003
 20
-33.0511
 10
23.001
 20
-33.2049
 10
23.3833
 20
-33.3997
 10
23.7433
 20
-33.6334
 10
24.0768
 20
-33.9035
 10
24.3802
 20
-34.207
 10
24.6503
 20
-34.5405
 10
24.884
 20
-34.9004
 10
25.0789
 20
-35.2828
 10
25.2327
 20
-35.6834
 10
25.3437
 20
-36.098
 10
25.4109
 20
-36.5218
 10
25.4333
 20
-36.9504
 10
25.4109
 20
-37.379
 10
25.3437
 20
-37.8029
 10
25.2327
 20
-38.2174
 10
25.0789
 20
-38.618
 10
24.884
 20
-39.0004
 10
24.6503
 20
-39.3603
 10
24.3802
 20
-39.6939
 10
24.0768
 20
-39.9973
 10
23.7433
 20
-40.2674
 10
23.3833
 20
-40.5011
 10
23.001
 20
-40.696
 10
22.6003
 20
-40.8497
 10
22.1858
 20
-40.9608
 10
21.7619
 20
-41.028
 10
21.3333
 20
-41.0504
 10
20.9048
 20
-41.028
 10
20.4809
 20
-40.9608
 10
20.0664
 20
-40.8497
 10
19.6657
 20
-40.696
 10
19.2833
 20
-40.5011
 10
18.9234
 20
-40.2674
 10
18.5899
 20
-39.9973
 10
18.2864
 20
-39.6939
 10
18.0164
 20
-39.3603
 10
17.7826
 20
-39.0004
 10
17.5878
 20
-38.618
 10
17.434
 20
-38.2174
 10
17.3229
 20
-37.8029
 10
17.2558
 20
-37.379
  0
LWPOLYLINE
100
AcDbEntity
  8
0
100
AcDbPolyline
 90
60
 70
1
 10
17.2333
 20
36.9504
 10
17.2558
 20
37.379
 10
17.3229
 20
37.8029
 10
17.434
 20
38.2174
 10
17.5878
 20
38.618
 10
17.7826
 20
39.0004
 10
18.0164
 20
39.3603
 10
18.2864
 20
39.6939
 10
18.5899
 20
39.9973
 10
18.9234
 20
40.2674
 10
19.2833
 20
40.5011
 10
19.6657
 20
40.696
 10
20.0664
 20
40.8497
 10
20.4809
 20
40.9608
 10
20.9048
 20
41.028
 10
21.3333
 20
41.0504
 10
21.7619
 20
41.028
 10
22.1858
 20
40.9608
 10
22.6003
 20
40.8497
 10
23.001
 20
40.696
 10
23.3833
 20
40.5011
 10
23.7433
 20
40.2674
 10
24.0768
 20
39.9973
 10
24.3802
 20
39.6939
 10
24.6503
 20
39.3603
 10
24.884
 20
39.0004
 10
25.0789
 20
38.618
 10
25.2327
 20
38.2174
 10
25.3437
 20
37.8029
 10
25.4109
 20
37.379
 10
25.4333
 20
36.9504
 10
25.4109
 20
36.5218
 10
25.3437
 20
36.098
 10
25.2327
 20
35.6834
 10
25.0789
 20
35.2828
 10
24.884
 20
34.9004
 10
24.6503
 20
34.5405
 10
24.3802
 20
34.207
 10
24.0768
 20
33.9035
 10
23.7433
 20
33.6334
 10
23.3833
 20
33.3997
 10
23.001
 20
33.2049
 10
22.6003
 20
33.0511
 10
22.1858
 20
32.94
 10
21.7619
 20
32.8729
 10
21.3333
 20
32.8504
 10
20.9048
 20
32.8729
 10
20.4809
 20
32.94
 10
20.0664
 20
33.0511
 10
19.6657
 20
33.2049
 10
19.2833
 20
33.3997
 10
18.9234
 20
33.6334
 10
18.5899
 20
33.9035
 10
18.2864
 20
34.207
 10
18.0164
 20
34.5405
 10
17.7826
 20
34.9004
 10
17.5878
 20
35.2828
 10
17.434
 20
35.6834
 10
17.3229
 20
36.098
 10
17.2558
 20
36.5218
  0
LWPOLYLINE
100
AcDbEntity
  8
0
100
AcDbPolyline
 90
30
 70
1
 10
32.4652
 20
-83.0177
 10
32.5263
 20
-82.5829
 10
32.6765
 20
-82.1704
 10
32.9091
 20
-81.7981
 10
33.2141
 20
-81.4823
 10
33.578
 20
-81.2368
 10
33.9851
 20
-81.0723
 10
34.4174
 20
-80.9961
 10
34.8562
 20
-81.0114
 10
35.2822
 20
-81.1176
 10
35.6768
 20
-81.3101
 10
36.0227
 20
-81.5804
 10
36.3049
 20
-81.9167
 10
36.511
 20
-82.3043
 10
36.632
 20
-82.7263
 10
36.6626
 20
-83.1643
 10
36.6015
 20
-83.599
 10
36.4514
 20
-84.0116
 10
36.2187
 20
-84.3839
 10
35.9138
 20
-84.6997
 10
35.5498
 20
-84.9452
 10
35.1428
 20
-85.1096
 10
34.7104
 20
-85.1859
 10
34.2717
 20
-85.1705
 10
33.8457
 20
-85.0643
 10
33.4511
 20
-84.8719
 10
33.1051
 20
-84.6016
 10
32.8229
 20
-84.2653
 10
32.6168
 20
-83.8777
 10
32.4958
 20
-83.4556
  0
LWPOLYLINE
100
AcDbEntity
  8
0
100
AcDbPolyline
 90
30
 70
1
 10
32.4652
 20
83.0177
 10
32.4958
 20
83.4556
 10
32.6168
 20
83.8777
 10
32.8229
 20
84.2653
 10
33.1051
 20
84.6016
 10
33.4511
 20
84.8719
 10
33.8457
 20
85.0643
 10
34.2717
 20
85.1705
 10
34.7104
 20
85.1859
 10
35.1428
 20
85.1096
 10
35.5498
 20
84.9452
 10
35.9138
 20
84.6997
 10
36.2187
 20
84.3839
 10
36.4514
 20
84.0116
 10
36.6015
 20
83.599
 10
36.6626
 20
83.1643
 10
36.632
 20
82.7263
 10
36.511
 20
82.3043
 10
36.3049
 20
81.9167
 10
36.0227
 20
81.5804
 10
35.6768
 20
81.3101
 10
35.2822
 20
81.1176
 10
34.8562
 20
81.0114
 10
34.4174
 20
80.9961
 10
33.9851
 20
81.0723
 10
33.578
 20
81.2368
 10
33.2141
 20
81.4823
 10
32.9091
 20
81.7981
 10
32.6765
 20
82.1704
 10
32.5263
 20
82.5829
  0
LWPOLYLINE
100
AcDbEntity
  8
0
100
AcDbPolyline
 90
60
 70
1
 10
40.9667
 20
0
 10
40.976
 20
0.177698
 10
41.0038
 20
0.35345
 10
41.0499
 20
0.525329
 10
41.1136
 20
0.691452
 10
41.1944
 20
0.849999
 10
41.2913
 20
0.999234
 10
41.4033
 20
1.13752
 10
41.5291
 20
1.26335
 10
41.6674
 20
1.37533
 10
41.8167
 20
1.47224
 10
41.9752
 20
1.55303
 10
42.1413
 20
1.6168
 10
42.3132
 20
1.66285
 10
42.489
 20
1.69069
 10
42.6667
 20
1.7
 10
42.8444
 20
1.69069
 10
43.0201
 20
1.66285
 10
43.192
 20
1.6168
 10
43.3581
 20
1.55303
 10
43.5167
 20
1.47224
 10
43.6659
 20
1.37533
 10
43.8042
 20
1.26335
 10
43.93
 20
1.13752
 10
44.042
 20
0.999234
 10
44.1389
 20
0.849999
 10
44.2197
 20
0.691452
 10
44.2835
 20
0.525329
 10
44.3295
 20
0.35345
 10
44.3574
 20
0.177698
 10
44.3667
 20
0
 10
44.3574
 20
-0.177698
 10
44.3295
 20
-0.35345
 10
44.2835
 20
-0.525329
 10
44.2197
 20
-0.691452
 10
44.1389
 20
-0.849999
 10
44.042
 20
-0.999234
 10
43.93
 20
-1.13752
 10
43.8042
 20
-1.26335
 10
43.6659
 20
-1.37533
 10
43.5167
 20
-1.47224
 10
43.3581
 20
-1.55303
 10
43.192
 20
-1.6168
 10
43.0201
 20
-1.66285
 10
42.8444
 20
-1.69069
 10
42.6667
 20
-1.7
 10
42.489
 20
-1.69069
 10
42.3132
 20
-1.66285
 10
42.1413
 20
-1.6168
 10
41.9752
 20
-1.55303
 10
41.8167
 20
-1.47224
 10
41.6674
 20
-1.37533
 10
41.5291
 20
-1.26335
 10
41.4033
 20
-1.13752
 10
41.2913
 20
-0.999234
 10
41.1944
 20
-0.849999
 10
41.1136
 20
-0.691452
 10
41.0499
 20
-0.525329
 10
41.0038
 20
-0.35345
 10
40.976
 20
-0.177698
  0
LWPOLYLINE
100
AcDbEntity
  8
0
100
AcDbPolyline
 90
30
 70
1
 10
52.5782
 20
-71.552
 10
52.6088
 20
-71.1141
 10
52.7298
 20
-70.6921
 10
52.936
 20
-70.3044
 10
53.2182
 20
-69.9681
 10
53.5641
 20
-69.6978
 10
53.9587
 20
-69.5054
 10
54.3847
 20
-69.3992
 10
54.8234
 20
-69.3838
 10
55.2558
 20
-69.4601
 10
55.6628
 20
-69.6245
 10
56.0268
 20
-69.87
 10
56.3318
 20
-70.1858
 10
56.5644
 20
-70.5581
 10
56.7146
 20
-70.9707
 10
56.7757
 20
-71.4054
 10
56.745
 20
-71.8434
 10
56.624
 20
-72.2654
 10
56.4179
 20
-72.653
 10
56.1357
 20
-72.9893
 10
55.7898
 20
-73.2596
 10
55.3952
 20
-73.4521
 10
54.9692
 20
-73.5583
 10
54.5304
 20
-73.5736
 10
54.0981
 20
-73.4974
 10
53.691
 20
-73.3329
 10
53.3271
 20
-73.0874
 10
53.0221
 20
-72.7716
 10
52.7895
 20
-72.3993
 10
52.6393
 20
-71.9868
  0
LWPOLYLINE
100
AcDbEntity
  8
0
100
AcDbPolyline
 90
30
 70
1
 10
52.5782
 20
71.552
 10
52.6393
 20
71.9868
 10
52.7895
 20
72.3993
 10
53.0221
 20
72.7716
 10
53.3271
 20
73.0874
 10
53.691
 20
73.3329
 10
54.0981
 20
73.4974
 10
54.5304
 20
73.5736
 10
54.9692
 20
73.5583
 10
55.3952
 20
73.4521
 10
55.7898
 20
73.2596
 10
56.1357
 20
72.9893
 10
56.4179
 20
72.653
 10
56.624
 20
72.2654
 10
56.745
 20
71.8434
 10
56.7757
 20
71.4054
 10
56.7146
 20
70.9707
 10
56.5644
 20
70.5581
 10
56.3318
 20
70.1858
 10
56.0268
 20
69.87
 10
55.6628
 20
69.6245
 10
55.2558
 20
69.4601
 10
54.8234
 20
69.3838
 10
54.3847
 20
69.3992
 10
53.9587
 20
69.5054
 10
53.5641
 20
69.6978
 10
53.2182
 20
69.9681
 10
52.936
 20
70.3044
 10
52.7298
 20
70.6921
 10
52.6088
 20
71.1141
  0
LWPOLYLINE
100
AcDbEntity
  8
0
100
AcDbPolyline
 90
30
 70
1
 10
64.8955
 20
-51.5637
 10
64.9868
 20
-51.1343
 10
65.1654
 20
-50.7332
 10
65.4234
 20
-50.3781
 10
65.7497
 20
-50.0843
 10
66.1299
 20
-49.8648
 10
66.5474
 20
-49.7291
 10
66.984
 20
-49.6832
 10
67.4207
 20
-49.7291
 10
67.8382
 20
-49.8648
 10
68.2184
 20
-50.0843
 10
68.5446
 20
-50.3781
 10
68.8027
 20
-50.7332
 10
68.9813
 20
-51.1343
 10
69.0725
 20
-51.5637
 10
69.0725
 20
-52.0027
 10
68.9813
 20
-52.4322
 10
68.8027
 20
-52.8332
 10
68.5446
 20
-53.1884
 10
68.2184
 20
-53.4822
 10
67.8382
 20
-53.7017
 10
67.4207
 20
-53.8373
 10
66.984
 20
-53.8832
 10
66.5474
 20
-53.8373
 10
66.1299
 20
-53.7017
 10
65.7497
 20
-53.4822
 10
65.4234
 20
-53.1884
 10
65.1654
 20
-52.8332
 10
64.9868
 20
-52.4322
 10
64.8955
 20
-52.0027
  0
LWPOLYLINE
100
AcDbEntity
  8
0
100
AcDbPolyline
 90
30
 70
1
 10
64.8955
 20
51.5637
 10
64.8955
 20
52.0027
 10
64.9868
 20
52.4322
 10
65.1654
 20
52.8332
 10
65.4234
 20
53.1884
 10
65.7497
 20
53.4822
 10
66.1299
 20
53.7017
 10
66.5474
 20
53.8373
 10
66.984
 20
53.8832
 10
67.4207
 20
53.8373
 10
67.8382
 20
53.7017
 10
68.2184
 20
53.4822
 10
68.5446
 20
53.1884
 10
68.8027
 20
52.8332
 10
68.9813
 20
52.4322
 10
69.0725
 20
52.0027
 10
69.0725
 20
51.5637
 10
68.9813
 20
51.1343
 10
68.8027
 20
50.7332
 10
68.5446
 20
50.3781
 10
68.2184
 20
50.0843
 10
67.8382
 20
49.8648
 10
67.4207
 20
49.7291
 10
66.984
 20
49.6832
 10
66.5474
 20
49.7291
 10
66.1299
 20
49.8648
 10
65.7497
 20
50.0843
 10
65.4234
 20
50.3781
 10
65.1654
 20
50.7332
 10
64.9868
 20
51.1343
  0
LWPOLYLINE
100
AcDbEntity
  8
0
100
AcDbPolyline
 90
30
 70
1
 10
66.5054
 20
-28.542
 10
66.5665
 20
-28.1073
 10
66.7166
 20
-27.6947
 10
66.9493
 20
-27.3224
 10
67.2543
 20
-27.0066
 10
67.6182
 20
-26.7611
 10
68.0253
 20
-26.5967
 10
68.4576
 20
-26.5204
 10
68.8964
 20
-26.5357
 10
69.3223
 20
-26.6419
 10
69.7169
 20
-26.8344
 10
70.0629
 20
-27.1047
 10
70.3451
 20
-27.441
 10
70.5512
 20
-27.8286
 10
70.6722
 20
-28.2506
 10
70.7028
 20
-28.6886
 10
70.6417
 20
-29.1233
 10
70.4916
 20
-29.5359
 10
70.2589
 20
-29.9082
 10
69.954
 20
-30.224
 10
69.59
 20
-30.4695
 10
69.1829
 20
-30.634
 10
68.7506
 20
-30.7102
 10
68.3118
 20
-30.6949
 10
67.8859
 20
-30.5887
 10
67.4913
 20
-30.3962
 10
67.1453
 20
-30.1259
 10
66.8631
 20
-29.7896
 10
66.657
 20
-29.402
 10
66.536
 20
-28.98
  0
LWPOLYLINE
100
AcDbEntity
  8
0
100
AcDbPolyline
 90
30
 70
1
 10
66.5054
 20
28.542
 10
66.536
 20
28.98
 10
66.657
 20
29.402
 10
66.8631
 20
29.7896
 10
67.1453
 20
30.1259
 10
67.4913
 20
30.3962
 10
67.8859
 20
30.5887
 10
68.3118
 20
30.6949
 10
68.7506
 20
30.7102
 10
69.1829
 20
30.634
 10
69.59
 20
30.4695
 10
69.954
 20
30.224
 10
70.2589
 20
29.9082
 10
70.4916
 20
29.5359
 10
70.6417
 20
29.1233
 10
70.7028
 20
28.6886
 10
70.6722
 20
28.2506
 10
70.5512
 20
27.8286
 10
70.3451
 20
27.441
 10
70.0629
 20
27.1047
 10
69.7169
 20
26.8344
 10
69.3223
 20
26.6419
 10
68.8964
 20
26.5357
 10
68.4576
 20
26.5204
 10
68.0253
 20
26.5967
 10
67.6182
 20
26.7611
 10
67.2543
 20
27.0066
 10
66.9493
 20
27.3224
 10
66.7166
 20
27.6947
 10
66.5665
 20
28.1073
  0
LWPOLYLINE
100
AcDbEntity
  8
0
100
AcDbPolyline
 90
30
 70
1
 10
80.5667
 20
0
 10
80.6126
 20
0.436614
 10
80.7482
 20
0.854146
 10
80.9677
 20
1.23435
 10
81.2615
 20
1.5606
 10
81.6167
 20
1.81865
 10
82.0177
 20
1.99722
 10
82.4472
 20
2.0885
 10
82.8862
 20
2.0885
 10
83.3156
 20
1.99722
 10
83.7167
 20
1.81865
 10
84.0718
 20
1.5606
 10
84.3656
 20
1.23435
 10
84.5851
 20
0.854146
 10
84.7208
 20
0.436614
 10
84.7667
 20
0
 10
84.7208
 20
-0.436614
 10
84.5851
 20
-0.854146
 10
84.3656
 20
-1.23435
 10
84.0718
 20
-1.5606
 10
83.7167
 20
-1.81865
 10
83.3156
 20
-1.99722
 10
82.8862
 20
-2.0885
 10
82.4472
 20
-2.0885
 10
82.0177
 20
-1.99722
 10
81.6167
 20
-1.81865
 10
81.2615
 20
-1.5606
 10
80.9677
 20
-1.23435
 10
80.7482
 20
-0.854146
 10
80.6126
 20
-0.436614
  0
ENDSEC
  0
EOF
