999
DXF from OpenSCAD
  0
SECTION
  2
HEADER
  9
$ACADVER
  1
AC1006
  9
$INSBASE
 10
0.0
 20
0.0
 30
0.0
  9
$EXTMIN
 10
-53.0825
 20
-53.0825
  9
$EXTMAX
 10
53.0825
 20
53.0825
  9
$LINMIN
 10
-53.0825
 20
-53.0825
  9
$LINMAX
 10
53.0825
 20
53.0825
  0
ENDSEC
  0
SECTION
  2
TABLES
  0
TABLE
  2
LTYPE
 70
1
  0
LTYPE
  2
CONTINUOUS
 70
64
  3
Solid line
 72
65
 73
0
 40
0.000000
  0
ENDTAB
  0
TABLE
  2
LAYER
 70
6
  0
LAYER
  2
0
 70
64
 62
7
  6
CONTINUOUS
  0
ENDTAB
  0
TABLE
  2
STYLE
 70
0
  0
ENDTAB
  0
ENDSEC
  0
SECTION
  2
BLOCKS
  0
ENDSEC
  0
SECTION
  2
ENTITIES
  0
LWPOLYLINE
100
AcDbEntity
  8
0
100
AcDbPolyline
 90
720
 70
1
 10
-53.0825
 20
0
 10
-53.075
 20
-0.864551
 10
-53.0745
 20
-0.926418
 10
-53.0518
 20
-1.79071
 10
-53.0502
 20
-1.85255
 10
-53.0475
 20
-1.91436
 10
-53.0098
 20
-2.77813
 10
-52.957
 20
-3.6411
 10
-52.9532
 20
-3.70285
 10
-52.9484
 20
-3.76453
 10
-52.8806
 20
-4.62645
 10
-52.7977
 20
-5.48705
 10
-52.7918
 20
-5.54864
 10
-52.7848
 20
-5.61011
 10
-52.6869
 20
-6.46913
 10
-52.6788
 20
-6.53047
 10
-52.566
 20
-7.38766
 10
-52.4382
 20
-8.24275
 10
-52.429
 20
-8.30394
 10
-52.4188
 20
-8.36496
 10
-52.2761
 20
-9.21769
 10
-52.1185
 20
-10.0678
 10
-52.1073
 20
-10.1286
 10
-52.0949
 20
-10.1893
 10
-51.9226
 20
-11.0365
 10
-51.7354
 20
-11.8806
 10
-51.722
 20
-11.941
 10
-51.5202
 20
-12.7817
 10
-51.5058
 20
-12.8418
 10
-51.4903
 20
-12.9017
 10
-51.2738
 20
-13.7388
 10
-51.2573
 20
-13.7984
 10
-51.0262
 20
-14.6315
 10
-50.7807
 20
-15.4605
 10
-50.7631
 20
-15.5198
 10
-50.5031
 20
-16.3444
 10
-50.4845
 20
-16.4034
 10
-50.4649
 20
-16.4621
 10
-50.1905
 20
-17.282
 10
-49.9019
 20
-18.097
 10
-49.8813
 20
-18.1553
 10
-49.5785
 20
-18.9651
 10
-49.5568
 20
-19.0231
 10
-49.5342
 20
-19.0806
 10
-49.2173
 20
-19.8851
 10
-49.1936
 20
-19.9422
 10
-48.8627
 20
-20.741
 10
-48.518
 20
-21.5339
 10
-48.4933
 20
-21.5906
 10
-48.4677
 20
-21.6469
 10
-48.1091
 20
-22.4337
 10
-47.7369
 20
-23.214
 10
-47.7103
 20
-23.2699
 10
-47.6827
 20
-23.3252
 10
-47.2969
 20
-24.099
 10
-46.8977
 20
-24.8659
 10
-46.8691
 20
-24.9207
 10
-46.8396
 20
-24.9751
 10
-46.427
 20
-25.7349
 10
-46.0013
 20
-26.4874
 10
-45.9708
 20
-26.5413
 10
-45.532
 20
-27.2862
 10
-45.5006
 20
-27.3395
 10
-45.4683
 20
-27.3923
 10
-45.0166
 20
-28.1295
 10
-44.552
 20
-28.8586
 10
-44.5188
 20
-28.9108
 10
-44.0416
 20
-29.6318
 10
-44.0074
 20
-29.6834
 10
-43.9724
 20
-29.7344
 10
-43.4827
 20
-30.4469
 10
-42.9806
 20
-31.1508
 10
-42.9447
 20
-31.2011
 10
-42.4304
 20
-31.8961
 10
-42.3936
 20
-31.9459
 10
-42.3559
 20
-31.995
 10
-41.8296
 20
-32.6809
 10
-41.2914
 20
-33.3575
 10
-41.2529
 20
-33.4059
 10
-40.7029
 20
-34.0731
 10
-40.6636
 20
-34.1208
 10
-40.1021
 20
-34.7782
 10
-40.0619
 20
-34.8253
 10
-39.489
 20
-35.4728
 10
-39.448
 20
-35.5192
 10
-38.8639
 20
-36.1566
 10
-38.8221
 20
-36.2022
 10
-38.7795
 20
-36.2471
 10
-38.1844
 20
-36.8742
 10
-38.141
 20
-36.9184
 10
-37.535
 20
-37.535
 10
-36.9184
 20
-38.141
 10
-36.8742
 20
-38.1844
 10
-36.2471
 20
-38.7795
 10
-36.2022
 20
-38.8221
 10
-36.1566
 20
-38.8639
 10
-35.5192
 20
-39.448
 10
-35.4728
 20
-39.489
 10
-34.8253
 20
-40.0619
 10
-34.7782
 20
-40.1021
 10
-34.1208
 20
-40.6636
 10
-34.0731
 20
-40.7029
 10
-33.4059
 20
-41.2529
 10
-33.3575
 20
-41.2914
 10
-32.6809
 20
-41.8296
 10
-31.995
 20
-42.3559
 10
-31.9459
 20
-42.3936
 10
-31.8961
 20
-42.4304
 10
-31.2011
 20
-42.9447
 10
-31.1508
 20
-42.9806
 10
-30.4469
 20
-43.4827
 10
-29.7344
 20
-43.9724
 10
-29.6834
 20
-44.0074
 10
-29.6318
 20
-44.0416
 10
-28.9108
 20
-44.5188
 10
-28.8586
 20
-44.552
 10
-28.1295
 20
-45.0166
 10
-27.3923
 20
-45.4683
 10
-27.3395
 20
-45.5006
 10
-27.2862
 20
-45.532
 10
-26.5413
 20
-45.9708
 10
-26.4874
 20
-46.0013
 10
-25.7349
 20
-46.427
 10
-24.9751
 20
-46.8396
 10
-24.9207
 20
-46.8691
 10
-24.8659
 20
-46.8977
 10
-24.099
 20
-47.2969
 10
-23.3252
 20
-47.6827
 10
-23.2699
 20
-47.7103
 10
-23.214
 20
-47.7369
 10
-22.4337
 20
-48.1091
 10
-21.6469
 20
-48.4677
 10
-21.5906
 20
-48.4933
 10
-21.5339
 20
-48.518
 10
-20.741
 20
-48.8627
 10
-19.9422
 20
-49.1936
 10
-19.8851
 20
-49.2173
 10
-19.0806
 20
-49.5342
 10
-19.0231
 20
-49.5568
 10
-18.9651
 20
-49.5785
 10
-18.1553
 20
-49.8813
 10
-18.097
 20
-49.9019
 10
-17.282
 20
-50.1905
 10
-16.4621
 20
-50.4649
 10
-16.4034
 20
-50.4845
 10
-16.3444
 20
-50.5031
 10
-15.5198
 20
-50.7631
 10
-15.4605
 20
-50.7807
 10
-14.6315
 20
-51.0262
 10
-13.7984
 20
-51.2573
 10
-13.7388
 20
-51.2738
 10
-12.9017
 20
-51.4903
 10
-12.8418
 20
-51.5058
 10
-12.7817
 20
-51.5202
 10
-11.941
 20
-51.722
 10
-11.8806
 20
-51.7354
 10
-11.0365
 20
-51.9226
 10
-10.1893
 20
-52.0949
 10
-10.1286
 20
-52.1073
 10
-10.0678
 20
-52.1185
 10
-9.21769
 20
-52.2761
 10
-8.36496
 20
-52.4188
 10
-8.30394
 20
-52.429
 10
-8.24275
 20
-52.4382
 10
-7.38766
 20
-52.566
 10
-6.53047
 20
-52.6788
 10
-6.46913
 20
-52.6869
 10
-5.61011
 20
-52.7848
 10
-5.54864
 20
-52.7918
 10
-5.48705
 20
-52.7977
 10
-4.62645
 20
-52.8806
 10
-3.76453
 20
-52.9484
 10
-3.70285
 20
-52.9532
 10
-3.6411
 20
-52.957
 10
-2.77813
 20
-53.0098
 10
-1.91436
 20
-53.0475
 10
-1.85255
 20
-53.0502
 10
-1.79071
 20
-53.0518
 10
-0.926418
 20
-53.0745
 10
-0.864551
 20
-53.075
 10
0
 20
-53.0825
 10
0.864551
 20
-53.075
 10
0.926418
 20
-53.0745
 10
1.79071
 20
-53.0518
 10
1.85255
 20
-53.0502
 10
1.91436
 20
-53.0475
 10
2.77813
 20
-53.0098
 10
3.6411
 20
-52.957
 10
3.70285
 20
-52.9532
 10
3.76453
 20
-52.9484
 10
4.62645
 20
-52.8806
 10
5.48705
 20
-52.7977
 10
5.54864
 20
-52.7918
 10
5.61011
 20
-52.7848
 10
6.46913
 20
-52.6869
 10
6.53047
 20
-52.6788
 10
7.38766
 20
-52.566
 10
8.24275
 20
-52.4382
 10
8.30394
 20
-52.429
 10
8.36496
 20
-52.4188
 10
9.21769
 20
-52.2761
 10
10.0678
 20
-52.1185
 10
10.1286
 20
-52.1073
 10
10.1893
 20
-52.0949
 10
11.0365
 20
-51.9226
 10
11.8806
 20
-51.7354
 10
11.941
 20
-51.722
 10
12.7817
 20
-51.5202
 10
12.8418
 20
-51.5058
 10
12.9017
 20
-51.4903
 10
13.7388
 20
-51.2738
 10
13.7984
 20
-51.2573
 10
14.6315
 20
-51.0262
 10
15.4605
 20
-50.7807
 10
15.5198
 20
-50.7631
 10
16.3444
 20
-50.5031
 10
16.4034
 20
-50.4845
 10
16.4621
 20
-50.4649
 10
17.282
 20
-50.1905
 10
18.097
 20
-49.9019
 10
18.1553
 20
-49.8813
 10
18.9651
 20
-49.5785
 10
19.0231
 20
-49.5568
 10
19.0806
 20
-49.5342
 10
19.8851
 20
-49.2173
 10
19.9422
 20
-49.1936
 10
20.741
 20
-48.8627
 10
21.5339
 20
-48.518
 10
21.5906
 20
-48.4933
 10
21.6469
 20
-48.4677
 10
22.4337
 20
-48.1091
 10
23.214
 20
-47.7369
 10
23.2699
 20
-47.7103
 10
23.3252
 20
-47.6827
 10
24.099
 20
-47.2969
 10
24.8659
 20
-46.8977
 10
24.9207
 20
-46.8691
 10
24.9751
 20
-46.8396
 10
25.7349
 20
-46.427
 10
26.4874
 20
-46.0013
 10
26.5413
 20
-45.9708
 10
27.2862
 20
-45.532
 10
27.3395
 20
-45.5006
 10
27.3923
 20
-45.4683
 10
28.1295
 20
-45.0166
 10
28.8586
 20
-44.552
 10
28.9108
 20
-44.5188
 10
29.6318
 20
-44.0416
 10
29.6834
 20
-44.0074
 10
29.7344
 20
-43.9724
 10
30.4469
 20
-43.4827
 10
31.1508
 20
-42.9806
 10
31.2011
 20
-42.9447
 10
31.8961
 20
-42.4304
 10
31.9459
 20
-42.3936
 10
31.995
 20
-42.3559
 10
32.6809
 20
-41.8296
 10
33.3575
 20
-41.2914
 10
33.4059
 20
-41.2529
 10
34.0731
 20
-40.7029
 10
34.1208
 20
-40.6636
 10
34.7782
 20
-40.1021
 10
34.8253
 20
-40.0619
 10
35.4728
 20
-39.489
 10
35.5192
 20
-39.448
 10
36.1566
 20
-38.8639
 10
36.2022
 20
-38.8221
 10
36.2471
 20
-38.7795
 10
36.8742
 20
-38.1844
 10
36.9184
 20
-38.141
 10
37.535
 20
-37.535
 10
38.141
 20
-36.9184
 10
38.1844
 20
-36.8742
 10
38.7795
 20
-36.2471
 10
38.8221
 20
-36.2022
 10
38.8639
 20
-36.1566
 10
39.448
 20
-35.5192
 10
39.489
 20
-35.4728
 10
40.0619
 20
-34.8253
 10
40.1021
 20
-34.7782
 10
40.6636
 20
-34.1208
 10
40.7029
 20
-34.0731
 10
41.2529
 20
-33.4059
 10
41.2914
 20
-33.3575
 10
41.8296
 20
-32.6809
 10
42.3559
 20
-31.995
 10
42.3936
 20
-31.9459
 10
42.4304
 20
-31.8961
 10
42.9447
 20
-31.2011
 10
42.9806
 20
-31.1508
 10
43.4827
 20
-30.4469
 10
43.9724
 20
-29.7344
 10
44.0074
 20
-29.6834
 10
44.0416
 20
-29.6318
 10
44.5188
 20
-28.9108
 10
44.552
 20
-28.8586
 10
45.0166
 20
-28.1295
 10
45.4683
 20
-27.3923
 10
45.5006
 20
-27.3395
 10
45.532
 20
-27.2862
 10
45.9708
 20
-26.5413
 10
46.0013
 20
-26.4874
 10
46.427
 20
-25.7349
 10
46.8396
 20
-24.9751
 10
46.8691
 20
-24.9207
 10
46.8977
 20
-24.8659
 10
47.2969
 20
-24.099
 10
47.6827
 20
-23.3252
 10
47.7103
 20
-23.2699
 10
47.7369
 20
-23.214
 10
48.1091
 20
-22.4337
 10
48.4677
 20
-21.6469
 10
48.4933
 20
-21.5906
 10
48.518
 20
-21.5339
 10
48.8627
 20
-20.741
 10
49.1936
 20
-19.9422
 10
49.2173
 20
-19.8851
 10
49.5342
 20
-19.0806
 10
49.5568
 20
-19.0231
 10
49.5785
 20
-18.9651
 10
49.8813
 20
-18.1553
 10
49.9019
 20
-18.097
 10
50.1905
 20
-17.282
 10
50.4649
 20
-16.4621
 10
50.4845
 20
-16.4034
 10
50.5031
 20
-16.3444
 10
50.7631
 20
-15.5198
 10
50.7807
 20
-15.4605
 10
51.0262
 20
-14.6315
 10
51.2573
 20
-13.7984
 10
51.2738
 20
-13.7388
 10
51.4903
 20
-12.9017
 10
51.5058
 20
-12.8418
 10
51.5202
 20
-12.7817
 10
51.722
 20
-11.941
 10
51.7354
 20
-11.8806
 10
51.9226
 20
-11.0365
 10
52.0949
 20
-10.1893
 10
52.1073
 20
-10.1286
 10
52.1185
 20
-10.0678
 10
52.2761
 20
-9.21769
 10
52.4188
 20
-8.36496
 10
52.429
 20
-8.30394
 10
52.4382
 20
-8.24275
 10
52.566
 20
-7.38766
 10
52.6788
 20
-6.53047
 10
52.6869
 20
-6.46913
 10
52.7848
 20
-5.61011
 10
52.7918
 20
-5.54864
 10
52.7977
 20
-5.48705
 10
52.8806
 20
-4.62645
 10
52.9484
 20
-3.76453
 10
52.9532
 20
-3.70285
 10
52.957
 20
-3.6411
 10
53.0098
 20
-2.77813
 10
53.0475
 20
-1.91436
 10
53.0502
 20
-1.85255
 10
53.0518
 20
-1.79071
 10
53.0745
 20
-0.926418
 10
53.075
 20
-0.864551
 10
53.0825
 20
0
 10
53.075
 20
0.864551
 10
53.0745
 20
0.926418
 10
53.0518
 20
1.79071
 10
53.0502
 20
1.85255
 10
53.0475
 20
1.91436
 10
53.0098
 20
2.77813
 10
52.957
 20
3.6411
 10
52.9532
 20
3.70285
 10
52.9484
 20
3.76453
 10
52.8806
 20
4.62645
 10
52.7977
 20
5.48705
 10
52.7918
 20
5.54864
 10
52.7848
 20
5.61011
 10
52.6869
 20
6.46913
 10
52.6788
 20
6.53047
 10
52.566
 20
7.38766
 10
52.4382
 20
8.24275
 10
52.429
 20
8.30394
 10
52.4188
 20
8.36496
 10
52.2761
 20
9.21769
 10
52.1185
 20
10.0678
 10
52.1073
 20
10.1286
 10
52.0949
 20
10.1893
 10
51.9226
 20
11.0365
 10
51.7354
 20
11.8806
 10
51.722
 20
11.941
 10
51.5202
 20
12.7817
 10
51.5058
 20
12.8418
 10
51.4903
 20
12.9017
 10
51.2738
 20
13.7388
 10
51.2573
 20
13.7984
 10
51.0262
 20
14.6315
 10
50.7807
 20
15.4605
 10
50.7631
 20
15.5198
 10
50.5031
 20
16.3444
 10
50.4845
 20
16.4034
 10
50.4649
 20
16.4621
 10
50.1905
 20
17.282
 10
49.9019
 20
18.097
 10
49.8813
 20
18.1553
 10
49.5785
 20
18.9651
 10
49.5568
 20
19.0231
 10
49.5342
 20
19.0806
 10
49.2173
 20
19.8851
 10
49.1936
 20
19.9422
 10
48.8627
 20
20.741
 10
48.518
 20
21.5339
 10
48.4933
 20
21.5906
 10
48.4677
 20
21.6469
 10
48.1091
 20
22.4337
 10
47.7369
 20
23.214
 10
47.7103
 20
23.2699
 10
47.6827
 20
23.3252
 10
47.2969
 20
24.099
 10
46.8977
 20
24.8659
 10
46.8691
 20
24.9207
 10
46.8396
 20
24.9751
 10
46.427
 20
25.7349
 10
46.0013
 20
26.4874
 10
45.9708
 20
26.5413
 10
45.532
 20
27.2862
 10
45.5006
 20
27.3395
 10
45.4683
 20
27.3923
 10
45.0166
 20
28.1295
 10
44.552
 20
28.8586
 10
44.5188
 20
28.9108
 10
44.0416
 20
29.6318
 10
44.0074
 20
29.6834
 10
43.9724
 20
29.7344
 10
43.4827
 20
30.4469
 10
42.9806
 20
31.1508
 10
42.9447
 20
31.2011
 10
42.4304
 20
31.8961
 10
42.3936
 20
31.9459
 10
42.3559
 20
31.995
 10
41.8296
 20
32.6809
 10
41.2914
 20
33.3575
 10
41.2529
 20
33.4059
 10
40.7029
 20
34.0731
 10
40.6636
 20
34.1208
 10
40.1021
 20
34.7782
 10
40.0619
 20
34.8253
 10
39.489
 20
35.4728
 10
39.448
 20
35.5192
 10
38.8639
 20
36.1566
 10
38.8221
 20
36.2022
 10
38.7795
 20
36.2471
 10
38.1844
 20
36.8742
 10
38.141
 20
36.9184
 10
37.535
 20
37.535
 10
36.9184
 20
38.141
 10
36.8742
 20
38.1844
 10
36.2471
 20
38.7795
 10
36.2022
 20
38.8221
 10
36.1566
 20
38.8639
 10
35.5192
 20
39.448
 10
35.4728
 20
39.489
 10
34.8253
 20
40.0619
 10
34.7782
 20
40.1021
 10
34.1208
 20
40.6636
 10
34.0731
 20
40.7029
 10
33.4059
 20
41.2529
 10
33.3575
 20
41.2914
 10
32.6809
 20
41.8296
 10
31.995
 20
42.3559
 10
31.9459
 20
42.3936
 10
31.8961
 20
42.4304
 10
31.2011
 20
42.9447
 10
31.1508
 20
42.9806
 10
30.4469
 20
43.4827
 10
29.7344
 20
43.9724
 10
29.6834
 20
44.0074
 10
29.6318
 20
44.0416
 10
28.9108
 20
44.5188
 10
28.8586
 20
44.552
 10
28.1295
 20
45.0166
 10
27.3923
 20
45.4683
 10
27.3395
 20
45.5006
 10
27.2862
 20
45.532
 10
26.5413
 20
45.9708
 10
26.4874
 20
46.0013
 10
25.7349
 20
46.427
 10
24.9751
 20
46.8396
 10
24.9207
 20
46.8691
 10
24.8659
 20
46.8977
 10
24.099
 20
47.2969
 10
23.3252
 20
47.6827
 10
23.2699
 20
47.7103
 10
23.214
 20
47.7369
 10
22.4337
 20
48.1091
 10
21.6469
 20
48.4677
 10
21.5906
 20
48.4933
 10
21.5339
 20
48.518
 10
20.741
 20
48.8627
 10
19.9422
 20
49.1936
 10
19.8851
 20
49.2173
 10
19.0806
 20
49.5342
 10
19.0231
 20
49.5568
 10
18.9651
 20
49.5785
 10
18.1553
 20
49.8813
 10
18.097
 20
49.9019
 10
17.282
 20
50.1905
 10
16.4621
 20
50.4649
 10
16.4034
 20
50.4845
 10
16.3444
 20
50.5031
 10
15.5198
 20
50.7631
 10
15.4605
 20
50.7807
 10
14.6315
 20
51.0262
 10
13.7984
 20
51.2573
 10
13.7388
 20
51.2738
 10
12.9017
 20
51.4903
 10
12.8418
 20
51.5058
 10
12.7817
 20
51.5202
 10
11.941
 20
51.722
 10
11.8806
 20
51.7354
 10
11.0365
 20
51.9226
 10
10.1893
 20
52.0949
 10
10.1286
 20
52.1073
 10
10.0678
 20
52.1185
 10
9.21769
 20
52.2761
 10
8.36496
 20
52.4188
 10
8.30394
 20
52.429
 10
8.24275
 20
52.4382
 10
7.38766
 20
52.566
 10
6.53047
 20
52.6788
 10
6.46913
 20
52.6869
 10
5.61011
 20
52.7848
 10
5.54864
 20
52.7918
 10
5.48705
 20
52.7977
 10
4.62645
 20
52.8806
 10
3.76453
 20
52.9484
 10
3.70285
 20
52.9532
 10
3.6411
 20
52.957
 10
2.77813
 20
53.0098
 10
1.91436
 20
53.0475
 10
1.85255
 20
53.0502
 10
1.79071
 20
53.0518
 10
0.926418
 20
53.0745
 10
0.864551
 20
53.075
 10
0
 20
53.0825
 10
-0.864551
 20
53.075
 10
-0.926418
 20
53.0745
 10
-1.79071
 20
53.0518
 10
-1.85255
 20
53.0502
 10
-1.91436
 20
53.0475
 10
-2.77813
 20
53.0098
 10
-3.6411
 20
52.957
 10
-3.70285
 20
52.9532
 10
-3.76453
 20
52.9484
 10
-4.62645
 20
52.8806
 10
-5.48705
 20
52.7977
 10
-5.54864
 20
52.7918
 10
-5.61011
 20
52.7848
 10
-6.46913
 20
52.6869
 10
-6.53047
 20
52.6788
 10
-7.38766
 20
52.566
 10
-8.24275
 20
52.4382
 10
-8.30394
 20
52.429
 10
-8.36496
 20
52.4188
 10
-9.21769
 20
52.2761
 10
-10.0678
 20
52.1185
 10
-10.1286
 20
52.1073
 10
-10.1893
 20
52.0949
 10
-11.0365
 20
51.9226
 10
-11.8806
 20
51.7354
 10
-11.941
 20
51.722
 10
-12.7817
 20
51.5202
 10
-12.8418
 20
51.5058
 10
-12.9017
 20
51.4903
 10
-13.7388
 20
51.2738
 10
-13.7984
 20
51.2573
 10
-14.6315
 20
51.0262
 10
-15.4605
 20
50.7807
 10
-15.5198
 20
50.7631
 10
-16.3444
 20
50.5031
 10
-16.4034
 20
50.4845
 10
-16.4621
 20
50.4649
 10
-17.282
 20
50.1905
 10
-18.097
 20
49.9019
 10
-18.1553
 20
49.8813
 10
-18.9651
 20
49.5785
 10
-19.0231
 20
49.5568
 10
-19.0806
 20
49.5342
 10
-19.8851
 20
49.2173
 10
-19.9422
 20
49.1936
 10
-20.741
 20
48.8627
 10
-21.5339
 20
48.518
 10
-21.5906
 20
48.4933
 10
-21.6469
 20
48.4677
 10
-22.4337
 20
48.1091
 10
-23.214
 20
47.7369
 10
-23.2699
 20
47.7103
 10
-23.3252
 20
47.6827
 10
-24.099
 20
47.2969
 10
-24.8659
 20
46.8977
 10
-24.9207
 20
46.8691
 10
-24.9751
 20
46.8396
 10
-25.7349
 20
46.427
 10
-26.4874
 20
46.0013
 10
-26.5413
 20
45.9708
 10
-27.2862
 20
45.532
 10
-27.3395
 20
45.5006
 10
-27.3923
 20
45.4683
 10
-28.1295
 20
45.0166
 10
-28.8586
 20
44.552
 10
-28.9108
 20
44.5188
 10
-29.6318
 20
44.0416
 10
-29.6834
 20
44.0074
 10
-29.7344
 20
43.9724
 10
-30.4469
 20
43.4827
 10
-31.1508
 20
42.9806
 10
-31.2011
 20
42.9447
 10
-31.8961
 20
42.4304
 10
-31.9459
 20
42.3936
 10
-31.995
 20
42.3559
 10
-32.6809
 20
41.8296
 10
-33.3575
 20
41.2914
 10
-33.4059
 20
41.2529
 10
-34.0731
 20
40.7029
 10
-34.1208
 20
40.6636
 10
-34.7782
 20
40.1021
 10
-34.8253
 20
40.0619
 10
-35.4728
 20
39.489
 10
-35.5192
 20
39.448
 10
-36.1566
 20
38.8639
 10
-36.2022
 20
38.8221
 10
-36.2471
 20
38.7795
 10
-36.8742
 20
38.1844
 10
-36.9184
 20
38.141
 10
-37.535
 20
37.535
 10
-38.141
 20
36.9184
 10
-38.1844
 20
36.8742
 10
-38.7795
 20
36.2471
 10
-38.8221
 20
36.2022
 10
-38.8639
 20
36.1566
 10
-39.448
 20
35.5192
 10
-39.489
 20
35.4728
 10
-40.0619
 20
34.8253
 10
-40.1021
 20
34.7782
 10
-40.6636
 20
34.1208
 10
-40.7029
 20
34.0731
 10
-41.2529
 20
33.4059
 10
-41.2914
 20
33.3575
 10
-41.8296
 20
32.6809
 10
-42.3559
 20
31.995
 10
-42.3936
 20
31.9459
 10
-42.4304
 20
31.8961
 10
-42.9447
 20
31.2011
 10
-42.9806
 20
31.1508
 10
-43.4827
 20
30.4469
 10
-43.9724
 20
29.7344
 10
-44.0074
 20
29.6834
 10
-44.0416
 20
29.6318
 10
-44.5188
 20
28.9108
 10
-44.552
 20
28.8586
 10
-45.0166
 20
28.1295
 10
-45.4683
 20
27.3923
 10
-45.5006
 20
27.3395
 10
-45.532
 20
27.2862
 10
-45.9708
 20
26.5413
 10
-46.0013
 20
26.4874
 10
-46.427
 20
25.7349
 10
-46.8396
 20
24.9751
 10
-46.8691
 20
24.9207
 10
-46.8977
 20
24.8659
 10
-47.2969
 20
24.099
 10
-47.6827
 20
23.3252
 10
-47.7103
 20
23.2699
 10
-47.7369
 20
23.214
 10
-48.1091
 20
22.4337
 10
-48.4677
 20
21.6469
 10
-48.4933
 20
21.5906
 10
-48.518
 20
21.5339
 10
-48.8627
 20
20.741
 10
-49.1936
 20
19.9422
 10
-49.2173
 20
19.8851
 10
-49.5342
 20
19.0806
 10
-49.5568
 20
19.0231
 10
-49.5785
 20
18.9651
 10
-49.8813
 20
18.1553
 10
-49.9019
 20
18.097
 10
-50.1905
 20
17.282
 10
-50.4649
 20
16.4621
 10
-50.4845
 20
16.4034
 10
-50.5031
 20
16.3444
 10
-50.7631
 20
15.5198
 10
-50.7807
 20
15.4605
 10
-51.0262
 20
14.6315
 10
-51.2573
 20
13.7984
 10
-51.2738
 20
13.7388
 10
-51.4903
 20
12.9017
 10
-51.5058
 20
12.8418
 10
-51.5202
 20
12.7817
 10
-51.722
 20
11.941
 10
-51.7354
 20
11.8806
 10
-51.9226
 20
11.0365
 10
-52.0949
 20
10.1893
 10
-52.1073
 20
10.1286
 10
-52.1185
 20
10.0678
 10
-52.2761
 20
9.21769
 10
-52.4188
 20
8.36496
 10
-52.429
 20
8.30394
 10
-52.4382
 20
8.24275
 10
-52.566
 20
7.38766
 10
-52.6788
 20
6.53047
 10
-52.6869
 20
6.46913
 10
-52.7848
 20
5.61011
 10
-52.7918
 20
5.54864
 10
-52.7977
 20
5.48705
 10
-52.8806
 20
4.62645
 10
-52.9484
 20
3.76453
 10
-52.9532
 20
3.70285
 10
-52.957
 20
3.6411
 10
-53.0098
 20
2.77813
 10
-53.0475
 20
1.91436
 10
-53.0502
 20
1.85255
 10
-53.0518
 20
1.79071
 10
-53.0745
 20
0.926418
 10
-53.075
 20
0.864551
  0
LWPOLYLINE
100
AcDbEntity
  8
0
100
AcDbPolyline
 90
60
 70
1
 10
-21.5
 20
0
 10
-21.4836
 20
0.313585
 10
-21.4344
 20
0.623734
 10
-21.3532
 20
0.927051
 10
-21.2406
 20
1.22021
 10
-21.0981
 20
1.5
 10
-20.9271
 20
1.76336
 10
-20.7294
 20
2.00739
 10
-20.5074
 20
2.22943
 10
-20.2634
 20
2.42705
 10
-20
 20
2.59808
 10
-19.7202
 20
2.74064
 10
-19.4271
 20
2.85317
 10
-19.1237
 20
2.93444
 10
-18.8136
 20
2.98357
 10
-18.5
 20
3
 10
-18.1864
 20
2.98357
 10
-17.8763
 20
2.93444
 10
-17.5729
 20
2.85317
 10
-17.2798
 20
2.74064
 10
-17
 20
2.59808
 10
-16.7366
 20
2.42705
 10
-16.4926
 20
2.22943
 10
-16.2706
 20
2.00739
 10
-16.0729
 20
1.76336
 10
-15.9019
 20
1.5
 10
-15.7594
 20
1.22021
 10
-15.6468
 20
0.927051
 10
-15.5656
 20
0.623734
 10
-15.5164
 20
0.313585
 10
-15.5
 20
0
 10
-15.5164
 20
-0.313585
 10
-15.5656
 20
-0.623734
 10
-15.6468
 20
-0.927051
 10
-15.7594
 20
-1.22021
 10
-15.9019
 20
-1.5
 10
-16.0729
 20
-1.76336
 10
-16.2706
 20
-2.00739
 10
-16.4926
 20
-2.22943
 10
-16.7366
 20
-2.42705
 10
-17
 20
-2.59808
 10
-17.2798
 20
-2.74064
 10
-17.5729
 20
-2.85317
 10
-17.8763
 20
-2.93444
 10
-18.1864
 20
-2.98357
 10
-18.5
 20
-3
 10
-18.8136
 20
-2.98357
 10
-19.1237
 20
-2.93444
 10
-19.4271
 20
-2.85317
 10
-19.7202
 20
-2.74064
 10
-20
 20
-2.59808
 10
-20.2634
 20
-2.42705
 10
-20.5074
 20
-2.22943
 10
-20.7294
 20
-2.00739
 10
-20.9271
 20
-1.76336
 10
-21.0981
 20
-1.5
 10
-21.2406
 20
-1.22021
 10
-21.3532
 20
-0.927051
 10
-21.4344
 20
-0.623734
 10
-21.4836
 20
-0.313585
  0
LWPOLYLINE
100
AcDbEntity
  8
0
100
AcDbPolyline
 90
60
 70
1
 10
-3
 20
-18.5
 10
-2.98357
 20
-18.1864
 10
-2.93444
 20
-17.8763
 10
-2.85317
 20
-17.5729
 10
-2.74064
 20
-17.2798
 10
-2.59808
 20
-17
 10
-2.42705
 20
-16.7366
 10
-2.22943
 20
-16.4926
 10
-2.00739
 20
-16.2706
 10
-1.76336
 20
-16.0729
 10
-1.5
 20
-15.9019
 10
-1.22021
 20
-15.7594
 10
-0.927051
 20
-15.6468
 10
-0.623734
 20
-15.5656
 10
-0.313585
 20
-15.5164
 10
0
 20
-15.5
 10
0.313585
 20
-15.5164
 10
0.623734
 20
-15.5656
 10
0.927051
 20
-15.6468
 10
1.22021
 20
-15.7594
 10
1.5
 20
-15.9019
 10
1.76336
 20
-16.0729
 10
2.00739
 20
-16.2706
 10
2.22943
 20
-16.4926
 10
2.42705
 20
-16.7366
 10
2.59808
 20
-17
 10
2.74064
 20
-17.2798
 10
2.85317
 20
-17.5729
 10
2.93444
 20
-17.8763
 10
2.98357
 20
-18.1864
 10
3
 20
-18.5
 10
2.98357
 20
-18.8136
 10
2.93444
 20
-19.1237
 10
2.85317
 20
-19.4271
 10
2.74064
 20
-19.7202
 10
2.59808
 20
-20
 10
2.42705
 20
-20.2634
 10
2.22943
 20
-20.5074
 10
2.00739
 20
-20.7294
 10
1.76336
 20
-20.9271
 10
1.5
 20
-21.0981
 10
1.22021
 20
-21.2406
 10
0.927051
 20
-21.3532
 10
0.623734
 20
-21.4344
 10
0.313585
 20
-21.4836
 10
0
 20
-21.5
 10
-0.313585
 20
-21.4836
 10
-0.623734
 20
-21.4344
 10
-0.927051
 20
-21.3532
 10
-1.22021
 20
-21.2406
 10
-1.5
 20
-21.0981
 10
-1.76336
 20
-20.9271
 10
-2.00739
 20
-20.7294
 10
-2.22943
 20
-20.5074
 10
-2.42705
 20
-20.2634
 10
-2.59808
 20
-20
 10
-2.74064
 20
-19.7202
 10
-2.85317
 20
-19.4271
 10
-2.93444
 20
-19.1237
 10
-2.98357
 20
-18.8136
  0
LWPOLYLINE
100
AcDbEntity
  8
0
100
AcDbPolyline
 90
60
 70
1
 10
-3
 20
18.5
 10
-2.98357
 20
18.8136
 10
-2.93444
 20
19.1237
 10
-2.85317
 20
19.4271
 10
-2.74064
 20
19.7202
 10
-2.59808
 20
20
 10
-2.42705
 20
20.2634
 10
-2.22943
 20
20.5074
 10
-2.00739
 20
20.7294
 10
-1.76336
 20
20.9271
 10
-1.5
 20
21.0981
 10
-1.22021
 20
21.2406
 10
-0.927051
 20
21.3532
 10
-0.623734
 20
21.4344
 10
-0.313585
 20
21.4836
 10
0
 20
21.5
 10
0.313585
 20
21.4836
 10
0.623734
 20
21.4344
 10
0.927051
 20
21.3532
 10
1.22021
 20
21.2406
 10
1.5
 20
21.0981
 10
1.76336
 20
20.9271
 10
2.00739
 20
20.7294
 10
2.22943
 20
20.5074
 10
2.42705
 20
20.2634
 10
2.59808
 20
20
 10
2.74064
 20
19.7202
 10
2.85317
 20
19.4271
 10
2.93444
 20
19.1237
 10
2.98357
 20
18.8136
 10
3
 20
18.5
 10
2.98357
 20
18.1864
 10
2.93444
 20
17.8763
 10
2.85317
 20
17.5729
 10
2.74064
 20
17.2798
 10
2.59808
 20
17
 10
2.42705
 20
16.7366
 10
2.22943
 20
16.4926
 10
2.00739
 20
16.2706
 10
1.76336
 20
16.0729
 10
1.5
 20
15.9019
 10
1.22021
 20
15.7594
 10
0.927051
 20
15.6468
 10
0.623734
 20
15.5656
 10
0.313585
 20
15.5164
 10
0
 20
15.5
 10
-0.313585
 20
15.5164
 10
-0.623734
 20
15.5656
 10
-0.927051
 20
15.6468
 10
-1.22021
 20
15.7594
 10
-1.5
 20
15.9019
 10
-1.76336
 20
16.0729
 10
-2.00739
 20
16.2706
 10
-2.22943
 20
16.4926
 10
-2.42705
 20
16.7366
 10
-2.59808
 20
17
 10
-2.74064
 20
17.2798
 10
-2.85317
 20
17.5729
 10
-2.93444
 20
17.8763
 10
-2.98357
 20
18.1864
  0
LWPOLYLINE
100
AcDbEntity
  8
0
100
AcDbPolyline
 90
60
 70
1
 10
15.5
 20
0
 10
15.5164
 20
0.313585
 10
15.5656
 20
0.623734
 10
15.6468
 20
0.927051
 10
15.7594
 20
1.22021
 10
15.9019
 20
1.5
 10
16.0729
 20
1.76336
 10
16.2706
 20
2.00739
 10
16.4926
 20
2.22943
 10
16.7366
 20
2.42705
 10
17
 20
2.59808
 10
17.2798
 20
2.74064
 10
17.5729
 20
2.85317
 10
17.8763
 20
2.93444
 10
18.1864
 20
2.98357
 10
18.5
 20
3
 10
18.8136
 20
2.98357
 10
19.1237
 20
2.93444
 10
19.4271
 20
2.85317
 10
19.7202
 20
2.74064
 10
20
 20
2.59808
 10
20.2634
 20
2.42705
 10
20.5074
 20
2.22943
 10
20.7294
 20
2.00739
 10
20.9271
 20
1.76336
 10
21.0981
 20
1.5
 10
21.2406
 20
1.22021
 10
21.3532
 20
0.927051
 10
21.4344
 20
0.623734
 10
21.4836
 20
0.313585
 10
21.5
 20
0
 10
21.4836
 20
-0.313585
 10
21.4344
 20
-0.623734
 10
21.3532
 20
-0.927051
 10
21.2406
 20
-1.22021
 10
21.0981
 20
-1.5
 10
20.9271
 20
-1.76336
 10
20.7294
 20
-2.00739
 10
20.5074
 20
-2.22943
 10
20.2634
 20
-2.42705
 10
20
 20
-2.59808
 10
19.7202
 20
-2.74064
 10
19.4271
 20
-2.85317
 10
19.1237
 20
-2.93444
 10
18.8136
 20
-2.98357
 10
18.5
 20
-3
 10
18.1864
 20
-2.98357
 10
17.8763
 20
-2.93444
 10
17.5729
 20
-2.85317
 10
17.2798
 20
-2.74064
 10
17
 20
-2.59808
 10
16.7366
 20
-2.42705
 10
16.4926
 20
-2.22943
 10
16.2706
 20
-2.00739
 10
16.0729
 20
-1.76336
 10
15.9019
 20
-1.5
 10
15.7594
 20
-1.22021
 10
15.6468
 20
-0.927051
 10
15.5656
 20
-0.623734
 10
15.5164
 20
-0.313585
  0
ENDSEC
  0
EOF
