999
DXF from OpenSCAD
  0
SECTION
  2
HEADER
  9
$ACADVER
  1
AC1006
  9
$INSBASE
 10
0.0
 20
0.0
 30
0.0
  9
$EXTMIN
 10
-73.3333
 20
-120.4
  9
$EXTMAX
 10
58
 20
120.4
  9
$LINMIN
 10
-73.3333
 20
-120.4
  9
$LINMAX
 10
58
 20
120.4
  0
ENDSEC
  0
SECTION
  2
TABLES
  0
TABLE
  2
LTYPE
 70
1
  0
LTYPE
  2
CONTINUOUS
 70
64
  3
Solid line
 72
65
 73
0
 40
0.000000
  0
ENDTAB
  0
TABLE
  2
LAYER
 70
6
  0
LAYER
  2
0
 70
64
 62
7
  6
CONTINUOUS
  0
ENDTAB
  0
TABLE
  2
STYLE
 70
0
  0
ENDTAB
  0
ENDSEC
  0
SECTION
  2
BLOCKS
  0
ENDSEC
  0
SECTION
  2
ENTITIES
  0
LWPOLYLINE
100
AcDbEntity
  8
0
100
AcDbPolyline
 90
162
 70
1
 10
-73.3333
 20
0
 10
-73.3268
 20
-0.744636
 10
-73.3073
 20
-1.48905
 10
-73.2749
 20
-2.233
 10
-73.2294
 20
-2.97628
 10
-73.171
 20
-3.71864
 10
-73.0996
 20
-4.45988
 10
-73.0153
 20
-5.19976
 10
-72.9181
 20
-5.93805
 10
-72.808
 20
-6.67454
 10
-72.6851
 20
-7.40899
 10
-72.5494
 20
-8.14118
 10
-72.401
 20
-8.8709
 10
-72.2398
 20
-9.59791
 10
-72.066
 20
-10.322
 10
-71.8795
 20
-11.0429
 10
-71.6805
 20
-11.7605
 10
-71.469
 20
-12.4745
 10
-71.2451
 20
-13.1847
 10
-71.0088
 20
-13.8909
 10
-70.7602
 20
-14.5929
 10
-70.4994
 20
-15.2904
 10
-70.2265
 20
-15.9832
 10
-69.9415
 20
-16.6712
 10
-69.6446
 20
-17.3541
 10
-69.3358
 20
-18.0317
 10
-69.0152
 20
-18.7038
 10
-68.6829
 20
-19.3703
 10
-68.3391
 20
-20.0308
 10
-67.9838
 20
-20.6852
 10
-17.6669
 20
-110.2
 10
-16.5039
 20
-111.991
 10
-15.1602
 20
-113.65
 10
-13.6503
 20
-115.16
 10
-11.9908
 20
-116.504
 10
-10.2
 20
-117.667
 10
-8.29743
 20
-118.636
 10
-6.30395
 20
-119.402
 10
-4.2414
 20
-119.954
 10
-2.13238
 20
-120.288
 10
0
 20
-120.4
 10
2.13238
 20
-120.288
 10
4.2414
 20
-119.954
 10
6.30395
 20
-119.402
 10
8.29743
 20
-118.636
 10
10.2
 20
-117.667
 10
11.9908
 20
-116.504
 10
13.6503
 20
-115.16
 10
15.1602
 20
-113.65
 10
16.5039
 20
-111.991
 10
17.6669
 20
-110.2
 10
52.6504
 20
-47.2433
 10
53.0058
 20
-46.5889
 10
53.3496
 20
-45.9284
 10
53.6819
 20
-45.2619
 10
54.0025
 20
-44.5898
 10
54.3113
 20
-43.9122
 10
54.6082
 20
-43.2293
 10
54.8932
 20
-42.5413
 10
55.1661
 20
-41.8485
 10
55.4269
 20
-41.151
 10
55.6755
 20
-40.449
 10
55.9117
 20
-39.7428
 10
56.1357
 20
-39.0326
 10
56.3472
 20
-38.3186
 10
56.5462
 20
-37.6011
 10
56.7326
 20
-36.8801
 10
56.9065
 20
-36.156
 10
57.0676
 20
-35.429
 10
57.2161
 20
-34.6993
 10
57.3518
 20
-33.9671
 10
57.4747
 20
-33.2326
 10
57.5848
 20
-32.4962
 10
57.682
 20
-31.7579
 10
57.7663
 20
-31.018
 10
57.8376
 20
-30.2768
 10
57.8961
 20
-29.5344
 10
57.9415
 20
-28.7911
 10
57.974
 20
-28.0472
 10
57.9935
 20
-27.3027
 10
58
 20
-26.5581
 10
58
 20
0
 10
58
 20
26.5581
 10
57.9935
 20
27.3027
 10
57.974
 20
28.0472
 10
57.9415
 20
28.7911
 10
57.8961
 20
29.5344
 10
57.8376
 20
30.2768
 10
57.7663
 20
31.018
 10
57.682
 20
31.7579
 10
57.5848
 20
32.4962
 10
57.4747
 20
33.2326
 10
57.3518
 20
33.9671
 10
57.2161
 20
34.6993
 10
57.0676
 20
35.429
 10
56.9065
 20
36.156
 10
56.7326
 20
36.8801
 10
56.5462
 20
37.6011
 10
56.3472
 20
38.3186
 10
56.1357
 20
39.0326
 10
55.9117
 20
39.7428
 10
55.6755
 20
40.449
 10
55.4269
 20
41.151
 10
55.1661
 20
41.8485
 10
54.8932
 20
42.5413
 10
54.6082
 20
43.2293
 10
54.3113
 20
43.9122
 10
54.0025
 20
44.5898
 10
53.6819
 20
45.2619
 10
53.3496
 20
45.9284
 10
53.0058
 20
46.5889
 10
52.6504
 20
47.2433
 10
17.6669
 20
110.2
 10
16.5039
 20
111.991
 10
15.1602
 20
113.65
 10
13.6503
 20
115.16
 10
11.9908
 20
116.504
 10
10.2
 20
117.667
 10
8.29743
 20
118.636
 10
6.30395
 20
119.402
 10
4.2414
 20
119.954
 10
2.13238
 20
120.288
 10
0
 20
120.4
 10
-2.13238
 20
120.288
 10
-4.2414
 20
119.954
 10
-6.30395
 20
119.402
 10
-8.29743
 20
118.636
 10
-10.2
 20
117.667
 10
-11.9908
 20
116.504
 10
-13.6503
 20
115.16
 10
-15.1602
 20
113.65
 10
-16.5039
 20
111.991
 10
-17.6669
 20
110.2
 10
-67.9838
 20
20.6852
 10
-68.3391
 20
20.0308
 10
-68.6829
 20
19.3703
 10
-69.0152
 20
18.7038
 10
-69.3358
 20
18.0317
 10
-69.6446
 20
17.3541
 10
-69.9415
 20
16.6712
 10
-70.2265
 20
15.9832
 10
-70.4994
 20
15.2904
 10
-70.7602
 20
14.5929
 10
-71.0088
 20
13.8909
 10
-71.2451
 20
13.1847
 10
-71.469
 20
12.4745
 10
-71.6805
 20
11.7605
 10
-71.8795
 20
11.0429
 10
-72.066
 20
10.322
 10
-72.2398
 20
9.59791
 10
-72.401
 20
8.8709
 10
-72.5494
 20
8.14118
 10
-72.6851
 20
7.40899
 10
-72.808
 20
6.67454
 10
-72.9181
 20
5.93805
 10
-73.0153
 20
5.19976
 10
-73.0996
 20
4.45988
 10
-73.171
 20
3.71864
 10
-73.2294
 20
2.97628
 10
-73.2749
 20
2.233
 10
-73.3073
 20
1.48905
 10
-73.3268
 20
0.744636
  0
LWPOLYLINE
100
AcDbEntity
  8
0
100
AcDbPolyline
 90
30
 70
1
 10
-69.4333
 20
0
 10
-69.3874
 20
0.436614
 10
-69.2518
 20
0.854146
 10
-69.0323
 20
1.23435
 10
-68.7385
 20
1.5606
 10
-68.3833
 20
1.81865
 10
-67.9823
 20
1.99722
 10
-67.5528
 20
2.0885
 10
-67.1138
 20
2.0885
 10
-66.6844
 20
1.99722
 10
-66.2833
 20
1.81865
 10
-65.9282
 20
1.5606
 10
-65.6344
 20
1.23435
 10
-65.4149
 20
0.854146
 10
-65.2792
 20
0.436614
 10
-65.2333
 20
0
 10
-65.2792
 20
-0.436614
 10
-65.4149
 20
-0.854146
 10
-65.6344
 20
-1.23435
 10
-65.9282
 20
-1.5606
 10
-66.2833
 20
-1.81865
 10
-66.6844
 20
-1.99722
 10
-67.1138
 20
-2.0885
 10
-67.5528
 20
-2.0885
 10
-67.9823
 20
-1.99722
 10
-68.3833
 20
-1.81865
 10
-68.7385
 20
-1.5606
 10
-69.0323
 20
-1.23435
 10
-69.2518
 20
-0.854146
 10
-69.3874
 20
-0.436614
  0
LWPOLYLINE
100
AcDbEntity
  8
0
100
AcDbPolyline
 90
30
 70
1
 10
-67.2169
 20
-12.3942
 10
-67.1407
 20
-11.9619
 10
-66.9763
 20
-11.5548
 10
-66.7308
 20
-11.1909
 10
-66.415
 20
-10.8859
 10
-66.0426
 20
-10.6533
 10
-65.6301
 20
-10.5031
 10
-65.1954
 20
-10.442
 10
-64.7574
 20
-10.4726
 10
-64.3354
 20
-10.5937
 10
-63.9478
 20
-10.7998
 10
-63.6114
 20
-11.082
 10
-63.3412
 20
-11.4279
 10
-63.1487
 20
-11.8225
 10
-63.0425
 20
-12.2485
 10
-63.0272
 20
-12.6872
 10
-63.1034
 20
-13.1196
 10
-63.2679
 20
-13.5266
 10
-63.5134
 20
-13.8906
 10
-63.8292
 20
-14.1956
 10
-64.2015
 20
-14.4282
 10
-64.614
 20
-14.5784
 10
-65.0488
 20
-14.6395
 10
-65.4867
 20
-14.6088
 10
-65.9087
 20
-14.4878
 10
-66.2964
 20
-14.2817
 10
-66.6327
 20
-13.9995
 10
-66.903
 20
-13.6536
 10
-67.0954
 20
-13.259
 10
-67.2016
 20
-12.833
  0
LWPOLYLINE
100
AcDbEntity
  8
0
100
AcDbPolyline
 90
30
 70
1
 10
-67.2169
 20
12.3942
 10
-67.2016
 20
12.833
 10
-67.0954
 20
13.259
 10
-66.903
 20
13.6536
 10
-66.6327
 20
13.9995
 10
-66.2964
 20
14.2817
 10
-65.9087
 20
14.4878
 10
-65.4867
 20
14.6088
 10
-65.0488
 20
14.6395
 10
-64.614
 20
14.5784
 10
-64.2015
 20
14.4282
 10
-63.8292
 20
14.1956
 10
-63.5134
 20
13.8906
 10
-63.2679
 20
13.5266
 10
-63.1034
 20
13.1196
 10
-63.0272
 20
12.6872
 10
-63.0425
 20
12.2485
 10
-63.1487
 20
11.8225
 10
-63.3412
 20
11.4279
 10
-63.6114
 20
11.082
 10
-63.9478
 20
10.7998
 10
-64.3354
 20
10.5937
 10
-64.7574
 20
10.4726
 10
-65.1954
 20
10.442
 10
-65.6301
 20
10.5031
 10
-66.0426
 20
10.6533
 10
-66.415
 20
10.8859
 10
-66.7308
 20
11.1909
 10
-66.9763
 20
11.5548
 10
-67.1407
 20
11.9619
  0
LWPOLYLINE
100
AcDbEntity
  8
0
100
AcDbPolyline
 90
30
 70
1
 10
-60.8498
 20
-23.7154
 10
-60.8345
 20
-23.2766
 10
-60.7283
 20
-22.8506
 10
-60.5359
 20
-22.456
 10
-60.2656
 20
-22.1101
 10
-59.9293
 20
-21.8279
 10
-59.5416
 20
-21.6218
 10
-59.1196
 20
-21.5008
 10
-58.6817
 20
-21.4702
 10
-58.2469
 20
-21.5313
 10
-57.8344
 20
-21.6814
 10
-57.4621
 20
-21.9141
 10
-57.1463
 20
-22.219
 10
-56.9008
 20
-22.583
 10
-56.7363
 20
-22.99
 10
-56.6601
 20
-23.4224
 10
-56.6754
 20
-23.8611
 10
-56.7816
 20
-24.2871
 10
-56.9741
 20
-24.6817
 10
-57.2443
 20
-25.0277
 10
-57.5807
 20
-25.3099
 10
-57.9683
 20
-25.516
 10
-58.3903
 20
-25.637
 10
-58.8283
 20
-25.6676
 10
-59.263
 20
-25.6065
 10
-59.6755
 20
-25.4563
 10
-60.0479
 20
-25.2237
 10
-60.3637
 20
-24.9187
 10
-60.6092
 20
-24.5548
 10
-60.7736
 20
-24.1477
  0
LWPOLYLINE
100
AcDbEntity
  8
0
100
AcDbPolyline
 90
30
 70
1
 10
-60.8498
 20
23.7154
 10
-60.7736
 20
24.1477
 10
-60.6092
 20
24.5548
 10
-60.3637
 20
24.9187
 10
-60.0479
 20
25.2237
 10
-59.6755
 20
25.4563
 10
-59.263
 20
25.6065
 10
-58.8283
 20
25.6676
 10
-58.3903
 20
25.637
 10
-57.9683
 20
25.516
 10
-57.5807
 20
25.3099
 10
-57.2443
 20
25.0277
 10
-56.9741
 20
24.6817
 10
-56.7816
 20
24.2871
 10
-56.6754
 20
23.8611
 10
-56.6601
 20
23.4224
 10
-56.7363
 20
22.99
 10
-56.9008
 20
22.583
 10
-57.1463
 20
22.219
 10
-57.4621
 20
21.9141
 10
-57.8344
 20
21.6814
 10
-58.2469
 20
21.5313
 10
-58.6817
 20
21.4702
 10
-59.1196
 20
21.5008
 10
-59.5416
 20
21.6218
 10
-59.9293
 20
21.8279
 10
-60.2656
 20
22.1101
 10
-60.5359
 20
22.456
 10
-60.7283
 20
22.8506
 10
-60.8345
 20
23.2766
  0
LWPOLYLINE
100
AcDbEntity
  8
0
100
AcDbPolyline
 90
30
 70
1
 10
-51.1
 20
-31.7543
 10
-51.0541
 20
-31.3176
 10
-50.9184
 20
-30.9001
 10
-50.6989
 20
-30.5199
 10
-50.4052
 20
-30.1937
 10
-50.05
 20
-29.9356
 10
-49.6489
 20
-29.757
 10
-49.2195
 20
-29.6658
 10
-48.7805
 20
-29.6658
 10
-48.3511
 20
-29.757
 10
-47.95
 20
-29.9356
 10
-47.5948
 20
-30.1937
 10
-47.3011
 20
-30.5199
 10
-47.0816
 20
-30.9001
 10
-46.9459
 20
-31.3176
 10
-46.9
 20
-31.7543
 10
-46.9459
 20
-32.1909
 10
-47.0816
 20
-32.6084
 10
-47.3011
 20
-32.9886
 10
-47.5948
 20
-33.3149
 10
-47.95
 20
-33.5729
 10
-48.3511
 20
-33.7515
 10
-48.7805
 20
-33.8428
 10
-49.2195
 20
-33.8428
 10
-49.6489
 20
-33.7515
 10
-50.05
 20
-33.5729
 10
-50.4052
 20
-33.3149
 10
-50.6989
 20
-32.9886
 10
-50.9184
 20
-32.6084
 10
-51.0541
 20
-32.1909
  0
LWPOLYLINE
100
AcDbEntity
  8
0
100
AcDbPolyline
 90
30
 70
1
 10
-51.1
 20
31.7543
 10
-51.0541
 20
32.1909
 10
-50.9184
 20
32.6084
 10
-50.6989
 20
32.9886
 10
-50.4052
 20
33.3149
 10
-50.05
 20
33.5729
 10
-49.6489
 20
33.7515
 10
-49.2195
 20
33.8428
 10
-48.7805
 20
33.8428
 10
-48.3511
 20
33.7515
 10
-47.95
 20
33.5729
 10
-47.5948
 20
33.3149
 10
-47.3011
 20
32.9886
 10
-47.0816
 20
32.6084
 10
-46.9459
 20
32.1909
 10
-46.9
 20
31.7543
 10
-46.9459
 20
31.3176
 10
-47.0816
 20
30.9001
 10
-47.3011
 20
30.5199
 10
-47.5948
 20
30.1937
 10
-47.95
 20
29.9356
 10
-48.3511
 20
29.757
 10
-48.7805
 20
29.6658
 10
-49.2195
 20
29.6658
 10
-49.6489
 20
29.757
 10
-50.05
 20
29.9356
 10
-50.4052
 20
30.1937
 10
-50.6989
 20
30.5199
 10
-50.9184
 20
30.9001
 10
-51.0541
 20
31.3176
  0
LWPOLYLINE
100
AcDbEntity
  8
0
100
AcDbPolyline
 90
30
 70
1
 10
-39.1287
 20
-35.9631
 10
-39.0524
 20
-35.5308
 10
-38.888
 20
-35.1237
 10
-38.6425
 20
-34.7598
 10
-38.3267
 20
-34.4548
 10
-37.9543
 20
-34.2221
 10
-37.5418
 20
-34.072
 10
-37.1071
 20
-34.0109
 10
-36.6691
 20
-34.0415
 10
-36.2471
 20
-34.1625
 10
-35.8595
 20
-34.3686
 10
-35.5232
 20
-34.6508
 10
-35.2529
 20
-34.9968
 10
-35.0604
 20
-35.3914
 10
-34.9542
 20
-35.8174
 10
-34.9389
 20
-36.2561
 10
-35.0151
 20
-36.6885
 10
-35.1796
 20
-37.0955
 10
-35.4251
 20
-37.4595
 10
-35.7409
 20
-37.7644
 10
-36.1132
 20
-37.9971
 10
-36.5257
 20
-38.1472
 10
-36.9605
 20
-38.2083
 10
-37.3984
 20
-38.1777
 10
-37.8204
 20
-38.0567
 10
-38.2081
 20
-37.8506
 10
-38.5444
 20
-37.5684
 10
-38.8147
 20
-37.2224
 10
-39.0071
 20
-36.8279
 10
-39.1133
 20
-36.4019
  0
LWPOLYLINE
100
AcDbEntity
  8
0
100
AcDbPolyline
 90
30
 70
1
 10
-39.1287
 20
35.9631
 10
-39.1133
 20
36.4019
 10
-39.0071
 20
36.8279
 10
-38.8147
 20
37.2224
 10
-38.5444
 20
37.5684
 10
-38.2081
 20
37.8506
 10
-37.8204
 20
38.0567
 10
-37.3984
 20
38.1777
 10
-36.9605
 20
38.2083
 10
-36.5257
 20
38.1472
 10
-36.1132
 20
37.9971
 10
-35.7409
 20
37.7644
 10
-35.4251
 20
37.4595
 10
-35.1796
 20
37.0955
 10
-35.0151
 20
36.6885
 10
-34.9389
 20
36.2561
 10
-34.9542
 20
35.8174
 10
-35.0604
 20
35.3914
 10
-35.2529
 20
34.9968
 10
-35.5232
 20
34.6508
 10
-35.8595
 20
34.3686
 10
-36.2471
 20
34.1625
 10
-36.6691
 20
34.0415
 10
-37.1071
 20
34.0109
 10
-37.5418
 20
34.072
 10
-37.9543
 20
34.2221
 10
-38.3267
 20
34.4548
 10
-38.6425
 20
34.7598
 10
-38.888
 20
35.1237
 10
-39.0524
 20
35.5308
  0
LWPOLYLINE
100
AcDbEntity
  8
0
100
AcDbPolyline
 90
60
 70
1
 10
-34.9667
 20
0
 10
-34.9431
 20
0.449471
 10
-34.8727
 20
0.89402
 10
-34.7562
 20
1.32877
 10
-34.5949
 20
1.74897
 10
-34.3906
 20
2.15
 10
-34.1454
 20
2.52748
 10
-33.8622
 20
2.87726
 10
-33.5439
 20
3.19552
 10
-33.1941
 20
3.47877
 10
-32.8167
 20
3.72391
 10
-32.4156
 20
3.92824
 10
-31.9954
 20
4.08954
 10
-31.5607
 20
4.20603
 10
-31.1161
 20
4.27644
 10
-30.6667
 20
4.3
 10
-30.2172
 20
4.27644
 10
-29.7726
 20
4.20603
 10
-29.3379
 20
4.08954
 10
-28.9177
 20
3.92824
 10
-28.5167
 20
3.72391
 10
-28.1392
 20
3.47877
 10
-27.7894
 20
3.19552
 10
-27.4711
 20
2.87726
 10
-27.1879
 20
2.52748
 10
-26.9428
 20
2.15
 10
-26.7384
 20
1.74897
 10
-26.5771
 20
1.32877
 10
-26.4606
 20
0.89402
 10
-26.3902
 20
0.449471
 10
-26.3667
 20
0
 10
-26.3902
 20
-0.449471
 10
-26.4606
 20
-0.89402
 10
-26.5771
 20
-1.32877
 10
-26.7384
 20
-1.74897
 10
-26.9428
 20
-2.15
 10
-27.1879
 20
-2.52748
 10
-27.4711
 20
-2.87726
 10
-27.7894
 20
-3.19552
 10
-28.1392
 20
-3.47877
 10
-28.5167
 20
-3.72391
 10
-28.9177
 20
-3.92824
 10
-29.3379
 20
-4.08954
 10
-29.7726
 20
-4.20603
 10
-30.2172
 20
-4.27644
 10
-30.6667
 20
-4.3
 10
-31.1161
 20
-4.27644
 10
-31.5607
 20
-4.20603
 10
-31.9954
 20
-4.08954
 10
-32.4156
 20
-3.92824
 10
-32.8167
 20
-3.72391
 10
-33.1941
 20
-3.47877
 10
-33.5439
 20
-3.19552
 10
-33.8622
 20
-2.87726
 10
-34.1454
 20
-2.52748
 10
-34.3906
 20
-2.15
 10
-34.5949
 20
-1.74897
 10
-34.7562
 20
-1.32877
 10
-34.8727
 20
-0.89402
 10
-34.9431
 20
-0.449471
  0
LWPOLYLINE
100
AcDbEntity
  8
0
100
AcDbPolyline
 90
30
 70
1
 10
-28.1
 20
-45.0333
 10
-28.0541
 20
-44.5967
 10
-27.9184
 20
-44.1792
 10
-27.6989
 20
-43.799
 10
-27.4052
 20
-43.4727
 10
-27.05
 20
-43.2147
 10
-26.6489
 20
-43.0361
 10
-26.2195
 20
-42.9448
 10
-25.7805
 20
-42.9448
 10
-25.3511
 20
-43.0361
 10
-24.95
 20
-43.2147
 10
-24.5948
 20
-43.4727
 10
-24.3011
 20
-43.799
 10
-24.0816
 20
-44.1792
 10
-23.9459
 20
-44.5967
 10
-23.9
 20
-45.0333
 10
-23.9459
 20
-45.4699
 10
-24.0816
 20
-45.8875
 10
-24.3011
 20
-46.2677
 10
-24.5948
 20
-46.5939
 10
-24.95
 20
-46.852
 10
-25.3511
 20
-47.0305
 10
-25.7805
 20
-47.1218
 10
-26.2195
 20
-47.1218
 10
-26.6489
 20
-47.0305
 10
-27.05
 20
-46.852
 10
-27.4052
 20
-46.5939
 10
-27.6989
 20
-46.2677
 10
-27.9184
 20
-45.8875
 10
-28.0541
 20
-45.4699
  0
LWPOLYLINE
100
AcDbEntity
  8
0
100
AcDbPolyline
 90
30
 70
1
 10
-28.1
 20
45.0333
 10
-28.0541
 20
45.4699
 10
-27.9184
 20
45.8875
 10
-27.6989
 20
46.2677
 10
-27.4052
 20
46.5939
 10
-27.05
 20
46.852
 10
-26.6489
 20
47.0305
 10
-26.2195
 20
47.1218
 10
-25.7805
 20
47.1218
 10
-25.3511
 20
47.0305
 10
-24.95
 20
46.852
 10
-24.5948
 20
46.5939
 10
-24.3011
 20
46.2677
 10
-24.0816
 20
45.8875
 10
-23.9459
 20
45.4699
 10
-23.9
 20
45.0333
 10
-23.9459
 20
44.5967
 10
-24.0816
 20
44.1792
 10
-24.3011
 20
43.799
 10
-24.5948
 20
43.4727
 10
-24.95
 20
43.2147
 10
-25.3511
 20
43.0361
 10
-25.7805
 20
42.9448
 10
-26.2195
 20
42.9448
 10
-26.6489
 20
43.0361
 10
-27.05
 20
43.2147
 10
-27.4052
 20
43.4727
 10
-27.6989
 20
43.799
 10
-27.9184
 20
44.1792
 10
-28.0541
 20
44.5967
  0
LWPOLYLINE
100
AcDbEntity
  8
0
100
AcDbPolyline
 90
60
 70
1
 10
-17.4333
 20
-26.5581
 10
-17.4218
 20
-26.3386
 10
-17.3874
 20
-26.1215
 10
-17.3306
 20
-25.9092
 10
-17.2518
 20
-25.704
 10
-17.152
 20
-25.5081
 10
-17.0323
 20
-25.3238
 10
-16.8939
 20
-25.1529
 10
-16.7385
 20
-24.9975
 10
-16.5677
 20
-24.8592
 10
-16.3833
 20
-24.7395
 10
-16.1875
 20
-24.6397
 10
-15.9823
 20
-24.5609
 10
-15.7699
 20
-24.504
 10
-15.5528
 20
-24.4696
 10
-15.3333
 20
-24.4581
 10
-15.1138
 20
-24.4696
 10
-14.8967
 20
-24.504
 10
-14.6844
 20
-24.5609
 10
-14.4792
 20
-24.6397
 10
-14.2833
 20
-24.7395
 10
-14.099
 20
-24.8592
 10
-13.9282
 20
-24.9975
 10
-13.7727
 20
-25.1529
 10
-13.6344
 20
-25.3238
 10
-13.5147
 20
-25.5081
 10
-13.4149
 20
-25.704
 10
-13.3361
 20
-25.9092
 10
-13.2792
 20
-26.1215
 10
-13.2448
 20
-26.3386
 10
-13.2333
 20
-26.5581
 10
-13.2448
 20
-26.7776
 10
-13.2792
 20
-26.9947
 10
-13.3361
 20
-27.207
 10
-13.4149
 20
-27.4123
 10
-13.5147
 20
-27.6081
 10
-13.6344
 20
-27.7925
 10
-13.7727
 20
-27.9633
 10
-13.9282
 20
-28.1187
 10
-14.099
 20
-28.257
 10
-14.2833
 20
-28.3768
 10
-14.4792
 20
-28.4766
 10
-14.6844
 20
-28.5553
 10
-14.8967
 20
-28.6122
 10
-15.1138
 20
-28.6466
 10
-15.3333
 20
-28.6581
 10
-15.5528
 20
-28.6466
 10
-15.7699
 20
-28.6122
 10
-15.9823
 20
-28.5553
 10
-16.1875
 20
-28.4766
 10
-16.3833
 20
-28.3768
 10
-16.5677
 20
-28.257
 10
-16.7385
 20
-28.1187
 10
-16.8939
 20
-27.9633
 10
-17.0323
 20
-27.7925
 10
-17.152
 20
-27.6081
 10
-17.2518
 20
-27.4123
 10
-17.3306
 20
-27.207
 10
-17.3874
 20
-26.9947
 10
-17.4218
 20
-26.7776
  0
LWPOLYLINE
100
AcDbEntity
  8
0
100
AcDbPolyline
 90
60
 70
1
 10
-17.4333
 20
26.5581
 10
-17.4218
 20
26.7776
 10
-17.3874
 20
26.9947
 10
-17.3306
 20
27.207
 10
-17.2518
 20
27.4123
 10
-17.152
 20
27.6081
 10
-17.0323
 20
27.7925
 10
-16.8939
 20
27.9633
 10
-16.7385
 20
28.1187
 10
-16.5677
 20
28.257
 10
-16.3833
 20
28.3768
 10
-16.1875
 20
28.4766
 10
-15.9823
 20
28.5553
 10
-15.7699
 20
28.6122
 10
-15.5528
 20
28.6466
 10
-15.3333
 20
28.6581
 10
-15.1138
 20
28.6466
 10
-14.8967
 20
28.6122
 10
-14.6844
 20
28.5553
 10
-14.4792
 20
28.4766
 10
-14.2833
 20
28.3768
 10
-14.099
 20
28.257
 10
-13.9282
 20
28.1187
 10
-13.7727
 20
27.9633
 10
-13.6344
 20
27.7925
 10
-13.5147
 20
27.6081
 10
-13.4149
 20
27.4123
 10
-13.3361
 20
27.207
 10
-13.2792
 20
26.9947
 10
-13.2448
 20
26.7776
 10
-13.2333
 20
26.5581
 10
-13.2448
 20
26.3386
 10
-13.2792
 20
26.1215
 10
-13.3361
 20
25.9092
 10
-13.4149
 20
25.704
 10
-13.5147
 20
25.5081
 10
-13.6344
 20
25.3238
 10
-13.7727
 20
25.1529
 10
-13.9282
 20
24.9975
 10
-14.099
 20
24.8592
 10
-14.2833
 20
24.7395
 10
-14.4792
 20
24.6397
 10
-14.6844
 20
24.5609
 10
-14.8967
 20
24.504
 10
-15.1138
 20
24.4696
 10
-15.3333
 20
24.4581
 10
-15.5528
 20
24.4696
 10
-15.7699
 20
24.504
 10
-15.9823
 20
24.5609
 10
-16.1875
 20
24.6397
 10
-16.3833
 20
24.7395
 10
-16.5677
 20
24.8592
 10
-16.7385
 20
24.9975
 10
-16.8939
 20
25.1529
 10
-17.0323
 20
25.3238
 10
-17.152
 20
25.5081
 10
-17.2518
 20
25.704
 10
-17.3306
 20
25.9092
 10
-17.3874
 20
26.1215
 10
-17.4218
 20
26.3386
  0
LWPOLYLINE
100
AcDbEntity
  8
0
100
AcDbPolyline
 90
360
 70
1
 10
-16.2
 20
0
 10
-16.1975
 20
0.282728
 10
-16.1901
 20
0.565372
 10
-16.1778
 20
0.847842
 10
-16.1605
 20
1.13005
 10
-16.1384
 20
1.41192
 10
-16.1113
 20
1.69336
 10
-16.0792
 20
1.97428
 10
-16.0423
 20
2.2546
 10
-16.0006
 20
2.53424
 10
-15.9539
 20
2.8131
 10
-15.9024
 20
3.09111
 10
-15.846
 20
3.36817
 10
-15.7848
 20
3.64421
 10
-15.7188
 20
3.91913
 10
-15.648
 20
4.19287
 10
-15.5724
 20
4.46532
 10
-15.4921
 20
4.73642
 10
-15.4071
 20
5.00607
 10
-15.3174
 20
5.2742
 10
-15.223
 20
5.54073
 10
-15.124
 20
5.80556
 10
-15.0204
 20
6.06863
 10
-14.9122
 20
6.32984
 10
-14.7994
 20
6.58913
 10
-14.6822
 20
6.84642
 10
-14.5605
 20
7.10161
 10
-14.4343
 20
7.35465
 10
-14.3038
 20
7.60544
 10
-14.1688
 20
7.85392
 10
-14.0296
 20
8.1
 10
-13.8861
 20
8.34362
 10
-13.7384
 20
8.58469
 10
-13.5865
 20
8.82315
 10
-13.4304
 20
9.05892
 10
-13.2703
 20
9.29194
 10
-13.1061
 20
9.52212
 10
-12.9379
 20
9.7494
 10
-12.7658
 20
9.97372
 10
-12.5898
 20
10.195
 10
-12.4099
 20
10.4132
 10
-12.2263
 20
10.6282
 10
-12.0389
 20
10.8399
 10
-11.8479
 20
11.0484
 10
-11.6533
 20
11.2535
 10
-11.4551
 20
11.4551
 10
-11.2535
 20
11.6533
 10
-11.0484
 20
11.8479
 10
-10.8399
 20
12.0389
 10
-10.6282
 20
12.2263
 10
-10.4132
 20
12.4099
 10
-10.195
 20
12.5898
 10
-9.97372
 20
12.7658
 10
-9.7494
 20
12.9379
 10
-9.52212
 20
13.1061
 10
-9.29194
 20
13.2703
 10
-9.05892
 20
13.4304
 10
-8.82315
 20
13.5865
 10
-8.58469
 20
13.7384
 10
-8.34362
 20
13.8861
 10
-8.1
 20
14.0296
 10
-7.85392
 20
14.1688
 10
-7.60544
 20
14.3038
 10
-7.35465
 20
14.4343
 10
-7.10161
 20
14.5605
 10
-6.84642
 20
14.6822
 10
-6.58913
 20
14.7994
 10
-6.32984
 20
14.9122
 10
-6.06863
 20
15.0204
 10
-5.80556
 20
15.124
 10
-5.54073
 20
15.223
 10
-5.2742
 20
15.3174
 10
-5.00607
 20
15.4071
 10
-4.73642
 20
15.4921
 10
-4.46532
 20
15.5724
 10
-4.19287
 20
15.648
 10
-3.91913
 20
15.7188
 10
-3.64421
 20
15.7848
 10
-3.36817
 20
15.846
 10
-3.09111
 20
15.9024
 10
-2.8131
 20
15.9539
 10
-2.53424
 20
16.0006
 10
-2.2546
 20
16.0423
 10
-1.97428
 20
16.0792
 10
-1.69336
 20
16.1113
 10
-1.41192
 20
16.1384
 10
-1.13005
 20
16.1605
 10
-0.847842
 20
16.1778
 10
-0.565372
 20
16.1901
 10
-0.282728
 20
16.1975
 10
0
 20
16.2
 10
0.282728
 20
16.1975
 10
0.565372
 20
16.1901
 10
0.847842
 20
16.1778
 10
1.13005
 20
16.1605
 10
1.41192
 20
16.1384
 10
1.69336
 20
16.1113
 10
1.97428
 20
16.0792
 10
2.2546
 20
16.0423
 10
2.53424
 20
16.0006
 10
2.8131
 20
15.9539
 10
3.09111
 20
15.9024
 10
3.36817
 20
15.846
 10
3.64421
 20
15.7848
 10
3.91913
 20
15.7188
 10
4.19287
 20
15.648
 10
4.46532
 20
15.5724
 10
4.73642
 20
15.4921
 10
5.00607
 20
15.4071
 10
5.2742
 20
15.3174
 10
5.54073
 20
15.223
 10
5.80556
 20
15.124
 10
6.06863
 20
15.0204
 10
6.32984
 20
14.9122
 10
6.58913
 20
14.7994
 10
6.84642
 20
14.6822
 10
7.10161
 20
14.5605
 10
7.35465
 20
14.4343
 10
7.60544
 20
14.3038
 10
7.85392
 20
14.1688
 10
8.1
 20
14.0296
 10
8.34362
 20
13.8861
 10
8.58469
 20
13.7384
 10
8.82315
 20
13.5865
 10
9.05892
 20
13.4304
 10
9.29194
 20
13.2703
 10
9.52212
 20
13.1061
 10
9.7494
 20
12.9379
 10
9.97372
 20
12.7658
 10
10.195
 20
12.5898
 10
10.4132
 20
12.4099
 10
10.6282
 20
12.2263
 10
10.8399
 20
12.0389
 10
11.0484
 20
11.8479
 10
11.2535
 20
11.6533
 10
11.4551
 20
11.4551
 10
11.6533
 20
11.2535
 10
11.8479
 20
11.0484
 10
12.0389
 20
10.8399
 10
12.2263
 20
10.6282
 10
12.4099
 20
10.4132
 10
12.5898
 20
10.195
 10
12.7658
 20
9.97372
 10
12.9379
 20
9.7494
 10
13.1061
 20
9.52212
 10
13.2703
 20
9.29194
 10
13.4304
 20
9.05892
 10
13.5865
 20
8.82315
 10
13.7384
 20
8.58469
 10
13.8861
 20
8.34362
 10
14.0296
 20
8.1
 10
14.1688
 20
7.85392
 10
14.3038
 20
7.60544
 10
14.4343
 20
7.35465
 10
14.5605
 20
7.10161
 10
14.6822
 20
6.84642
 10
14.7994
 20
6.58913
 10
14.9122
 20
6.32984
 10
15.0204
 20
6.06863
 10
15.124
 20
5.80556
 10
15.223
 20
5.54073
 10
15.3174
 20
5.2742
 10
15.4071
 20
5.00607
 10
15.4921
 20
4.73642
 10
15.5724
 20
4.46532
 10
15.648
 20
4.19287
 10
15.7188
 20
3.91913
 10
15.7848
 20
3.64421
 10
15.846
 20
3.36817
 10
15.9024
 20
3.09111
 10
15.9539
 20
2.8131
 10
16.0006
 20
2.53424
 10
16.0423
 20
2.2546
 10
16.0792
 20
1.97428
 10
16.1113
 20
1.69336
 10
16.1384
 20
1.41192
 10
16.1605
 20
1.13005
 10
16.1778
 20
0.847842
 10
16.1901
 20
0.565372
 10
16.1975
 20
0.282728
 10
16.2
 20
0
 10
16.1975
 20
-0.282728
 10
16.1901
 20
-0.565372
 10
16.1778
 20
-0.847842
 10
16.1605
 20
-1.13005
 10
16.1384
 20
-1.41192
 10
16.1113
 20
-1.69336
 10
16.0792
 20
-1.97428
 10
16.0423
 20
-2.2546
 10
16.0006
 20
-2.53424
 10
15.9539
 20
-2.8131
 10
15.9024
 20
-3.09111
 10
15.846
 20
-3.36817
 10
15.7848
 20
-3.64421
 10
15.7188
 20
-3.91913
 10
15.648
 20
-4.19287
 10
15.5724
 20
-4.46532
 10
15.4921
 20
-4.73642
 10
15.4071
 20
-5.00607
 10
15.3174
 20
-5.2742
 10
15.223
 20
-5.54073
 10
15.124
 20
-5.80556
 10
15.0204
 20
-6.06863
 10
14.9122
 20
-6.32984
 10
14.7994
 20
-6.58913
 10
14.6822
 20
-6.84642
 10
14.5605
 20
-7.10161
 10
14.4343
 20
-7.35465
 10
14.3038
 20
-7.60544
 10
14.1688
 20
-7.85392
 10
14.0296
 20
-8.1
 10
13.8861
 20
-8.34362
 10
13.7384
 20
-8.58469
 10
13.5865
 20
-8.82315
 10
13.4304
 20
-9.05892
 10
13.2703
 20
-9.29194
 10
13.1061
 20
-9.52212
 10
12.9379
 20
-9.7494
 10
12.7658
 20
-9.97372
 10
12.5898
 20
-10.195
 10
12.4099
 20
-10.4132
 10
12.2263
 20
-10.6282
 10
12.0389
 20
-10.8399
 10
11.8479
 20
-11.0484
 10
11.6533
 20
-11.2535
 10
11.4551
 20
-11.4551
 10
11.2535
 20
-11.6533
 10
11.0484
 20
-11.8479
 10
10.8399
 20
-12.0389
 10
10.6282
 20
-12.2263
 10
10.4132
 20
-12.4099
 10
10.195
 20
-12.5898
 10
9.97372
 20
-12.7658
 10
9.7494
 20
-12.9379
 10
9.52212
 20
-13.1061
 10
9.29194
 20
-13.2703
 10
9.05892
 20
-13.4304
 10
8.82315
 20
-13.5865
 10
8.58469
 20
-13.7384
 10
8.34362
 20
-13.8861
 10
8.1
 20
-14.0296
 10
7.85392
 20
-14.1688
 10
7.60544
 20
-14.3038
 10
7.35465
 20
-14.4343
 10
7.10161
 20
-14.5605
 10
6.84642
 20
-14.6822
 10
6.58913
 20
-14.7994
 10
6.32984
 20
-14.9122
 10
6.06863
 20
-15.0204
 10
5.80556
 20
-15.124
 10
5.54073
 20
-15.223
 10
5.2742
 20
-15.3174
 10
5.00607
 20
-15.4071
 10
4.73642
 20
-15.4921
 10
4.46532
 20
-15.5724
 10
4.19287
 20
-15.648
 10
3.91913
 20
-15.7188
 10
3.64421
 20
-15.7848
 10
3.36817
 20
-15.846
 10
3.09111
 20
-15.9024
 10
2.8131
 20
-15.9539
 10
2.53424
 20
-16.0006
 10
2.2546
 20
-16.0423
 10
1.97428
 20
-16.0792
 10
1.69336
 20
-16.1113
 10
1.41192
 20
-16.1384
 10
1.13005
 20
-16.1605
 10
0.847842
 20
-16.1778
 10
0.565372
 20
-16.1901
 10
0.282728
 20
-16.1975
 10
0
 20
-16.2
 10
-0.282728
 20
-16.1975
 10
-0.565372
 20
-16.1901
 10
-0.847842
 20
-16.1778
 10
-1.13005
 20
-16.1605
 10
-1.41192
 20
-16.1384
 10
-1.69336
 20
-16.1113
 10
-1.97428
 20
-16.0792
 10
-2.2546
 20
-16.0423
 10
-2.53424
 20
-16.0006
 10
-2.8131
 20
-15.9539
 10
-3.09111
 20
-15.9024
 10
-3.36817
 20
-15.846
 10
-3.64421
 20
-15.7848
 10
-3.91913
 20
-15.7188
 10
-4.19287
 20
-15.648
 10
-4.46532
 20
-15.5724
 10
-4.73642
 20
-15.4921
 10
-5.00607
 20
-15.4071
 10
-5.2742
 20
-15.3174
 10
-5.54073
 20
-15.223
 10
-5.80556
 20
-15.124
 10
-6.06863
 20
-15.0204
 10
-6.32984
 20
-14.9122
 10
-6.58913
 20
-14.7994
 10
-6.84642
 20
-14.6822
 10
-7.10161
 20
-14.5605
 10
-7.35465
 20
-14.4343
 10
-7.60544
 20
-14.3038
 10
-7.85392
 20
-14.1688
 10
-8.1
 20
-14.0296
 10
-8.34362
 20
-13.8861
 10
-8.58469
 20
-13.7384
 10
-8.82315
 20
-13.5865
 10
-9.05892
 20
-13.4304
 10
-9.29194
 20
-13.2703
 10
-9.52212
 20
-13.1061
 10
-9.7494
 20
-12.9379
 10
-9.97372
 20
-12.7658
 10
-10.195
 20
-12.5898
 10
-10.4132
 20
-12.4099
 10
-10.6282
 20
-12.2263
 10
-10.8399
 20
-12.0389
 10
-11.0484
 20
-11.8479
 10
-11.2535
 20
-11.6533
 10
-11.4551
 20
-11.4551
 10
-11.6533
 20
-11.2535
 10
-11.8479
 20
-11.0484
 10
-12.0389
 20
-10.8399
 10
-12.2263
 20
-10.6282
 10
-12.4099
 20
-10.4132
 10
-12.5898
 20
-10.195
 10
-12.7658
 20
-9.97372
 10
-12.9379
 20
-9.7494
 10
-13.1061
 20
-9.52212
 10
-13.2703
 20
-9.29194
 10
-13.4304
 20
-9.05892
 10
-13.5865
 20
-8.82315
 10
-13.7384
 20
-8.58469
 10
-13.8861
 20
-8.34362
 10
-14.0296
 20
-8.1
 10
-14.1688
 20
-7.85392
 10
-14.3038
 20
-7.60544
 10
-14.4343
 20
-7.35465
 10
-14.5605
 20
-7.10161
 10
-14.6822
 20
-6.84642
 10
-14.7994
 20
-6.58913
 10
-14.9122
 20
-6.32984
 10
-15.0204
 20
-6.06863
 10
-15.124
 20
-5.80556
 10
-15.223
 20
-5.54073
 10
-15.3174
 20
-5.2742
 10
-15.4071
 20
-5.00607
 10
-15.4921
 20
-4.73642
 10
-15.5724
 20
-4.46532
 10
-15.648
 20
-4.19287
 10
-15.7188
 20
-3.91913
 10
-15.7848
 20
-3.64421
 10
-15.846
 20
-3.36817
 10
-15.9024
 20
-3.09111
 10
-15.9539
 20
-2.8131
 10
-16.0006
 20
-2.53424
 10
-16.0423
 20
-2.2546
 10
-16.0792
 20
-1.97428
 10
-16.1113
 20
-1.69336
 10
-16.1384
 20
-1.41192
 10
-16.1605
 20
-1.13005
 10
-16.1778
 20
-0.847842
 10
-16.1901
 20
-0.565372
 10
-16.1975
 20
-0.282728
  0
LWPOLYLINE
100
AcDbEntity
  8
0
100
AcDbPolyline
 90
30
 70
1
 10
-14.8498
 20
-50.2735
 10
-14.8345
 20
-49.8347
 10
-14.7283
 20
-49.4087
 10
-14.5359
 20
-49.0142
 10
-14.2656
 20
-48.6682
 10
-13.9293
 20
-48.386
 10
-13.5416
 20
-48.1799
 10
-13.1196
 20
-48.0589
 10
-12.6817
 20
-48.0283
 10
-12.2469
 20
-48.0894
 10
-11.8344
 20
-48.2395
 10
-11.4621
 20
-48.4722
 10
-11.1463
 20
-48.7771
 10
-10.9008
 20
-49.1411
 10
-10.7363
 20
-49.5482
 10
-10.6601
 20
-49.9805
 10
-10.6754
 20
-50.4193
 10
-10.7816
 20
-50.8452
 10
-10.9741
 20
-51.2398
 10
-11.2443
 20
-51.5858
 10
-11.5807
 20
-51.868
 10
-11.9683
 20
-52.0741
 10
-12.3903
 20
-52.1951
 10
-12.8283
 20
-52.2257
 10
-13.263
 20
-52.1646
 10
-13.6755
 20
-52.0145
 10
-14.0479
 20
-51.7818
 10
-14.3637
 20
-51.4768
 10
-14.6092
 20
-51.1129
 10
-14.7736
 20
-50.7058
  0
LWPOLYLINE
100
AcDbEntity
  8
0
100
AcDbPolyline
 90
30
 70
1
 10
-14.8498
 20
50.2735
 10
-14.7736
 20
50.7058
 10
-14.6092
 20
51.1129
 10
-14.3637
 20
51.4768
 10
-14.0479
 20
51.7818
 10
-13.6755
 20
52.0145
 10
-13.263
 20
52.1646
 10
-12.8283
 20
52.2257
 10
-12.3903
 20
52.1951
 10
-11.9683
 20
52.0741
 10
-11.5807
 20
51.868
 10
-11.2443
 20
51.5858
 10
-10.9741
 20
51.2398
 10
-10.7816
 20
50.8452
 10
-10.6754
 20
50.4193
 10
-10.6601
 20
49.9805
 10
-10.7363
 20
49.5482
 10
-10.9008
 20
49.1411
 10
-11.1463
 20
48.7771
 10
-11.4621
 20
48.4722
 10
-11.8344
 20
48.2395
 10
-12.2469
 20
48.0894
 10
-12.6817
 20
48.0283
 10
-13.1196
 20
48.0589
 10
-13.5416
 20
48.1799
 10
-13.9293
 20
48.386
 10
-14.2656
 20
48.6682
 10
-14.5359
 20
49.0142
 10
-14.7283
 20
49.4087
 10
-14.8345
 20
49.8347
  0
LWPOLYLINE
100
AcDbEntity
  8
0
100
AcDbPolyline
 90
30
 70
1
 10
-5.1
 20
-58.3124
 10
-5.05411
 20
-57.8758
 10
-4.91845
 20
-57.4582
 10
-4.69893
 20
-57.078
 10
-4.40517
 20
-56.7518
 10
-4.05
 20
-56.4937
 10
-3.64894
 20
-56.3152
 10
-3.21951
 20
-56.2239
 10
-2.78049
 20
-56.2239
 10
-2.35106
 20
-56.3152
 10
-1.95
 20
-56.4937
 10
-1.59483
 20
-56.7518
 10
-1.30106
 20
-57.078
 10
-1.08155
 20
-57.4582
 10
-0.94589
 20
-57.8758
 10
-0.9
 20
-58.3124
 10
-0.945889
 20
-58.749
 10
-1.08155
 20
-59.1665
 10
-1.30106
 20
-59.5467
 10
-1.59483
 20
-59.873
 10
-1.95
 20
-60.131
 10
-2.35106
 20
-60.3096
 10
-2.78049
 20
-60.4009
 10
-3.21951
 20
-60.4009
 10
-3.64894
 20
-60.3096
 10
-4.05
 20
-60.131
 10
-4.40517
 20
-59.873
 10
-4.69894
 20
-59.5467
 10
-4.91845
 20
-59.1665
 10
-5.05411
 20
-58.749
  0
LWPOLYLINE
100
AcDbEntity
  8
0
100
AcDbPolyline
 90
30
 70
1
 10
-5.1
 20
58.3124
 10
-5.05411
 20
58.749
 10
-4.91845
 20
59.1665
 10
-4.69894
 20
59.5467
 10
-4.40517
 20
59.873
 10
-4.05
 20
60.131
 10
-3.64894
 20
60.3096
 10
-3.21951
 20
60.4009
 10
-2.78049
 20
60.4009
 10
-2.35106
 20
60.3096
 10
-1.95
 20
60.131
 10
-1.59483
 20
59.873
 10
-1.30106
 20
59.5467
 10
-1.08155
 20
59.1665
 10
-0.945889
 20
58.749
 10
-0.9
 20
58.3124
 10
-0.94589
 20
57.8758
 10
-1.08155
 20
57.4582
 10
-1.30106
 20
57.078
 10
-1.59483
 20
56.7518
 10
-1.95
 20
56.4937
 10
-2.35106
 20
56.3152
 10
-2.78049
 20
56.2239
 10
-3.21951
 20
56.2239
 10
-3.64894
 20
56.3152
 10
-4.05
 20
56.4937
 10
-4.40517
 20
56.7518
 10
-4.69893
 20
57.078
 10
-4.91845
 20
57.4582
 10
-5.05411
 20
57.8758
  0
LWPOLYLINE
100
AcDbEntity
  8
0
100
AcDbPolyline
 90
60
 70
1
 10
-5.1
 20
-100
 10
-5.07206
 20
-99.4669
 10
-4.98855
 20
-98.9396
 10
-4.85039
 20
-98.424
 10
-4.65908
 20
-97.9256
 10
-4.41673
 20
-97.45
 10
-4.12599
 20
-97.0023
 10
-3.79004
 20
-96.5874
 10
-3.41257
 20
-96.21
 10
-2.9977
 20
-95.874
 10
-2.55
 20
-95.5833
 10
-2.07436
 20
-95.3409
 10
-1.57599
 20
-95.1496
 10
-1.06035
 20
-95.0114
 10
-0.533094
 20
-94.9279
 10
0
 20
-94.9
 10
0.533094
 20
-94.9279
 10
1.06035
 20
-95.0114
 10
1.57599
 20
-95.1496
 10
2.07436
 20
-95.3409
 10
2.55
 20
-95.5833
 10
2.9977
 20
-95.874
 10
3.41257
 20
-96.21
 10
3.79004
 20
-96.5874
 10
4.12599
 20
-97.0023
 10
4.41673
 20
-97.45
 10
4.65908
 20
-97.9256
 10
4.85039
 20
-98.424
 10
4.98855
 20
-98.9396
 10
5.07206
 20
-99.4669
 10
5.1
 20
-100
 10
5.07206
 20
-100.533
 10
4.98855
 20
-101.06
 10
4.85039
 20
-101.576
 10
4.65908
 20
-102.074
 10
4.41673
 20
-102.55
 10
4.12599
 20
-102.998
 10
3.79004
 20
-103.413
 10
3.41257
 20
-103.79
 10
2.9977
 20
-104.126
 10
2.55
 20
-104.417
 10
2.07436
 20
-104.659
 10
1.57599
 20
-104.85
 10
1.06035
 20
-104.989
 10
0.533094
 20
-105.072
 10
0
 20
-105.1
 10
-0.533094
 20
-105.072
 10
-1.06035
 20
-104.989
 10
-1.57599
 20
-104.85
 10
-2.07436
 20
-104.659
 10
-2.55
 20
-104.417
 10
-2.9977
 20
-104.126
 10
-3.41257
 20
-103.79
 10
-3.79004
 20
-103.413
 10
-4.12599
 20
-102.998
 10
-4.41673
 20
-102.55
 10
-4.65908
 20
-102.074
 10
-4.85039
 20
-101.576
 10
-4.98855
 20
-101.06
 10
-5.07206
 20
-100.533
  0
LWPOLYLINE
100
AcDbEntity
  8
0
100
AcDbPolyline
 90
60
 70
1
 10
-5.1
 20
100
 10
-5.07206
 20
100.533
 10
-4.98855
 20
101.06
 10
-4.85039
 20
101.576
 10
-4.65908
 20
102.074
 10
-4.41673
 20
102.55
 10
-4.12599
 20
102.998
 10
-3.79004
 20
103.413
 10
-3.41257
 20
103.79
 10
-2.9977
 20
104.126
 10
-2.55
 20
104.417
 10
-2.07436
 20
104.659
 10
-1.57599
 20
104.85
 10
-1.06035
 20
104.989
 10
-0.533094
 20
105.072
 10
0
 20
105.1
 10
0.533094
 20
105.072
 10
1.06035
 20
104.989
 10
1.57599
 20
104.85
 10
2.07436
 20
104.659
 10
2.55
 20
104.417
 10
2.9977
 20
104.126
 10
3.41257
 20
103.79
 10
3.79004
 20
103.413
 10
4.12599
 20
102.998
 10
4.41673
 20
102.55
 10
4.65908
 20
102.074
 10
4.85039
 20
101.576
 10
4.98855
 20
101.06
 10
5.07206
 20
100.533
 10
5.1
 20
100
 10
5.07206
 20
99.4669
 10
4.98855
 20
98.9396
 10
4.85039
 20
98.424
 10
4.65908
 20
97.9256
 10
4.41673
 20
97.45
 10
4.12599
 20
97.0023
 10
3.79004
 20
96.5874
 10
3.41257
 20
96.21
 10
2.9977
 20
95.874
 10
2.55
 20
95.5833
 10
2.07436
 20
95.3409
 10
1.57599
 20
95.1496
 10
1.06035
 20
95.0114
 10
0.533094
 20
94.9279
 10
0
 20
94.9
 10
-0.533094
 20
94.9279
 10
-1.06035
 20
95.0114
 10
-1.57599
 20
95.1496
 10
-2.07436
 20
95.3409
 10
-2.55
 20
95.5833
 10
-2.9977
 20
95.874
 10
-3.41257
 20
96.21
 10
-3.79004
 20
96.5874
 10
-4.12599
 20
97.0023
 10
-4.41673
 20
97.45
 10
-4.65908
 20
97.9256
 10
-4.85039
 20
98.424
 10
-4.98855
 20
98.9396
 10
-5.07206
 20
99.4669
  0
LWPOLYLINE
100
AcDbEntity
  8
0
100
AcDbPolyline
 90
30
 70
1
 10
6.87135
 20
-62.5212
 10
6.94758
 20
-62.0889
 10
7.11204
 20
-61.6818
 10
7.35754
 20
-61.3179
 10
7.67334
 20
-61.0129
 10
8.04565
 20
-60.7803
 10
8.4582
 20
-60.6301
 10
8.89294
 20
-60.569
 10
9.33089
 20
-60.5996
 10
9.75291
 20
-60.7206
 10
10.1405
 20
-60.9268
 10
10.4768
 20
-61.2089
 10
10.7471
 20
-61.5549
 10
10.9396
 20
-61.9495
 10
11.0458
 20
-62.3755
 10
11.0611
 20
-62.8142
 10
10.9849
 20
-63.2466
 10
10.8204
 20
-63.6536
 10
10.5749
 20
-64.0176
 10
10.2591
 20
-64.3226
 10
9.88681
 20
-64.5552
 10
9.47427
 20
-64.7054
 10
9.03952
 20
-64.7665
 10
8.60157
 20
-64.7358
 10
8.17956
 20
-64.6148
 10
7.79193
 20
-64.4087
 10
7.45562
 20
-64.1265
 10
7.18533
 20
-63.7806
 10
6.99288
 20
-63.386
 10
6.88667
 20
-62.96
  0
LWPOLYLINE
100
AcDbEntity
  8
0
100
AcDbPolyline
 90
30
 70
1
 10
6.87135
 20
62.5212
 10
6.88667
 20
62.96
 10
6.99288
 20
63.386
 10
7.18533
 20
63.7806
 10
7.45562
 20
64.1265
 10
7.79193
 20
64.4087
 10
8.17956
 20
64.6148
 10
8.60157
 20
64.7358
 10
9.03952
 20
64.7665
 10
9.47427
 20
64.7054
 10
9.88681
 20
64.5552
 10
10.2591
 20
64.3226
 10
10.5749
 20
64.0176
 10
10.8204
 20
63.6536
 10
10.9849
 20
63.2466
 10
11.0611
 20
62.8142
 10
11.0458
 20
62.3755
 10
10.9396
 20
61.9495
 10
10.7471
 20
61.5549
 10
10.4768
 20
61.2089
 10
10.1405
 20
60.9268
 10
9.75291
 20
60.7206
 10
9.33089
 20
60.5996
 10
8.89294
 20
60.569
 10
8.4582
 20
60.6301
 10
8.04565
 20
60.7803
 10
7.67334
 20
61.0129
 10
7.35754
 20
61.3179
 10
7.11204
 20
61.6818
 10
6.94758
 20
62.0889
  0
LWPOLYLINE
100
AcDbEntity
  8
0
100
AcDbPolyline
 90
60
 70
1
 10
11.0333
 20
-26.5581
 10
11.0569
 20
-26.1086
 10
11.1273
 20
-25.6641
 10
11.2438
 20
-25.2293
 10
11.4051
 20
-24.8091
 10
11.6094
 20
-24.4081
 10
11.8546
 20
-24.0306
 10
12.1378
 20
-23.6809
 10
12.4561
 20
-23.3626
 10
12.8059
 20
-23.0793
 10
13.1833
 20
-22.8342
 10
13.5844
 20
-22.6299
 10
14.0046
 20
-22.4686
 10
14.4393
 20
-22.3521
 10
14.8839
 20
-22.2817
 10
15.3333
 20
-22.2581
 10
15.7828
 20
-22.2817
 10
16.2274
 20
-22.3521
 10
16.6621
 20
-22.4686
 10
17.0823
 20
-22.6299
 10
17.4833
 20
-22.8342
 10
17.8608
 20
-23.0793
 10
18.2106
 20
-23.3626
 10
18.5289
 20
-23.6809
 10
18.8121
 20
-24.0306
 10
19.0572
 20
-24.4081
 10
19.2616
 20
-24.8091
 10
19.4229
 20
-25.2293
 10
19.5394
 20
-25.6641
 10
19.6098
 20
-26.1086
 10
19.6333
 20
-26.5581
 10
19.6098
 20
-27.0076
 10
19.5394
 20
-27.4521
 10
19.4229
 20
-27.8869
 10
19.2616
 20
-28.3071
 10
19.0572
 20
-28.7081
 10
18.8121
 20
-29.0856
 10
18.5289
 20
-29.4354
 10
18.2106
 20
-29.7536
 10
17.8608
 20
-30.0369
 10
17.4833
 20
-30.282
 10
17.0823
 20
-30.4864
 10
16.6621
 20
-30.6477
 10
16.2274
 20
-30.7641
 10
15.7828
 20
-30.8346
 10
15.3333
 20
-30.8581
 10
14.8839
 20
-30.8346
 10
14.4393
 20
-30.7641
 10
14.0046
 20
-30.6477
 10
13.5844
 20
-30.4864
 10
13.1833
 20
-30.282
 10
12.8059
 20
-30.0369
 10
12.4561
 20
-29.7536
 10
12.1378
 20
-29.4354
 10
11.8546
 20
-29.0856
 10
11.6094
 20
-28.7081
 10
11.4051
 20
-28.3071
 10
11.2438
 20
-27.8869
 10
11.1273
 20
-27.4521
 10
11.0569
 20
-27.0076
  0
LWPOLYLINE
100
AcDbEntity
  8
0
100
AcDbPolyline
 90
60
 70
1
 10
11.0333
 20
26.5581
 10
11.0569
 20
27.0076
 10
11.1273
 20
27.4521
 10
11.2438
 20
27.8869
 10
11.4051
 20
28.3071
 10
11.6094
 20
28.7081
 10
11.8546
 20
29.0856
 10
12.1378
 20
29.4354
 10
12.4561
 20
29.7536
 10
12.8059
 20
30.0369
 10
13.1833
 20
30.282
 10
13.5844
 20
30.4864
 10
14.0046
 20
30.6477
 10
14.4393
 20
30.7641
 10
14.8839
 20
30.8346
 10
15.3333
 20
30.8581
 10
15.7828
 20
30.8346
 10
16.2274
 20
30.7641
 10
16.6621
 20
30.6477
 10
17.0823
 20
30.4864
 10
17.4833
 20
30.282
 10
17.8608
 20
30.0369
 10
18.2106
 20
29.7536
 10
18.5289
 20
29.4354
 10
18.8121
 20
29.0856
 10
19.0572
 20
28.7081
 10
19.2616
 20
28.3071
 10
19.4229
 20
27.8869
 10
19.5394
 20
27.4521
 10
19.6098
 20
27.0076
 10
19.6333
 20
26.5581
 10
19.6098
 20
26.1086
 10
19.5394
 20
25.6641
 10
19.4229
 20
25.2293
 10
19.2616
 20
24.8091
 10
19.0572
 20
24.4081
 10
18.8121
 20
24.0306
 10
18.5289
 20
23.6809
 10
18.2106
 20
23.3626
 10
17.8608
 20
23.0793
 10
17.4833
 20
22.8342
 10
17.0823
 20
22.6299
 10
16.6621
 20
22.4686
 10
16.2274
 20
22.3521
 10
15.7828
 20
22.2817
 10
15.3333
 20
22.2581
 10
14.8839
 20
22.2817
 10
14.4393
 20
22.3521
 10
14.0046
 20
22.4686
 10
13.5844
 20
22.6299
 10
13.1833
 20
22.8342
 10
12.8059
 20
23.0793
 10
12.4561
 20
23.3626
 10
12.1378
 20
23.6809
 10
11.8546
 20
24.0306
 10
11.6094
 20
24.4081
 10
11.4051
 20
24.8091
 10
11.2438
 20
25.2293
 10
11.1273
 20
25.6641
 10
11.0569
 20
26.1086
  0
LWPOLYLINE
100
AcDbEntity
  8
0
100
AcDbPolyline
 90
30
 70
1
 10
19.6055
 20
-62.8142
 10
19.6209
 20
-62.3755
 10
19.7271
 20
-61.9495
 10
19.9195
 20
-61.5549
 10
20.1898
 20
-61.2089
 10
20.5261
 20
-60.9268
 10
20.9138
 20
-60.7206
 10
21.3358
 20
-60.5996
 10
21.7737
 20
-60.569
 10
22.2085
 20
-60.6301
 10
22.621
 20
-60.7803
 10
22.9933
 20
-61.0129
 10
23.3091
 20
-61.3179
 10
23.5546
 20
-61.6818
 10
23.7191
 20
-62.0889
 10
23.7953
 20
-62.5212
 10
23.78
 20
-62.96
 10
23.6738
 20
-63.386
 10
23.4813
 20
-63.7806
 10
23.211
 20
-64.1265
 10
22.8747
 20
-64.4087
 10
22.4871
 20
-64.6148
 10
22.0651
 20
-64.7358
 10
21.6271
 20
-64.7665
 10
21.1924
 20
-64.7054
 10
20.7799
 20
-64.5552
 10
20.4075
 20
-64.3226
 10
20.0917
 20
-64.0176
 10
19.8462
 20
-63.6536
 10
19.6818
 20
-63.2466
  0
LWPOLYLINE
100
AcDbEntity
  8
0
100
AcDbPolyline
 90
30
 70
1
 10
19.6055
 20
62.8142
 10
19.6818
 20
63.2466
 10
19.8462
 20
63.6536
 10
20.0917
 20
64.0176
 10
20.4075
 20
64.3226
 10
20.7799
 20
64.5552
 10
21.1924
 20
64.7054
 10
21.6271
 20
64.7665
 10
22.0651
 20
64.7358
 10
22.4871
 20
64.6148
 10
22.8747
 20
64.4087
 10
23.211
 20
64.1265
 10
23.4813
 20
63.7806
 10
23.6738
 20
63.386
 10
23.78
 20
62.96
 10
23.7953
 20
62.5212
 10
23.7191
 20
62.0889
 10
23.5546
 20
61.6818
 10
23.3091
 20
61.3179
 10
22.9933
 20
61.0129
 10
22.621
 20
60.7803
 10
22.2085
 20
60.6301
 10
21.7737
 20
60.569
 10
21.3358
 20
60.5996
 10
20.9138
 20
60.7206
 10
20.5261
 20
60.9268
 10
20.1898
 20
61.2089
 10
19.9195
 20
61.5549
 10
19.7271
 20
61.9495
 10
19.6209
 20
62.3755
  0
LWPOLYLINE
100
AcDbEntity
  8
0
100
AcDbPolyline
 90
60
 70
1
 10
28.5667
 20
0
 10
28.5782
 20
0.219509
 10
28.6126
 20
0.436614
 10
28.6694
 20
0.648935
 10
28.7482
 20
0.854146
 10
28.848
 20
1.05
 10
28.9677
 20
1.23435
 10
29.1061
 20
1.40517
 10
29.2615
 20
1.5606
 10
29.4323
 20
1.69894
 10
29.6167
 20
1.81865
 10
29.8125
 20
1.91844
 10
30.0177
 20
1.99722
 10
30.2301
 20
2.05411
 10
30.4472
 20
2.0885
 10
30.6667
 20
2.1
 10
30.8862
 20
2.0885
 10
31.1033
 20
2.05411
 10
31.3156
 20
1.99722
 10
31.5208
 20
1.91844
 10
31.7167
 20
1.81865
 10
31.901
 20
1.69894
 10
32.0718
 20
1.5606
 10
32.2273
 20
1.40517
 10
32.3656
 20
1.23435
 10
32.4853
 20
1.05
 10
32.5851
 20
0.854146
 10
32.6639
 20
0.648935
 10
32.7208
 20
0.436614
 10
32.7552
 20
0.219509
 10
32.7667
 20
0
 10
32.7552
 20
-0.219509
 10
32.7208
 20
-0.436614
 10
32.6639
 20
-0.648935
 10
32.5851
 20
-0.854146
 10
32.4853
 20
-1.05
 10
32.3656
 20
-1.23435
 10
32.2273
 20
-1.40517
 10
32.0718
 20
-1.5606
 10
31.901
 20
-1.69894
 10
31.7167
 20
-1.81865
 10
31.5208
 20
-1.91844
 10
31.3156
 20
-1.99722
 10
31.1033
 20
-2.05411
 10
30.8862
 20
-2.0885
 10
30.6667
 20
-2.1
 10
30.4472
 20
-2.0885
 10
30.2301
 20
-2.05411
 10
30.0177
 20
-1.99722
 10
29.8125
 20
-1.91844
 10
29.6167
 20
-1.81865
 10
29.4323
 20
-1.69894
 10
29.2615
 20
-1.5606
 10
29.1061
 20
-1.40517
 10
28.9677
 20
-1.23435
 10
28.848
 20
-1.05
 10
28.7482
 20
-0.854146
 10
28.6694
 20
-0.648935
 10
28.6126
 20
-0.436614
 10
28.5782
 20
-0.219509
  0
LWPOLYLINE
100
AcDbEntity
  8
0
100
AcDbPolyline
 90
30
 70
1
 10
31.5667
 20
-58.3124
 10
31.6126
 20
-57.8758
 10
31.7482
 20
-57.4582
 10
31.9677
 20
-57.078
 10
32.2615
 20
-56.7518
 10
32.6167
 20
-56.4937
 10
33.0177
 20
-56.3152
 10
33.4472
 20
-56.2239
 10
33.8862
 20
-56.2239
 10
34.3156
 20
-56.3152
 10
34.7167
 20
-56.4937
 10
35.0718
 20
-56.7518
 10
35.3656
 20
-57.078
 10
35.5851
 20
-57.4582
 10
35.7208
 20
-57.8758
 10
35.7667
 20
-58.3124
 10
35.7208
 20
-58.749
 10
35.5851
 20
-59.1665
 10
35.3656
 20
-59.5467
 10
35.0718
 20
-59.873
 10
34.7167
 20
-60.131
 10
34.3156
 20
-60.3096
 10
33.8862
 20
-60.4009
 10
33.4472
 20
-60.4009
 10
33.0177
 20
-60.3096
 10
32.6167
 20
-60.131
 10
32.2615
 20
-59.873
 10
31.9677
 20
-59.5467
 10
31.7482
 20
-59.1665
 10
31.6126
 20
-58.749
  0
LWPOLYLINE
100
AcDbEntity
  8
0
100
AcDbPolyline
 90
30
 70
1
 10
31.5667
 20
58.3124
 10
31.6126
 20
58.749
 10
31.7482
 20
59.1665
 10
31.9677
 20
59.5467
 10
32.2615
 20
59.873
 10
32.6167
 20
60.131
 10
33.0177
 20
60.3096
 10
33.4472
 20
60.4009
 10
33.8862
 20
60.4009
 10
34.3156
 20
60.3096
 10
34.7167
 20
60.131
 10
35.0718
 20
59.873
 10
35.3656
 20
59.5467
 10
35.5851
 20
59.1665
 10
35.7208
 20
58.749
 10
35.7667
 20
58.3124
 10
35.7208
 20
57.8758
 10
35.5851
 20
57.4582
 10
35.3656
 20
57.078
 10
35.0718
 20
56.7518
 10
34.7167
 20
56.4937
 10
34.3156
 20
56.3152
 10
33.8862
 20
56.2239
 10
33.4472
 20
56.2239
 10
33.0177
 20
56.3152
 10
32.6167
 20
56.4937
 10
32.2615
 20
56.7518
 10
31.9677
 20
57.078
 10
31.7482
 20
57.4582
 10
31.6126
 20
57.8758
  0
LWPOLYLINE
100
AcDbEntity
  8
0
100
AcDbPolyline
 90
30
 70
1
 10
41.3267
 20
-49.9805
 10
41.403
 20
-49.5482
 10
41.5674
 20
-49.1411
 10
41.8129
 20
-48.7771
 10
42.1287
 20
-48.4722
 10
42.501
 20
-48.2395
 10
42.9136
 20
-48.0894
 10
43.3483
 20
-48.0283
 10
43.7863
 20
-48.0589
 10
44.2083
 20
-48.1799
 10
44.5959
 20
-48.386
 10
44.9322
 20
-48.6682
 10
45.2025
 20
-49.0142
 10
45.395
 20
-49.4087
 10
45.5012
 20
-49.8347
 10
45.5165
 20
-50.2735
 10
45.4403
 20
-50.7058
 10
45.2758
 20
-51.1129
 10
45.0303
 20
-51.4768
 10
44.7145
 20
-51.7818
 10
44.3422
 20
-52.0145
 10
43.9297
 20
-52.1646
 10
43.4949
 20
-52.2257
 10
43.057
 20
-52.1951
 10
42.635
 20
-52.0741
 10
42.2473
 20
-51.868
 10
41.911
 20
-51.5858
 10
41.6407
 20
-51.2398
 10
41.4483
 20
-50.8452
 10
41.3421
 20
-50.4193
  0
LWPOLYLINE
100
AcDbEntity
  8
0
100
AcDbPolyline
 90
30
 70
1
 10
41.3267
 20
49.9805
 10
41.3421
 20
50.4193
 10
41.4483
 20
50.8452
 10
41.6407
 20
51.2398
 10
41.911
 20
51.5858
 10
42.2473
 20
51.868
 10
42.635
 20
52.0741
 10
43.057
 20
52.1951
 10
43.4949
 20
52.2257
 10
43.9297
 20
52.1646
 10
44.3422
 20
52.0145
 10
44.7145
 20
51.7818
 10
45.0303
 20
51.4768
 10
45.2758
 20
51.1129
 10
45.4403
 20
50.7058
 10
45.5165
 20
50.2735
 10
45.5012
 20
49.8347
 10
45.395
 20
49.4087
 10
45.2025
 20
49.0142
 10
44.9322
 20
48.6682
 10
44.5959
 20
48.386
 10
44.2083
 20
48.1799
 10
43.7863
 20
48.0589
 10
43.3483
 20
48.0283
 10
42.9136
 20
48.0894
 10
42.501
 20
48.2395
 10
42.1287
 20
48.4722
 10
41.8129
 20
48.7771
 10
41.5674
 20
49.1411
 10
41.403
 20
49.5482
  0
LWPOLYLINE
100
AcDbEntity
  8
0
100
AcDbPolyline
 90
30
 70
1
 10
47.6938
 20
-39.2453
 10
47.7092
 20
-38.8066
 10
47.8154
 20
-38.3806
 10
48.0078
 20
-37.986
 10
48.2781
 20
-37.6401
 10
48.6144
 20
-37.3579
 10
49.0021
 20
-37.1518
 10
49.4241
 20
-37.0308
 10
49.862
 20
-37.0001
 10
50.2968
 20
-37.0612
 10
50.7093
 20
-37.2114
 10
51.0816
 20
-37.444
 10
51.3974
 20
-37.749
 10
51.6429
 20
-38.113
 10
51.8074
 20
-38.52
 10
51.8836
 20
-38.9524
 10
51.8683
 20
-39.3911
 10
51.7621
 20
-39.8171
 10
51.5696
 20
-40.2117
 10
51.2993
 20
-40.5576
 10
50.963
 20
-40.8398
 10
50.5754
 20
-41.0459
 10
50.1534
 20
-41.1669
 10
49.7154
 20
-41.1976
 10
49.2807
 20
-41.1365
 10
48.8681
 20
-40.9863
 10
48.4958
 20
-40.7537
 10
48.18
 20
-40.4487
 10
47.9345
 20
-40.0847
 10
47.7701
 20
-39.6777
  0
LWPOLYLINE
100
AcDbEntity
  8
0
100
AcDbPolyline
 90
30
 70
1
 10
47.6938
 20
39.2453
 10
47.7701
 20
39.6777
 10
47.9345
 20
40.0847
 10
48.18
 20
40.4487
 10
48.4958
 20
40.7537
 10
48.8681
 20
40.9863
 10
49.2807
 20
41.1365
 10
49.7154
 20
41.1976
 10
50.1534
 20
41.1669
 10
50.5754
 20
41.0459
 10
50.963
 20
40.8398
 10
51.2993
 20
40.5576
 10
51.5696
 20
40.2117
 10
51.7621
 20
39.8171
 10
51.8683
 20
39.3911
 10
51.8836
 20
38.9524
 10
51.8074
 20
38.52
 10
51.6429
 20
38.113
 10
51.3974
 20
37.749
 10
51.0816
 20
37.444
 10
50.7093
 20
37.2114
 10
50.2968
 20
37.0612
 10
49.862
 20
37.0001
 10
49.4241
 20
37.0308
 10
49.0021
 20
37.1518
 10
48.6144
 20
37.3579
 10
48.2781
 20
37.6401
 10
48.0078
 20
37.986
 10
47.8154
 20
38.3806
 10
47.7092
 20
38.8066
  0
LWPOLYLINE
100
AcDbEntity
  8
0
100
AcDbPolyline
 90
30
 70
1
 10
47.6938
 20
-13.8709
 10
47.7701
 20
-13.4385
 10
47.9345
 20
-13.0315
 10
48.18
 20
-12.6675
 10
48.4958
 20
-12.3626
 10
48.8681
 20
-12.1299
 10
49.2807
 20
-11.9798
 10
49.7154
 20
-11.9187
 10
50.1534
 20
-11.9493
 10
50.5754
 20
-12.0703
 10
50.963
 20
-12.2764
 10
51.2993
 20
-12.5586
 10
51.5696
 20
-12.9045
 10
51.7621
 20
-13.2991
 10
51.8683
 20
-13.7251
 10
51.8836
 20
-14.1639
 10
51.8074
 20
-14.5962
 10
51.6429
 20
-15.0033
 10
51.3974
 20
-15.3672
 10
51.0816
 20
-15.6722
 10
50.7093
 20
-15.9048
 10
50.2968
 20
-16.055
 10
49.862
 20
-16.1161
 10
49.4241
 20
-16.0855
 10
49.0021
 20
-15.9645
 10
48.6144
 20
-15.7584
 10
48.2781
 20
-15.4762
 10
48.0078
 20
-15.1302
 10
47.8154
 20
-14.7356
 10
47.7092
 20
-14.3096
  0
LWPOLYLINE
100
AcDbEntity
  8
0
100
AcDbPolyline
 90
30
 70
1
 10
47.6938
 20
13.8709
 10
47.7092
 20
14.3096
 10
47.8154
 20
14.7356
 10
48.0078
 20
15.1302
 10
48.2781
 20
15.4762
 10
48.6144
 20
15.7584
 10
49.0021
 20
15.9645
 10
49.4241
 20
16.0855
 10
49.862
 20
16.1161
 10
50.2968
 20
16.055
 10
50.7093
 20
15.9048
 10
51.0816
 20
15.6722
 10
51.3974
 20
15.3672
 10
51.6429
 20
15.0033
 10
51.8074
 20
14.5962
 10
51.8836
 20
14.1639
 10
51.8683
 20
13.7251
 10
51.7621
 20
13.2991
 10
51.5696
 20
12.9045
 10
51.2993
 20
12.5586
 10
50.963
 20
12.2764
 10
50.5754
 20
12.0703
 10
50.1534
 20
11.9493
 10
49.7154
 20
11.9187
 10
49.2807
 20
11.9798
 10
48.8681
 20
12.1299
 10
48.4958
 20
12.3626
 10
48.18
 20
12.6675
 10
47.9345
 20
13.0315
 10
47.7701
 20
13.4385
  0
LWPOLYLINE
100
AcDbEntity
  8
0
100
AcDbPolyline
 90
30
 70
1
 10
49.9
 20
-26.5581
 10
49.9459
 20
-26.1215
 10
50.0816
 20
-25.704
 10
50.3011
 20
-25.3238
 10
50.5948
 20
-24.9975
 10
50.95
 20
-24.7395
 10
51.3511
 20
-24.5609
 10
51.7805
 20
-24.4696
 10
52.2195
 20
-24.4696
 10
52.6489
 20
-24.5609
 10
53.05
 20
-24.7395
 10
53.4052
 20
-24.9975
 10
53.6989
 20
-25.3238
 10
53.9184
 20
-25.704
 10
54.0541
 20
-26.1215
 10
54.1
 20
-26.5581
 10
54.0541
 20
-26.9947
 10
53.9184
 20
-27.4123
 10
53.6989
 20
-27.7925
 10
53.4052
 20
-28.1187
 10
53.05
 20
-28.3768
 10
52.6489
 20
-28.5553
 10
52.2195
 20
-28.6466
 10
51.7805
 20
-28.6466
 10
51.3511
 20
-28.5553
 10
50.95
 20
-28.3768
 10
50.5948
 20
-28.1187
 10
50.3011
 20
-27.7925
 10
50.0816
 20
-27.4123
 10
49.9459
 20
-26.9947
  0
LWPOLYLINE
100
AcDbEntity
  8
0
100
AcDbPolyline
 90
30
 70
1
 10
49.9
 20
26.5581
 10
49.9459
 20
26.9947
 10
50.0816
 20
27.4123
 10
50.3011
 20
27.7925
 10
50.5948
 20
28.1187
 10
50.95
 20
28.3768
 10
51.3511
 20
28.5553
 10
51.7805
 20
28.6466
 10
52.2195
 20
28.6466
 10
52.6489
 20
28.5553
 10
53.05
 20
28.3768
 10
53.4052
 20
28.1187
 10
53.6989
 20
27.7925
 10
53.9184
 20
27.4123
 10
54.0541
 20
26.9947
 10
54.1
 20
26.5581
 10
54.0541
 20
26.1215
 10
53.9184
 20
25.704
 10
53.6989
 20
25.3238
 10
53.4052
 20
24.9975
 10
53.05
 20
24.7395
 10
52.6489
 20
24.5609
 10
52.2195
 20
24.4696
 10
51.7805
 20
24.4696
 10
51.3511
 20
24.5609
 10
50.95
 20
24.7395
 10
50.5948
 20
24.9975
 10
50.3011
 20
25.3238
 10
50.0816
 20
25.704
 10
49.9459
 20
26.1215
  0
LWPOLYLINE
100
AcDbEntity
  8
0
100
AcDbPolyline
 90
30
 70
1
 10
49.9
 20
0
 10
49.9459
 20
0.436614
 10
50.0816
 20
0.854146
 10
50.3011
 20
1.23435
 10
50.5948
 20
1.5606
 10
50.95
 20
1.81865
 10
51.3511
 20
1.99722
 10
51.7805
 20
2.0885
 10
52.2195
 20
2.0885
 10
52.6489
 20
1.99722
 10
53.05
 20
1.81865
 10
53.4052
 20
1.5606
 10
53.6989
 20
1.23435
 10
53.9184
 20
0.854146
 10
54.0541
 20
0.436614
 10
54.1
 20
0
 10
54.0541
 20
-0.436614
 10
53.9184
 20
-0.854146
 10
53.6989
 20
-1.23435
 10
53.4052
 20
-1.5606
 10
53.05
 20
-1.81865
 10
52.6489
 20
-1.99722
 10
52.2195
 20
-2.0885
 10
51.7805
 20
-2.0885
 10
51.3511
 20
-1.99722
 10
50.95
 20
-1.81865
 10
50.5948
 20
-1.5606
 10
50.3011
 20
-1.23435
 10
50.0816
 20
-0.854146
 10
49.9459
 20
-0.436614
  0
ENDSEC
  0
EOF
