999
DXF from OpenSCAD
  0
SECTION
  2
HEADER
  9
$ACADVER
  1
AC1006
  9
$INSBASE
 10
0.0
 20
0.0
 30
0.0
  9
$EXTMIN
 10
-71.4167
 20
-120.4
  9
$EXTMAX
 10
62.6
 20
120.4
  9
$LINMIN
 10
-71.4167
 20
-120.4
  9
$LINMAX
 10
62.6
 20
120.4
  0
ENDSEC
  0
SECTION
  2
TABLES
  0
TABLE
  2
LTYPE
 70
1
  0
LTYPE
  2
CONTINUOUS
 70
64
  3
Solid line
 72
65
 73
0
 40
0.000000
  0
ENDTAB
  0
TABLE
  2
LAYER
 70
6
  0
LAYER
  2
0
 70
64
 62
7
  6
CONTINUOUS
  0
ENDTAB
  0
TABLE
  2
STYLE
 70
0
  0
ENDTAB
  0
ENDSEC
  0
SECTION
  2
BLOCKS
  0
ENDSEC
  0
SECTION
  2
ENTITIES
  0
LWPOLYLINE
100
AcDbEntity
  8
0
100
AcDbPolyline
 90
158
 70
1
 10
2.13238
 20
-120.288
 10
4.2414
 20
-119.954
 10
6.30395
 20
-119.402
 10
8.29743
 20
-118.636
 10
10.2
 20
-117.667
 10
11.9908
 20
-116.504
 10
13.6503
 20
-115.16
 10
15.1602
 20
-113.65
 10
16.5039
 20
-111.991
 10
17.6669
 20
-110.2
 10
51.3134
 20
-45.6891
 10
51.6418
 20
-45.0582
 10
51.9592
 20
-44.4217
 10
52.2654
 20
-43.7798
 10
52.5603
 20
-43.1326
 10
52.8439
 20
-42.4804
 10
53.1161
 20
-41.8233
 10
53.3767
 20
-41.1616
 10
53.6258
 20
-40.4954
 10
53.8632
 20
-39.825
 10
54.0889
 20
-39.1506
 10
54.3028
 20
-38.4723
 10
54.5047
 20
-37.7903
 10
54.6948
 20
-37.105
 10
54.8729
 20
-36.4164
 10
55.0389
 20
-35.7249
 10
61.8798
 20
-6.32112
 10
61.9859
 20
-5.84232
 10
62.0837
 20
-5.36173
 10
62.1731
 20
-4.87951
 10
62.254
 20
-4.39581
 10
62.3265
 20
-3.91076
 10
62.3905
 20
-3.42453
 10
62.4461
 20
-2.93725
 10
62.4931
 20
-2.44908
 10
62.5315
 20
-1.96016
 10
62.5615
 20
-1.47064
 10
62.5829
 20
-0.980676
 10
62.5957
 20
-0.490412
 10
62.6
 20
0
 10
62.5957
 20
0.490412
 10
62.5829
 20
0.980676
 10
62.5615
 20
1.47064
 10
62.5315
 20
1.96016
 10
62.4931
 20
2.44908
 10
62.4461
 20
2.93725
 10
62.3905
 20
3.42453
 10
62.3265
 20
3.91076
 10
62.254
 20
4.39581
 10
62.1731
 20
4.87951
 10
62.0837
 20
5.36173
 10
61.9859
 20
5.84232
 10
61.8798
 20
6.32112
 10
55.0389
 20
35.7249
 10
54.8729
 20
36.4164
 10
54.6948
 20
37.105
 10
54.5047
 20
37.7903
 10
54.3028
 20
38.4723
 10
54.0889
 20
39.1506
 10
53.8632
 20
39.825
 10
53.6258
 20
40.4954
 10
53.3767
 20
41.1616
 10
53.1161
 20
41.8233
 10
52.8439
 20
42.4804
 10
52.5603
 20
43.1326
 10
52.2654
 20
43.7798
 10
51.9592
 20
44.4217
 10
51.6418
 20
45.0582
 10
51.3134
 20
45.6891
 10
17.6669
 20
110.2
 10
16.5039
 20
111.991
 10
15.1602
 20
113.65
 10
13.6503
 20
115.16
 10
11.9908
 20
116.504
 10
10.2
 20
117.667
 10
8.29743
 20
118.636
 10
6.30395
 20
119.402
 10
4.2414
 20
119.954
 10
2.13238
 20
120.288
 10
0
 20
120.4
 10
-2.13238
 20
120.288
 10
-4.2414
 20
119.954
 10
-6.30395
 20
119.402
 10
-8.29743
 20
118.636
 10
-10.2
 20
117.667
 10
-11.9908
 20
116.504
 10
-13.6503
 20
115.16
 10
-15.1602
 20
113.65
 10
-16.5039
 20
111.991
 10
-17.6669
 20
110.2
 10
-66.6468
 20
19.131
 10
-66.9752
 20
18.5001
 10
-67.2925
 20
17.8636
 10
-67.5987
 20
17.2217
 10
-67.8936
 20
16.5745
 10
-68.1772
 20
15.9223
 10
-68.4494
 20
15.2652
 10
-68.7101
 20
14.6035
 10
-68.9591
 20
13.9373
 10
-69.1965
 20
13.2669
 10
-69.4222
 20
12.5924
 10
-69.6361
 20
11.9141
 10
-69.8381
 20
11.2322
 10
-70.0281
 20
10.5469
 10
-70.2062
 20
9.85832
 10
-70.3722
 20
9.16675
 10
-70.5262
 20
8.4724
 10
-70.668
 20
7.77547
 10
-70.7976
 20
7.07616
 10
-70.915
 20
6.3747
 10
-71.0201
 20
5.6713
 10
-71.1129
 20
4.96618
 10
-71.1934
 20
4.25953
 10
-71.2616
 20
3.5516
 10
-71.3174
 20
2.84258
 10
-71.3608
 20
2.13269
 10
-71.3918
 20
1.42215
 10
-71.4105
 20
0.711185
 10
-71.4167
 20
0
 10
-71.4105
 20
-0.711185
 10
-71.3918
 20
-1.42215
 10
-71.3608
 20
-2.13269
 10
-71.3174
 20
-2.84258
 10
-71.2616
 20
-3.5516
 10
-71.1934
 20
-4.25953
 10
-71.1129
 20
-4.96618
 10
-71.0201
 20
-5.6713
 10
-70.915
 20
-6.3747
 10
-70.7976
 20
-7.07616
 10
-70.668
 20
-7.77547
 10
-70.5262
 20
-8.4724
 10
-70.3722
 20
-9.16675
 10
-70.2062
 20
-9.85832
 10
-70.0281
 20
-10.5469
 10
-69.8381
 20
-11.2322
 10
-69.6361
 20
-11.9141
 10
-69.4222
 20
-12.5924
 10
-69.1965
 20
-13.2669
 10
-68.9591
 20
-13.9373
 10
-68.7101
 20
-14.6035
 10
-68.4494
 20
-15.2652
 10
-68.1772
 20
-15.9223
 10
-67.8936
 20
-16.5745
 10
-67.5987
 20
-17.2217
 10
-67.2925
 20
-17.8636
 10
-66.9752
 20
-18.5001
 10
-66.6468
 20
-19.131
 10
-17.6669
 20
-110.2
 10
-16.5039
 20
-111.991
 10
-15.1602
 20
-113.65
 10
-13.6503
 20
-115.16
 10
-11.9908
 20
-116.504
 10
-10.2
 20
-117.667
 10
-8.29743
 20
-118.636
 10
-6.30395
 20
-119.402
 10
-4.2414
 20
-119.954
 10
-2.13238
 20
-120.288
 10
0
 20
-120.4
  0
LWPOLYLINE
100
AcDbEntity
  8
0
100
AcDbPolyline
 90
60
 70
1
 10
-0.533094
 20
94.9279
 10
-1.06035
 20
95.0114
 10
-1.57599
 20
95.1496
 10
-2.07436
 20
95.3409
 10
-2.55
 20
95.5833
 10
-2.9977
 20
95.874
 10
-3.41257
 20
96.21
 10
-3.79004
 20
96.5874
 10
-4.12599
 20
97.0023
 10
-4.41673
 20
97.45
 10
-4.65908
 20
97.9256
 10
-4.85039
 20
98.424
 10
-4.98855
 20
98.9396
 10
-5.07206
 20
99.4669
 10
-5.1
 20
100
 10
-5.07206
 20
100.533
 10
-4.98855
 20
101.06
 10
-4.85039
 20
101.576
 10
-4.65908
 20
102.074
 10
-4.41673
 20
102.55
 10
-4.12599
 20
102.998
 10
-3.79004
 20
103.413
 10
-3.41257
 20
103.79
 10
-2.9977
 20
104.126
 10
-2.55
 20
104.417
 10
-2.07436
 20
104.659
 10
-1.57599
 20
104.85
 10
-1.06035
 20
104.989
 10
-0.533094
 20
105.072
 10
0
 20
105.1
 10
0.533094
 20
105.072
 10
1.06035
 20
104.989
 10
1.57599
 20
104.85
 10
2.07436
 20
104.659
 10
2.55
 20
104.417
 10
2.9977
 20
104.126
 10
3.41257
 20
103.79
 10
3.79004
 20
103.413
 10
4.12599
 20
102.998
 10
4.41673
 20
102.55
 10
4.65908
 20
102.074
 10
4.85039
 20
101.576
 10
4.98855
 20
101.06
 10
5.07206
 20
100.533
 10
5.1
 20
100
 10
5.07206
 20
99.4669
 10
4.98855
 20
98.9396
 10
4.85039
 20
98.424
 10
4.65908
 20
97.9256
 10
4.41673
 20
97.45
 10
4.12599
 20
97.0023
 10
3.79004
 20
96.5874
 10
3.41257
 20
96.21
 10
2.9977
 20
95.874
 10
2.55
 20
95.5833
 10
2.07436
 20
95.3409
 10
1.57599
 20
95.1496
 10
1.06035
 20
95.0114
 10
0.533094
 20
94.9279
 10
0
 20
94.9
  0
LWPOLYLINE
100
AcDbEntity
  8
0
100
AcDbPolyline
 90
30
 70
1
 10
7.67179
 20
58.4946
 10
7.25425
 20
58.6303
 10
6.87405
 20
58.8498
 10
6.5478
 20
59.1436
 10
6.28975
 20
59.4987
 10
6.11118
 20
59.8998
 10
6.01991
 20
60.3292
 10
6.01991
 20
60.7683
 10
6.11118
 20
61.1977
 10
6.28975
 20
61.5987
 10
6.5478
 20
61.9539
 10
6.87405
 20
62.2477
 10
7.25426
 20
62.4672
 10
7.67179
 20
62.6029
 10
8.1084
 20
62.6487
 10
8.54502
 20
62.6029
 10
8.96255
 20
62.4672
 10
9.34275
 20
62.2477
 10
9.66901
 20
61.9539
 10
9.92706
 20
61.5987
 10
10.1056
 20
61.1977
 10
10.1969
 20
60.7683
 10
10.1969
 20
60.3292
 10
10.1056
 20
59.8998
 10
9.92706
 20
59.4987
 10
9.66901
 20
59.1436
 10
9.34275
 20
58.8498
 10
8.96255
 20
58.6303
 10
8.54502
 20
58.4946
 10
8.1084
 20
58.4487
  0
LWPOLYLINE
100
AcDbEntity
  8
0
100
AcDbPolyline
 90
30
 70
1
 10
24.3329
 20
57.9433
 10
23.9258
 20
58.1078
 10
23.5619
 20
58.3533
 10
23.2569
 20
58.6691
 10
23.0243
 20
59.0414
 10
22.8741
 20
59.4539
 10
22.813
 20
59.8887
 10
22.8436
 20
60.3266
 10
22.9646
 20
60.7486
 10
23.1708
 20
61.1363
 10
23.4529
 20
61.4726
 10
23.7989
 20
61.7429
 10
24.1935
 20
61.9353
 10
24.6195
 20
62.0415
 10
25.0582
 20
62.0568
 10
25.4906
 20
61.9806
 10
25.8976
 20
61.8161
 10
26.2616
 20
61.5706
 10
26.5666
 20
61.2548
 10
26.7992
 20
60.8825
 10
26.9494
 20
60.47
 10
27.0105
 20
60.0352
 10
26.9798
 20
59.5973
 10
26.8588
 20
59.1753
 10
26.6527
 20
58.7877
 10
26.3705
 20
58.4513
 10
26.0246
 20
58.1811
 10
25.63
 20
57.9886
 10
25.204
 20
57.8824
 10
24.7652
 20
57.8671
  0
LWPOLYLINE
100
AcDbEntity
  8
0
100
AcDbPolyline
 90
30
 70
1
 10
-7.2958
 20
51.0986
 10
-7.72178
 20
51.2048
 10
-8.11637
 20
51.3973
 10
-8.46232
 20
51.6675
 10
-8.74451
 20
52.0039
 10
-8.95062
 20
52.3915
 10
-9.07163
 20
52.8135
 10
-9.10226
 20
53.2514
 10
-9.04116
 20
53.6862
 10
-8.891
 20
54.0987
 10
-8.65836
 20
54.471
 10
-8.35339
 20
54.7868
 10
-7.98943
 20
55.0323
 10
-7.58237
 20
55.1968
 10
-7.15002
 20
55.273
 10
-6.71127
 20
55.2577
 10
-6.28529
 20
55.1515
 10
-5.89071
 20
54.9591
 10
-5.54475
 20
54.6888
 10
-5.26256
 20
54.3525
 10
-5.05645
 20
53.9648
 10
-4.93544
 20
53.5428
 10
-4.90481
 20
53.1049
 10
-4.96591
 20
52.6701
 10
-5.11607
 20
52.2576
 10
-5.34871
 20
51.8853
 10
-5.65368
 20
51.5695
 10
-6.01765
 20
51.324
 10
-6.4247
 20
51.1595
 10
-6.85705
 20
51.0833
  0
LWPOLYLINE
100
AcDbEntity
  8
0
100
AcDbPolyline
 90
30
 70
1
 10
39.1804
 20
49.4756
 10
38.7545
 20
49.5818
 10
38.3599
 20
49.7743
 10
38.0139
 20
50.0446
 10
37.7317
 20
50.3809
 10
37.5256
 20
50.7685
 10
37.4046
 20
51.1905
 10
37.374
 20
51.6285
 10
37.4351
 20
52.0632
 10
37.5852
 20
52.4757
 10
37.8179
 20
52.8481
 10
38.1229
 20
53.1639
 10
38.4868
 20
53.4094
 10
38.8939
 20
53.5738
 10
39.3262
 20
53.6501
 10
39.765
 20
53.6347
 10
40.191
 20
53.5285
 10
40.5855
 20
53.3361
 10
40.9315
 20
53.0658
 10
41.2137
 20
52.7295
 10
41.4198
 20
52.3418
 10
41.5408
 20
51.9198
 10
41.5714
 20
51.4819
 10
41.5103
 20
51.0471
 10
41.3602
 20
50.6346
 10
41.1275
 20
50.2623
 10
40.8226
 20
49.9465
 10
40.4586
 20
49.701
 10
40.0515
 20
49.5365
 10
39.6192
 20
49.4603
  0
LWPOLYLINE
100
AcDbEntity
  8
0
100
AcDbPolyline
 90
30
 70
1
 10
-28.5195
 20
46.9285
 10
-28.9489
 20
47.0198
 10
-29.35
 20
47.1984
 10
-29.7052
 20
47.4564
 10
-29.9989
 20
47.7827
 10
-30.2184
 20
48.1629
 10
-30.3541
 20
48.5804
 10
-30.4
 20
49.017
 10
-30.3541
 20
49.4537
 10
-30.2184
 20
49.8712
 10
-29.9989
 20
50.2514
 10
-29.7052
 20
50.5776
 10
-29.35
 20
50.8357
 10
-28.9489
 20
51.0143
 10
-28.5195
 20
51.1055
 10
-28.0805
 20
51.1055
 10
-27.6511
 20
51.0143
 10
-27.25
 20
50.8357
 10
-26.8948
 20
50.5776
 10
-26.6011
 20
50.2514
 10
-26.3816
 20
49.8712
 10
-26.2459
 20
49.4537
 10
-26.2
 20
49.017
 10
-26.2459
 20
48.5804
 10
-26.3816
 20
48.1629
 10
-26.6011
 20
47.7827
 10
-26.8948
 20
47.4564
 10
-27.25
 20
47.1984
 10
-27.6511
 20
47.0198
 10
-28.0805
 20
46.9285
  0
LWPOLYLINE
100
AcDbEntity
  8
0
100
AcDbPolyline
 90
30
 70
1
 10
47.9459
 20
35.2423
 10
47.5284
 20
35.378
 10
47.1482
 20
35.5975
 10
46.8219
 20
35.8913
 10
46.5639
 20
36.2465
 10
46.3853
 20
36.6475
 10
46.2941
 20
37.0769
 10
46.2941
 20
37.516
 10
46.3853
 20
37.9454
 10
46.5639
 20
38.3465
 10
46.8219
 20
38.7016
 10
47.1482
 20
38.9954
 10
47.5284
 20
39.2149
 10
47.9459
 20
39.3506
 10
48.3825
 20
39.3965
 10
48.8192
 20
39.3506
 10
49.2367
 20
39.2149
 10
49.6169
 20
38.9954
 10
49.9432
 20
38.7016
 10
50.2012
 20
38.3465
 10
50.3798
 20
37.9454
 10
50.471
 20
37.516
 10
50.471
 20
37.0769
 10
50.3798
 20
36.6475
 10
50.2012
 20
36.2465
 10
49.9432
 20
35.8913
 10
49.6169
 20
35.5975
 10
49.2367
 20
35.378
 10
48.8192
 20
35.2423
 10
48.3825
 20
35.1965
  0
LWPOLYLINE
100
AcDbEntity
  8
0
100
AcDbPolyline
 90
30
 70
1
 10
-43.1307
 20
30.6357
 10
-43.5378
 20
30.8001
 10
-43.9017
 20
31.0456
 10
-44.2067
 20
31.3614
 10
-44.4393
 20
31.7337
 10
-44.5895
 20
32.1463
 10
-44.6506
 20
32.581
 10
-44.62
 20
33.019
 10
-44.499
 20
33.441
 10
-44.2928
 20
33.8286
 10
-44.0106
 20
34.1649
 10
-43.6647
 20
34.4352
 10
-43.2701
 20
34.6277
 10
-42.8441
 20
34.7339
 10
-42.4054
 20
34.7492
 10
-41.973
 20
34.673
 10
-41.566
 20
34.5085
 10
-41.202
 20
34.263
 10
-40.897
 20
33.9472
 10
-40.6644
 20
33.5749
 10
-40.5142
 20
33.1624
 10
-40.4531
 20
32.7276
 10
-40.4838
 20
32.2897
 10
-40.6048
 20
31.8676
 10
-40.8109
 20
31.48
 10
-41.0931
 20
31.1437
 10
-41.439
 20
30.8734
 10
-41.8336
 20
30.681
 10
-42.2596
 20
30.5748
 10
-42.6984
 20
30.5594
  0
LWPOLYLINE
100
AcDbEntity
  8
0
100
AcDbPolyline
 90
102
 70
1
 10
3.65493
 20
21.1899
 10
2.6141
 20
21.2901
 10
1.57994
 20
21.4447
 10
0.563793
 20
21.6519
 10
-0.423215
 20
21.9096
 10
-1.37027
 20
22.2149
 10
-2.267
 20
22.5643
 10
-3.10357
 20
22.9542
 10
-3.87082
 20
23.3803
 10
-4.56034
 20
23.8378
 10
-5.16459
 20
24.3218
 10
-5.67693
 20
24.8269
 10
-6.09176
 20
25.3477
 10
-6.40453
 20
25.8783
 10
-6.61181
 20
26.4131
 10
-6.71134
 20
26.9461
 10
-6.70202
 20
27.4715
 10
-6.58395
 20
27.9836
 10
-6.35843
 20
28.4767
 10
-6.02793
 20
28.9455
 10
-5.59607
 20
29.3847
 10
-5.06758
 20
29.7896
 10
-4.44826
 20
30.1558
 10
-3.74488
 20
30.4792
 10
-2.96515
 20
30.7563
 10
-2.11762
 20
30.9841
 10
-1.21158
 20
31.16
 10
-0.256938
 20
31.2822
 10
0.73583
 20
31.3493
 10
1.75586
 20
31.3605
 10
2.79196
 20
31.3158
 10
3.83279
 20
31.2156
 10
4.86695
 20
31.061
 10
5.88309
 20
30.8537
 10
6.8701
 20
30.5961
 10
7.81716
 20
30.2908
 10
8.71388
 20
29.9413
 10
9.55046
 20
29.5514
 10
10.3177
 20
29.1254
 10
11.0072
 20
28.6679
 10
11.5811
 20
28.2083
 10
11.5878
 20
28.2257
 10
11.7826
 20
28.6081
 10
12.0164
 20
28.968
 10
12.2864
 20
29.3015
 10
12.5899
 20
29.605
 10
12.9234
 20
29.8751
 10
13.2833
 20
30.1088
 10
13.6657
 20
30.3036
 10
14.0664
 20
30.4574
 10
14.4809
 20
30.5685
 10
14.9048
 20
30.6357
 10
15.3333
 20
30.6581
 10
15.7619
 20
30.6357
 10
16.1858
 20
30.5685
 10
16.6003
 20
30.4574
 10
17.001
 20
30.3036
 10
17.3833
 20
30.1088
 10
17.7433
 20
29.8751
 10
18.0768
 20
29.605
 10
18.3802
 20
29.3015
 10
18.6503
 20
28.968
 10
18.884
 20
28.6081
 10
19.0789
 20
28.2257
 10
19.2327
 20
27.8251
 10
19.3437
 20
27.4106
 10
19.4109
 20
26.9867
 10
19.4333
 20
26.5581
 10
19.4109
 20
26.1295
 10
19.3437
 20
25.7057
 10
19.2327
 20
25.2911
 10
19.0789
 20
24.8905
 10
18.884
 20
24.5081
 10
18.6503
 20
24.1482
 10
18.3802
 20
23.8147
 10
18.0768
 20
23.5112
 10
17.7433
 20
23.2411
 10
17.3833
 20
23.0074
 10
17.001
 20
22.8126
 10
16.6003
 20
22.6588
 10
16.1858
 20
22.5477
 10
15.7619
 20
22.4806
 10
15.3333
 20
22.4581
 10
14.9048
 20
22.4806
 10
14.4809
 20
22.5477
 10
14.0664
 20
22.6588
 10
13.6657
 20
22.8126
 10
13.2833
 20
23.0074
 10
12.9234
 20
23.2411
 10
12.5899
 20
23.5112
 10
12.5021
 20
23.599
 10
12.4748
 20
23.5602
 10
12.043
 20
23.121
 10
11.5145
 20
22.7161
 10
10.8951
 20
22.3499
 10
10.1918
 20
22.0265
 10
9.41204
 20
21.7494
 10
8.56451
 20
21.5216
 10
7.65846
 20
21.3456
 10
6.70383
 20
21.2235
 10
5.71106
 20
21.1564
 10
4.69103
 20
21.1452
  0
LWPOLYLINE
100
AcDbEntity
  8
0
100
AcDbPolyline
 90
60
 70
1
 10
-15.5528
 20
24.4696
 10
-15.7699
 20
24.504
 10
-15.9823
 20
24.5609
 10
-16.1875
 20
24.6397
 10
-16.3833
 20
24.7395
 10
-16.5677
 20
24.8592
 10
-16.7385
 20
24.9975
 10
-16.8939
 20
25.1529
 10
-17.0323
 20
25.3238
 10
-17.152
 20
25.5081
 10
-17.2518
 20
25.704
 10
-17.3306
 20
25.9092
 10
-17.3874
 20
26.1215
 10
-17.4218
 20
26.3386
 10
-17.4333
 20
26.5581
 10
-17.4218
 20
26.7776
 10
-17.3874
 20
26.9947
 10
-17.3306
 20
27.207
 10
-17.2518
 20
27.4123
 10
-17.152
 20
27.6081
 10
-17.0323
 20
27.7925
 10
-16.8939
 20
27.9633
 10
-16.7385
 20
28.1187
 10
-16.5677
 20
28.257
 10
-16.3833
 20
28.3768
 10
-16.1875
 20
28.4766
 10
-15.9823
 20
28.5553
 10
-15.7699
 20
28.6122
 10
-15.5528
 20
28.6466
 10
-15.3333
 20
28.6581
 10
-15.1138
 20
28.6466
 10
-14.8967
 20
28.6122
 10
-14.6844
 20
28.5553
 10
-14.4792
 20
28.4766
 10
-14.2833
 20
28.3768
 10
-14.099
 20
28.257
 10
-13.9282
 20
28.1187
 10
-13.7727
 20
27.9633
 10
-13.6344
 20
27.7925
 10
-13.5147
 20
27.6081
 10
-13.4149
 20
27.4123
 10
-13.3361
 20
27.207
 10
-13.2792
 20
26.9947
 10
-13.2448
 20
26.7776
 10
-13.2333
 20
26.5581
 10
-13.2448
 20
26.3386
 10
-13.2792
 20
26.1215
 10
-13.3361
 20
25.9092
 10
-13.4149
 20
25.704
 10
-13.5147
 20
25.5081
 10
-13.6344
 20
25.3238
 10
-13.7727
 20
25.1529
 10
-13.9282
 20
24.9975
 10
-14.099
 20
24.8592
 10
-14.2833
 20
24.7395
 10
-14.4792
 20
24.6397
 10
-14.6844
 20
24.5609
 10
-14.8967
 20
24.504
 10
-15.1138
 20
24.4696
 10
-15.3333
 20
24.4581
  0
LWPOLYLINE
100
AcDbEntity
  8
0
100
AcDbPolyline
 90
30
 70
1
 10
-56.9276
 20
21.1982
 10
-57.3451
 20
21.3338
 10
-57.7253
 20
21.5534
 10
-58.0516
 20
21.8471
 10
-58.3096
 20
22.2023
 10
-58.4882
 20
22.6034
 10
-58.5794
 20
23.0328
 10
-58.5794
 20
23.4718
 10
-58.4882
 20
23.9012
 10
-58.3096
 20
24.3023
 10
-58.0516
 20
24.6575
 10
-57.7253
 20
24.9512
 10
-57.3451
 20
25.1707
 10
-56.9276
 20
25.3064
 10
-56.4909
 20
25.3523
 10
-56.0543
 20
25.3064
 10
-55.6368
 20
25.1707
 10
-55.2566
 20
24.9512
 10
-54.9303
 20
24.6575
 10
-54.6723
 20
24.3023
 10
-54.4937
 20
23.9012
 10
-54.4025
 20
23.4718
 10
-54.4025
 20
23.0328
 10
-54.4937
 20
22.6034
 10
-54.6723
 20
22.2023
 10
-54.9303
 20
21.8471
 10
-55.2566
 20
21.5534
 10
-55.6368
 20
21.3338
 10
-56.0543
 20
21.1982
 10
-56.4909
 20
21.1523
  0
LWPOLYLINE
100
AcDbEntity
  8
0
100
AcDbPolyline
 90
30
 70
1
 10
48.9766
 20
18.5052
 10
48.5695
 20
18.6696
 10
48.2055
 20
18.9151
 10
47.9006
 20
19.2309
 10
47.6679
 20
19.6033
 10
47.5178
 20
20.0158
 10
47.4567
 20
20.4505
 10
47.4873
 20
20.8885
 10
47.6083
 20
21.3105
 10
47.8144
 20
21.6981
 10
48.0966
 20
22.0345
 10
48.4426
 20
22.3047
 10
48.8372
 20
22.4972
 10
49.2631
 20
22.6034
 10
49.7019
 20
22.6187
 10
50.1342
 20
22.5425
 10
50.5413
 20
22.378
 10
50.9053
 20
22.1325
 10
51.2102
 20
21.8167
 10
51.4429
 20
21.4444
 10
51.593
 20
21.0319
 10
51.6541
 20
20.5971
 10
51.6235
 20
20.1592
 10
51.5025
 20
19.7372
 10
51.2964
 20
19.3495
 10
51.0142
 20
19.0132
 10
50.6682
 20
18.7429
 10
50.2736
 20
18.5505
 10
49.8477
 20
18.4443
 10
49.4089
 20
18.429
  0
LWPOLYLINE
100
AcDbEntity
  8
0
100
AcDbPolyline
 90
360
 70
1
 10
-0.282728
 20
-16.1975
 10
-0.565372
 20
-16.1901
 10
-0.847842
 20
-16.1778
 10
-1.13005
 20
-16.1605
 10
-1.41192
 20
-16.1384
 10
-1.69336
 20
-16.1113
 10
-1.97428
 20
-16.0792
 10
-2.2546
 20
-16.0423
 10
-2.53424
 20
-16.0006
 10
-2.8131
 20
-15.9539
 10
-3.09111
 20
-15.9024
 10
-3.36817
 20
-15.846
 10
-3.64421
 20
-15.7848
 10
-3.91913
 20
-15.7188
 10
-4.19287
 20
-15.648
 10
-4.46532
 20
-15.5724
 10
-4.73642
 20
-15.4921
 10
-5.00607
 20
-15.4071
 10
-5.2742
 20
-15.3174
 10
-5.54073
 20
-15.223
 10
-5.80556
 20
-15.124
 10
-6.06863
 20
-15.0204
 10
-6.32984
 20
-14.9122
 10
-6.58913
 20
-14.7994
 10
-6.84642
 20
-14.6822
 10
-7.10161
 20
-14.5605
 10
-7.35465
 20
-14.4343
 10
-7.60544
 20
-14.3038
 10
-7.85392
 20
-14.1688
 10
-8.1
 20
-14.0296
 10
-8.34362
 20
-13.8861
 10
-8.58469
 20
-13.7384
 10
-8.82315
 20
-13.5865
 10
-9.05892
 20
-13.4304
 10
-9.29194
 20
-13.2703
 10
-9.52212
 20
-13.1061
 10
-9.7494
 20
-12.9379
 10
-9.97372
 20
-12.7658
 10
-10.195
 20
-12.5898
 10
-10.4132
 20
-12.4099
 10
-10.6282
 20
-12.2263
 10
-10.8399
 20
-12.0389
 10
-11.0484
 20
-11.8479
 10
-11.2535
 20
-11.6533
 10
-11.4551
 20
-11.4551
 10
-11.6533
 20
-11.2535
 10
-11.8479
 20
-11.0484
 10
-12.0389
 20
-10.8399
 10
-12.2263
 20
-10.6282
 10
-12.4099
 20
-10.4132
 10
-12.5898
 20
-10.195
 10
-12.7658
 20
-9.97372
 10
-12.9379
 20
-9.7494
 10
-13.1061
 20
-9.52212
 10
-13.2703
 20
-9.29194
 10
-13.4304
 20
-9.05892
 10
-13.5865
 20
-8.82315
 10
-13.7384
 20
-8.58469
 10
-13.8861
 20
-8.34362
 10
-14.0296
 20
-8.1
 10
-14.1688
 20
-7.85392
 10
-14.3038
 20
-7.60544
 10
-14.4343
 20
-7.35465
 10
-14.5605
 20
-7.10161
 10
-14.6822
 20
-6.84642
 10
-14.7994
 20
-6.58913
 10
-14.9122
 20
-6.32984
 10
-15.0204
 20
-6.06863
 10
-15.124
 20
-5.80556
 10
-15.223
 20
-5.54073
 10
-15.3174
 20
-5.2742
 10
-15.4071
 20
-5.00607
 10
-15.4921
 20
-4.73642
 10
-15.5724
 20
-4.46532
 10
-15.648
 20
-4.19287
 10
-15.7188
 20
-3.91913
 10
-15.7848
 20
-3.64421
 10
-15.846
 20
-3.36817
 10
-15.9024
 20
-3.09111
 10
-15.9539
 20
-2.8131
 10
-16.0006
 20
-2.53424
 10
-16.0423
 20
-2.2546
 10
-16.0792
 20
-1.97428
 10
-16.1113
 20
-1.69336
 10
-16.1384
 20
-1.41192
 10
-16.1605
 20
-1.13005
 10
-16.1778
 20
-0.847842
 10
-16.1901
 20
-0.565372
 10
-16.1975
 20
-0.282728
 10
-16.2
 20
0
 10
-16.1975
 20
0.282728
 10
-16.1901
 20
0.565372
 10
-16.1778
 20
0.847842
 10
-16.1605
 20
1.13005
 10
-16.1384
 20
1.41192
 10
-16.1113
 20
1.69336
 10
-16.0792
 20
1.97428
 10
-16.0423
 20
2.2546
 10
-16.0006
 20
2.53424
 10
-15.9539
 20
2.8131
 10
-15.9024
 20
3.09111
 10
-15.846
 20
3.36817
 10
-15.7848
 20
3.64421
 10
-15.7188
 20
3.91913
 10
-15.648
 20
4.19287
 10
-15.5724
 20
4.46532
 10
-15.4921
 20
4.73642
 10
-15.4071
 20
5.00607
 10
-15.3174
 20
5.2742
 10
-15.223
 20
5.54073
 10
-15.124
 20
5.80556
 10
-15.0204
 20
6.06863
 10
-14.9122
 20
6.32984
 10
-14.7994
 20
6.58913
 10
-14.6822
 20
6.84642
 10
-14.5605
 20
7.10161
 10
-14.4343
 20
7.35465
 10
-14.3038
 20
7.60544
 10
-14.1688
 20
7.85392
 10
-14.0296
 20
8.1
 10
-13.8861
 20
8.34362
 10
-13.7384
 20
8.58469
 10
-13.5865
 20
8.82315
 10
-13.4304
 20
9.05892
 10
-13.2703
 20
9.29194
 10
-13.1061
 20
9.52212
 10
-12.9379
 20
9.7494
 10
-12.7658
 20
9.97372
 10
-12.5898
 20
10.195
 10
-12.4099
 20
10.4132
 10
-12.2263
 20
10.6282
 10
-12.0389
 20
10.8399
 10
-11.8479
 20
11.0484
 10
-11.6533
 20
11.2535
 10
-11.4551
 20
11.4551
 10
-11.2535
 20
11.6533
 10
-11.0484
 20
11.8479
 10
-10.8399
 20
12.0389
 10
-10.6282
 20
12.2263
 10
-10.4132
 20
12.4099
 10
-10.195
 20
12.5898
 10
-9.97372
 20
12.7658
 10
-9.7494
 20
12.9379
 10
-9.52212
 20
13.1061
 10
-9.29194
 20
13.2703
 10
-9.05892
 20
13.4304
 10
-8.82315
 20
13.5865
 10
-8.58469
 20
13.7384
 10
-8.34362
 20
13.8861
 10
-8.1
 20
14.0296
 10
-7.85392
 20
14.1688
 10
-7.60544
 20
14.3038
 10
-7.35465
 20
14.4343
 10
-7.10161
 20
14.5605
 10
-6.84642
 20
14.6822
 10
-6.58913
 20
14.7994
 10
-6.32984
 20
14.9122
 10
-6.06863
 20
15.0204
 10
-5.80556
 20
15.124
 10
-5.54073
 20
15.223
 10
-5.2742
 20
15.3174
 10
-5.00607
 20
15.4071
 10
-4.73642
 20
15.4921
 10
-4.46532
 20
15.5724
 10
-4.19287
 20
15.648
 10
-3.91913
 20
15.7188
 10
-3.64421
 20
15.7848
 10
-3.36817
 20
15.846
 10
-3.09111
 20
15.9024
 10
-2.8131
 20
15.9539
 10
-2.53424
 20
16.0006
 10
-2.2546
 20
16.0423
 10
-1.97428
 20
16.0792
 10
-1.69336
 20
16.1113
 10
-1.41192
 20
16.1384
 10
-1.13005
 20
16.1605
 10
-0.847842
 20
16.1778
 10
-0.565372
 20
16.1901
 10
-0.282728
 20
16.1975
 10
0
 20
16.2
 10
0.282728
 20
16.1975
 10
0.565372
 20
16.1901
 10
0.847842
 20
16.1778
 10
1.13005
 20
16.1605
 10
1.41192
 20
16.1384
 10
1.69336
 20
16.1113
 10
1.97428
 20
16.0792
 10
2.2546
 20
16.0423
 10
2.53424
 20
16.0006
 10
2.8131
 20
15.9539
 10
3.09111
 20
15.9024
 10
3.36817
 20
15.846
 10
3.64421
 20
15.7848
 10
3.91913
 20
15.7188
 10
4.19287
 20
15.648
 10
4.46532
 20
15.5724
 10
4.73642
 20
15.4921
 10
5.00607
 20
15.4071
 10
5.2742
 20
15.3174
 10
5.54073
 20
15.223
 10
5.80556
 20
15.124
 10
6.06863
 20
15.0204
 10
6.32984
 20
14.9122
 10
6.58913
 20
14.7994
 10
6.84642
 20
14.6822
 10
7.10161
 20
14.5605
 10
7.35465
 20
14.4343
 10
7.60544
 20
14.3038
 10
7.85392
 20
14.1688
 10
8.1
 20
14.0296
 10
8.34362
 20
13.8861
 10
8.58469
 20
13.7384
 10
8.82315
 20
13.5865
 10
9.05892
 20
13.4304
 10
9.29194
 20
13.2703
 10
9.52212
 20
13.1061
 10
9.7494
 20
12.9379
 10
9.97372
 20
12.7658
 10
10.195
 20
12.5898
 10
10.4132
 20
12.4099
 10
10.6282
 20
12.2263
 10
10.8399
 20
12.0389
 10
11.0484
 20
11.8479
 10
11.2535
 20
11.6533
 10
11.4551
 20
11.4551
 10
11.6533
 20
11.2535
 10
11.8479
 20
11.0484
 10
12.0389
 20
10.8399
 10
12.2263
 20
10.6282
 10
12.4099
 20
10.4132
 10
12.5898
 20
10.195
 10
12.7658
 20
9.97372
 10
12.9379
 20
9.7494
 10
13.1061
 20
9.52212
 10
13.2703
 20
9.29194
 10
13.4304
 20
9.05892
 10
13.5865
 20
8.82315
 10
13.7384
 20
8.58469
 10
13.8861
 20
8.34362
 10
14.0296
 20
8.1
 10
14.1688
 20
7.85392
 10
14.3038
 20
7.60544
 10
14.4343
 20
7.35465
 10
14.5605
 20
7.10161
 10
14.6822
 20
6.84642
 10
14.7994
 20
6.58913
 10
14.9122
 20
6.32984
 10
15.0204
 20
6.06863
 10
15.124
 20
5.80556
 10
15.223
 20
5.54073
 10
15.3174
 20
5.2742
 10
15.4071
 20
5.00607
 10
15.4921
 20
4.73642
 10
15.5724
 20
4.46532
 10
15.648
 20
4.19287
 10
15.7188
 20
3.91913
 10
15.7848
 20
3.64421
 10
15.846
 20
3.36817
 10
15.9024
 20
3.09111
 10
15.9539
 20
2.8131
 10
16.0006
 20
2.53424
 10
16.0423
 20
2.2546
 10
16.0792
 20
1.97428
 10
16.1113
 20
1.69336
 10
16.1384
 20
1.41192
 10
16.1605
 20
1.13005
 10
16.1778
 20
0.847842
 10
16.1901
 20
0.565372
 10
16.1975
 20
0.282728
 10
16.2
 20
0
 10
16.1975
 20
-0.282728
 10
16.1901
 20
-0.565372
 10
16.1778
 20
-0.847842
 10
16.1605
 20
-1.13005
 10
16.1384
 20
-1.41192
 10
16.1113
 20
-1.69336
 10
16.0792
 20
-1.97428
 10
16.0423
 20
-2.2546
 10
16.0006
 20
-2.53424
 10
15.9539
 20
-2.8131
 10
15.9024
 20
-3.09111
 10
15.846
 20
-3.36817
 10
15.7848
 20
-3.64421
 10
15.7188
 20
-3.91913
 10
15.648
 20
-4.19287
 10
15.5724
 20
-4.46532
 10
15.4921
 20
-4.73642
 10
15.4071
 20
-5.00607
 10
15.3174
 20
-5.2742
 10
15.223
 20
-5.54073
 10
15.124
 20
-5.80556
 10
15.0204
 20
-6.06863
 10
14.9122
 20
-6.32984
 10
14.7994
 20
-6.58913
 10
14.6822
 20
-6.84642
 10
14.5605
 20
-7.10161
 10
14.4343
 20
-7.35465
 10
14.3038
 20
-7.60544
 10
14.1688
 20
-7.85392
 10
14.0296
 20
-8.1
 10
13.8861
 20
-8.34362
 10
13.7384
 20
-8.58469
 10
13.5865
 20
-8.82315
 10
13.4304
 20
-9.05892
 10
13.2703
 20
-9.29194
 10
13.1061
 20
-9.52212
 10
12.9379
 20
-9.7494
 10
12.7658
 20
-9.97372
 10
12.5898
 20
-10.195
 10
12.4099
 20
-10.4132
 10
12.2263
 20
-10.6282
 10
12.0389
 20
-10.8399
 10
11.8479
 20
-11.0484
 10
11.6533
 20
-11.2535
 10
11.4551
 20
-11.4551
 10
11.2535
 20
-11.6533
 10
11.0484
 20
-11.8479
 10
10.8399
 20
-12.0389
 10
10.6282
 20
-12.2263
 10
10.4132
 20
-12.4099
 10
10.195
 20
-12.5898
 10
9.97372
 20
-12.7658
 10
9.7494
 20
-12.9379
 10
9.52212
 20
-13.1061
 10
9.29194
 20
-13.2703
 10
9.05892
 20
-13.4304
 10
8.82315
 20
-13.5865
 10
8.58469
 20
-13.7384
 10
8.34362
 20
-13.8861
 10
8.1
 20
-14.0296
 10
7.85392
 20
-14.1688
 10
7.60544
 20
-14.3038
 10
7.35465
 20
-14.4343
 10
7.10161
 20
-14.5605
 10
6.84642
 20
-14.6822
 10
6.58913
 20
-14.7994
 10
6.32984
 20
-14.9122
 10
6.06863
 20
-15.0204
 10
5.80556
 20
-15.124
 10
5.54073
 20
-15.223
 10
5.2742
 20
-15.3174
 10
5.00607
 20
-15.4071
 10
4.73642
 20
-15.4921
 10
4.46532
 20
-15.5724
 10
4.19287
 20
-15.648
 10
3.91913
 20
-15.7188
 10
3.64421
 20
-15.7848
 10
3.36817
 20
-15.846
 10
3.09111
 20
-15.9024
 10
2.8131
 20
-15.9539
 10
2.53424
 20
-16.0006
 10
2.2546
 20
-16.0423
 10
1.97428
 20
-16.0792
 10
1.69336
 20
-16.1113
 10
1.41192
 20
-16.1384
 10
1.13005
 20
-16.1605
 10
0.847842
 20
-16.1778
 10
0.565372
 20
-16.1901
 10
0.282728
 20
-16.1975
 10
0
 20
-16.2
  0
LWPOLYLINE
100
AcDbEntity
  8
0
100
AcDbPolyline
 90
30
 70
1
 10
-64.6767
 20
6.32722
 10
-65.1027
 20
6.43343
 10
-65.4973
 20
6.62588
 10
-65.8432
 20
6.89617
 10
-66.1254
 20
7.23248
 10
-66.3315
 20
7.62011
 10
-66.4525
 20
8.04212
 10
-66.4832
 20
8.48007
 10
-66.4221
 20
8.91482
 10
-66.2719
 20
9.32736
 10
-66.0393
 20
9.69967
 10
-65.7343
 20
10.0155
 10
-65.3703
 20
10.261
 10
-64.9633
 20
10.4254
 10
-64.5309
 20
10.5017
 10
-64.0922
 20
10.4863
 10
-63.6662
 20
10.3801
 10
-63.2716
 20
10.1877
 10
-62.9257
 20
9.9174
 10
-62.6435
 20
9.58109
 10
-62.4374
 20
9.19346
 10
-62.3163
 20
8.77145
 10
-62.2857
 20
8.3335
 10
-62.3468
 20
7.89875
 10
-62.497
 20
7.48621
 10
-62.7296
 20
7.1139
 10
-63.0346
 20
6.79809
 10
-63.3986
 20
6.5526
 10
-63.8056
 20
6.38814
 10
-64.238
 20
6.3119
  0
LWPOLYLINE
100
AcDbEntity
  8
0
100
AcDbPolyline
 90
60
 70
1
 10
-31.0952
 20
-4.07754
 10
-31.5191
 20
-4.0104
 10
-31.9336
 20
-3.89933
 10
-32.3343
 20
-3.74554
 10
-32.7167
 20
-3.5507
 10
-33.0766
 20
-3.31697
 10
-33.4101
 20
-3.04689
 10
-33.7136
 20
-2.74343
 10
-33.9836
 20
-2.40992
 10
-34.2174
 20
-2.05
 10
-34.4122
 20
-1.66762
 10
-34.566
 20
-1.26697
 10
-34.6771
 20
-0.852437
 10
-34.7442
 20
-0.428566
 10
-34.7667
 20
0
 10
-34.7442
 20
0.428566
 10
-34.6771
 20
0.852437
 10
-34.566
 20
1.26697
 10
-34.4122
 20
1.66762
 10
-34.2174
 20
2.05
 10
-33.9836
 20
2.40992
 10
-33.7136
 20
2.74343
 10
-33.4101
 20
3.04689
 10
-33.0766
 20
3.31697
 10
-32.7167
 20
3.5507
 10
-32.3343
 20
3.74554
 10
-31.9336
 20
3.89933
 10
-31.5191
 20
4.0104
 10
-31.0952
 20
4.07754
 10
-30.6667
 20
4.1
 10
-30.2381
 20
4.07754
 10
-29.8142
 20
4.0104
 10
-29.3997
 20
3.89933
 10
-28.999
 20
3.74554
 10
-28.6167
 20
3.5507
 10
-28.2567
 20
3.31697
 10
-27.9232
 20
3.04689
 10
-27.6198
 20
2.74343
 10
-27.3497
 20
2.40992
 10
-27.116
 20
2.05
 10
-26.9211
 20
1.66762
 10
-26.7673
 20
1.26697
 10
-26.6563
 20
0.852437
 10
-26.5891
 20
0.428566
 10
-26.5667
 20
0
 10
-26.5891
 20
-0.428566
 10
-26.6563
 20
-0.852437
 10
-26.7673
 20
-1.26697
 10
-26.9211
 20
-1.66762
 10
-27.116
 20
-2.05
 10
-27.3497
 20
-2.40992
 10
-27.6198
 20
-2.74343
 10
-27.9232
 20
-3.04689
 10
-28.2567
 20
-3.31697
 10
-28.6167
 20
-3.5507
 10
-28.999
 20
-3.74554
 10
-29.3997
 20
-3.89933
 10
-29.8142
 20
-4.0104
 10
-30.2381
 20
-4.07754
 10
-30.6667
 20
-4.1
  0
LWPOLYLINE
100
AcDbEntity
  8
0
100
AcDbPolyline
 90
60
 70
1
 10
30.4472
 20
-2.0885
 10
30.2301
 20
-2.05411
 10
30.0177
 20
-1.99722
 10
29.8125
 20
-1.91844
 10
29.6167
 20
-1.81865
 10
29.4323
 20
-1.69894
 10
29.2615
 20
-1.5606
 10
29.1061
 20
-1.40517
 10
28.9677
 20
-1.23435
 10
28.848
 20
-1.05
 10
28.7482
 20
-0.854146
 10
28.6694
 20
-0.648935
 10
28.6126
 20
-0.436614
 10
28.5782
 20
-0.219509
 10
28.5667
 20
0
 10
28.5782
 20
0.219509
 10
28.6126
 20
0.436614
 10
28.6694
 20
0.648935
 10
28.7482
 20
0.854146
 10
28.848
 20
1.05
 10
28.9677
 20
1.23435
 10
29.1061
 20
1.40517
 10
29.2615
 20
1.5606
 10
29.4323
 20
1.69894
 10
29.6167
 20
1.81865
 10
29.8125
 20
1.91844
 10
30.0177
 20
1.99722
 10
30.2301
 20
2.05411
 10
30.4472
 20
2.0885
 10
30.6667
 20
2.1
 10
30.8862
 20
2.0885
 10
31.1033
 20
2.05411
 10
31.3156
 20
1.99722
 10
31.5208
 20
1.91844
 10
31.7167
 20
1.81865
 10
31.901
 20
1.69894
 10
32.0718
 20
1.5606
 10
32.2273
 20
1.40517
 10
32.3656
 20
1.23435
 10
32.4853
 20
1.05
 10
32.5851
 20
0.854146
 10
32.6639
 20
0.648935
 10
32.7208
 20
0.436614
 10
32.7552
 20
0.219509
 10
32.7667
 20
0
 10
32.7552
 20
-0.219509
 10
32.7208
 20
-0.436614
 10
32.6639
 20
-0.648935
 10
32.5851
 20
-0.854146
 10
32.4853
 20
-1.05
 10
32.3656
 20
-1.23435
 10
32.2273
 20
-1.40517
 10
32.0718
 20
-1.5606
 10
31.901
 20
-1.69894
 10
31.7167
 20
-1.81865
 10
31.5208
 20
-1.91844
 10
31.3156
 20
-1.99722
 10
31.1033
 20
-2.05411
 10
30.8862
 20
-2.0885
 10
30.6667
 20
-2.1
  0
LWPOLYLINE
100
AcDbEntity
  8
0
100
AcDbPolyline
 90
30
 70
1
 10
56.3805
 20
-2.0885
 10
55.9511
 20
-1.99722
 10
55.55
 20
-1.81865
 10
55.1948
 20
-1.5606
 10
54.9011
 20
-1.23435
 10
54.6816
 20
-0.854146
 10
54.5459
 20
-0.436614
 10
54.5
 20
0
 10
54.5459
 20
0.436614
 10
54.6816
 20
0.854146
 10
54.9011
 20
1.23435
 10
55.1948
 20
1.5606
 10
55.55
 20
1.81865
 10
55.9511
 20
1.99722
 10
56.3805
 20
2.0885
 10
56.8195
 20
2.0885
 10
57.2489
 20
1.99722
 10
57.65
 20
1.81865
 10
58.0052
 20
1.5606
 10
58.2989
 20
1.23435
 10
58.5184
 20
0.854146
 10
58.6541
 20
0.436614
 10
58.7
 20
0
 10
58.6541
 20
-0.436614
 10
58.5184
 20
-0.854146
 10
58.2989
 20
-1.23435
 10
58.0052
 20
-1.5606
 10
57.65
 20
-1.81865
 10
57.2489
 20
-1.99722
 10
56.8195
 20
-2.0885
  0
LWPOLYLINE
100
AcDbEntity
  8
0
100
AcDbPolyline
 90
30
 70
1
 10
-64.9633
 20
-10.4254
 10
-65.3703
 20
-10.261
 10
-65.7343
 20
-10.0155
 10
-66.0393
 20
-9.69967
 10
-66.2719
 20
-9.32736
 10
-66.4221
 20
-8.91482
 10
-66.4832
 20
-8.48007
 10
-66.4525
 20
-8.04212
 10
-66.3315
 20
-7.62011
 10
-66.1254
 20
-7.23248
 10
-65.8432
 20
-6.89617
 10
-65.4973
 20
-6.62588
 10
-65.1027
 20
-6.43343
 10
-64.6767
 20
-6.32722
 10
-64.238
 20
-6.3119
 10
-63.8056
 20
-6.38814
 10
-63.3986
 20
-6.5526
 10
-63.0346
 20
-6.79809
 10
-62.7296
 20
-7.1139
 10
-62.497
 20
-7.48621
 10
-62.3468
 20
-7.89875
 10
-62.2857
 20
-8.3335
 10
-62.3163
 20
-8.77145
 10
-62.4374
 20
-9.19346
 10
-62.6435
 20
-9.58109
 10
-62.9257
 20
-9.9174
 10
-63.2716
 20
-10.1877
 10
-63.6662
 20
-10.3801
 10
-64.0922
 20
-10.4863
 10
-64.5309
 20
-10.5017
  0
LWPOLYLINE
100
AcDbEntity
  8
0
100
AcDbPolyline
 90
92
 70
1
 10
-3.61002
 20
-30.5233
 10
-4.66909
 20
-30.3814
 10
-5.8156
 20
-30.1468
 10
-7.03699
 20
-29.822
 10
-8.31987
 20
-29.4104
 10
-9.6502
 20
-28.9167
 10
-11.0134
 20
-28.3463
 10
-12.3945
 20
-27.7053
 10
-13.3422
 20
-27.2229
 10
-13.4149
 20
-27.4123
 10
-13.5147
 20
-27.6081
 10
-13.6344
 20
-27.7925
 10
-13.7727
 20
-27.9633
 10
-13.9282
 20
-28.1187
 10
-14.099
 20
-28.257
 10
-14.2833
 20
-28.3768
 10
-14.4792
 20
-28.4766
 10
-14.6844
 20
-28.5553
 10
-14.8967
 20
-28.6122
 10
-15.1138
 20
-28.6466
 10
-15.3333
 20
-28.6581
 10
-15.5528
 20
-28.6466
 10
-15.7699
 20
-28.6122
 10
-15.9823
 20
-28.5553
 10
-16.1875
 20
-28.4766
 10
-16.3833
 20
-28.3768
 10
-16.5677
 20
-28.257
 10
-16.7385
 20
-28.1187
 10
-16.8939
 20
-27.9633
 10
-17.0323
 20
-27.7925
 10
-17.152
 20
-27.6081
 10
-17.2518
 20
-27.4123
 10
-17.3306
 20
-27.207
 10
-17.3874
 20
-26.9947
 10
-17.4218
 20
-26.7776
 10
-17.4333
 20
-26.5581
 10
-17.4218
 20
-26.3386
 10
-17.3874
 20
-26.1215
 10
-17.3306
 20
-25.9092
 10
-17.2518
 20
-25.704
 10
-17.152
 20
-25.5081
 10
-17.0323
 20
-25.3238
 10
-16.9046
 20
-25.1661
 10
-17.7962
 20
-24.5866
 10
-19.0419
 20
-23.711
 10
-20.2175
 20
-22.8157
 10
-21.3103
 20
-21.9104
 10
-22.3081
 20
-21.0052
 10
-23.2001
 20
-20.1099
 10
-23.9766
 20
-19.2343
 10
-24.6289
 20
-18.388
 10
-25.15
 20
-17.5803
 10
-25.5341
 20
-16.8201
 10
-25.7771
 20
-16.1156
 10
-25.8763
 20
-15.4746
 10
-25.8305
 20
-14.9042
 10
-25.6404
 20
-14.4104
 10
-25.3079
 20
-13.9989
 10
-24.8367
 20
-13.6741
 10
-24.232
 20
-13.4394
 10
-23.5005
 20
-13.2976
 10
-22.65
 20
-13.2502
 10
-21.69
 20
-13.2976
 10
-20.6309
 20
-13.4394
 10
-19.4844
 20
-13.6741
 10
-18.263
 20
-13.9989
 10
-16.9801
 20
-14.4104
 10
-15.6498
 20
-14.9042
 10
-14.2866
 20
-15.4746
 10
-12.9055
 20
-16.1156
 10
-11.5216
 20
-16.8201
 10
-10.15
 20
-17.5803
 10
-8.80583
 20
-18.388
 10
-7.50378
 20
-19.2343
 10
-6.25811
 20
-20.1099
 10
-5.08247
 20
-21.0052
 10
-3.98975
 20
-21.9104
 10
-2.9919
 20
-22.8157
 10
-2.09988
 20
-23.711
 10
-1.32344
 20
-24.5866
 10
-0.671098
 20
-25.4329
 10
-0.15
 20
-26.2406
 10
0.234145
 20
-27.0008
 10
0.477129
 20
-27.7053
 10
0.576289
 20
-28.3463
 10
0.53054
 20
-28.9167
 10
0.340381
 20
-29.4104
 10
0.00789642
 20
-29.822
 10
-0.463268
 20
-30.1468
 10
-1.06796
 20
-30.3814
 10
-1.79954
 20
-30.5233
 10
-2.65
 20
-30.5707
  0
LWPOLYLINE
100
AcDbEntity
  8
0
100
AcDbPolyline
 90
30
 70
1
 10
49.2631
 20
-22.6034
 10
48.8372
 20
-22.4972
 10
48.4426
 20
-22.3047
 10
48.0966
 20
-22.0345
 10
47.8144
 20
-21.6981
 10
47.6083
 20
-21.3105
 10
47.4873
 20
-20.8885
 10
47.4567
 20
-20.4505
 10
47.5178
 20
-20.0158
 10
47.6679
 20
-19.6033
 10
47.9006
 20
-19.2309
 10
48.2055
 20
-18.9151
 10
48.5695
 20
-18.6696
 10
48.9766
 20
-18.5052
 10
49.4089
 20
-18.429
 10
49.8477
 20
-18.4443
 10
50.2736
 20
-18.5505
 10
50.6682
 20
-18.7429
 10
51.0142
 20
-19.0132
 10
51.2964
 20
-19.3495
 10
51.5025
 20
-19.7372
 10
51.6235
 20
-20.1592
 10
51.6541
 20
-20.5971
 10
51.593
 20
-21.0319
 10
51.4429
 20
-21.4444
 10
51.2102
 20
-21.8167
 10
50.9053
 20
-22.1325
 10
50.5413
 20
-22.378
 10
50.1342
 20
-22.5425
 10
49.7019
 20
-22.6187
  0
LWPOLYLINE
100
AcDbEntity
  8
0
100
AcDbPolyline
 90
30
 70
1
 10
-56.9276
 20
-25.3064
 10
-57.3451
 20
-25.1707
 10
-57.7253
 20
-24.9512
 10
-58.0516
 20
-24.6575
 10
-58.3096
 20
-24.3023
 10
-58.4882
 20
-23.9012
 10
-58.5794
 20
-23.4718
 10
-58.5794
 20
-23.0328
 10
-58.4882
 20
-22.6034
 10
-58.3096
 20
-22.2023
 10
-58.0516
 20
-21.8471
 10
-57.7253
 20
-21.5534
 10
-57.3451
 20
-21.3338
 10
-56.9276
 20
-21.1982
 10
-56.4909
 20
-21.1523
 10
-56.0543
 20
-21.1982
 10
-55.6368
 20
-21.3338
 10
-55.2566
 20
-21.5534
 10
-54.9303
 20
-21.8471
 10
-54.6723
 20
-22.2023
 10
-54.4937
 20
-22.6034
 10
-54.4025
 20
-23.0328
 10
-54.4025
 20
-23.4718
 10
-54.4937
 20
-23.9012
 10
-54.6723
 20
-24.3023
 10
-54.9303
 20
-24.6575
 10
-55.2566
 20
-24.9512
 10
-55.6368
 20
-25.1707
 10
-56.0543
 20
-25.3064
 10
-56.4909
 20
-25.3523
  0
LWPOLYLINE
100
AcDbEntity
  8
0
100
AcDbPolyline
 90
60
 70
1
 10
14.9048
 20
-30.6357
 10
14.4809
 20
-30.5685
 10
14.0664
 20
-30.4574
 10
13.6657
 20
-30.3036
 10
13.2833
 20
-30.1088
 10
12.9234
 20
-29.8751
 10
12.5899
 20
-29.605
 10
12.2864
 20
-29.3015
 10
12.0164
 20
-28.968
 10
11.7826
 20
-28.6081
 10
11.5878
 20
-28.2257
 10
11.434
 20
-27.8251
 10
11.3229
 20
-27.4106
 10
11.2558
 20
-26.9867
 10
11.2333
 20
-26.5581
 10
11.2558
 20
-26.1295
 10
11.3229
 20
-25.7057
 10
11.434
 20
-25.2911
 10
11.5878
 20
-24.8905
 10
11.7826
 20
-24.5081
 10
12.0164
 20
-24.1482
 10
12.2864
 20
-23.8147
 10
12.5899
 20
-23.5112
 10
12.9234
 20
-23.2411
 10
13.2833
 20
-23.0074
 10
13.6657
 20
-22.8126
 10
14.0664
 20
-22.6588
 10
14.4809
 20
-22.5477
 10
14.9048
 20
-22.4806
 10
15.3333
 20
-22.4581
 10
15.7619
 20
-22.4806
 10
16.1858
 20
-22.5477
 10
16.6003
 20
-22.6588
 10
17.001
 20
-22.8126
 10
17.3833
 20
-23.0074
 10
17.7433
 20
-23.2411
 10
18.0768
 20
-23.5112
 10
18.3802
 20
-23.8147
 10
18.6503
 20
-24.1482
 10
18.884
 20
-24.5081
 10
19.0789
 20
-24.8905
 10
19.2327
 20
-25.2911
 10
19.3437
 20
-25.7057
 10
19.4109
 20
-26.1295
 10
19.4333
 20
-26.5581
 10
19.4109
 20
-26.9867
 10
19.3437
 20
-27.4106
 10
19.2327
 20
-27.8251
 10
19.0789
 20
-28.2257
 10
18.884
 20
-28.6081
 10
18.6503
 20
-28.968
 10
18.3802
 20
-29.3015
 10
18.0768
 20
-29.605
 10
17.7433
 20
-29.8751
 10
17.3833
 20
-30.1088
 10
17.001
 20
-30.3036
 10
16.6003
 20
-30.4574
 10
16.1858
 20
-30.5685
 10
15.7619
 20
-30.6357
 10
15.3333
 20
-30.6581
  0
LWPOLYLINE
100
AcDbEntity
  8
0
100
AcDbPolyline
 90
30
 70
1
 10
-42.8441
 20
-34.7339
 10
-43.2701
 20
-34.6277
 10
-43.6647
 20
-34.4352
 10
-44.0106
 20
-34.1649
 10
-44.2928
 20
-33.8286
 10
-44.499
 20
-33.441
 10
-44.62
 20
-33.019
 10
-44.6506
 20
-32.581
 10
-44.5895
 20
-32.1463
 10
-44.4393
 20
-31.7337
 10
-44.2067
 20
-31.3614
 10
-43.9017
 20
-31.0456
 10
-43.5378
 20
-30.8001
 10
-43.1307
 20
-30.6357
 10
-42.6984
 20
-30.5594
 10
-42.2596
 20
-30.5748
 10
-41.8336
 20
-30.681
 10
-41.439
 20
-30.8734
 10
-41.0931
 20
-31.1437
 10
-40.8109
 20
-31.48
 10
-40.6048
 20
-31.8676
 10
-40.4838
 20
-32.2897
 10
-40.4531
 20
-32.7276
 10
-40.5142
 20
-33.1624
 10
-40.6644
 20
-33.5749
 10
-40.897
 20
-33.9472
 10
-41.202
 20
-34.263
 10
-41.566
 20
-34.5085
 10
-41.973
 20
-34.673
 10
-42.4054
 20
-34.7492
  0
LWPOLYLINE
100
AcDbEntity
  8
0
100
AcDbPolyline
 90
30
 70
1
 10
47.9459
 20
-39.3506
 10
47.5284
 20
-39.2149
 10
47.1482
 20
-38.9954
 10
46.8219
 20
-38.7016
 10
46.5639
 20
-38.3465
 10
46.3853
 20
-37.9454
 10
46.2941
 20
-37.516
 10
46.2941
 20
-37.0769
 10
46.3853
 20
-36.6475
 10
46.5639
 20
-36.2465
 10
46.8219
 20
-35.8913
 10
47.1482
 20
-35.5975
 10
47.5284
 20
-35.378
 10
47.9459
 20
-35.2423
 10
48.3825
 20
-35.1965
 10
48.8192
 20
-35.2423
 10
49.2367
 20
-35.378
 10
49.6169
 20
-35.5975
 10
49.9432
 20
-35.8913
 10
50.2012
 20
-36.2465
 10
50.3798
 20
-36.6475
 10
50.471
 20
-37.0769
 10
50.471
 20
-37.516
 10
50.3798
 20
-37.9454
 10
50.2012
 20
-38.3465
 10
49.9432
 20
-38.7016
 10
49.6169
 20
-38.9954
 10
49.2367
 20
-39.2149
 10
48.8192
 20
-39.3506
 10
48.3825
 20
-39.3965
  0
LWPOLYLINE
100
AcDbEntity
  8
0
100
AcDbPolyline
 90
30
 70
1
 10
-28.5195
 20
-51.1055
 10
-28.9489
 20
-51.0143
 10
-29.35
 20
-50.8357
 10
-29.7052
 20
-50.5776
 10
-29.9989
 20
-50.2514
 10
-30.2184
 20
-49.8712
 10
-30.3541
 20
-49.4537
 10
-30.4
 20
-49.017
 10
-30.3541
 20
-48.5804
 10
-30.2184
 20
-48.1629
 10
-29.9989
 20
-47.7827
 10
-29.7052
 20
-47.4564
 10
-29.35
 20
-47.1984
 10
-28.9489
 20
-47.0198
 10
-28.5195
 20
-46.9285
 10
-28.0805
 20
-46.9285
 10
-27.6511
 20
-47.0198
 10
-27.25
 20
-47.1984
 10
-26.8948
 20
-47.4564
 10
-26.6011
 20
-47.7827
 10
-26.3816
 20
-48.1629
 10
-26.2459
 20
-48.5804
 10
-26.2
 20
-49.017
 10
-26.2459
 20
-49.4537
 10
-26.3816
 20
-49.8712
 10
-26.6011
 20
-50.2514
 10
-26.8948
 20
-50.5776
 10
-27.25
 20
-50.8357
 10
-27.6511
 20
-51.0143
 10
-28.0805
 20
-51.1055
  0
LWPOLYLINE
100
AcDbEntity
  8
0
100
AcDbPolyline
 90
30
 70
1
 10
38.8939
 20
-53.5738
 10
38.4868
 20
-53.4094
 10
38.1229
 20
-53.1639
 10
37.8179
 20
-52.8481
 10
37.5852
 20
-52.4757
 10
37.4351
 20
-52.0632
 10
37.374
 20
-51.6285
 10
37.4046
 20
-51.1905
 10
37.5256
 20
-50.7685
 10
37.7317
 20
-50.3809
 10
38.0139
 20
-50.0446
 10
38.3599
 20
-49.7743
 10
38.7545
 20
-49.5818
 10
39.1804
 20
-49.4756
 10
39.6192
 20
-49.4603
 10
40.0515
 20
-49.5365
 10
40.4586
 20
-49.701
 10
40.8226
 20
-49.9465
 10
41.1275
 20
-50.2623
 10
41.3602
 20
-50.6346
 10
41.5103
 20
-51.0471
 10
41.5714
 20
-51.4819
 10
41.5408
 20
-51.9198
 10
41.4198
 20
-52.3418
 10
41.2137
 20
-52.7295
 10
40.9315
 20
-53.0658
 10
40.5855
 20
-53.3361
 10
40.191
 20
-53.5285
 10
39.765
 20
-53.6347
 10
39.3262
 20
-53.6501
  0
LWPOLYLINE
100
AcDbEntity
  8
0
100
AcDbPolyline
 90
30
 70
1
 10
-7.58237
 20
-55.1968
 10
-7.98943
 20
-55.0323
 10
-8.35339
 20
-54.7868
 10
-8.65836
 20
-54.471
 10
-8.891
 20
-54.0987
 10
-9.04116
 20
-53.6862
 10
-9.10226
 20
-53.2514
 10
-9.07163
 20
-52.8135
 10
-8.95062
 20
-52.3915
 10
-8.74451
 20
-52.0039
 10
-8.46232
 20
-51.6675
 10
-8.11637
 20
-51.3973
 10
-7.72178
 20
-51.2048
 10
-7.2958
 20
-51.0986
 10
-6.85705
 20
-51.0833
 10
-6.4247
 20
-51.1595
 10
-6.01765
 20
-51.324
 10
-5.65368
 20
-51.5695
 10
-5.34871
 20
-51.8853
 10
-5.11607
 20
-52.2576
 10
-4.96591
 20
-52.6701
 10
-4.90481
 20
-53.1049
 10
-4.93544
 20
-53.5428
 10
-5.05645
 20
-53.9648
 10
-5.26256
 20
-54.3525
 10
-5.54475
 20
-54.6888
 10
-5.89071
 20
-54.9591
 10
-6.28529
 20
-55.1515
 10
-6.71127
 20
-55.2577
 10
-7.15002
 20
-55.273
  0
LWPOLYLINE
100
AcDbEntity
  8
0
100
AcDbPolyline
 90
30
 70
1
 10
24.6195
 20
-62.0415
 10
24.1935
 20
-61.9353
 10
23.7989
 20
-61.7429
 10
23.4529
 20
-61.4726
 10
23.1708
 20
-61.1363
 10
22.9646
 20
-60.7486
 10
22.8436
 20
-60.3266
 10
22.813
 20
-59.8887
 10
22.8741
 20
-59.4539
 10
23.0243
 20
-59.0414
 10
23.2569
 20
-58.6691
 10
23.5619
 20
-58.3533
 10
23.9258
 20
-58.1078
 10
24.3329
 20
-57.9433
 10
24.7652
 20
-57.8671
 10
25.204
 20
-57.8824
 10
25.63
 20
-57.9886
 10
26.0246
 20
-58.1811
 10
26.3705
 20
-58.4513
 10
26.6527
 20
-58.7877
 10
26.8588
 20
-59.1753
 10
26.9798
 20
-59.5973
 10
27.0105
 20
-60.0352
 10
26.9494
 20
-60.47
 10
26.7992
 20
-60.8825
 10
26.5666
 20
-61.2548
 10
26.2616
 20
-61.5706
 10
25.8976
 20
-61.8161
 10
25.4906
 20
-61.9806
 10
25.0582
 20
-62.0568
  0
LWPOLYLINE
100
AcDbEntity
  8
0
100
AcDbPolyline
 90
30
 70
1
 10
7.67179
 20
-62.6029
 10
7.25426
 20
-62.4672
 10
6.87405
 20
-62.2477
 10
6.5478
 20
-61.9539
 10
6.28975
 20
-61.5987
 10
6.11118
 20
-61.1977
 10
6.01991
 20
-60.7683
 10
6.01991
 20
-60.3292
 10
6.11118
 20
-59.8998
 10
6.28975
 20
-59.4987
 10
6.5478
 20
-59.1436
 10
6.87405
 20
-58.8498
 10
7.25425
 20
-58.6303
 10
7.67179
 20
-58.4946
 10
8.1084
 20
-58.4487
 10
8.54502
 20
-58.4946
 10
8.96255
 20
-58.6303
 10
9.34275
 20
-58.8498
 10
9.66901
 20
-59.1436
 10
9.92706
 20
-59.4987
 10
10.1056
 20
-59.8998
 10
10.1969
 20
-60.3292
 10
10.1969
 20
-60.7683
 10
10.1056
 20
-61.1977
 10
9.92706
 20
-61.5987
 10
9.66901
 20
-61.9539
 10
9.34275
 20
-62.2477
 10
8.96255
 20
-62.4672
 10
8.54502
 20
-62.6029
 10
8.1084
 20
-62.6487
  0
LWPOLYLINE
100
AcDbEntity
  8
0
100
AcDbPolyline
 90
60
 70
1
 10
-0.533094
 20
-105.072
 10
-1.06035
 20
-104.989
 10
-1.57599
 20
-104.85
 10
-2.07436
 20
-104.659
 10
-2.55
 20
-104.417
 10
-2.9977
 20
-104.126
 10
-3.41257
 20
-103.79
 10
-3.79004
 20
-103.413
 10
-4.12599
 20
-102.998
 10
-4.41673
 20
-102.55
 10
-4.65908
 20
-102.074
 10
-4.85039
 20
-101.576
 10
-4.98855
 20
-101.06
 10
-5.07206
 20
-100.533
 10
-5.1
 20
-100
 10
-5.07206
 20
-99.4669
 10
-4.98855
 20
-98.9396
 10
-4.85039
 20
-98.424
 10
-4.65908
 20
-97.9256
 10
-4.41673
 20
-97.45
 10
-4.12599
 20
-97.0023
 10
-3.79004
 20
-96.5874
 10
-3.41257
 20
-96.21
 10
-2.9977
 20
-95.874
 10
-2.55
 20
-95.5833
 10
-2.07436
 20
-95.3409
 10
-1.57599
 20
-95.1496
 10
-1.06035
 20
-95.0114
 10
-0.533094
 20
-94.9279
 10
0
 20
-94.9
 10
0.533094
 20
-94.9279
 10
1.06035
 20
-95.0114
 10
1.57599
 20
-95.1496
 10
2.07436
 20
-95.3409
 10
2.55
 20
-95.5833
 10
2.9977
 20
-95.874
 10
3.41257
 20
-96.21
 10
3.79004
 20
-96.5874
 10
4.12599
 20
-97.0023
 10
4.41673
 20
-97.45
 10
4.65908
 20
-97.9256
 10
4.85039
 20
-98.424
 10
4.98855
 20
-98.9396
 10
5.07206
 20
-99.4669
 10
5.1
 20
-100
 10
5.07206
 20
-100.533
 10
4.98855
 20
-101.06
 10
4.85039
 20
-101.576
 10
4.65908
 20
-102.074
 10
4.41673
 20
-102.55
 10
4.12599
 20
-102.998
 10
3.79004
 20
-103.413
 10
3.41257
 20
-103.79
 10
2.9977
 20
-104.126
 10
2.55
 20
-104.417
 10
2.07436
 20
-104.659
 10
1.57599
 20
-104.85
 10
1.06035
 20
-104.989
 10
0.533094
 20
-105.072
 10
0
 20
-105.1
  0
ENDSEC
  0
EOF
