999
DXF from OpenSCAD
  0
SECTION
  2
HEADER
  9
$ACADVER
  1
AC1006
  9
$INSBASE
 10
0.0
 20
0.0
 30
0.0
  9
$EXTMIN
 10
-40.7232
 20
-40.7232
  9
$EXTMAX
 10
40.7232
 20
40.7232
  9
$LINMIN
 10
-40.7232
 20
-40.7232
  9
$LINMAX
 10
40.7232
 20
40.7232
  0
ENDSEC
  0
SECTION
  2
TABLES
  0
TABLE
  2
LTYPE
 70
1
  0
LTYPE
  2
CONTINUOUS
 70
64
  3
Solid line
 72
65
 73
0
 40
0.000000
  0
ENDTAB
  0
TABLE
  2
LAYER
 70
6
  0
LAYER
  2
0
 70
64
 62
7
  6
CONTINUOUS
  0
ENDTAB
  0
TABLE
  2
STYLE
 70
0
  0
ENDTAB
  0
ENDSEC
  0
SECTION
  2
BLOCKS
  0
ENDSEC
  0
SECTION
  2
ENTITIES
  0
LWPOLYLINE
100
AcDbEntity
  8
0
100
AcDbPolyline
 90
720
 70
1
 10
-40.7232
 20
0
 10
-40.7226
 20
-0.0675099
 10
-40.717
 20
-0.710718
 10
-40.7002
 20
-1.35373
 10
-40.6984
 20
-1.42122
 10
-40.6954
 20
-1.48867
 10
-40.6674
 20
-2.13129
 10
-40.6633
 20
-2.19867
 10
-40.624
 20
-2.84071
 10
-40.6187
 20
-2.90801
 10
-40.5682
 20
-3.54926
 10
-40.5066
 20
-4.18953
 10
-40.5001
 20
-4.25673
 10
-40.4925
 20
-4.32381
 10
-40.4197
 20
-4.96291
 10
-40.3357
 20
-5.60064
 10
-40.3269
 20
-5.66757
 10
-40.3169
 20
-5.73434
 10
-40.2218
 20
-6.37051
 10
-40.1157
 20
-7.00492
 10
-40.1045
 20
-7.07151
 10
-39.9873
 20
-7.70397
 10
-39.975
 20
-7.77035
 10
-39.9615
 20
-7.83651
 10
-39.8333
 20
-8.46683
 10
-39.6941
 20
-9.09481
 10
-39.6795
 20
-9.16073
 10
-39.6637
 20
-9.22637
 10
-39.5135
 20
-9.85183
 10
-39.3525
 20
-10.4746
 10
-39.3356
 20
-10.5399
 10
-39.3175
 20
-10.605
 10
-39.1456
 20
-11.2248
 10
-38.963
 20
-11.8416
 10
-38.9438
 20
-11.9063
 10
-38.9235
 20
-11.9707
 10
-38.7301
 20
-12.5842
 10
-38.526
 20
-13.1942
 10
-38.5045
 20
-13.2582
 10
-38.2898
 20
-13.8645
 10
-38.2673
 20
-13.9282
 10
-38.042
 20
-14.5307
 10
-38.0184
 20
-14.5939
 10
-37.9936
 20
-14.6567
 10
-37.7579
 20
-15.2552
 10
-37.5117
 20
-15.8494
 10
-37.4859
 20
-15.9118
 10
-37.2294
 20
-16.5017
 10
-37.2025
 20
-16.5636
 10
-37.1745
 20
-16.625
 10
-36.9077
 20
-17.2104
 10
-36.6308
 20
-17.7909
 10
-36.6018
 20
-17.8519
 10
-36.5716
 20
-17.9123
 10
-36.2846
 20
-18.4879
 10
-35.9876
 20
-19.0585
 10
-35.9564
 20
-19.1184
 10
-35.9242
 20
-19.1777
 10
-35.6173
 20
-19.743
 10
-35.3006
 20
-20.3028
 10
-35.2673
 20
-20.3616
 10
-35.2331
 20
-20.4198
 10
-34.9066
 20
-20.974
 10
-34.8713
 20
-21.0316
 10
-34.5352
 20
-21.58
 10
-34.499
 20
-21.6369
 10
-34.1533
 20
-22.1794
 10
-34.1161
 20
-22.2357
 10
-33.7611
 20
-22.7721
 10
-33.3967
 20
-23.3022
 10
-33.3585
 20
-23.3579
 10
-33.3193
 20
-23.4128
 10
-32.9458
 20
-23.9365
 10
-32.9056
 20
-23.9908
 10
-32.523
 20
-24.5078
 10
-32.4819
 20
-24.5614
 10
-32.0903
 20
-25.0717
 10
-31.6899
 20
-25.5751
 10
-31.6479
 20
-25.6279
 10
-31.6049
 20
-25.68
 10
-31.1958
 20
-26.1764
 10
-31.1519
 20
-26.2277
 10
-30.7342
 20
-26.7168
 10
-30.308
 20
-27.1986
 10
-30.2632
 20
-27.2491
 10
-30.2176
 20
-27.2989
 10
-29.7831
 20
-27.7732
 10
-29.3403
 20
-28.2397
 10
-29.2938
 20
-28.2887
 10
-29.2465
 20
-28.3369
 10
-28.7956
 20
-28.7956
 10
-28.3369
 20
-29.2465
 10
-28.2887
 20
-29.2938
 10
-28.2397
 20
-29.3403
 10
-27.7732
 20
-29.7831
 10
-27.2989
 20
-30.2176
 10
-27.2491
 20
-30.2632
 10
-27.1986
 20
-30.308
 10
-26.7168
 20
-30.7342
 10
-26.2277
 20
-31.1519
 10
-26.1764
 20
-31.1958
 10
-25.68
 20
-31.6049
 10
-25.6279
 20
-31.6479
 10
-25.5751
 20
-31.6899
 10
-25.0717
 20
-32.0903
 10
-24.5614
 20
-32.4819
 10
-24.5078
 20
-32.523
 10
-23.9908
 20
-32.9056
 10
-23.9365
 20
-32.9458
 10
-23.4128
 20
-33.3193
 10
-23.3579
 20
-33.3585
 10
-23.3022
 20
-33.3967
 10
-22.7721
 20
-33.7611
 10
-22.2357
 20
-34.1161
 10
-22.1794
 20
-34.1533
 10
-21.6369
 20
-34.499
 10
-21.58
 20
-34.5352
 10
-21.0316
 20
-34.8713
 10
-20.974
 20
-34.9066
 10
-20.4198
 20
-35.2331
 10
-20.3616
 20
-35.2673
 10
-20.3028
 20
-35.3006
 10
-19.743
 20
-35.6173
 10
-19.1777
 20
-35.9242
 10
-19.1184
 20
-35.9564
 10
-19.0585
 20
-35.9876
 10
-18.4879
 20
-36.2846
 10
-17.9123
 20
-36.5716
 10
-17.8519
 20
-36.6018
 10
-17.7909
 20
-36.6308
 10
-17.2104
 20
-36.9077
 10
-16.625
 20
-37.1745
 10
-16.5636
 20
-37.2025
 10
-16.5017
 20
-37.2294
 10
-15.9118
 20
-37.4859
 10
-15.8494
 20
-37.5117
 10
-15.2552
 20
-37.7579
 10
-14.6567
 20
-37.9936
 10
-14.5939
 20
-38.0184
 10
-14.5307
 20
-38.042
 10
-13.9282
 20
-38.2673
 10
-13.8645
 20
-38.2898
 10
-13.2582
 20
-38.5045
 10
-13.1942
 20
-38.526
 10
-12.5842
 20
-38.7301
 10
-11.9707
 20
-38.9235
 10
-11.9063
 20
-38.9438
 10
-11.8416
 20
-38.963
 10
-11.2248
 20
-39.1456
 10
-10.605
 20
-39.3175
 10
-10.5399
 20
-39.3356
 10
-10.4746
 20
-39.3525
 10
-9.85183
 20
-39.5135
 10
-9.22637
 20
-39.6637
 10
-9.16073
 20
-39.6795
 10
-9.09481
 20
-39.6941
 10
-8.46683
 20
-39.8333
 10
-7.83651
 20
-39.9615
 10
-7.77035
 20
-39.975
 10
-7.70397
 20
-39.9873
 10
-7.07151
 20
-40.1045
 10
-7.00492
 20
-40.1157
 10
-6.37051
 20
-40.2218
 10
-5.73434
 20
-40.3169
 10
-5.66757
 20
-40.3269
 10
-5.60064
 20
-40.3357
 10
-4.96291
 20
-40.4197
 10
-4.32381
 20
-40.4925
 10
-4.25673
 20
-40.5001
 10
-4.18953
 20
-40.5066
 10
-3.54926
 20
-40.5682
 10
-2.90801
 20
-40.6187
 10
-2.84071
 20
-40.624
 10
-2.19867
 20
-40.6633
 10
-2.13129
 20
-40.6674
 10
-1.48867
 20
-40.6954
 10
-1.42122
 20
-40.6984
 10
-1.35373
 20
-40.7002
 10
-0.710718
 20
-40.717
 10
-0.0675099
 20
-40.7226
 10
0
 20
-40.7232
 10
0.0675099
 20
-40.7226
 10
0.710718
 20
-40.717
 10
1.35373
 20
-40.7002
 10
1.42122
 20
-40.6984
 10
1.48867
 20
-40.6954
 10
2.13129
 20
-40.6674
 10
2.19867
 20
-40.6633
 10
2.84071
 20
-40.624
 10
2.90801
 20
-40.6187
 10
3.54926
 20
-40.5682
 10
4.18953
 20
-40.5066
 10
4.25673
 20
-40.5001
 10
4.32381
 20
-40.4925
 10
4.96291
 20
-40.4197
 10
5.60064
 20
-40.3357
 10
5.66757
 20
-40.3269
 10
5.73434
 20
-40.3169
 10
6.37051
 20
-40.2218
 10
7.00492
 20
-40.1157
 10
7.07151
 20
-40.1045
 10
7.70397
 20
-39.9873
 10
7.77035
 20
-39.975
 10
7.83651
 20
-39.9615
 10
8.46683
 20
-39.8333
 10
9.09481
 20
-39.6941
 10
9.16073
 20
-39.6795
 10
9.22637
 20
-39.6637
 10
9.85183
 20
-39.5135
 10
10.4746
 20
-39.3525
 10
10.5399
 20
-39.3356
 10
10.605
 20
-39.3175
 10
11.2248
 20
-39.1456
 10
11.8416
 20
-38.963
 10
11.9063
 20
-38.9438
 10
11.9707
 20
-38.9235
 10
12.5842
 20
-38.7301
 10
13.1942
 20
-38.526
 10
13.2582
 20
-38.5045
 10
13.8645
 20
-38.2898
 10
13.9282
 20
-38.2673
 10
14.5307
 20
-38.042
 10
14.5939
 20
-38.0184
 10
14.6567
 20
-37.9936
 10
15.2552
 20
-37.7579
 10
15.8494
 20
-37.5117
 10
15.9118
 20
-37.4859
 10
16.5017
 20
-37.2294
 10
16.5636
 20
-37.2025
 10
16.625
 20
-37.1745
 10
17.2104
 20
-36.9077
 10
17.7909
 20
-36.6308
 10
17.8519
 20
-36.6018
 10
17.9123
 20
-36.5716
 10
18.4879
 20
-36.2846
 10
19.0585
 20
-35.9876
 10
19.1184
 20
-35.9564
 10
19.1777
 20
-35.9242
 10
19.743
 20
-35.6173
 10
20.3028
 20
-35.3006
 10
20.3616
 20
-35.2673
 10
20.4198
 20
-35.2331
 10
20.974
 20
-34.9066
 10
21.0316
 20
-34.8713
 10
21.58
 20
-34.5352
 10
21.6369
 20
-34.499
 10
22.1794
 20
-34.1533
 10
22.2357
 20
-34.1161
 10
22.7721
 20
-33.7611
 10
23.3022
 20
-33.3967
 10
23.3579
 20
-33.3585
 10
23.4128
 20
-33.3193
 10
23.9365
 20
-32.9458
 10
23.9908
 20
-32.9056
 10
24.5078
 20
-32.523
 10
24.5614
 20
-32.4819
 10
25.0717
 20
-32.0903
 10
25.5751
 20
-31.6899
 10
25.6279
 20
-31.6479
 10
25.68
 20
-31.6049
 10
26.1764
 20
-31.1958
 10
26.2277
 20
-31.1519
 10
26.7168
 20
-30.7342
 10
27.1986
 20
-30.308
 10
27.2491
 20
-30.2632
 10
27.2989
 20
-30.2176
 10
27.7732
 20
-29.7831
 10
28.2397
 20
-29.3403
 10
28.2887
 20
-29.2938
 10
28.3369
 20
-29.2465
 10
28.7956
 20
-28.7956
 10
29.2465
 20
-28.3369
 10
29.2938
 20
-28.2887
 10
29.3403
 20
-28.2397
 10
29.7831
 20
-27.7732
 10
30.2176
 20
-27.2989
 10
30.2632
 20
-27.2491
 10
30.308
 20
-27.1986
 10
30.7342
 20
-26.7168
 10
31.1519
 20
-26.2277
 10
31.1958
 20
-26.1764
 10
31.6049
 20
-25.68
 10
31.6479
 20
-25.6279
 10
31.6899
 20
-25.5751
 10
32.0903
 20
-25.0717
 10
32.4819
 20
-24.5614
 10
32.523
 20
-24.5078
 10
32.9056
 20
-23.9908
 10
32.9458
 20
-23.9365
 10
33.3193
 20
-23.4128
 10
33.3585
 20
-23.3579
 10
33.3967
 20
-23.3022
 10
33.7611
 20
-22.7721
 10
34.1161
 20
-22.2357
 10
34.1533
 20
-22.1794
 10
34.499
 20
-21.6369
 10
34.5352
 20
-21.58
 10
34.8713
 20
-21.0316
 10
34.9066
 20
-20.974
 10
35.2331
 20
-20.4198
 10
35.2673
 20
-20.3616
 10
35.3006
 20
-20.3028
 10
35.6173
 20
-19.743
 10
35.9242
 20
-19.1777
 10
35.9564
 20
-19.1184
 10
35.9876
 20
-19.0585
 10
36.2846
 20
-18.4879
 10
36.5716
 20
-17.9123
 10
36.6018
 20
-17.8519
 10
36.6308
 20
-17.7909
 10
36.9077
 20
-17.2104
 10
37.1745
 20
-16.625
 10
37.2025
 20
-16.5636
 10
37.2294
 20
-16.5017
 10
37.4859
 20
-15.9118
 10
37.5117
 20
-15.8494
 10
37.7579
 20
-15.2552
 10
37.9936
 20
-14.6567
 10
38.0184
 20
-14.5939
 10
38.042
 20
-14.5307
 10
38.2673
 20
-13.9282
 10
38.2898
 20
-13.8645
 10
38.5045
 20
-13.2582
 10
38.526
 20
-13.1942
 10
38.7301
 20
-12.5842
 10
38.9235
 20
-11.9707
 10
38.9438
 20
-11.9063
 10
38.963
 20
-11.8416
 10
39.1456
 20
-11.2248
 10
39.3175
 20
-10.605
 10
39.3356
 20
-10.5399
 10
39.3525
 20
-10.4746
 10
39.5135
 20
-9.85183
 10
39.6637
 20
-9.22637
 10
39.6795
 20
-9.16073
 10
39.6941
 20
-9.09481
 10
39.8333
 20
-8.46683
 10
39.9615
 20
-7.83651
 10
39.975
 20
-7.77035
 10
39.9873
 20
-7.70397
 10
40.1045
 20
-7.07151
 10
40.1157
 20
-7.00492
 10
40.2218
 20
-6.37051
 10
40.3169
 20
-5.73434
 10
40.3269
 20
-5.66757
 10
40.3357
 20
-5.60064
 10
40.4197
 20
-4.96291
 10
40.4925
 20
-4.32381
 10
40.5001
 20
-4.25673
 10
40.5066
 20
-4.18953
 10
40.5682
 20
-3.54926
 10
40.6187
 20
-2.90801
 10
40.624
 20
-2.84071
 10
40.6633
 20
-2.19867
 10
40.6674
 20
-2.13129
 10
40.6954
 20
-1.48867
 10
40.6984
 20
-1.42122
 10
40.7002
 20
-1.35373
 10
40.717
 20
-0.710718
 10
40.7226
 20
-0.0675099
 10
40.7232
 20
0
 10
40.7226
 20
0.0675099
 10
40.717
 20
0.710718
 10
40.7002
 20
1.35373
 10
40.6984
 20
1.42122
 10
40.6954
 20
1.48867
 10
40.6674
 20
2.13129
 10
40.6633
 20
2.19867
 10
40.624
 20
2.84071
 10
40.6187
 20
2.90801
 10
40.5682
 20
3.54926
 10
40.5066
 20
4.18953
 10
40.5001
 20
4.25673
 10
40.4925
 20
4.32381
 10
40.4197
 20
4.96291
 10
40.3357
 20
5.60064
 10
40.3269
 20
5.66757
 10
40.3169
 20
5.73434
 10
40.2218
 20
6.37051
 10
40.1157
 20
7.00492
 10
40.1045
 20
7.07151
 10
39.9873
 20
7.70397
 10
39.975
 20
7.77035
 10
39.9615
 20
7.83651
 10
39.8333
 20
8.46683
 10
39.6941
 20
9.09481
 10
39.6795
 20
9.16073
 10
39.6637
 20
9.22637
 10
39.5135
 20
9.85183
 10
39.3525
 20
10.4746
 10
39.3356
 20
10.5399
 10
39.3175
 20
10.605
 10
39.1456
 20
11.2248
 10
38.963
 20
11.8416
 10
38.9438
 20
11.9063
 10
38.9235
 20
11.9707
 10
38.7301
 20
12.5842
 10
38.526
 20
13.1942
 10
38.5045
 20
13.2582
 10
38.2898
 20
13.8645
 10
38.2673
 20
13.9282
 10
38.042
 20
14.5307
 10
38.0184
 20
14.5939
 10
37.9936
 20
14.6567
 10
37.7579
 20
15.2552
 10
37.5117
 20
15.8494
 10
37.4859
 20
15.9118
 10
37.2294
 20
16.5017
 10
37.2025
 20
16.5636
 10
37.1745
 20
16.625
 10
36.9077
 20
17.2104
 10
36.6308
 20
17.7909
 10
36.6018
 20
17.8519
 10
36.5716
 20
17.9123
 10
36.2846
 20
18.4879
 10
35.9876
 20
19.0585
 10
35.9564
 20
19.1184
 10
35.9242
 20
19.1777
 10
35.6173
 20
19.743
 10
35.3006
 20
20.3028
 10
35.2673
 20
20.3616
 10
35.2331
 20
20.4198
 10
34.9066
 20
20.974
 10
34.8713
 20
21.0316
 10
34.5352
 20
21.58
 10
34.499
 20
21.6369
 10
34.1533
 20
22.1794
 10
34.1161
 20
22.2357
 10
33.7611
 20
22.7721
 10
33.3967
 20
23.3022
 10
33.3585
 20
23.3579
 10
33.3193
 20
23.4128
 10
32.9458
 20
23.9365
 10
32.9056
 20
23.9908
 10
32.523
 20
24.5078
 10
32.4819
 20
24.5614
 10
32.0903
 20
25.0717
 10
31.6899
 20
25.5751
 10
31.6479
 20
25.6279
 10
31.6049
 20
25.68
 10
31.1958
 20
26.1764
 10
31.1519
 20
26.2277
 10
30.7342
 20
26.7168
 10
30.308
 20
27.1986
 10
30.2632
 20
27.2491
 10
30.2176
 20
27.2989
 10
29.7831
 20
27.7732
 10
29.3403
 20
28.2397
 10
29.2938
 20
28.2887
 10
29.2465
 20
28.3369
 10
28.7956
 20
28.7956
 10
28.3369
 20
29.2465
 10
28.2887
 20
29.2938
 10
28.2397
 20
29.3403
 10
27.7732
 20
29.7831
 10
27.2989
 20
30.2176
 10
27.2491
 20
30.2632
 10
27.1986
 20
30.308
 10
26.7168
 20
30.7342
 10
26.2277
 20
31.1519
 10
26.1764
 20
31.1958
 10
25.68
 20
31.6049
 10
25.6279
 20
31.6479
 10
25.5751
 20
31.6899
 10
25.0717
 20
32.0903
 10
24.5614
 20
32.4819
 10
24.5078
 20
32.523
 10
23.9908
 20
32.9056
 10
23.9365
 20
32.9458
 10
23.4128
 20
33.3193
 10
23.3579
 20
33.3585
 10
23.3022
 20
33.3967
 10
22.7721
 20
33.7611
 10
22.2357
 20
34.1161
 10
22.1794
 20
34.1533
 10
21.6369
 20
34.499
 10
21.58
 20
34.5352
 10
21.0316
 20
34.8713
 10
20.974
 20
34.9066
 10
20.4198
 20
35.2331
 10
20.3616
 20
35.2673
 10
20.3028
 20
35.3006
 10
19.743
 20
35.6173
 10
19.1777
 20
35.9242
 10
19.1184
 20
35.9564
 10
19.0585
 20
35.9876
 10
18.4879
 20
36.2846
 10
17.9123
 20
36.5716
 10
17.8519
 20
36.6018
 10
17.7909
 20
36.6308
 10
17.2104
 20
36.9077
 10
16.625
 20
37.1745
 10
16.5636
 20
37.2025
 10
16.5017
 20
37.2294
 10
15.9118
 20
37.4859
 10
15.8494
 20
37.5117
 10
15.2552
 20
37.7579
 10
14.6567
 20
37.9936
 10
14.5939
 20
38.0184
 10
14.5307
 20
38.042
 10
13.9282
 20
38.2673
 10
13.8645
 20
38.2898
 10
13.2582
 20
38.5045
 10
13.1942
 20
38.526
 10
12.5842
 20
38.7301
 10
11.9707
 20
38.9235
 10
11.9063
 20
38.9438
 10
11.8416
 20
38.963
 10
11.2248
 20
39.1456
 10
10.605
 20
39.3175
 10
10.5399
 20
39.3356
 10
10.4746
 20
39.3525
 10
9.85183
 20
39.5135
 10
9.22637
 20
39.6637
 10
9.16073
 20
39.6795
 10
9.09481
 20
39.6941
 10
8.46683
 20
39.8333
 10
7.83651
 20
39.9615
 10
7.77035
 20
39.975
 10
7.70397
 20
39.9873
 10
7.07151
 20
40.1045
 10
7.00492
 20
40.1157
 10
6.37051
 20
40.2218
 10
5.73434
 20
40.3169
 10
5.66757
 20
40.3269
 10
5.60064
 20
40.3357
 10
4.96291
 20
40.4197
 10
4.32381
 20
40.4925
 10
4.25673
 20
40.5001
 10
4.18953
 20
40.5066
 10
3.54926
 20
40.5682
 10
2.90801
 20
40.6187
 10
2.84071
 20
40.624
 10
2.19867
 20
40.6633
 10
2.13129
 20
40.6674
 10
1.48867
 20
40.6954
 10
1.42122
 20
40.6984
 10
1.35373
 20
40.7002
 10
0.710718
 20
40.717
 10
0.0675099
 20
40.7226
 10
0
 20
40.7232
 10
-0.0675099
 20
40.7226
 10
-0.710718
 20
40.717
 10
-1.35373
 20
40.7002
 10
-1.42122
 20
40.6984
 10
-1.48867
 20
40.6954
 10
-2.13129
 20
40.6674
 10
-2.19867
 20
40.6633
 10
-2.84071
 20
40.624
 10
-2.90801
 20
40.6187
 10
-3.54926
 20
40.5682
 10
-4.18953
 20
40.5066
 10
-4.25673
 20
40.5001
 10
-4.32381
 20
40.4925
 10
-4.96291
 20
40.4197
 10
-5.60064
 20
40.3357
 10
-5.66757
 20
40.3269
 10
-5.73434
 20
40.3169
 10
-6.37051
 20
40.2218
 10
-7.00492
 20
40.1157
 10
-7.07151
 20
40.1045
 10
-7.70397
 20
39.9873
 10
-7.77035
 20
39.975
 10
-7.83651
 20
39.9615
 10
-8.46683
 20
39.8333
 10
-9.09481
 20
39.6941
 10
-9.16073
 20
39.6795
 10
-9.22637
 20
39.6637
 10
-9.85183
 20
39.5135
 10
-10.4746
 20
39.3525
 10
-10.5399
 20
39.3356
 10
-10.605
 20
39.3175
 10
-11.2248
 20
39.1456
 10
-11.8416
 20
38.963
 10
-11.9063
 20
38.9438
 10
-11.9707
 20
38.9235
 10
-12.5842
 20
38.7301
 10
-13.1942
 20
38.526
 10
-13.2582
 20
38.5045
 10
-13.8645
 20
38.2898
 10
-13.9282
 20
38.2673
 10
-14.5307
 20
38.042
 10
-14.5939
 20
38.0184
 10
-14.6567
 20
37.9936
 10
-15.2552
 20
37.7579
 10
-15.8494
 20
37.5117
 10
-15.9118
 20
37.4859
 10
-16.5017
 20
37.2294
 10
-16.5636
 20
37.2025
 10
-16.625
 20
37.1745
 10
-17.2104
 20
36.9077
 10
-17.7909
 20
36.6308
 10
-17.8519
 20
36.6018
 10
-17.9123
 20
36.5716
 10
-18.4879
 20
36.2846
 10
-19.0585
 20
35.9876
 10
-19.1184
 20
35.9564
 10
-19.1777
 20
35.9242
 10
-19.743
 20
35.6173
 10
-20.3028
 20
35.3006
 10
-20.3616
 20
35.2673
 10
-20.4198
 20
35.2331
 10
-20.974
 20
34.9066
 10
-21.0316
 20
34.8713
 10
-21.58
 20
34.5352
 10
-21.6369
 20
34.499
 10
-22.1794
 20
34.1533
 10
-22.2357
 20
34.1161
 10
-22.7721
 20
33.7611
 10
-23.3022
 20
33.3967
 10
-23.3579
 20
33.3585
 10
-23.4128
 20
33.3193
 10
-23.9365
 20
32.9458
 10
-23.9908
 20
32.9056
 10
-24.5078
 20
32.523
 10
-24.5614
 20
32.4819
 10
-25.0717
 20
32.0903
 10
-25.5751
 20
31.6899
 10
-25.6279
 20
31.6479
 10
-25.68
 20
31.6049
 10
-26.1764
 20
31.1958
 10
-26.2277
 20
31.1519
 10
-26.7168
 20
30.7342
 10
-27.1986
 20
30.308
 10
-27.2491
 20
30.2632
 10
-27.2989
 20
30.2176
 10
-27.7732
 20
29.7831
 10
-28.2397
 20
29.3403
 10
-28.2887
 20
29.2938
 10
-28.3369
 20
29.2465
 10
-28.7956
 20
28.7956
 10
-29.2465
 20
28.3369
 10
-29.2938
 20
28.2887
 10
-29.3403
 20
28.2397
 10
-29.7831
 20
27.7732
 10
-30.2176
 20
27.2989
 10
-30.2632
 20
27.2491
 10
-30.308
 20
27.1986
 10
-30.7342
 20
26.7168
 10
-31.1519
 20
26.2277
 10
-31.1958
 20
26.1764
 10
-31.6049
 20
25.68
 10
-31.6479
 20
25.6279
 10
-31.6899
 20
25.5751
 10
-32.0903
 20
25.0717
 10
-32.4819
 20
24.5614
 10
-32.523
 20
24.5078
 10
-32.9056
 20
23.9908
 10
-32.9458
 20
23.9365
 10
-33.3193
 20
23.4128
 10
-33.3585
 20
23.3579
 10
-33.3967
 20
23.3022
 10
-33.7611
 20
22.7721
 10
-34.1161
 20
22.2357
 10
-34.1533
 20
22.1794
 10
-34.499
 20
21.6369
 10
-34.5352
 20
21.58
 10
-34.8713
 20
21.0316
 10
-34.9066
 20
20.974
 10
-35.2331
 20
20.4198
 10
-35.2673
 20
20.3616
 10
-35.3006
 20
20.3028
 10
-35.6173
 20
19.743
 10
-35.9242
 20
19.1777
 10
-35.9564
 20
19.1184
 10
-35.9876
 20
19.0585
 10
-36.2846
 20
18.4879
 10
-36.5716
 20
17.9123
 10
-36.6018
 20
17.8519
 10
-36.6308
 20
17.7909
 10
-36.9077
 20
17.2104
 10
-37.1745
 20
16.625
 10
-37.2025
 20
16.5636
 10
-37.2294
 20
16.5017
 10
-37.4859
 20
15.9118
 10
-37.5117
 20
15.8494
 10
-37.7579
 20
15.2552
 10
-37.9936
 20
14.6567
 10
-38.0184
 20
14.5939
 10
-38.042
 20
14.5307
 10
-38.2673
 20
13.9282
 10
-38.2898
 20
13.8645
 10
-38.5045
 20
13.2582
 10
-38.526
 20
13.1942
 10
-38.7301
 20
12.5842
 10
-38.9235
 20
11.9707
 10
-38.9438
 20
11.9063
 10
-38.963
 20
11.8416
 10
-39.1456
 20
11.2248
 10
-39.3175
 20
10.605
 10
-39.3356
 20
10.5399
 10
-39.3525
 20
10.4746
 10
-39.5135
 20
9.85183
 10
-39.6637
 20
9.22637
 10
-39.6795
 20
9.16073
 10
-39.6941
 20
9.09481
 10
-39.8333
 20
8.46683
 10
-39.9615
 20
7.83651
 10
-39.975
 20
7.77035
 10
-39.9873
 20
7.70397
 10
-40.1045
 20
7.07151
 10
-40.1157
 20
7.00492
 10
-40.2218
 20
6.37051
 10
-40.3169
 20
5.73434
 10
-40.3269
 20
5.66757
 10
-40.3357
 20
5.60064
 10
-40.4197
 20
4.96291
 10
-40.4925
 20
4.32381
 10
-40.5001
 20
4.25673
 10
-40.5066
 20
4.18953
 10
-40.5682
 20
3.54926
 10
-40.6187
 20
2.90801
 10
-40.624
 20
2.84071
 10
-40.6633
 20
2.19867
 10
-40.6674
 20
2.13129
 10
-40.6954
 20
1.48867
 10
-40.6984
 20
1.42122
 10
-40.7002
 20
1.35373
 10
-40.717
 20
0.710718
 10
-40.7226
 20
0.0675099
  0
LWPOLYLINE
100
AcDbEntity
  8
0
100
AcDbPolyline
 90
60
 70
1
 10
-13
 20
0
 10
-12.9836
 20
0.313585
 10
-12.9344
 20
0.623734
 10
-12.8532
 20
0.927051
 10
-12.7406
 20
1.22021
 10
-12.5981
 20
1.5
 10
-12.4271
 20
1.76336
 10
-12.2294
 20
2.00739
 10
-12.0074
 20
2.22943
 10
-11.7634
 20
2.42705
 10
-11.5
 20
2.59808
 10
-11.2202
 20
2.74064
 10
-10.9271
 20
2.85317
 10
-10.6237
 20
2.93444
 10
-10.3136
 20
2.98357
 10
-10
 20
3
 10
-9.68641
 20
2.98357
 10
-9.37626
 20
2.93444
 10
-9.07295
 20
2.85317
 10
-8.77979
 20
2.74064
 10
-8.5
 20
2.59808
 10
-8.23664
 20
2.42705
 10
-7.99261
 20
2.22943
 10
-7.77057
 20
2.00739
 10
-7.57295
 20
1.76336
 10
-7.40192
 20
1.5
 10
-7.25936
 20
1.22021
 10
-7.14683
 20
0.927051
 10
-7.06556
 20
0.623734
 10
-7.01643
 20
0.313585
 10
-7
 20
0
 10
-7.01643
 20
-0.313585
 10
-7.06556
 20
-0.623734
 10
-7.14683
 20
-0.927051
 10
-7.25936
 20
-1.22021
 10
-7.40192
 20
-1.5
 10
-7.57295
 20
-1.76336
 10
-7.77057
 20
-2.00739
 10
-7.99261
 20
-2.22943
 10
-8.23664
 20
-2.42705
 10
-8.5
 20
-2.59808
 10
-8.77979
 20
-2.74064
 10
-9.07295
 20
-2.85317
 10
-9.37626
 20
-2.93444
 10
-9.68641
 20
-2.98357
 10
-10
 20
-3
 10
-10.3136
 20
-2.98357
 10
-10.6237
 20
-2.93444
 10
-10.9271
 20
-2.85317
 10
-11.2202
 20
-2.74064
 10
-11.5
 20
-2.59808
 10
-11.7634
 20
-2.42705
 10
-12.0074
 20
-2.22943
 10
-12.2294
 20
-2.00739
 10
-12.4271
 20
-1.76336
 10
-12.5981
 20
-1.5
 10
-12.7406
 20
-1.22021
 10
-12.8532
 20
-0.927051
 10
-12.9344
 20
-0.623734
 10
-12.9836
 20
-0.313585
  0
LWPOLYLINE
100
AcDbEntity
  8
0
100
AcDbPolyline
 90
60
 70
1
 10
-3
 20
-10
 10
-2.98357
 20
-9.68641
 10
-2.93444
 20
-9.37626
 10
-2.85317
 20
-9.07295
 10
-2.74064
 20
-8.77979
 10
-2.59808
 20
-8.5
 10
-2.42705
 20
-8.23664
 10
-2.22943
 20
-7.99261
 10
-2.00739
 20
-7.77057
 10
-1.76336
 20
-7.57295
 10
-1.5
 20
-7.40192
 10
-1.22021
 20
-7.25936
 10
-0.927051
 20
-7.14683
 10
-0.623734
 20
-7.06556
 10
-0.313585
 20
-7.01643
 10
0
 20
-7
 10
0.313585
 20
-7.01643
 10
0.623734
 20
-7.06556
 10
0.927051
 20
-7.14683
 10
1.22021
 20
-7.25936
 10
1.5
 20
-7.40192
 10
1.76336
 20
-7.57295
 10
2.00739
 20
-7.77057
 10
2.22943
 20
-7.99261
 10
2.42705
 20
-8.23664
 10
2.59808
 20
-8.5
 10
2.74064
 20
-8.77979
 10
2.85317
 20
-9.07295
 10
2.93444
 20
-9.37626
 10
2.98357
 20
-9.68641
 10
3
 20
-10
 10
2.98357
 20
-10.3136
 10
2.93444
 20
-10.6237
 10
2.85317
 20
-10.9271
 10
2.74064
 20
-11.2202
 10
2.59808
 20
-11.5
 10
2.42705
 20
-11.7634
 10
2.22943
 20
-12.0074
 10
2.00739
 20
-12.2294
 10
1.76336
 20
-12.4271
 10
1.5
 20
-12.5981
 10
1.22021
 20
-12.7406
 10
0.927051
 20
-12.8532
 10
0.623734
 20
-12.9344
 10
0.313585
 20
-12.9836
 10
0
 20
-13
 10
-0.313585
 20
-12.9836
 10
-0.623734
 20
-12.9344
 10
-0.927051
 20
-12.8532
 10
-1.22021
 20
-12.7406
 10
-1.5
 20
-12.5981
 10
-1.76336
 20
-12.4271
 10
-2.00739
 20
-12.2294
 10
-2.22943
 20
-12.0074
 10
-2.42705
 20
-11.7634
 10
-2.59808
 20
-11.5
 10
-2.74064
 20
-11.2202
 10
-2.85317
 20
-10.9271
 10
-2.93444
 20
-10.6237
 10
-2.98357
 20
-10.3136
  0
LWPOLYLINE
100
AcDbEntity
  8
0
100
AcDbPolyline
 90
60
 70
1
 10
-3
 20
10
 10
-2.98357
 20
10.3136
 10
-2.93444
 20
10.6237
 10
-2.85317
 20
10.9271
 10
-2.74064
 20
11.2202
 10
-2.59808
 20
11.5
 10
-2.42705
 20
11.7634
 10
-2.22943
 20
12.0074
 10
-2.00739
 20
12.2294
 10
-1.76336
 20
12.4271
 10
-1.5
 20
12.5981
 10
-1.22021
 20
12.7406
 10
-0.927051
 20
12.8532
 10
-0.623734
 20
12.9344
 10
-0.313585
 20
12.9836
 10
0
 20
13
 10
0.313585
 20
12.9836
 10
0.623734
 20
12.9344
 10
0.927051
 20
12.8532
 10
1.22021
 20
12.7406
 10
1.5
 20
12.5981
 10
1.76336
 20
12.4271
 10
2.00739
 20
12.2294
 10
2.22943
 20
12.0074
 10
2.42705
 20
11.7634
 10
2.59808
 20
11.5
 10
2.74064
 20
11.2202
 10
2.85317
 20
10.9271
 10
2.93444
 20
10.6237
 10
2.98357
 20
10.3136
 10
3
 20
10
 10
2.98357
 20
9.68641
 10
2.93444
 20
9.37626
 10
2.85317
 20
9.07295
 10
2.74064
 20
8.77979
 10
2.59808
 20
8.5
 10
2.42705
 20
8.23664
 10
2.22943
 20
7.99261
 10
2.00739
 20
7.77057
 10
1.76336
 20
7.57295
 10
1.5
 20
7.40192
 10
1.22021
 20
7.25936
 10
0.927051
 20
7.14683
 10
0.623734
 20
7.06556
 10
0.313585
 20
7.01643
 10
0
 20
7
 10
-0.313585
 20
7.01643
 10
-0.623734
 20
7.06556
 10
-0.927051
 20
7.14683
 10
-1.22021
 20
7.25936
 10
-1.5
 20
7.40192
 10
-1.76336
 20
7.57295
 10
-2.00739
 20
7.77057
 10
-2.22943
 20
7.99261
 10
-2.42705
 20
8.23664
 10
-2.59808
 20
8.5
 10
-2.74064
 20
8.77979
 10
-2.85317
 20
9.07295
 10
-2.93444
 20
9.37626
 10
-2.98357
 20
9.68641
  0
LWPOLYLINE
100
AcDbEntity
  8
0
100
AcDbPolyline
 90
60
 70
1
 10
7
 20
0
 10
7.01643
 20
0.313585
 10
7.06556
 20
0.623734
 10
7.14683
 20
0.927051
 10
7.25936
 20
1.22021
 10
7.40192
 20
1.5
 10
7.57295
 20
1.76336
 10
7.77057
 20
2.00739
 10
7.99261
 20
2.22943
 10
8.23664
 20
2.42705
 10
8.5
 20
2.59808
 10
8.77979
 20
2.74064
 10
9.07295
 20
2.85317
 10
9.37626
 20
2.93444
 10
9.68641
 20
2.98357
 10
10
 20
3
 10
10.3136
 20
2.98357
 10
10.6237
 20
2.93444
 10
10.9271
 20
2.85317
 10
11.2202
 20
2.74064
 10
11.5
 20
2.59808
 10
11.7634
 20
2.42705
 10
12.0074
 20
2.22943
 10
12.2294
 20
2.00739
 10
12.4271
 20
1.76336
 10
12.5981
 20
1.5
 10
12.7406
 20
1.22021
 10
12.8532
 20
0.927051
 10
12.9344
 20
0.623734
 10
12.9836
 20
0.313585
 10
13
 20
0
 10
12.9836
 20
-0.313585
 10
12.9344
 20
-0.623734
 10
12.8532
 20
-0.927051
 10
12.7406
 20
-1.22021
 10
12.5981
 20
-1.5
 10
12.4271
 20
-1.76336
 10
12.2294
 20
-2.00739
 10
12.0074
 20
-2.22943
 10
11.7634
 20
-2.42705
 10
11.5
 20
-2.59808
 10
11.2202
 20
-2.74064
 10
10.9271
 20
-2.85317
 10
10.6237
 20
-2.93444
 10
10.3136
 20
-2.98357
 10
10
 20
-3
 10
9.68641
 20
-2.98357
 10
9.37626
 20
-2.93444
 10
9.07295
 20
-2.85317
 10
8.77979
 20
-2.74064
 10
8.5
 20
-2.59808
 10
8.23664
 20
-2.42705
 10
7.99261
 20
-2.22943
 10
7.77057
 20
-2.00739
 10
7.57295
 20
-1.76336
 10
7.40192
 20
-1.5
 10
7.25936
 20
-1.22021
 10
7.14683
 20
-0.927051
 10
7.06556
 20
-0.623734
 10
7.01643
 20
-0.313585
  0
ENDSEC
  0
EOF
