999
DXF from OpenSCAD
  0
SECTION
  2
HEADER
  9
$ACADVER
  1
AC1006
  9
$INSBASE
 10
0.0
 20
0.0
 30
0.0
  9
$EXTMIN
 10
-149.167
 20
-160.4
  9
$EXTMAX
 10
130
 20
160.4
  9
$LINMIN
 10
-149.167
 20
-160.4
  9
$LINMAX
 10
130
 20
160.4
  0
ENDSEC
  0
SECTION
  2
TABLES
  0
TABLE
  2
LTYPE
 70
1
  0
LTYPE
  2
CONTINUOUS
 70
64
  3
Solid line
 72
65
 73
0
 40
0.000000
  0
ENDTAB
  0
TABLE
  2
LAYER
 70
6
  0
LAYER
  2
0
 70
64
 62
7
  6
CONTINUOUS
  0
ENDTAB
  0
TABLE
  2
STYLE
 70
0
  0
ENDTAB
  0
ENDSEC
  0
SECTION
  2
BLOCKS
  0
ENDSEC
  0
SECTION
  2
ENTITIES
  0
LWPOLYLINE
100
AcDbEntity
  8
0
100
AcDbPolyline
 90
264
 70
1
 10
-149.167
 20
0
 10
-149.154
 20
-1.43982
 10
-149.116
 20
-2.87921
 10
-149.054
 20
-4.31772
 10
-148.966
 20
-5.75491
 10
-148.853
 20
-7.19035
 10
-148.715
 20
-8.6236
 10
-148.552
 20
-10.0542
 10
-148.364
 20
-11.4818
 10
-148.151
 20
-12.9058
 10
-147.913
 20
-14.326
 10
-147.651
 20
-15.7417
 10
-147.364
 20
-17.1527
 10
-147.052
 20
-18.5585
 10
-146.716
 20
-19.9586
 10
-146.356
 20
-21.3526
 10
-145.971
 20
-22.7401
 10
-145.562
 20
-24.1207
 10
-145.129
 20
-25.4939
 10
-144.672
 20
-26.8594
 10
-144.191
 20
-28.2167
 10
-143.687
 20
-29.5654
 10
-143.159
 20
-30.905
 10
-142.608
 20
-32.2353
 10
-142.034
 20
-33.5558
 10
-141.437
 20
-34.866
 10
-140.817
 20
-36.1656
 10
-140.175
 20
-37.4542
 10
-139.51
 20
-38.7314
 10
-138.823
 20
-39.9968
 10
-138.114
 20
-41.25
 10
-137.383
 20
-42.4906
 10
-136.631
 20
-43.7183
 10
-135.857
 20
-44.9327
 10
-135.062
 20
-46.1334
 10
-134.247
 20
-47.3201
 10
-133.411
 20
-48.4923
 10
-132.554
 20
-49.6497
 10
-131.678
 20
-50.7921
 10
-130.781
 20
-51.9189
 10
-129.865
 20
-53.03
 10
-128.93
 20
-54.1249
 10
-127.976
 20
-55.2033
 10
-127.003
 20
-56.2649
 10
-126.012
 20
-57.3093
 10
-125.003
 20
-58.3363
 10
-123.976
 20
-59.3455
 10
-122.932
 20
-60.3367
 10
-75.0099
 20
-105.176
 10
-74.3022
 20
-105.825
 10
-73.5832
 20
-106.461
 10
-72.8533
 20
-107.084
 10
-72.1126
 20
-107.695
 10
-13.6503
 20
-155.16
 10
-11.9908
 20
-156.504
 10
-10.2
 20
-157.667
 10
-8.29743
 20
-158.636
 10
-6.30395
 20
-159.402
 10
-4.2414
 20
-159.954
 10
-2.13238
 20
-160.288
 10
0
 20
-160.4
 10
2.13238
 20
-160.288
 10
4.2414
 20
-159.954
 10
6.30395
 20
-159.402
 10
8.29743
 20
-158.636
 10
66.8891
 20
-133.103
 10
68.1993
 20
-132.505
 10
69.499
 20
-131.886
 10
70.7875
 20
-131.243
 10
72.0647
 20
-130.578
 10
73.3301
 20
-129.891
 10
74.5833
 20
-129.182
 10
75.824
 20
-128.451
 10
77.0517
 20
-127.699
 10
78.2661
 20
-126.925
 10
79.4667
 20
-126.131
 10
80.6534
 20
-125.315
 10
81.8256
 20
-124.479
 10
82.9831
 20
-123.622
 10
84.1254
 20
-122.746
 10
85.2523
 20
-121.85
 10
86.3633
 20
-120.934
 10
87.4582
 20
-119.999
 10
88.5366
 20
-119.044
 10
89.5982
 20
-118.072
 10
90.6426
 20
-117.081
 10
91.6696
 20
-116.071
 10
92.6789
 20
-115.044
 10
93.67
 20
-114
 10
94.6428
 20
-112.938
 10
95.5969
 20
-111.86
 10
96.532
 20
-110.765
 10
97.4479
 20
-109.654
 10
98.3442
 20
-108.527
 10
99.2208
 20
-107.385
 10
100.077
 20
-106.227
 10
100.913
 20
-105.055
 10
101.729
 20
-103.868
 10
102.524
 20
-102.668
 10
103.297
 20
-101.453
 10
104.05
 20
-100.226
 10
104.78
 20
-98.985
 10
105.489
 20
-97.7318
 10
106.177
 20
-96.4664
 10
106.841
 20
-95.1892
 10
107.484
 20
-93.9006
 10
108.104
 20
-92.601
 10
108.701
 20
-91.2908
 10
109.275
 20
-89.9703
 10
109.826
 20
-88.6401
 10
110.354
 20
-87.3004
 10
110.858
 20
-85.9517
 10
111.339
 20
-84.5944
 10
111.795
 20
-83.2289
 10
112.228
 20
-81.8557
 10
112.637
 20
-80.4751
 10
113.022
 20
-79.0876
 10
113.383
 20
-77.6936
 10
113.719
 20
-76.2935
 10
128.59
 20
-12.3723
 10
128.798
 20
-11.4351
 10
128.989
 20
-10.4945
 10
129.164
 20
-9.55065
 10
129.323
 20
-8.6039
 10
129.465
 20
-7.65452
 10
129.59
 20
-6.70281
 10
129.699
 20
-5.74907
 10
129.791
 20
-4.79357
 10
129.866
 20
-3.83661
 10
129.925
 20
-2.87848
 10
129.966
 20
-1.91947
 10
129.992
 20
-0.959882
 10
130
 20
0
 10
129.992
 20
0.959882
 10
129.966
 20
1.91947
 10
129.925
 20
2.87848
 10
129.866
 20
3.83661
 10
129.791
 20
4.79357
 10
129.699
 20
5.74907
 10
129.59
 20
6.70281
 10
129.465
 20
7.65452
 10
129.323
 20
8.6039
 10
129.164
 20
9.55065
 10
128.989
 20
10.4945
 10
128.798
 20
11.4351
 10
128.59
 20
12.3723
 10
113.719
 20
76.2935
 10
113.383
 20
77.6936
 10
113.022
 20
79.0876
 10
112.637
 20
80.4751
 10
112.228
 20
81.8557
 10
111.795
 20
83.2289
 10
111.339
 20
84.5944
 10
110.858
 20
85.9517
 10
110.354
 20
87.3004
 10
109.826
 20
88.6401
 10
109.275
 20
89.9703
 10
108.701
 20
91.2908
 10
108.104
 20
92.601
 10
107.484
 20
93.9006
 10
106.841
 20
95.1892
 10
106.177
 20
96.4664
 10
105.489
 20
97.7318
 10
104.78
 20
98.985
 10
104.05
 20
100.226
 10
103.297
 20
101.453
 10
102.524
 20
102.668
 10
101.729
 20
103.868
 10
100.913
 20
105.055
 10
100.077
 20
106.227
 10
99.2208
 20
107.385
 10
98.3442
 20
108.527
 10
97.4479
 20
109.654
 10
96.532
 20
110.765
 10
95.5969
 20
111.86
 10
94.6428
 20
112.938
 10
93.67
 20
114
 10
92.6789
 20
115.044
 10
91.6696
 20
116.071
 10
90.6426
 20
117.081
 10
89.5982
 20
118.072
 10
88.5366
 20
119.044
 10
87.4582
 20
119.999
 10
86.3633
 20
120.934
 10
85.2523
 20
121.85
 10
84.1254
 20
122.746
 10
82.9831
 20
123.622
 10
81.8256
 20
124.479
 10
80.6534
 20
125.315
 10
79.4667
 20
126.131
 10
78.2661
 20
126.925
 10
77.0517
 20
127.699
 10
75.824
 20
128.451
 10
74.5833
 20
129.182
 10
73.3301
 20
129.891
 10
72.0647
 20
130.578
 10
70.7875
 20
131.243
 10
69.499
 20
131.886
 10
68.1993
 20
132.505
 10
66.8891
 20
133.103
 10
8.29743
 20
158.636
 10
6.30395
 20
159.402
 10
4.2414
 20
159.954
 10
2.13238
 20
160.288
 10
0
 20
160.4
 10
-2.13238
 20
160.288
 10
-4.2414
 20
159.954
 10
-6.30395
 20
159.402
 10
-8.29743
 20
158.636
 10
-10.2
 20
157.667
 10
-11.9908
 20
156.504
 10
-13.6503
 20
155.16
 10
-72.1126
 20
107.695
 10
-72.8533
 20
107.084
 10
-73.5832
 20
106.461
 10
-74.3022
 20
105.825
 10
-75.0099
 20
105.176
 10
-122.932
 20
60.3367
 10
-123.976
 20
59.3455
 10
-125.003
 20
58.3363
 10
-126.012
 20
57.3093
 10
-127.003
 20
56.2649
 10
-127.976
 20
55.2033
 10
-128.93
 20
54.1249
 10
-129.865
 20
53.03
 10
-130.781
 20
51.9189
 10
-131.678
 20
50.7921
 10
-132.554
 20
49.6497
 10
-133.411
 20
48.4923
 10
-134.247
 20
47.3201
 10
-135.062
 20
46.1334
 10
-135.857
 20
44.9327
 10
-136.631
 20
43.7183
 10
-137.383
 20
42.4906
 10
-138.114
 20
41.25
 10
-138.823
 20
39.9968
 10
-139.51
 20
38.7314
 10
-140.175
 20
37.4542
 10
-140.817
 20
36.1656
 10
-141.437
 20
34.866
 10
-142.034
 20
33.5558
 10
-142.608
 20
32.2353
 10
-143.159
 20
30.905
 10
-143.687
 20
29.5654
 10
-144.191
 20
28.2167
 10
-144.672
 20
26.8594
 10
-145.129
 20
25.4939
 10
-145.562
 20
24.1207
 10
-145.971
 20
22.7401
 10
-146.356
 20
21.3526
 10
-146.716
 20
19.9586
 10
-147.052
 20
18.5585
 10
-147.364
 20
17.1527
 10
-147.651
 20
15.7417
 10
-147.913
 20
14.326
 10
-148.151
 20
12.9058
 10
-148.364
 20
11.4818
 10
-148.552
 20
10.0542
 10
-148.715
 20
8.6236
 10
-148.853
 20
7.19035
 10
-148.966
 20
5.75491
 10
-149.054
 20
4.31772
 10
-149.116
 20
2.87921
 10
-149.154
 20
1.43982
  0
LWPOLYLINE
100
AcDbEntity
  8
0
100
AcDbPolyline
 90
30
 70
1
 10
-139.112
 20
-17.6126
 10
-139.081
 20
-17.1747
 10
-138.96
 20
-16.7527
 10
-138.754
 20
-16.365
 10
-138.472
 20
-16.0287
 10
-138.126
 20
-15.7584
 10
-137.731
 20
-15.566
 10
-137.305
 20
-15.4598
 10
-136.867
 20
-15.4445
 10
-136.434
 20
-15.5207
 10
-136.027
 20
-15.6851
 10
-135.663
 20
-15.9306
 10
-135.358
 20
-16.2464
 10
-135.126
 20
-16.6188
 10
-134.975
 20
-17.0313
 10
-134.914
 20
-17.466
 10
-134.945
 20
-17.904
 10
-135.066
 20
-18.326
 10
-135.272
 20
-18.7136
 10
-135.554
 20
-19.05
 10
-135.9
 20
-19.3202
 10
-136.295
 20
-19.5127
 10
-136.721
 20
-19.6189
 10
-137.16
 20
-19.6342
 10
-137.592
 20
-19.558
 10
-137.999
 20
-19.3935
 10
-138.363
 20
-19.148
 10
-138.668
 20
-18.8322
 10
-138.901
 20
-18.4599
 10
-139.051
 20
-18.0474
  0
LWPOLYLINE
100
AcDbEntity
  8
0
100
AcDbPolyline
 90
30
 70
1
 10
-139.112
 20
17.6126
 10
-139.051
 20
18.0474
 10
-138.901
 20
18.4599
 10
-138.668
 20
18.8322
 10
-138.363
 20
19.148
 10
-137.999
 20
19.3935
 10
-137.592
 20
19.558
 10
-137.16
 20
19.6342
 10
-136.721
 20
19.6189
 10
-136.295
 20
19.5127
 10
-135.9
 20
19.3202
 10
-135.554
 20
19.05
 10
-135.272
 20
18.7136
 10
-135.066
 20
18.326
 10
-134.945
 20
17.904
 10
-134.914
 20
17.466
 10
-134.975
 20
17.0313
 10
-135.126
 20
16.6188
 10
-135.358
 20
16.2464
 10
-135.663
 20
15.9306
 10
-136.027
 20
15.6851
 10
-136.434
 20
15.5207
 10
-136.867
 20
15.4445
 10
-137.305
 20
15.4598
 10
-137.731
 20
15.566
 10
-138.126
 20
15.7584
 10
-138.472
 20
16.0287
 10
-138.754
 20
16.365
 10
-138.96
 20
16.7527
 10
-139.081
 20
17.1747
  0
LWPOLYLINE
100
AcDbEntity
  8
0
100
AcDbPolyline
 90
30
 70
1
 10
-122.633
 20
-48.7315
 10
-122.633
 20
-48.2925
 10
-122.542
 20
-47.863
 10
-122.363
 20
-47.462
 10
-122.105
 20
-47.1068
 10
-121.779
 20
-46.813
 10
-121.399
 20
-46.5935
 10
-120.981
 20
-46.4579
 10
-120.545
 20
-46.412
 10
-120.108
 20
-46.4579
 10
-119.691
 20
-46.5935
 10
-119.31
 20
-46.813
 10
-118.984
 20
-47.1068
 10
-118.726
 20
-47.462
 10
-118.547
 20
-47.863
 10
-118.456
 20
-48.2925
 10
-118.456
 20
-48.7315
 10
-118.547
 20
-49.1609
 10
-118.726
 20
-49.562
 10
-118.984
 20
-49.9171
 10
-119.31
 20
-50.2109
 10
-119.691
 20
-50.4304
 10
-120.108
 20
-50.5661
 10
-120.545
 20
-50.612
 10
-120.981
 20
-50.5661
 10
-121.399
 20
-50.4304
 10
-121.779
 20
-50.2109
 10
-122.105
 20
-49.9171
 10
-122.363
 20
-49.562
 10
-122.542
 20
-49.1609
  0
LWPOLYLINE
100
AcDbEntity
  8
0
100
AcDbPolyline
 90
30
 70
1
 10
-122.633
 20
48.2925
 10
-122.633
 20
48.7315
 10
-122.542
 20
49.1609
 10
-122.363
 20
49.562
 10
-122.105
 20
49.9171
 10
-121.779
 20
50.2109
 10
-121.399
 20
50.4304
 10
-120.981
 20
50.5661
 10
-120.545
 20
50.612
 10
-120.108
 20
50.5661
 10
-119.691
 20
50.4304
 10
-119.31
 20
50.2109
 10
-118.984
 20
49.9171
 10
-118.726
 20
49.562
 10
-118.547
 20
49.1609
 10
-118.456
 20
48.7315
 10
-118.456
 20
48.2925
 10
-118.547
 20
47.863
 10
-118.726
 20
47.462
 10
-118.984
 20
47.1068
 10
-119.31
 20
46.813
 10
-119.691
 20
46.5935
 10
-120.108
 20
46.4579
 10
-120.545
 20
46.412
 10
-120.981
 20
46.4579
 10
-121.399
 20
46.5935
 10
-121.779
 20
46.813
 10
-122.105
 20
47.1068
 10
-122.363
 20
47.462
 10
-122.542
 20
47.863
  0
LWPOLYLINE
100
AcDbEntity
  8
0
100
AcDbPolyline
 90
30
 70
1
 10
-93.5618
 20
-68.0544
 10
-93.5007
 20
-67.6197
 10
-93.3506
 20
-67.2071
 10
-93.1179
 20
-66.8348
 10
-92.813
 20
-66.519
 10
-92.449
 20
-66.2735
 10
-92.042
 20
-66.1091
 10
-91.6096
 20
-66.0328
 10
-91.1709
 20
-66.0482
 10
-90.7449
 20
-66.1544
 10
-90.3503
 20
-66.3468
 10
-90.0043
 20
-66.6171
 10
-89.7221
 20
-66.9534
 10
-89.516
 20
-67.341
 10
-89.395
 20
-67.7631
 10
-89.3644
 20
-68.201
 10
-89.4255
 20
-68.6358
 10
-89.5757
 20
-69.0483
 10
-89.8083
 20
-69.4206
 10
-90.1133
 20
-69.7364
 10
-90.4772
 20
-69.9819
 10
-90.8843
 20
-70.1464
 10
-91.3166
 20
-70.2226
 10
-91.7554
 20
-70.2073
 10
-92.1814
 20
-70.1011
 10
-92.576
 20
-69.9086
 10
-92.9219
 20
-69.6383
 10
-93.2041
 20
-69.302
 10
-93.4102
 20
-68.9144
 10
-93.5312
 20
-68.4924
  0
LWPOLYLINE
100
AcDbEntity
  8
0
100
AcDbPolyline
 90
30
 70
1
 10
-93.5618
 20
68.0544
 10
-93.5312
 20
68.4924
 10
-93.4102
 20
68.9144
 10
-93.2041
 20
69.302
 10
-92.9219
 20
69.6383
 10
-92.576
 20
69.9086
 10
-92.1814
 20
70.1011
 10
-91.7554
 20
70.2073
 10
-91.3166
 20
70.2226
 10
-90.8843
 20
70.1464
 10
-90.4772
 20
69.9819
 10
-90.1133
 20
69.7364
 10
-89.8083
 20
69.4206
 10
-89.5757
 20
69.0483
 10
-89.4255
 20
68.6358
 10
-89.3644
 20
68.201
 10
-89.395
 20
67.7631
 10
-89.516
 20
67.341
 10
-89.7221
 20
66.9534
 10
-90.0043
 20
66.6171
 10
-90.3503
 20
66.3468
 10
-90.7449
 20
66.1544
 10
-91.1709
 20
66.0482
 10
-91.6096
 20
66.0328
 10
-92.042
 20
66.1091
 10
-92.449
 20
66.2735
 10
-92.813
 20
66.519
 10
-93.1179
 20
66.8348
 10
-93.3506
 20
67.2071
 10
-93.5007
 20
67.6197
  0
LWPOLYLINE
100
AcDbEntity
  8
0
100
AcDbPolyline
 90
60
 70
1
 10
-70.7667
 20
0
 10
-70.7442
 20
0.428566
 10
-70.6771
 20
0.852437
 10
-70.566
 20
1.26697
 10
-70.4122
 20
1.66762
 10
-70.2174
 20
2.05
 10
-69.9836
 20
2.40992
 10
-69.7136
 20
2.74343
 10
-69.4101
 20
3.04689
 10
-69.0766
 20
3.31697
 10
-68.7167
 20
3.5507
 10
-68.3343
 20
3.74554
 10
-67.9336
 20
3.89933
 10
-67.5191
 20
4.0104
 10
-67.0952
 20
4.07754
 10
-66.6667
 20
4.1
 10
-66.2381
 20
4.07754
 10
-65.8142
 20
4.0104
 10
-65.3997
 20
3.89933
 10
-64.999
 20
3.74554
 10
-64.6167
 20
3.5507
 10
-64.2567
 20
3.31697
 10
-63.9232
 20
3.04689
 10
-63.6198
 20
2.74343
 10
-63.3497
 20
2.40992
 10
-63.116
 20
2.05
 10
-62.9211
 20
1.66762
 10
-62.7673
 20
1.26697
 10
-62.6563
 20
0.852437
 10
-62.5891
 20
0.428566
 10
-62.5667
 20
0
 10
-62.5891
 20
-0.428566
 10
-62.6563
 20
-0.852437
 10
-62.7673
 20
-1.26697
 10
-62.9211
 20
-1.66762
 10
-63.116
 20
-2.05
 10
-63.3497
 20
-2.40992
 10
-63.6198
 20
-2.74343
 10
-63.9232
 20
-3.04689
 10
-64.2567
 20
-3.31697
 10
-64.6167
 20
-3.5507
 10
-64.999
 20
-3.74554
 10
-65.3997
 20
-3.89933
 10
-65.8142
 20
-4.0104
 10
-66.2381
 20
-4.07754
 10
-66.6667
 20
-4.1
 10
-67.0952
 20
-4.07754
 10
-67.5191
 20
-4.0104
 10
-67.9336
 20
-3.89933
 10
-68.3343
 20
-3.74554
 10
-68.7167
 20
-3.5507
 10
-69.0766
 20
-3.31697
 10
-69.4101
 20
-3.04689
 10
-69.7136
 20
-2.74343
 10
-69.9836
 20
-2.40992
 10
-70.2174
 20
-2.05
 10
-70.4122
 20
-1.66762
 10
-70.566
 20
-1.26697
 10
-70.6771
 20
-0.852437
 10
-70.7442
 20
-0.428566
  0
LWPOLYLINE
100
AcDbEntity
  8
0
100
AcDbPolyline
 90
30
 70
1
 10
-67.0404
 20
-37.7195
 10
-67.0404
 20
-37.2805
 10
-66.9491
 20
-36.8511
 10
-66.7706
 20
-36.45
 10
-66.5125
 20
-36.0948
 10
-66.1863
 20
-35.8011
 10
-65.8061
 20
-35.5816
 10
-65.3885
 20
-35.4459
 10
-64.9519
 20
-35.4
 10
-64.5153
 20
-35.4459
 10
-64.0978
 20
-35.5816
 10
-63.7176
 20
-35.8011
 10
-63.3913
 20
-36.0948
 10
-63.1333
 20
-36.45
 10
-62.9547
 20
-36.8511
 10
-62.8634
 20
-37.2805
 10
-62.8634
 20
-37.7195
 10
-62.9547
 20
-38.1489
 10
-63.1333
 20
-38.55
 10
-63.3913
 20
-38.9052
 10
-63.7176
 20
-39.1989
 10
-64.0978
 20
-39.4184
 10
-64.5153
 20
-39.5541
 10
-64.9519
 20
-39.6
 10
-65.3885
 20
-39.5541
 10
-65.8061
 20
-39.4184
 10
-66.1863
 20
-39.1989
 10
-66.5125
 20
-38.9052
 10
-66.7706
 20
-38.55
 10
-66.9491
 20
-38.1489
  0
LWPOLYLINE
100
AcDbEntity
  8
0
100
AcDbPolyline
 90
30
 70
1
 10
-62.1
 20
-103.923
 10
-62.0541
 20
-103.486
 10
-61.9184
 20
-103.069
 10
-61.6989
 20
-102.689
 10
-61.4052
 20
-102.362
 10
-61.05
 20
-102.104
 10
-60.6489
 20
-101.926
 10
-60.2195
 20
-101.835
 10
-59.7805
 20
-101.835
 10
-59.3511
 20
-101.926
 10
-58.95
 20
-102.104
 10
-58.5948
 20
-102.362
 10
-58.3011
 20
-102.689
 10
-58.0816
 20
-103.069
 10
-57.9459
 20
-103.486
 10
-57.9
 20
-103.923
 10
-57.9459
 20
-104.36
 10
-58.0816
 20
-104.777
 10
-58.3011
 20
-105.157
 10
-58.5948
 20
-105.484
 10
-58.95
 20
-105.742
 10
-59.3511
 20
-105.92
 10
-59.7805
 20
-106.012
 10
-60.2195
 20
-106.012
 10
-60.6489
 20
-105.92
 10
-61.05
 20
-105.742
 10
-61.4052
 20
-105.484
 10
-61.6989
 20
-105.157
 10
-61.9184
 20
-104.777
 10
-62.0541
 20
-104.36
  0
LWPOLYLINE
100
AcDbEntity
  8
0
100
AcDbPolyline
 90
30
 70
1
 10
-62.1
 20
103.923
 10
-62.0541
 20
104.36
 10
-61.9184
 20
104.777
 10
-61.6989
 20
105.157
 10
-61.4052
 20
105.484
 10
-61.05
 20
105.742
 10
-60.6489
 20
105.92
 10
-60.2195
 20
106.012
 10
-59.7805
 20
106.012
 10
-59.3511
 20
105.92
 10
-58.95
 20
105.742
 10
-58.5948
 20
105.484
 10
-58.3011
 20
105.157
 10
-58.0816
 20
104.777
 10
-57.9459
 20
104.36
 10
-57.9
 20
103.923
 10
-57.9459
 20
103.486
 10
-58.0816
 20
103.069
 10
-58.3011
 20
102.689
 10
-58.5948
 20
102.362
 10
-58.95
 20
102.104
 10
-59.3511
 20
101.926
 10
-59.7805
 20
101.835
 10
-60.2195
 20
101.835
 10
-60.6489
 20
101.926
 10
-61.05
 20
102.104
 10
-61.4052
 20
102.362
 10
-61.6989
 20
102.689
 10
-61.9184
 20
103.069
 10
-62.0541
 20
103.486
  0
LWPOLYLINE
100
AcDbEntity
  8
0
100
AcDbPolyline
 90
360
 70
1
 10
-43.2
 20
0
 10
-43.1934
 20
0.753943
 10
-43.1737
 20
1.50766
 10
-43.1408
 20
2.26091
 10
-43.0948
 20
3.01348
 10
-43.0356
 20
3.76513
 10
-42.9633
 20
4.51563
 10
-42.878
 20
5.26476
 10
-42.7796
 20
6.01228
 10
-42.6681
 20
6.75797
 10
-42.5437
 20
7.5016
 10
-42.4063
 20
8.24295
 10
-42.256
 20
8.98178
 10
-42.0928
 20
9.71789
 10
-41.9168
 20
10.451
 10
-41.728
 20
11.181
 10
-41.5265
 20
11.9075
 10
-41.3124
 20
12.6305
 10
-41.0856
 20
13.3495
 10
-40.8464
 20
14.0645
 10
-40.5947
 20
14.7753
 10
-40.3307
 20
15.4815
 10
-40.0543
 20
16.183
 10
-39.7658
 20
16.8796
 10
-39.4652
 20
17.571
 10
-39.1525
 20
18.2571
 10
-38.8279
 20
18.9376
 10
-38.4915
 20
19.6124
 10
-38.1433
 20
20.2812
 10
-37.7836
 20
20.9438
 10
-37.4123
 20
21.6
 10
-37.0296
 20
22.2496
 10
-36.6357
 20
22.8925
 10
-36.2306
 20
23.5284
 10
-35.8144
 20
24.1571
 10
-35.3874
 20
24.7785
 10
-34.9495
 20
25.3923
 10
-34.5011
 20
25.9984
 10
-34.0421
 20
26.5966
 10
-33.5727
 20
27.1866
 10
-33.0931
 20
27.7684
 10
-32.6035
 20
28.3417
 10
-32.1039
 20
28.9064
 10
-31.5945
 20
29.4623
 10
-31.0755
 20
30.0092
 10
-30.547
 20
30.547
 10
-30.0092
 20
31.0755
 10
-29.4623
 20
31.5945
 10
-28.9064
 20
32.1039
 10
-28.3417
 20
32.6035
 10
-27.7684
 20
33.0931
 10
-27.1866
 20
33.5727
 10
-26.5966
 20
34.0421
 10
-25.9984
 20
34.5011
 10
-25.3923
 20
34.9495
 10
-24.7785
 20
35.3874
 10
-24.1571
 20
35.8144
 10
-23.5284
 20
36.2306
 10
-22.8925
 20
36.6357
 10
-22.2496
 20
37.0296
 10
-21.6
 20
37.4123
 10
-20.9438
 20
37.7836
 10
-20.2812
 20
38.1433
 10
-19.6124
 20
38.4915
 10
-18.9376
 20
38.8279
 10
-18.2571
 20
39.1525
 10
-17.571
 20
39.4652
 10
-16.8796
 20
39.7658
 10
-16.183
 20
40.0543
 10
-15.4815
 20
40.3307
 10
-14.7753
 20
40.5947
 10
-14.0645
 20
40.8464
 10
-13.3495
 20
41.0856
 10
-12.6305
 20
41.3124
 10
-11.9075
 20
41.5265
 10
-11.181
 20
41.728
 10
-10.451
 20
41.9168
 10
-9.71789
 20
42.0928
 10
-8.98178
 20
42.256
 10
-8.24295
 20
42.4063
 10
-7.5016
 20
42.5437
 10
-6.75797
 20
42.6681
 10
-6.01228
 20
42.7796
 10
-5.26476
 20
42.878
 10
-4.51563
 20
42.9633
 10
-3.76513
 20
43.0356
 10
-3.01348
 20
43.0948
 10
-2.26091
 20
43.1408
 10
-1.50766
 20
43.1737
 10
-0.753943
 20
43.1934
 10
0
 20
43.2
 10
0.753943
 20
43.1934
 10
1.50766
 20
43.1737
 10
2.26091
 20
43.1408
 10
3.01348
 20
43.0948
 10
3.76513
 20
43.0356
 10
4.51563
 20
42.9633
 10
5.26476
 20
42.878
 10
6.01228
 20
42.7796
 10
6.75797
 20
42.6681
 10
7.5016
 20
42.5437
 10
8.24295
 20
42.4063
 10
8.98178
 20
42.256
 10
9.71789
 20
42.0928
 10
10.451
 20
41.9168
 10
11.181
 20
41.728
 10
11.9075
 20
41.5265
 10
12.6305
 20
41.3124
 10
13.3495
 20
41.0856
 10
14.0645
 20
40.8464
 10
14.7753
 20
40.5947
 10
15.4815
 20
40.3307
 10
16.183
 20
40.0543
 10
16.8796
 20
39.7658
 10
17.571
 20
39.4652
 10
18.2571
 20
39.1525
 10
18.9376
 20
38.8279
 10
19.6124
 20
38.4915
 10
20.2812
 20
38.1433
 10
20.9438
 20
37.7836
 10
21.6
 20
37.4123
 10
22.2496
 20
37.0296
 10
22.8925
 20
36.6357
 10
23.5284
 20
36.2306
 10
24.1571
 20
35.8144
 10
24.7785
 20
35.3874
 10
25.3923
 20
34.9495
 10
25.9984
 20
34.5011
 10
26.5966
 20
34.0421
 10
27.1866
 20
33.5727
 10
27.7684
 20
33.0931
 10
28.3417
 20
32.6035
 10
28.9064
 20
32.1039
 10
29.4623
 20
31.5945
 10
30.0092
 20
31.0755
 10
30.547
 20
30.547
 10
31.0755
 20
30.0092
 10
31.5945
 20
29.4623
 10
32.1039
 20
28.9064
 10
32.6035
 20
28.3417
 10
33.0931
 20
27.7684
 10
33.5727
 20
27.1866
 10
34.0421
 20
26.5966
 10
34.5011
 20
25.9984
 10
34.9495
 20
25.3923
 10
35.3874
 20
24.7785
 10
35.8144
 20
24.1571
 10
36.2306
 20
23.5284
 10
36.6357
 20
22.8925
 10
37.0296
 20
22.2496
 10
37.4123
 20
21.6
 10
37.7836
 20
20.9438
 10
38.1433
 20
20.2812
 10
38.4915
 20
19.6124
 10
38.8279
 20
18.9376
 10
39.1525
 20
18.2571
 10
39.4652
 20
17.571
 10
39.7658
 20
16.8796
 10
40.0543
 20
16.183
 10
40.3307
 20
15.4815
 10
40.5947
 20
14.7753
 10
40.8464
 20
14.0645
 10
41.0856
 20
13.3495
 10
41.3124
 20
12.6305
 10
41.5265
 20
11.9075
 10
41.728
 20
11.181
 10
41.9168
 20
10.451
 10
42.0928
 20
9.71789
 10
42.256
 20
8.98178
 10
42.4063
 20
8.24295
 10
42.5437
 20
7.5016
 10
42.6681
 20
6.75797
 10
42.7796
 20
6.01228
 10
42.878
 20
5.26476
 10
42.9633
 20
4.51563
 10
43.0356
 20
3.76513
 10
43.0948
 20
3.01348
 10
43.1408
 20
2.26091
 10
43.1737
 20
1.50766
 10
43.1934
 20
0.753943
 10
43.2
 20
0
 10
43.1934
 20
-0.753943
 10
43.1737
 20
-1.50766
 10
43.1408
 20
-2.26091
 10
43.0948
 20
-3.01348
 10
43.0356
 20
-3.76513
 10
42.9633
 20
-4.51563
 10
42.878
 20
-5.26476
 10
42.7796
 20
-6.01228
 10
42.6681
 20
-6.75797
 10
42.5437
 20
-7.5016
 10
42.4063
 20
-8.24295
 10
42.256
 20
-8.98178
 10
42.0928
 20
-9.71789
 10
41.9168
 20
-10.451
 10
41.728
 20
-11.181
 10
41.5265
 20
-11.9075
 10
41.3124
 20
-12.6305
 10
41.0856
 20
-13.3495
 10
40.8464
 20
-14.0645
 10
40.5947
 20
-14.7753
 10
40.3307
 20
-15.4815
 10
40.0543
 20
-16.183
 10
39.7658
 20
-16.8796
 10
39.4652
 20
-17.571
 10
39.1525
 20
-18.2571
 10
38.8279
 20
-18.9376
 10
38.4915
 20
-19.6124
 10
38.1433
 20
-20.2812
 10
37.7836
 20
-20.9438
 10
37.4123
 20
-21.6
 10
37.0296
 20
-22.2496
 10
36.6357
 20
-22.8925
 10
36.2306
 20
-23.5284
 10
35.8144
 20
-24.1571
 10
35.3874
 20
-24.7785
 10
34.9495
 20
-25.3923
 10
34.5011
 20
-25.9984
 10
34.0421
 20
-26.5966
 10
33.5727
 20
-27.1866
 10
33.0931
 20
-27.7684
 10
32.6035
 20
-28.3417
 10
32.1039
 20
-28.9064
 10
31.5945
 20
-29.4623
 10
31.0755
 20
-30.0092
 10
30.547
 20
-30.547
 10
30.0092
 20
-31.0755
 10
29.4623
 20
-31.5945
 10
28.9064
 20
-32.1039
 10
28.3417
 20
-32.6035
 10
27.7684
 20
-33.0931
 10
27.1866
 20
-33.5727
 10
26.5966
 20
-34.0421
 10
25.9984
 20
-34.5011
 10
25.3923
 20
-34.9495
 10
24.7785
 20
-35.3874
 10
24.1571
 20
-35.8144
 10
23.5284
 20
-36.2306
 10
22.8925
 20
-36.6357
 10
22.2496
 20
-37.0296
 10
21.6
 20
-37.4123
 10
20.9438
 20
-37.7836
 10
20.2812
 20
-38.1433
 10
19.6124
 20
-38.4915
 10
18.9376
 20
-38.8279
 10
18.2571
 20
-39.1525
 10
17.571
 20
-39.4652
 10
16.8796
 20
-39.7658
 10
16.183
 20
-40.0543
 10
15.4815
 20
-40.3307
 10
14.7753
 20
-40.5947
 10
14.0645
 20
-40.8464
 10
13.3495
 20
-41.0856
 10
12.6305
 20
-41.3124
 10
11.9075
 20
-41.5265
 10
11.181
 20
-41.728
 10
10.451
 20
-41.9168
 10
9.71789
 20
-42.0928
 10
8.98178
 20
-42.256
 10
8.24295
 20
-42.4063
 10
7.5016
 20
-42.5437
 10
6.75797
 20
-42.6681
 10
6.01228
 20
-42.7796
 10
5.26476
 20
-42.878
 10
4.51563
 20
-42.9633
 10
3.76513
 20
-43.0356
 10
3.01348
 20
-43.0948
 10
2.26091
 20
-43.1408
 10
1.50766
 20
-43.1737
 10
0.753943
 20
-43.1934
 10
0
 20
-43.2
 10
-0.753943
 20
-43.1934
 10
-1.50766
 20
-43.1737
 10
-2.26091
 20
-43.1408
 10
-3.01348
 20
-43.0948
 10
-3.76513
 20
-43.0356
 10
-4.51563
 20
-42.9633
 10
-5.26476
 20
-42.878
 10
-6.01228
 20
-42.7796
 10
-6.75797
 20
-42.6681
 10
-7.5016
 20
-42.5437
 10
-8.24295
 20
-42.4063
 10
-8.98178
 20
-42.256
 10
-9.71789
 20
-42.0928
 10
-10.451
 20
-41.9168
 10
-11.181
 20
-41.728
 10
-11.9075
 20
-41.5265
 10
-12.6305
 20
-41.3124
 10
-13.3495
 20
-41.0856
 10
-14.0645
 20
-40.8464
 10
-14.7753
 20
-40.5947
 10
-15.4815
 20
-40.3307
 10
-16.183
 20
-40.0543
 10
-16.8796
 20
-39.7658
 10
-17.571
 20
-39.4652
 10
-18.2571
 20
-39.1525
 10
-18.9376
 20
-38.8279
 10
-19.6124
 20
-38.4915
 10
-20.2812
 20
-38.1433
 10
-20.9438
 20
-37.7836
 10
-21.6
 20
-37.4123
 10
-22.2496
 20
-37.0296
 10
-22.8925
 20
-36.6357
 10
-23.5284
 20
-36.2306
 10
-24.1571
 20
-35.8144
 10
-24.7785
 20
-35.3874
 10
-25.3923
 20
-34.9495
 10
-25.9984
 20
-34.5011
 10
-26.5966
 20
-34.0421
 10
-27.1866
 20
-33.5727
 10
-27.7684
 20
-33.0931
 10
-28.3417
 20
-32.6035
 10
-28.9064
 20
-32.1039
 10
-29.4623
 20
-31.5945
 10
-30.0092
 20
-31.0755
 10
-30.547
 20
-30.547
 10
-31.0755
 20
-30.0092
 10
-31.5945
 20
-29.4623
 10
-32.1039
 20
-28.9064
 10
-32.6035
 20
-28.3417
 10
-33.0931
 20
-27.7684
 10
-33.5727
 20
-27.1866
 10
-34.0421
 20
-26.5966
 10
-34.5011
 20
-25.9984
 10
-34.9495
 20
-25.3923
 10
-35.3874
 20
-24.7785
 10
-35.8144
 20
-24.1571
 10
-36.2306
 20
-23.5284
 10
-36.6357
 20
-22.8925
 10
-37.0296
 20
-22.2496
 10
-37.4123
 20
-21.6
 10
-37.7836
 20
-20.9438
 10
-38.1433
 20
-20.2812
 10
-38.4915
 20
-19.6124
 10
-38.8279
 20
-18.9376
 10
-39.1525
 20
-18.2571
 10
-39.4652
 20
-17.571
 10
-39.7658
 20
-16.8796
 10
-40.0543
 20
-16.183
 10
-40.3307
 20
-15.4815
 10
-40.5947
 20
-14.7753
 10
-40.8464
 20
-14.0645
 10
-41.0856
 20
-13.3495
 10
-41.3124
 20
-12.6305
 10
-41.5265
 20
-11.9075
 10
-41.728
 20
-11.181
 10
-41.9168
 20
-10.451
 10
-42.0928
 20
-9.71789
 10
-42.256
 20
-8.98178
 10
-42.4063
 20
-8.24295
 10
-42.5437
 20
-7.5016
 10
-42.6681
 20
-6.75797
 10
-42.7796
 20
-6.01228
 10
-42.878
 20
-5.26476
 10
-42.9633
 20
-4.51563
 10
-43.0356
 20
-3.76513
 10
-43.0948
 20
-3.01348
 10
-43.1408
 20
-2.26091
 10
-43.1737
 20
-1.50766
 10
-43.1934
 20
-0.753943
  0
LWPOLYLINE
100
AcDbEntity
  8
0
100
AcDbPolyline
 90
60
 70
1
 10
-35.0333
 20
-57.735
 10
-35.024
 20
-57.5573
 10
-34.9962
 20
-57.3816
 10
-34.9501
 20
-57.2097
 10
-34.8864
 20
-57.0436
 10
-34.8056
 20
-56.885
 10
-34.7087
 20
-56.7358
 10
-34.5967
 20
-56.5975
 10
-34.4709
 20
-56.4717
 10
-34.3326
 20
-56.3597
 10
-34.1833
 20
-56.2628
 10
-34.0248
 20
-56.182
 10
-33.8587
 20
-56.1182
 10
-33.6868
 20
-56.0722
 10
-33.511
 20
-56.0443
 10
-33.3333
 20
-56.035
 10
-33.1556
 20
-56.0443
 10
-32.9799
 20
-56.0722
 10
-32.808
 20
-56.1182
 10
-32.6419
 20
-56.182
 10
-32.4833
 20
-56.2628
 10
-32.3341
 20
-56.3597
 10
-32.1958
 20
-56.4717
 10
-32.07
 20
-56.5975
 10
-31.958
 20
-56.7358
 10
-31.8611
 20
-56.885
 10
-31.7803
 20
-57.0436
 10
-31.7165
 20
-57.2097
 10
-31.6705
 20
-57.3816
 10
-31.6426
 20
-57.5573
 10
-31.6333
 20
-57.735
 10
-31.6426
 20
-57.9127
 10
-31.6705
 20
-58.0885
 10
-31.7165
 20
-58.2604
 10
-31.7803
 20
-58.4265
 10
-31.8611
 20
-58.585
 10
-31.958
 20
-58.7343
 10
-32.07
 20
-58.8725
 10
-32.1958
 20
-58.9984
 10
-32.3341
 20
-59.1104
 10
-32.4833
 20
-59.2073
 10
-32.6419
 20
-59.2881
 10
-32.808
 20
-59.3518
 10
-32.9799
 20
-59.3979
 10
-33.1556
 20
-59.4257
 10
-33.3333
 20
-59.435
 10
-33.511
 20
-59.4257
 10
-33.6868
 20
-59.3979
 10
-33.8587
 20
-59.3518
 10
-34.0248
 20
-59.2881
 10
-34.1833
 20
-59.2073
 10
-34.3326
 20
-59.1104
 10
-34.4709
 20
-58.9984
 10
-34.5967
 20
-58.8725
 10
-34.7087
 20
-58.7343
 10
-34.8056
 20
-58.585
 10
-34.8864
 20
-58.4265
 10
-34.9501
 20
-58.2604
 10
-34.9962
 20
-58.0885
 10
-35.024
 20
-57.9127
  0
LWPOLYLINE
100
AcDbEntity
  8
0
100
AcDbPolyline
 90
60
 70
1
 10
-35.0333
 20
57.735
 10
-35.024
 20
57.9127
 10
-34.9962
 20
58.0885
 10
-34.9501
 20
58.2604
 10
-34.8864
 20
58.4265
 10
-34.8056
 20
58.585
 10
-34.7087
 20
58.7343
 10
-34.5967
 20
58.8725
 10
-34.4709
 20
58.9984
 10
-34.3326
 20
59.1104
 10
-34.1833
 20
59.2073
 10
-34.0248
 20
59.2881
 10
-33.8587
 20
59.3518
 10
-33.6868
 20
59.3979
 10
-33.511
 20
59.4257
 10
-33.3333
 20
59.435
 10
-33.1556
 20
59.4257
 10
-32.9799
 20
59.3979
 10
-32.808
 20
59.3518
 10
-32.6419
 20
59.2881
 10
-32.4833
 20
59.2073
 10
-32.3341
 20
59.1104
 10
-32.1958
 20
58.9984
 10
-32.07
 20
58.8725
 10
-31.958
 20
58.7343
 10
-31.8611
 20
58.585
 10
-31.7803
 20
58.4265
 10
-31.7165
 20
58.2604
 10
-31.6705
 20
58.0885
 10
-31.6426
 20
57.9127
 10
-31.6333
 20
57.735
 10
-31.6426
 20
57.5573
 10
-31.6705
 20
57.3816
 10
-31.7165
 20
57.2097
 10
-31.7803
 20
57.0436
 10
-31.8611
 20
56.885
 10
-31.958
 20
56.7358
 10
-32.07
 20
56.5975
 10
-32.1958
 20
56.4717
 10
-32.3341
 20
56.3597
 10
-32.4833
 20
56.2628
 10
-32.6419
 20
56.182
 10
-32.808
 20
56.1182
 10
-32.9799
 20
56.0722
 10
-33.1556
 20
56.0443
 10
-33.3333
 20
56.035
 10
-33.511
 20
56.0443
 10
-33.6868
 20
56.0722
 10
-33.8587
 20
56.1182
 10
-34.0248
 20
56.182
 10
-34.1833
 20
56.2628
 10
-34.3326
 20
56.3597
 10
-34.4709
 20
56.4717
 10
-34.5967
 20
56.5975
 10
-34.7087
 20
56.7358
 10
-34.8056
 20
56.885
 10
-34.8864
 20
57.0436
 10
-34.9501
 20
57.2097
 10
-34.9962
 20
57.3816
 10
-35.024
 20
57.5573
  0
LWPOLYLINE
100
AcDbEntity
  8
0
100
AcDbPolyline
 90
30
 70
1
 10
-16.9952
 20
70.122
 10
-16.9429
 20
70.4524
 10
-16.823
 20
70.7647
 10
-16.6408
 20
71.0452
 10
-16.4043
 20
71.2817
 10
-16.1238
 20
71.4639
 10
-15.8115
 20
71.5838
 10
-15.4811
 20
71.6361
 10
-15.1471
 20
71.6186
 10
-14.824
 20
71.532
 10
-14.526
 20
71.3802
 10
-14.266
 20
71.1697
 10
-14.0555
 20
70.9097
 10
-13.9037
 20
70.6117
 10
-13.8171
 20
70.2886
 10
-13.7996
 20
69.9546
 10
-13.8519
 20
69.6242
 10
-13.9718
 20
69.3119
 10
-14.154
 20
69.0314
 10
-14.3905
 20
68.7949
 10
-14.671
 20
68.6127
 10
-14.9833
 20
68.4928
 10
-15.3137
 20
68.4405
 10
-15.6477
 20
68.458
 10
-15.9708
 20
68.5446
 10
-16.2688
 20
68.6964
 10
-16.5288
 20
68.9069
 10
-16.7393
 20
69.1669
 10
-16.8911
 20
69.4649
 10
-16.9777
 20
69.788
  0
LWPOLYLINE
100
AcDbEntity
  8
0
100
AcDbPolyline
 90
30
 70
1
 10
-15.3675
 20
-113.347
 10
-15.3369
 20
-112.909
 10
-15.2159
 20
-112.487
 10
-15.0097
 20
-112.099
 10
-14.7276
 20
-111.763
 10
-14.3816
 20
-111.492
 10
-13.987
 20
-111.3
 10
-13.561
 20
-111.194
 10
-13.1223
 20
-111.178
 10
-12.6899
 20
-111.255
 10
-12.2829
 20
-111.419
 10
-11.9189
 20
-111.665
 10
-11.6139
 20
-111.98
 10
-11.3813
 20
-112.353
 10
-11.2311
 20
-112.765
 10
-11.17
 20
-113.2
 10
-11.2007
 20
-113.638
 10
-11.3217
 20
-114.06
 10
-11.5278
 20
-114.448
 10
-11.81
 20
-114.784
 10
-12.1559
 20
-115.054
 10
-12.5505
 20
-115.247
 10
-12.9765
 20
-115.353
 10
-13.4153
 20
-115.368
 10
-13.8476
 20
-115.292
 10
-14.2547
 20
-115.127
 10
-14.6186
 20
-114.882
 10
-14.9236
 20
-114.566
 10
-15.1562
 20
-114.194
 10
-15.3064
 20
-113.781
  0
LWPOLYLINE
100
AcDbEntity
  8
0
100
AcDbPolyline
 90
30
 70
1
 10
-15.3675
 20
113.347
 10
-15.3064
 20
113.781
 10
-15.1562
 20
114.194
 10
-14.9236
 20
114.566
 10
-14.6186
 20
114.882
 10
-14.2547
 20
115.127
 10
-13.8476
 20
115.292
 10
-13.4153
 20
115.368
 10
-12.9765
 20
115.353
 10
-12.5505
 20
115.247
 10
-12.1559
 20
115.054
 10
-11.81
 20
114.784
 10
-11.5278
 20
114.448
 10
-11.3217
 20
114.06
 10
-11.2007
 20
113.638
 10
-11.17
 20
113.2
 10
-11.2311
 20
112.765
 10
-11.3813
 20
112.353
 10
-11.6139
 20
111.98
 10
-11.9189
 20
111.665
 10
-12.2829
 20
111.419
 10
-12.6899
 20
111.255
 10
-13.1223
 20
111.178
 10
-13.561
 20
111.194
 10
-13.987
 20
111.3
 10
-14.3816
 20
111.492
 10
-14.7276
 20
111.763
 10
-15.0097
 20
112.099
 10
-15.2159
 20
112.487
 10
-15.3369
 20
112.909
  0
LWPOLYLINE
100
AcDbEntity
  8
0
100
AcDbPolyline
 90
60
 70
1
 10
-5.1
 20
-140
 10
-5.07206
 20
-139.467
 10
-4.98855
 20
-138.94
 10
-4.85039
 20
-138.424
 10
-4.65908
 20
-137.926
 10
-4.41673
 20
-137.45
 10
-4.12599
 20
-137.002
 10
-3.79004
 20
-136.587
 10
-3.41257
 20
-136.21
 10
-2.9977
 20
-135.874
 10
-2.55
 20
-135.583
 10
-2.07436
 20
-135.341
 10
-1.57599
 20
-135.15
 10
-1.06035
 20
-135.011
 10
-0.533094
 20
-134.928
 10
0
 20
-134.9
 10
0.533094
 20
-134.928
 10
1.06035
 20
-135.011
 10
1.57599
 20
-135.15
 10
2.07436
 20
-135.341
 10
2.55
 20
-135.583
 10
2.9977
 20
-135.874
 10
3.41257
 20
-136.21
 10
3.79004
 20
-136.587
 10
4.12599
 20
-137.002
 10
4.41673
 20
-137.45
 10
4.65908
 20
-137.926
 10
4.85039
 20
-138.424
 10
4.98855
 20
-138.94
 10
5.07206
 20
-139.467
 10
5.1
 20
-140
 10
5.07206
 20
-140.533
 10
4.98855
 20
-141.06
 10
4.85039
 20
-141.576
 10
4.65908
 20
-142.074
 10
4.41673
 20
-142.55
 10
4.12599
 20
-142.998
 10
3.79004
 20
-143.413
 10
3.41257
 20
-143.79
 10
2.9977
 20
-144.126
 10
2.55
 20
-144.417
 10
2.07436
 20
-144.659
 10
1.57599
 20
-144.85
 10
1.06035
 20
-144.989
 10
0.533094
 20
-145.072
 10
0
 20
-145.1
 10
-0.533094
 20
-145.072
 10
-1.06035
 20
-144.989
 10
-1.57599
 20
-144.85
 10
-2.07436
 20
-144.659
 10
-2.55
 20
-144.417
 10
-2.9977
 20
-144.126
 10
-3.41257
 20
-143.79
 10
-3.79004
 20
-143.413
 10
-4.12599
 20
-142.998
 10
-4.41673
 20
-142.55
 10
-4.65908
 20
-142.074
 10
-4.85039
 20
-141.576
 10
-4.98855
 20
-141.06
 10
-5.07206
 20
-140.533
  0
LWPOLYLINE
100
AcDbEntity
  8
0
100
AcDbPolyline
 90
60
 70
1
 10
-5.1
 20
140
 10
-5.07206
 20
140.533
 10
-4.98855
 20
141.06
 10
-4.85039
 20
141.576
 10
-4.65908
 20
142.074
 10
-4.41673
 20
142.55
 10
-4.12599
 20
142.998
 10
-3.79004
 20
143.413
 10
-3.41257
 20
143.79
 10
-2.9977
 20
144.126
 10
-2.55
 20
144.417
 10
-2.07436
 20
144.659
 10
-1.57599
 20
144.85
 10
-1.06035
 20
144.989
 10
-0.533094
 20
145.072
 10
0
 20
145.1
 10
0.533094
 20
145.072
 10
1.06035
 20
144.989
 10
1.57599
 20
144.85
 10
2.07436
 20
144.659
 10
2.55
 20
144.417
 10
2.9977
 20
144.126
 10
3.41257
 20
143.79
 10
3.79004
 20
143.413
 10
4.12599
 20
142.998
 10
4.41673
 20
142.55
 10
4.65908
 20
142.074
 10
4.85039
 20
141.576
 10
4.98855
 20
141.06
 10
5.07206
 20
140.533
 10
5.1
 20
140
 10
5.07206
 20
139.467
 10
4.98855
 20
138.94
 10
4.85039
 20
138.424
 10
4.65908
 20
137.926
 10
4.41673
 20
137.45
 10
4.12599
 20
137.002
 10
3.79004
 20
136.587
 10
3.41257
 20
136.21
 10
2.9977
 20
135.874
 10
2.55
 20
135.583
 10
2.07436
 20
135.341
 10
1.57599
 20
135.15
 10
1.06035
 20
135.011
 10
0.533094
 20
134.928
 10
0
 20
134.9
 10
-0.533094
 20
134.928
 10
-1.06035
 20
135.011
 10
-1.57599
 20
135.15
 10
-2.07436
 20
135.341
 10
-2.55
 20
135.583
 10
-2.9977
 20
135.874
 10
-3.41257
 20
136.21
 10
-3.79004
 20
136.587
 10
-4.12599
 20
137.002
 10
-4.41673
 20
137.45
 10
-4.65908
 20
137.926
 10
-4.85039
 20
138.424
 10
-4.98855
 20
138.94
 10
-5.07206
 20
139.467
  0
LWPOLYLINE
100
AcDbEntity
  8
0
100
AcDbPolyline
 90
30
 70
1
 10
-2.0885
 20
-75.2195
 10
-2.0885
 20
-74.7805
 10
-1.99722
 20
-74.3511
 10
-1.81865
 20
-73.95
 10
-1.5606
 20
-73.5948
 10
-1.23435
 20
-73.3011
 10
-0.854146
 20
-73.0816
 10
-0.436614
 20
-72.9459
 10
0
 20
-72.9
 10
0.436614
 20
-72.9459
 10
0.854146
 20
-73.0816
 10
1.23435
 20
-73.3011
 10
1.5606
 20
-73.5948
 10
1.81865
 20
-73.95
 10
1.99722
 20
-74.3511
 10
2.0885
 20
-74.7805
 10
2.0885
 20
-75.2195
 10
1.99722
 20
-75.6489
 10
1.81865
 20
-76.05
 10
1.5606
 20
-76.4052
 10
1.23435
 20
-76.6989
 10
0.854146
 20
-76.9184
 10
0.436614
 20
-77.0541
 10
0
 20
-77.1
 10
-0.436614
 20
-77.0541
 10
-0.854146
 20
-76.9184
 10
-1.23435
 20
-76.6989
 10
-1.5606
 20
-76.4052
 10
-1.81865
 20
-76.05
 10
-1.99722
 20
-75.6489
  0
LWPOLYLINE
100
AcDbEntity
  8
0
100
AcDbPolyline
 90
30
 70
1
 10
7.11418
 20
74.3253
 10
7.1665
 20
74.6557
 10
7.28637
 20
74.9679
 10
7.46855
 20
75.2485
 10
7.70507
 20
75.485
 10
7.9856
 20
75.6672
 10
8.29787
 20
75.787
 10
8.62825
 20
75.8394
 10
8.96228
 20
75.8219
 10
9.28537
 20
75.7353
 10
9.58341
 20
75.5834
 10
9.84335
 20
75.3729
 10
10.0539
 20
75.113
 10
10.2057
 20
74.8149
 10
10.2923
 20
74.4919
 10
10.3098
 20
74.1578
 10
10.2575
 20
73.8274
 10
10.1376
 20
73.5152
 10
9.95542
 20
73.2346
 10
9.71889
 20
72.9981
 10
9.43837
 20
72.8159
 10
9.12609
 20
72.6961
 10
8.79572
 20
72.6438
 10
8.46169
 20
72.6613
 10
8.13859
 20
72.7478
 10
7.84056
 20
72.8997
 10
7.58061
 20
73.1102
 10
7.37011
 20
73.3701
 10
7.21825
 20
73.6682
 10
7.13168
 20
73.9913
  0
LWPOLYLINE
100
AcDbEntity
  8
0
100
AcDbPolyline
 90
30
 70
1
 10
16.1712
 20
-128.87
 10
16.1712
 20
-128.431
 10
16.2625
 20
-128.002
 10
16.4411
 20
-127.601
 10
16.6991
 20
-127.246
 10
17.0254
 20
-126.952
 10
17.4056
 20
-126.732
 10
17.8231
 20
-126.597
 10
18.2597
 20
-126.551
 10
18.6964
 20
-126.597
 10
19.1139
 20
-126.732
 10
19.4941
 20
-126.952
 10
19.8203
 20
-127.246
 10
20.0784
 20
-127.601
 10
20.257
 20
-128.002
 10
20.3482
 20
-128.431
 10
20.3482
 20
-128.87
 10
20.257
 20
-129.3
 10
20.0784
 20
-129.701
 10
19.8203
 20
-130.056
 10
19.4941
 20
-130.35
 10
19.1139
 20
-130.569
 10
18.6964
 20
-130.705
 10
18.2597
 20
-130.751
 10
17.8231
 20
-130.705
 10
17.4056
 20
-130.569
 10
17.0254
 20
-130.35
 10
16.6991
 20
-130.056
 10
16.4411
 20
-129.701
 10
16.2625
 20
-129.3
  0
LWPOLYLINE
100
AcDbEntity
  8
0
100
AcDbPolyline
 90
30
 70
1
 10
16.1712
 20
128.87
 10
16.2625
 20
129.3
 10
16.4411
 20
129.701
 10
16.6991
 20
130.056
 10
17.0254
 20
130.35
 10
17.4056
 20
130.569
 10
17.8231
 20
130.705
 10
18.2597
 20
130.751
 10
18.6964
 20
130.705
 10
19.1139
 20
130.569
 10
19.4941
 20
130.35
 10
19.8203
 20
130.056
 10
20.0784
 20
129.701
 10
20.257
 20
129.3
 10
20.3482
 20
128.87
 10
20.3482
 20
128.431
 10
20.257
 20
128.002
 10
20.0784
 20
127.601
 10
19.8203
 20
127.246
 10
19.4941
 20
126.952
 10
19.1139
 20
126.732
 10
18.6964
 20
126.597
 10
18.2597
 20
126.551
 10
17.8231
 20
126.597
 10
17.4056
 20
126.732
 10
17.0254
 20
126.952
 10
16.6991
 20
127.246
 10
16.4411
 20
127.601
 10
16.2625
 20
128.002
 10
16.1712
 20
128.431
  0
LWPOLYLINE
100
AcDbEntity
  8
0
100
AcDbPolyline
 90
60
 70
1
 10
29.2333
 20
-57.735
 10
29.2558
 20
-57.3065
 10
29.3229
 20
-56.8826
 10
29.434
 20
-56.4681
 10
29.5878
 20
-56.0674
 10
29.7826
 20
-55.685
 10
30.0164
 20
-55.3251
 10
30.2864
 20
-54.9916
 10
30.5899
 20
-54.6881
 10
30.9234
 20
-54.4181
 10
31.2833
 20
-54.1843
 10
31.6657
 20
-53.9895
 10
32.0664
 20
-53.8357
 10
32.4809
 20
-53.7246
 10
32.9048
 20
-53.6575
 10
33.3333
 20
-53.635
 10
33.7619
 20
-53.6575
 10
34.1858
 20
-53.7246
 10
34.6003
 20
-53.8357
 10
35.001
 20
-53.9895
 10
35.3833
 20
-54.1843
 10
35.7433
 20
-54.4181
 10
36.0768
 20
-54.6881
 10
36.3802
 20
-54.9916
 10
36.6503
 20
-55.3251
 10
36.884
 20
-55.685
 10
37.0789
 20
-56.0674
 10
37.2327
 20
-56.4681
 10
37.3437
 20
-56.8826
 10
37.4109
 20
-57.3065
 10
37.4333
 20
-57.735
 10
37.4109
 20
-58.1636
 10
37.3437
 20
-58.5875
 10
37.2327
 20
-59.002
 10
37.0789
 20
-59.4026
 10
36.884
 20
-59.785
 10
36.6503
 20
-60.1449
 10
36.3802
 20
-60.4785
 10
36.0768
 20
-60.7819
 10
35.7433
 20
-61.052
 10
35.3833
 20
-61.2857
 10
35.001
 20
-61.4806
 10
34.6003
 20
-61.6344
 10
34.1858
 20
-61.7454
 10
33.7619
 20
-61.8126
 10
33.3333
 20
-61.835
 10
32.9048
 20
-61.8126
 10
32.4809
 20
-61.7454
 10
32.0664
 20
-61.6344
 10
31.6657
 20
-61.4806
 10
31.2833
 20
-61.2857
 10
30.9234
 20
-61.052
 10
30.5899
 20
-60.7819
 10
30.2864
 20
-60.4785
 10
30.0164
 20
-60.1449
 10
29.7826
 20
-59.785
 10
29.5878
 20
-59.4026
 10
29.434
 20
-59.002
 10
29.3229
 20
-58.5875
 10
29.2558
 20
-58.1636
  0
LWPOLYLINE
100
AcDbEntity
  8
0
100
AcDbPolyline
 90
60
 70
1
 10
29.2333
 20
57.735
 10
29.2558
 20
58.1636
 10
29.3229
 20
58.5875
 10
29.434
 20
59.002
 10
29.5878
 20
59.4026
 10
29.7826
 20
59.785
 10
30.0164
 20
60.1449
 10
30.2864
 20
60.4785
 10
30.5899
 20
60.7819
 10
30.9234
 20
61.052
 10
31.2833
 20
61.2857
 10
31.6657
 20
61.4806
 10
32.0664
 20
61.6344
 10
32.4809
 20
61.7454
 10
32.9048
 20
61.8126
 10
33.3333
 20
61.835
 10
33.7619
 20
61.8126
 10
34.1858
 20
61.7454
 10
34.6003
 20
61.6344
 10
35.001
 20
61.4806
 10
35.3833
 20
61.2857
 10
35.7433
 20
61.052
 10
36.0768
 20
60.7819
 10
36.3802
 20
60.4785
 10
36.6503
 20
60.1449
 10
36.884
 20
59.785
 10
37.0789
 20
59.4026
 10
37.2327
 20
59.002
 10
37.3437
 20
58.5875
 10
37.4109
 20
58.1636
 10
37.4333
 20
57.735
 10
37.4109
 20
57.3065
 10
37.3437
 20
56.8826
 10
37.2327
 20
56.4681
 10
37.0789
 20
56.0674
 10
36.884
 20
55.685
 10
36.6503
 20
55.3251
 10
36.3802
 20
54.9916
 10
36.0768
 20
54.6881
 10
35.7433
 20
54.4181
 10
35.3833
 20
54.1843
 10
35.001
 20
53.9895
 10
34.6003
 20
53.8357
 10
34.1858
 20
53.7246
 10
33.7619
 20
53.6575
 10
33.3333
 20
53.635
 10
32.9048
 20
53.6575
 10
32.4809
 20
53.7246
 10
32.0664
 20
53.8357
 10
31.6657
 20
53.9895
 10
31.2833
 20
54.1843
 10
30.9234
 20
54.4181
 10
30.5899
 20
54.6881
 10
30.2864
 20
54.9916
 10
30.0164
 20
55.3251
 10
29.7826
 20
55.685
 10
29.5878
 20
56.0674
 10
29.434
 20
56.4681
 10
29.3229
 20
56.8826
 10
29.2558
 20
57.3065
  0
LWPOLYLINE
100
AcDbEntity
  8
0
100
AcDbPolyline
 90
30
 70
1
 10
51.2183
 20
-127.353
 10
51.2794
 20
-126.918
 10
51.4296
 20
-126.506
 10
51.6622
 20
-126.134
 10
51.9672
 20
-125.818
 10
52.3312
 20
-125.572
 10
52.7382
 20
-125.408
 10
53.1706
 20
-125.332
 10
53.6093
 20
-125.347
 10
54.0353
 20
-125.453
 10
54.4299
 20
-125.646
 10
54.7758
 20
-125.916
 10
55.058
 20
-126.252
 10
55.2641
 20
-126.64
 10
55.3851
 20
-127.062
 10
55.4158
 20
-127.5
 10
55.3547
 20
-127.935
 10
55.2045
 20
-128.347
 10
54.9719
 20
-128.719
 10
54.6669
 20
-129.035
 10
54.3029
 20
-129.281
 10
53.8959
 20
-129.445
 10
53.4635
 20
-129.521
 10
53.0248
 20
-129.506
 10
52.5988
 20
-129.4
 10
52.2042
 20
-129.207
 10
51.8583
 20
-128.937
 10
51.5761
 20
-128.601
 10
51.37
 20
-128.213
 10
51.2489
 20
-127.791
  0
LWPOLYLINE
100
AcDbEntity
  8
0
100
AcDbPolyline
 90
30
 70
1
 10
51.2183
 20
127.353
 10
51.2489
 20
127.791
 10
51.37
 20
128.213
 10
51.5761
 20
128.601
 10
51.8583
 20
128.937
 10
52.2042
 20
129.207
 10
52.5988
 20
129.4
 10
53.0248
 20
129.506
 10
53.4635
 20
129.521
 10
53.8959
 20
129.445
 10
54.3029
 20
129.281
 10
54.6669
 20
129.035
 10
54.9719
 20
128.719
 10
55.2045
 20
128.347
 10
55.3547
 20
127.935
 10
55.4158
 20
127.5
 10
55.3851
 20
127.062
 10
55.2641
 20
126.64
 10
55.058
 20
126.252
 10
54.7758
 20
125.916
 10
54.4299
 20
125.646
 10
54.0353
 20
125.453
 10
53.6093
 20
125.347
 10
53.1706
 20
125.332
 10
52.7382
 20
125.408
 10
52.3312
 20
125.572
 10
51.9672
 20
125.818
 10
51.6622
 20
126.134
 10
51.4296
 20
126.506
 10
51.2794
 20
126.918
  0
LWPOLYLINE
100
AcDbEntity
  8
0
100
AcDbPolyline
 90
60
 70
1
 10
64.9667
 20
0
 10
64.976
 20
0.177698
 10
65.0038
 20
0.35345
 10
65.0499
 20
0.525329
 10
65.1136
 20
0.691452
 10
65.1944
 20
0.849999
 10
65.2913
 20
0.999234
 10
65.4033
 20
1.13752
 10
65.5291
 20
1.26335
 10
65.6674
 20
1.37533
 10
65.8167
 20
1.47224
 10
65.9752
 20
1.55303
 10
66.1413
 20
1.6168
 10
66.3132
 20
1.66285
 10
66.489
 20
1.69069
 10
66.6667
 20
1.7
 10
66.8444
 20
1.69069
 10
67.0201
 20
1.66285
 10
67.192
 20
1.6168
 10
67.3581
 20
1.55303
 10
67.5167
 20
1.47224
 10
67.6659
 20
1.37533
 10
67.8042
 20
1.26335
 10
67.93
 20
1.13752
 10
68.042
 20
0.999234
 10
68.1389
 20
0.849999
 10
68.2197
 20
0.691452
 10
68.2835
 20
0.525329
 10
68.3295
 20
0.35345
 10
68.3574
 20
0.177698
 10
68.3667
 20
0
 10
68.3574
 20
-0.177698
 10
68.3295
 20
-0.35345
 10
68.2835
 20
-0.525329
 10
68.2197
 20
-0.691452
 10
68.1389
 20
-0.849999
 10
68.042
 20
-0.999234
 10
67.93
 20
-1.13752
 10
67.8042
 20
-1.26335
 10
67.6659
 20
-1.37533
 10
67.5167
 20
-1.47224
 10
67.3581
 20
-1.55303
 10
67.192
 20
-1.6168
 10
67.0201
 20
-1.66285
 10
66.8444
 20
-1.69069
 10
66.6667
 20
-1.7
 10
66.489
 20
-1.69069
 10
66.3132
 20
-1.66285
 10
66.1413
 20
-1.6168
 10
65.9752
 20
-1.55303
 10
65.8167
 20
-1.47224
 10
65.6674
 20
-1.37533
 10
65.5291
 20
-1.26335
 10
65.4033
 20
-1.13752
 10
65.2913
 20
-0.999234
 10
65.1944
 20
-0.849999
 10
65.1136
 20
-0.691452
 10
65.0499
 20
-0.525329
 10
65.0038
 20
-0.35345
 10
64.976
 20
-0.177698
  0
LWPOLYLINE
100
AcDbEntity
  8
0
100
AcDbPolyline
 90
30
 70
1
 10
81.5973
 20
-109.96
 10
81.628
 20
-109.523
 10
81.749
 20
-109.1
 10
81.9551
 20
-108.713
 10
82.2373
 20
-108.377
 10
82.5832
 20
-108.106
 10
82.9778
 20
-107.914
 10
83.4038
 20
-107.808
 10
83.8426
 20
-107.792
 10
84.2749
 20
-107.869
 10
84.682
 20
-108.033
 10
85.0459
 20
-108.278
 10
85.3509
 20
-108.594
 10
85.5835
 20
-108.967
 10
85.7337
 20
-109.379
 10
85.7948
 20
-109.814
 10
85.7642
 20
-110.252
 10
85.6432
 20
-110.674
 10
85.437
 20
-111.061
 10
85.1548
 20
-111.398
 10
84.8089
 20
-111.668
 10
84.4143
 20
-111.861
 10
83.9883
 20
-111.967
 10
83.5496
 20
-111.982
 10
83.1172
 20
-111.906
 10
82.7102
 20
-111.741
 10
82.3462
 20
-111.496
 10
82.0412
 20
-111.18
 10
81.8086
 20
-110.808
 10
81.6584
 20
-110.395
  0
LWPOLYLINE
100
AcDbEntity
  8
0
100
AcDbPolyline
 90
30
 70
1
 10
81.5973
 20
109.96
 10
81.6584
 20
110.395
 10
81.8086
 20
110.808
 10
82.0412
 20
111.18
 10
82.3462
 20
111.496
 10
82.7102
 20
111.741
 10
83.1172
 20
111.906
 10
83.5496
 20
111.982
 10
83.9883
 20
111.967
 10
84.4143
 20
111.861
 10
84.8089
 20
111.668
 10
85.1548
 20
111.398
 10
85.437
 20
111.061
 10
85.6432
 20
110.674
 10
85.7642
 20
110.252
 10
85.7948
 20
109.814
 10
85.7337
 20
109.379
 10
85.5835
 20
108.967
 10
85.3509
 20
108.594
 10
85.0459
 20
108.278
 10
84.682
 20
108.033
 10
84.2749
 20
107.869
 10
83.8426
 20
107.792
 10
83.4038
 20
107.808
 10
82.9778
 20
107.914
 10
82.5832
 20
108.106
 10
82.2373
 20
108.377
 10
81.9551
 20
108.713
 10
81.749
 20
109.1
 10
81.628
 20
109.523
  0
LWPOLYLINE
100
AcDbEntity
  8
0
100
AcDbPolyline
 90
30
 70
1
 10
100.196
 20
-80.3583
 10
100.196
 20
-79.9192
 10
100.288
 20
-79.4898
 10
100.466
 20
-79.0888
 10
100.724
 20
-78.7336
 10
101.051
 20
-78.4398
 10
101.431
 20
-78.2203
 10
101.848
 20
-78.0846
 10
102.285
 20
-78.0388
 10
102.722
 20
-78.0846
 10
103.139
 20
-78.2203
 10
103.519
 20
-78.4398
 10
103.846
 20
-78.7336
 10
104.104
 20
-79.0888
 10
104.282
 20
-79.4898
 10
104.373
 20
-79.9192
 10
104.373
 20
-80.3583
 10
104.282
 20
-80.7877
 10
104.104
 20
-81.1888
 10
103.846
 20
-81.5439
 10
103.519
 20
-81.8377
 10
103.139
 20
-82.0572
 10
102.722
 20
-82.1929
 10
102.285
 20
-82.2388
 10
101.848
 20
-82.1929
 10
101.431
 20
-82.0572
 10
101.051
 20
-81.8377
 10
100.724
 20
-81.5439
 10
100.466
 20
-81.1888
 10
100.288
 20
-80.7877
  0
LWPOLYLINE
100
AcDbEntity
  8
0
100
AcDbPolyline
 90
30
 70
1
 10
100.196
 20
80.3583
 10
100.288
 20
80.7877
 10
100.466
 20
81.1888
 10
100.724
 20
81.5439
 10
101.051
 20
81.8377
 10
101.431
 20
82.0572
 10
101.848
 20
82.1929
 10
102.285
 20
82.2388
 10
102.722
 20
82.1929
 10
103.139
 20
82.0572
 10
103.519
 20
81.8377
 10
103.846
 20
81.5439
 10
104.104
 20
81.1888
 10
104.282
 20
80.7877
 10
104.373
 20
80.3583
 10
104.373
 20
79.9192
 10
104.282
 20
79.4898
 10
104.104
 20
79.0888
 10
103.846
 20
78.7336
 10
103.519
 20
78.4398
 10
103.139
 20
78.2203
 10
102.722
 20
78.0846
 10
102.285
 20
78.0388
 10
101.848
 20
78.0846
 10
101.431
 20
78.2203
 10
101.051
 20
78.4398
 10
100.724
 20
78.7336
 10
100.466
 20
79.0888
 10
100.288
 20
79.4898
 10
100.196
 20
79.9192
  0
LWPOLYLINE
100
AcDbEntity
  8
0
100
AcDbPolyline
 90
30
 70
1
 10
102.633
 20
-45.0722
 10
102.694
 20
-44.6375
 10
102.844
 20
-44.225
 10
103.077
 20
-43.8526
 10
103.382
 20
-43.5368
 10
103.746
 20
-43.2913
 10
104.153
 20
-43.1269
 10
104.585
 20
-43.0506
 10
105.024
 20
-43.066
 10
105.45
 20
-43.1722
 10
105.845
 20
-43.3646
 10
106.191
 20
-43.6349
 10
106.473
 20
-43.9712
 10
106.679
 20
-44.3589
 10
106.8
 20
-44.7809
 10
106.831
 20
-45.2188
 10
106.77
 20
-45.6536
 10
106.619
 20
-46.0661
 10
106.387
 20
-46.4384
 10
106.082
 20
-46.7542
 10
105.718
 20
-46.9997
 10
105.311
 20
-47.1642
 10
104.878
 20
-47.2404
 10
104.44
 20
-47.2251
 10
104.014
 20
-47.1189
 10
103.619
 20
-46.9264
 10
103.273
 20
-46.6561
 10
102.991
 20
-46.3198
 10
102.785
 20
-45.9322
 10
102.664
 20
-45.5102
  0
LWPOLYLINE
100
AcDbEntity
  8
0
100
AcDbPolyline
 90
30
 70
1
 10
102.633
 20
45.0722
 10
102.664
 20
45.5102
 10
102.785
 20
45.9322
 10
102.991
 20
46.3198
 10
103.273
 20
46.6561
 10
103.619
 20
46.9264
 10
104.014
 20
47.1189
 10
104.44
 20
47.2251
 10
104.878
 20
47.2404
 10
105.311
 20
47.1642
 10
105.718
 20
46.9997
 10
106.082
 20
46.7542
 10
106.387
 20
46.4384
 10
106.619
 20
46.0661
 10
106.77
 20
45.6536
 10
106.831
 20
45.2188
 10
106.8
 20
44.7809
 10
106.679
 20
44.3589
 10
106.473
 20
43.9712
 10
106.191
 20
43.6349
 10
105.845
 20
43.3646
 10
105.45
 20
43.1722
 10
105.024
 20
43.066
 10
104.585
 20
43.0506
 10
104.153
 20
43.1269
 10
103.746
 20
43.2913
 10
103.382
 20
43.5368
 10
103.077
 20
43.8526
 10
102.844
 20
44.225
 10
102.694
 20
44.6375
  0
LWPOLYLINE
100
AcDbEntity
  8
0
100
AcDbPolyline
 90
30
 70
1
 10
117.9
 20
0
 10
117.946
 20
0.436614
 10
118.082
 20
0.854146
 10
118.301
 20
1.23435
 10
118.595
 20
1.5606
 10
118.95
 20
1.81865
 10
119.351
 20
1.99722
 10
119.78
 20
2.0885
 10
120.22
 20
2.0885
 10
120.649
 20
1.99722
 10
121.05
 20
1.81865
 10
121.405
 20
1.5606
 10
121.699
 20
1.23435
 10
121.918
 20
0.854146
 10
122.054
 20
0.436614
 10
122.1
 20
0
 10
122.054
 20
-0.436614
 10
121.918
 20
-0.854146
 10
121.699
 20
-1.23435
 10
121.405
 20
-1.5606
 10
121.05
 20
-1.81865
 10
120.649
 20
-1.99722
 10
120.22
 20
-2.0885
 10
119.78
 20
-2.0885
 10
119.351
 20
-1.99722
 10
118.95
 20
-1.81865
 10
118.595
 20
-1.5606
 10
118.301
 20
-1.23435
 10
118.082
 20
-0.854146
 10
117.946
 20
-0.436614
  0
ENDSEC
  0
EOF
