999
DXF from OpenSCAD
  0
SECTION
  2
HEADER
  9
$ACADVER
  1
AC1006
  9
$INSBASE
 10
0.0
 20
0.0
 30
0.0
  9
$EXTMIN
 10
-153.333
 20
-160.4
  9
$EXTMAX
 10
120
 20
160.4
  9
$LINMIN
 10
-153.333
 20
-160.4
  9
$LINMAX
 10
120
 20
160.4
  0
ENDSEC
  0
SECTION
  2
TABLES
  0
TABLE
  2
LTYPE
 70
1
  0
LTYPE
  2
CONTINUOUS
 70
64
  3
Solid line
 72
65
 73
0
 40
0.000000
  0
ENDTAB
  0
TABLE
  2
LAYER
 70
6
  0
LAYER
  2
0
 70
64
 62
7
  6
CONTINUOUS
  0
ENDTAB
  0
TABLE
  2
STYLE
 70
0
  0
ENDTAB
  0
ENDSEC
  0
SECTION
  2
BLOCKS
  0
ENDSEC
  0
SECTION
  2
ENTITIES
  0
LWPOLYLINE
100
AcDbEntity
  8
0
100
AcDbPolyline
 90
268
 70
1
 10
-153.333
 20
0
 10
-153.32
 20
-1.51254
 10
-153.281
 20
-3.02462
 10
-153.215
 20
-4.53578
 10
-153.122
 20
-6.04556
 10
-153.004
 20
-7.5535
 10
-152.859
 20
-9.05913
 10
-152.687
 20
-10.562
 10
-152.49
 20
-12.0617
 10
-152.266
 20
-13.5577
 10
-152.017
 20
-15.0495
 10
-151.741
 20
-16.5368
 10
-151.439
 20
-18.019
 10
-151.112
 20
-19.4958
 10
-150.759
 20
-20.9666
 10
-150.38
 20
-22.431
 10
-149.976
 20
-23.8886
 10
-149.546
 20
-25.3389
 10
-149.092
 20
-26.7815
 10
-148.612
 20
-28.2159
 10
-148.107
 20
-29.6417
 10
-147.577
 20
-31.0586
 10
-147.023
 20
-32.4659
 10
-146.444
 20
-33.8634
 10
-145.841
 20
-35.2505
 10
-145.213
 20
-36.6269
 10
-144.562
 20
-37.9922
 10
-143.887
 20
-39.3458
 10
-143.189
 20
-40.6875
 10
-142.467
 20
-42.0168
 10
-141.722
 20
-43.3333
 10
-140.954
 20
-44.6366
 10
-140.164
 20
-45.9263
 10
-139.351
 20
-47.202
 10
-138.517
 20
-48.4634
 10
-137.66
 20
-49.71
 10
-136.781
 20
-50.9414
 10
-135.882
 20
-52.1573
 10
-134.961
 20
-53.3573
 10
-134.019
 20
-54.5411
 10
-133.057
 20
-55.7083
 10
-132.075
 20
-56.8584
 10
-131.073
 20
-57.9913
 10
-130.051
 20
-59.1065
 10
-129.009
 20
-60.2037
 10
-127.949
 20
-61.2826
 10
-126.87
 20
-62.3428
 10
-125.773
 20
-63.384
 10
-124.658
 20
-64.4059
 10
-123.525
 20
-65.4082
 10
-122.375
 20
-66.3905
 10
-121.208
 20
-67.3526
 10
-13.6503
 20
-155.16
 10
-11.9908
 20
-156.504
 10
-10.2
 20
-157.667
 10
-8.29743
 20
-158.636
 10
-6.30395
 20
-159.402
 10
-4.2414
 20
-159.954
 10
-2.13238
 20
-160.288
 10
0
 20
-160.4
 10
2.13238
 20
-160.288
 10
4.2414
 20
-159.954
 10
6.30395
 20
-159.402
 10
62.9751
 20
-139.175
 10
64.3919
 20
-138.645
 10
65.7992
 20
-138.091
 10
67.1967
 20
-137.512
 10
68.5838
 20
-136.909
 10
69.9602
 20
-136.282
 10
71.3255
 20
-135.631
 10
72.6792
 20
-134.956
 10
74.0209
 20
-134.257
 10
75.3502
 20
-133.535
 10
76.6667
 20
-132.791
 10
77.97
 20
-132.023
 10
79.2597
 20
-131.233
 10
80.5354
 20
-130.42
 10
81.7967
 20
-129.585
 10
83.0433
 20
-128.728
 10
84.2747
 20
-127.85
 10
85.4906
 20
-126.95
 10
86.6907
 20
-126.029
 10
87.8744
 20
-125.088
 10
89.0416
 20
-124.126
 10
90.1918
 20
-123.143
 10
91.3247
 20
-122.141
 10
92.4399
 20
-121.119
 10
93.5371
 20
-120.078
 10
94.6159
 20
-119.018
 10
95.6761
 20
-117.939
 10
96.7173
 20
-116.842
 10
97.7392
 20
-115.726
 10
98.7415
 20
-114.593
 10
99.7239
 20
-113.443
 10
100.686
 20
-112.276
 10
101.628
 20
-111.092
 10
102.548
 20
-109.892
 10
103.448
 20
-108.676
 10
104.327
 20
-107.445
 10
105.183
 20
-106.198
 10
106.018
 20
-104.937
 10
106.831
 20
-103.661
 10
107.621
 20
-102.372
 10
108.389
 20
-101.068
 10
109.134
 20
-99.7519
 10
109.855
 20
-98.4226
 10
110.554
 20
-97.0809
 10
111.229
 20
-95.7272
 10
111.88
 20
-94.3619
 10
112.507
 20
-92.9855
 10
113.11
 20
-91.5984
 10
113.689
 20
-90.2009
 10
114.244
 20
-88.7936
 10
114.773
 20
-87.3768
 10
115.278
 20
-85.9509
 10
115.758
 20
-84.5165
 10
116.213
 20
-83.0739
 10
116.643
 20
-81.6236
 10
117.047
 20
-80.166
 10
117.426
 20
-78.7016
 10
117.779
 20
-77.2308
 10
118.106
 20
-75.754
 10
118.408
 20
-74.2718
 10
118.683
 20
-72.7845
 10
118.933
 20
-71.2927
 10
119.157
 20
-69.7967
 10
119.354
 20
-68.297
 10
119.525
 20
-66.7942
 10
119.67
 20
-65.2885
 10
119.789
 20
-63.7806
 10
119.881
 20
-62.2708
 10
119.947
 20
-60.7596
 10
119.987
 20
-59.2476
 10
120
 20
-57.735
 10
120
 20
0
 10
120
 20
57.735
 10
119.987
 20
59.2476
 10
119.947
 20
60.7596
 10
119.881
 20
62.2708
 10
119.789
 20
63.7806
 10
119.67
 20
65.2885
 10
119.525
 20
66.7942
 10
119.354
 20
68.297
 10
119.157
 20
69.7967
 10
118.933
 20
71.2927
 10
118.683
 20
72.7845
 10
118.408
 20
74.2718
 10
118.106
 20
75.754
 10
117.779
 20
77.2308
 10
117.426
 20
78.7016
 10
117.047
 20
80.166
 10
116.643
 20
81.6236
 10
116.213
 20
83.0739
 10
115.758
 20
84.5165
 10
115.278
 20
85.9509
 10
114.773
 20
87.3768
 10
114.244
 20
88.7936
 10
113.689
 20
90.2009
 10
113.11
 20
91.5984
 10
112.507
 20
92.9855
 10
111.88
 20
94.3619
 10
111.229
 20
95.7272
 10
110.554
 20
97.0809
 10
109.855
 20
98.4226
 10
109.134
 20
99.7519
 10
108.389
 20
101.068
 10
107.621
 20
102.372
 10
106.831
 20
103.661
 10
106.018
 20
104.937
 10
105.183
 20
106.198
 10
104.327
 20
107.445
 10
103.448
 20
108.676
 10
102.548
 20
109.892
 10
101.628
 20
111.092
 10
100.686
 20
112.276
 10
99.7239
 20
113.443
 10
98.7415
 20
114.593
 10
97.7392
 20
115.726
 10
96.7173
 20
116.842
 10
95.6761
 20
117.939
 10
94.6159
 20
119.018
 10
93.5371
 20
120.078
 10
92.4399
 20
121.119
 10
91.3247
 20
122.141
 10
90.1918
 20
123.143
 10
89.0416
 20
124.126
 10
87.8744
 20
125.088
 10
86.6907
 20
126.029
 10
85.4906
 20
126.95
 10
84.2747
 20
127.85
 10
83.0433
 20
128.728
 10
81.7967
 20
129.585
 10
80.5354
 20
130.42
 10
79.2597
 20
131.233
 10
77.97
 20
132.023
 10
76.6667
 20
132.791
 10
75.3502
 20
133.535
 10
74.0209
 20
134.257
 10
72.6792
 20
134.956
 10
71.3255
 20
135.631
 10
69.9602
 20
136.282
 10
68.5838
 20
136.909
 10
67.1967
 20
137.512
 10
65.7992
 20
138.091
 10
64.3919
 20
138.645
 10
62.9751
 20
139.175
 10
6.30395
 20
159.402
 10
4.2414
 20
159.954
 10
2.13238
 20
160.288
 10
0
 20
160.4
 10
-2.13238
 20
160.288
 10
-4.2414
 20
159.954
 10
-6.30395
 20
159.402
 10
-8.29743
 20
158.636
 10
-10.2
 20
157.667
 10
-11.9908
 20
156.504
 10
-13.6503
 20
155.16
 10
-121.208
 20
67.3526
 10
-122.375
 20
66.3905
 10
-123.525
 20
65.4082
 10
-124.658
 20
64.4059
 10
-125.773
 20
63.384
 10
-126.87
 20
62.3428
 10
-127.949
 20
61.2826
 10
-129.009
 20
60.2037
 10
-130.051
 20
59.1065
 10
-131.073
 20
57.9913
 10
-132.075
 20
56.8584
 10
-133.057
 20
55.7083
 10
-134.019
 20
54.5411
 10
-134.961
 20
53.3573
 10
-135.882
 20
52.1573
 10
-136.781
 20
50.9414
 10
-137.66
 20
49.71
 10
-138.517
 20
48.4634
 10
-139.351
 20
47.202
 10
-140.164
 20
45.9263
 10
-140.954
 20
44.6366
 10
-141.722
 20
43.3333
 10
-142.467
 20
42.0168
 10
-143.189
 20
40.6875
 10
-143.887
 20
39.3458
 10
-144.562
 20
37.9922
 10
-145.213
 20
36.6269
 10
-145.841
 20
35.2505
 10
-146.444
 20
33.8634
 10
-147.023
 20
32.4659
 10
-147.577
 20
31.0586
 10
-148.107
 20
29.6417
 10
-148.612
 20
28.2159
 10
-149.092
 20
26.7815
 10
-149.546
 20
25.3389
 10
-149.976
 20
23.8886
 10
-150.38
 20
22.431
 10
-150.759
 20
20.9666
 10
-151.112
 20
19.4958
 10
-151.439
 20
18.019
 10
-151.741
 20
16.5368
 10
-152.017
 20
15.0495
 10
-152.266
 20
13.5577
 10
-152.49
 20
12.0617
 10
-152.687
 20
10.562
 10
-152.859
 20
9.05913
 10
-153.004
 20
7.5535
 10
-153.122
 20
6.04556
 10
-153.215
 20
4.53578
 10
-153.281
 20
3.02462
 10
-153.32
 20
1.51254
  0
LWPOLYLINE
100
AcDbEntity
  8
0
100
AcDbPolyline
 90
30
 70
1
 10
-145.433
 20
0
 10
-145.387
 20
0.436614
 10
-145.252
 20
0.854146
 10
-145.032
 20
1.23435
 10
-144.739
 20
1.5606
 10
-144.383
 20
1.81865
 10
-143.982
 20
1.99722
 10
-143.553
 20
2.0885
 10
-143.114
 20
2.0885
 10
-142.684
 20
1.99722
 10
-142.283
 20
1.81865
 10
-141.928
 20
1.5606
 10
-141.634
 20
1.23435
 10
-141.415
 20
0.854146
 10
-141.279
 20
0.436614
 10
-141.233
 20
0
 10
-141.279
 20
-0.436614
 10
-141.415
 20
-0.854146
 10
-141.634
 20
-1.23435
 10
-141.928
 20
-1.5606
 10
-142.283
 20
-1.81865
 10
-142.684
 20
-1.99722
 10
-143.114
 20
-2.0885
 10
-143.553
 20
-2.0885
 10
-143.982
 20
-1.99722
 10
-144.383
 20
-1.81865
 10
-144.739
 20
-1.5606
 10
-145.032
 20
-1.23435
 10
-145.252
 20
-0.854146
 10
-145.387
 20
-0.436614
  0
LWPOLYLINE
100
AcDbEntity
  8
0
100
AcDbPolyline
 90
30
 70
1
 10
-140.805
 20
-26.0751
 10
-140.728
 20
-25.6427
 10
-140.564
 20
-25.2357
 10
-140.318
 20
-24.8717
 10
-140.003
 20
-24.5667
 10
-139.63
 20
-24.3341
 10
-139.218
 20
-24.1839
 10
-138.783
 20
-24.1228
 10
-138.345
 20
-24.1534
 10
-137.923
 20
-24.2745
 10
-137.535
 20
-24.4806
 10
-137.199
 20
-24.7628
 10
-136.929
 20
-25.1087
 10
-136.736
 20
-25.5033
 10
-136.63
 20
-25.9293
 10
-136.615
 20
-26.368
 10
-136.691
 20
-26.8004
 10
-136.856
 20
-27.2074
 10
-137.101
 20
-27.5714
 10
-137.417
 20
-27.8764
 10
-137.789
 20
-28.109
 10
-138.202
 20
-28.2592
 10
-138.636
 20
-28.3203
 10
-139.074
 20
-28.2896
 10
-139.496
 20
-28.1686
 10
-139.884
 20
-27.9625
 10
-140.22
 20
-27.6803
 10
-140.491
 20
-27.3344
 10
-140.683
 20
-26.9398
 10
-140.789
 20
-26.5138
  0
LWPOLYLINE
100
AcDbEntity
  8
0
100
AcDbPolyline
 90
30
 70
1
 10
-140.805
 20
26.0751
 10
-140.789
 20
26.5138
 10
-140.683
 20
26.9398
 10
-140.491
 20
27.3344
 10
-140.22
 20
27.6803
 10
-139.884
 20
27.9625
 10
-139.496
 20
28.1686
 10
-139.074
 20
28.2896
 10
-138.636
 20
28.3203
 10
-138.202
 20
28.2592
 10
-137.789
 20
28.109
 10
-137.417
 20
27.8764
 10
-137.101
 20
27.5714
 10
-136.856
 20
27.2074
 10
-136.691
 20
26.8004
 10
-136.615
 20
26.368
 10
-136.63
 20
25.9293
 10
-136.736
 20
25.5033
 10
-136.929
 20
25.1087
 10
-137.199
 20
24.7628
 10
-137.535
 20
24.4806
 10
-137.923
 20
24.2745
 10
-138.345
 20
24.1534
 10
-138.783
 20
24.1228
 10
-139.218
 20
24.1839
 10
-139.63
 20
24.3341
 10
-140.003
 20
24.5667
 10
-140.318
 20
24.8717
 10
-140.564
 20
25.2357
 10
-140.728
 20
25.6427
  0
LWPOLYLINE
100
AcDbEntity
  8
0
100
AcDbPolyline
 90
30
 70
1
 10
-127.492
 20
-49.4269
 10
-127.476
 20
-48.9881
 10
-127.37
 20
-48.5621
 10
-127.178
 20
-48.1676
 10
-126.907
 20
-47.8216
 10
-126.571
 20
-47.5394
 10
-126.183
 20
-47.3333
 10
-125.761
 20
-47.2123
 10
-125.323
 20
-47.1817
 10
-124.889
 20
-47.2428
 10
-124.476
 20
-47.3929
 10
-124.104
 20
-47.6256
 10
-123.788
 20
-47.9305
 10
-123.543
 20
-48.2945
 10
-123.378
 20
-48.7015
 10
-123.302
 20
-49.1339
 10
-123.317
 20
-49.5726
 10
-123.423
 20
-49.9986
 10
-123.616
 20
-50.3932
 10
-123.886
 20
-50.7392
 10
-124.222
 20
-51.0214
 10
-124.61
 20
-51.2275
 10
-125.032
 20
-51.3485
 10
-125.47
 20
-51.3791
 10
-125.905
 20
-51.318
 10
-126.317
 20
-51.1679
 10
-126.69
 20
-50.9352
 10
-127.005
 20
-50.6302
 10
-127.251
 20
-50.2663
 10
-127.415
 20
-49.8592
  0
LWPOLYLINE
100
AcDbEntity
  8
0
100
AcDbPolyline
 90
30
 70
1
 10
-127.492
 20
49.4269
 10
-127.415
 20
49.8592
 10
-127.251
 20
50.2663
 10
-127.005
 20
50.6302
 10
-126.69
 20
50.9352
 10
-126.317
 20
51.1679
 10
-125.905
 20
51.318
 10
-125.47
 20
51.3791
 10
-125.032
 20
51.3485
 10
-124.61
 20
51.2275
 10
-124.222
 20
51.0214
 10
-123.886
 20
50.7392
 10
-123.616
 20
50.3932
 10
-123.423
 20
49.9986
 10
-123.317
 20
49.5726
 10
-123.302
 20
49.1339
 10
-123.378
 20
48.7015
 10
-123.543
 20
48.2945
 10
-123.788
 20
47.9305
 10
-124.104
 20
47.6256
 10
-124.476
 20
47.3929
 10
-124.889
 20
47.2428
 10
-125.323
 20
47.1817
 10
-125.761
 20
47.2123
 10
-126.183
 20
47.3333
 10
-126.571
 20
47.5394
 10
-126.907
 20
47.8216
 10
-127.178
 20
48.1676
 10
-127.37
 20
48.5621
 10
-127.476
 20
48.9881
  0
LWPOLYLINE
100
AcDbEntity
  8
0
100
AcDbPolyline
 90
30
 70
1
 10
-107.1
 20
-66.3953
 10
-107.054
 20
-65.9587
 10
-106.918
 20
-65.5411
 10
-106.699
 20
-65.1609
 10
-106.405
 20
-64.8347
 10
-106.05
 20
-64.5766
 10
-105.649
 20
-64.3981
 10
-105.22
 20
-64.3068
 10
-104.78
 20
-64.3068
 10
-104.351
 20
-64.3981
 10
-103.95
 20
-64.5766
 10
-103.595
 20
-64.8347
 10
-103.301
 20
-65.1609
 10
-103.082
 20
-65.5411
 10
-102.946
 20
-65.9587
 10
-102.9
 20
-66.3953
 10
-102.946
 20
-66.8319
 10
-103.082
 20
-67.2494
 10
-103.301
 20
-67.6296
 10
-103.595
 20
-67.9559
 10
-103.95
 20
-68.2139
 10
-104.351
 20
-68.3925
 10
-104.78
 20
-68.4838
 10
-105.22
 20
-68.4838
 10
-105.649
 20
-68.3925
 10
-106.05
 20
-68.2139
 10
-106.405
 20
-67.9559
 10
-106.699
 20
-67.6296
 10
-106.918
 20
-67.2494
 10
-107.054
 20
-66.8319
  0
LWPOLYLINE
100
AcDbEntity
  8
0
100
AcDbPolyline
 90
30
 70
1
 10
-107.1
 20
66.3953
 10
-107.054
 20
66.8319
 10
-106.918
 20
67.2494
 10
-106.699
 20
67.6296
 10
-106.405
 20
67.9559
 10
-106.05
 20
68.2139
 10
-105.649
 20
68.3925
 10
-105.22
 20
68.4838
 10
-104.78
 20
68.4838
 10
-104.351
 20
68.3925
 10
-103.95
 20
68.2139
 10
-103.595
 20
67.9559
 10
-103.301
 20
67.6296
 10
-103.082
 20
67.2494
 10
-102.946
 20
66.8319
 10
-102.9
 20
66.3953
 10
-102.946
 20
65.9587
 10
-103.082
 20
65.5411
 10
-103.301
 20
65.1609
 10
-103.595
 20
64.8347
 10
-103.95
 20
64.5766
 10
-104.351
 20
64.3981
 10
-104.78
 20
64.3068
 10
-105.22
 20
64.3068
 10
-105.649
 20
64.3981
 10
-106.05
 20
64.5766
 10
-106.405
 20
64.8347
 10
-106.699
 20
65.1609
 10
-106.918
 20
65.5411
 10
-107.054
 20
65.9587
  0
LWPOLYLINE
100
AcDbEntity
  8
0
100
AcDbPolyline
 90
30
 70
1
 10
-82.0746
 20
-75.3554
 10
-81.9983
 20
-74.9231
 10
-81.8339
 20
-74.516
 10
-81.5884
 20
-74.1521
 10
-81.2726
 20
-73.8471
 10
-80.9003
 20
-73.6145
 10
-80.4877
 20
-73.4643
 10
-80.053
 20
-73.4032
 10
-79.615
 20
-73.4338
 10
-79.193
 20
-73.5548
 10
-78.8054
 20
-73.7609
 10
-78.4691
 20
-74.0431
 10
-78.1988
 20
-74.3891
 10
-78.0063
 20
-74.7837
 10
-77.9001
 20
-75.2097
 10
-77.8848
 20
-75.6484
 10
-77.961
 20
-76.0808
 10
-78.1255
 20
-76.4878
 10
-78.371
 20
-76.8518
 10
-78.6868
 20
-77.1567
 10
-79.0591
 20
-77.3894
 10
-79.4717
 20
-77.5395
 10
-79.9064
 20
-77.6006
 10
-80.3444
 20
-77.57
 10
-80.7664
 20
-77.449
 10
-81.154
 20
-77.2429
 10
-81.4903
 20
-76.9607
 10
-81.7606
 20
-76.6148
 10
-81.953
 20
-76.2202
 10
-82.0593
 20
-75.7942
  0
LWPOLYLINE
100
AcDbEntity
  8
0
100
AcDbPolyline
 90
30
 70
1
 10
-82.0746
 20
75.3554
 10
-82.0593
 20
75.7942
 10
-81.953
 20
76.2202
 10
-81.7606
 20
76.6148
 10
-81.4903
 20
76.9607
 10
-81.154
 20
77.2429
 10
-80.7664
 20
77.449
 10
-80.3444
 20
77.57
 10
-79.9064
 20
77.6006
 10
-79.4717
 20
77.5395
 10
-79.0591
 20
77.3894
 10
-78.6868
 20
77.1567
 10
-78.371
 20
76.8518
 10
-78.1255
 20
76.4878
 10
-77.961
 20
76.0808
 10
-77.8848
 20
75.6484
 10
-77.9001
 20
75.2097
 10
-78.0063
 20
74.7837
 10
-78.1988
 20
74.3891
 10
-78.4691
 20
74.0431
 10
-78.8054
 20
73.7609
 10
-79.193
 20
73.5548
 10
-79.615
 20
73.4338
 10
-80.053
 20
73.4032
 10
-80.4877
 20
73.4643
 10
-80.9003
 20
73.6145
 10
-81.2726
 20
73.8471
 10
-81.5884
 20
74.1521
 10
-81.8339
 20
74.516
 10
-81.9983
 20
74.9231
  0
LWPOLYLINE
100
AcDbEntity
  8
0
100
AcDbPolyline
 90
60
 70
1
 10
-70.9667
 20
0
 10
-70.9431
 20
0.449471
 10
-70.8727
 20
0.89402
 10
-70.7562
 20
1.32877
 10
-70.5949
 20
1.74897
 10
-70.3906
 20
2.15
 10
-70.1454
 20
2.52748
 10
-69.8622
 20
2.87726
 10
-69.5439
 20
3.19552
 10
-69.1941
 20
3.47877
 10
-68.8167
 20
3.72391
 10
-68.4156
 20
3.92824
 10
-67.9954
 20
4.08954
 10
-67.5607
 20
4.20603
 10
-67.1161
 20
4.27644
 10
-66.6667
 20
4.3
 10
-66.2172
 20
4.27644
 10
-65.7726
 20
4.20603
 10
-65.3379
 20
4.08954
 10
-64.9177
 20
3.92824
 10
-64.5167
 20
3.72391
 10
-64.1392
 20
3.47877
 10
-63.7894
 20
3.19552
 10
-63.4711
 20
2.87726
 10
-63.1879
 20
2.52748
 10
-62.9428
 20
2.15
 10
-62.7384
 20
1.74897
 10
-62.5771
 20
1.32877
 10
-62.4606
 20
0.89402
 10
-62.3902
 20
0.449471
 10
-62.3667
 20
0
 10
-62.3902
 20
-0.449471
 10
-62.4606
 20
-0.89402
 10
-62.5771
 20
-1.32877
 10
-62.7384
 20
-1.74897
 10
-62.9428
 20
-2.15
 10
-63.1879
 20
-2.52748
 10
-63.4711
 20
-2.87726
 10
-63.7894
 20
-3.19552
 10
-64.1392
 20
-3.47877
 10
-64.5167
 20
-3.72391
 10
-64.9177
 20
-3.92824
 10
-65.3379
 20
-4.08954
 10
-65.7726
 20
-4.20603
 10
-66.2172
 20
-4.27644
 10
-66.6667
 20
-4.3
 10
-67.1161
 20
-4.27644
 10
-67.5607
 20
-4.20603
 10
-67.9954
 20
-4.08954
 10
-68.4156
 20
-3.92824
 10
-68.8167
 20
-3.72391
 10
-69.1941
 20
-3.47877
 10
-69.5439
 20
-3.19552
 10
-69.8622
 20
-2.87726
 10
-70.1454
 20
-2.52748
 10
-70.3906
 20
-2.15
 10
-70.5949
 20
-1.74897
 10
-70.7562
 20
-1.32877
 10
-70.8727
 20
-0.89402
 10
-70.9431
 20
-0.449471
  0
LWPOLYLINE
100
AcDbEntity
  8
0
100
AcDbPolyline
 90
30
 70
1
 10
-64.6348
 20
-36.3306
 10
-64.6348
 20
-35.8916
 10
-64.5435
 20
-35.4622
 10
-64.3649
 20
-35.0611
 10
-64.1069
 20
-34.7059
 10
-63.7806
 20
-34.4122
 10
-63.4004
 20
-34.1927
 10
-62.9829
 20
-34.057
 10
-62.5463
 20
-34.0111
 10
-62.1097
 20
-34.057
 10
-61.6921
 20
-34.1927
 10
-61.3119
 20
-34.4122
 10
-60.9857
 20
-34.7059
 10
-60.7276
 20
-35.0611
 10
-60.5491
 20
-35.4622
 10
-60.4578
 20
-35.8916
 10
-60.4578
 20
-36.3306
 10
-60.5491
 20
-36.76
 10
-60.7276
 20
-37.1611
 10
-60.9857
 20
-37.5163
 10
-61.3119
 20
-37.81
 10
-61.6921
 20
-38.0296
 10
-62.1097
 20
-38.1652
 10
-62.5463
 20
-38.2111
 10
-62.9829
 20
-38.1652
 10
-63.4004
 20
-38.0296
 10
-63.7806
 20
-37.81
 10
-64.1069
 20
-37.5163
 10
-64.3649
 20
-37.1611
 10
-64.5435
 20
-36.76
  0
LWPOLYLINE
100
AcDbEntity
  8
0
100
AcDbPolyline
 90
30
 70
1
 10
-57.1
 20
-95.2628
 10
-57.0541
 20
-94.8262
 10
-56.9184
 20
-94.4086
 10
-56.6989
 20
-94.0284
 10
-56.4052
 20
-93.7022
 10
-56.05
 20
-93.4441
 10
-55.6489
 20
-93.2656
 10
-55.2195
 20
-93.1743
 10
-54.7805
 20
-93.1743
 10
-54.3511
 20
-93.2656
 10
-53.95
 20
-93.4441
 10
-53.5948
 20
-93.7022
 10
-53.3011
 20
-94.0284
 10
-53.0816
 20
-94.4086
 10
-52.9459
 20
-94.8262
 10
-52.9
 20
-95.2628
 10
-52.9459
 20
-95.6994
 10
-53.0816
 20
-96.1169
 10
-53.3011
 20
-96.4971
 10
-53.5948
 20
-96.8234
 10
-53.95
 20
-97.0814
 10
-54.3511
 20
-97.26
 10
-54.7805
 20
-97.3513
 10
-55.2195
 20
-97.3513
 10
-55.6489
 20
-97.26
 10
-56.05
 20
-97.0814
 10
-56.4052
 20
-96.8234
 10
-56.6989
 20
-96.4971
 10
-56.9184
 20
-96.1169
 10
-57.0541
 20
-95.6994
  0
LWPOLYLINE
100
AcDbEntity
  8
0
100
AcDbPolyline
 90
30
 70
1
 10
-57.1
 20
95.2628
 10
-57.0541
 20
95.6994
 10
-56.9184
 20
96.1169
 10
-56.6989
 20
96.4971
 10
-56.4052
 20
96.8234
 10
-56.05
 20
97.0814
 10
-55.6489
 20
97.26
 10
-55.2195
 20
97.3513
 10
-54.7805
 20
97.3513
 10
-54.3511
 20
97.26
 10
-53.95
 20
97.0814
 10
-53.5948
 20
96.8234
 10
-53.3011
 20
96.4971
 10
-53.0816
 20
96.1169
 10
-52.9459
 20
95.6994
 10
-52.9
 20
95.2628
 10
-52.9459
 20
94.8262
 10
-53.0816
 20
94.4086
 10
-53.3011
 20
94.0284
 10
-53.5948
 20
93.7022
 10
-53.95
 20
93.4441
 10
-54.3511
 20
93.2656
 10
-54.7805
 20
93.1743
 10
-55.2195
 20
93.1743
 10
-55.6489
 20
93.2656
 10
-56.05
 20
93.4441
 10
-56.4052
 20
93.7022
 10
-56.6989
 20
94.0284
 10
-56.9184
 20
94.4086
 10
-57.0541
 20
94.8262
  0
LWPOLYLINE
100
AcDbEntity
  8
0
100
AcDbPolyline
 90
360
 70
1
 10
-43.2
 20
0
 10
-43.1934
 20
0.753943
 10
-43.1737
 20
1.50766
 10
-43.1408
 20
2.26091
 10
-43.0948
 20
3.01348
 10
-43.0356
 20
3.76513
 10
-42.9633
 20
4.51563
 10
-42.878
 20
5.26476
 10
-42.7796
 20
6.01228
 10
-42.6681
 20
6.75797
 10
-42.5437
 20
7.5016
 10
-42.4063
 20
8.24295
 10
-42.256
 20
8.98178
 10
-42.0928
 20
9.71789
 10
-41.9168
 20
10.451
 10
-41.728
 20
11.181
 10
-41.5265
 20
11.9075
 10
-41.3124
 20
12.6305
 10
-41.0856
 20
13.3495
 10
-40.8464
 20
14.0645
 10
-40.5947
 20
14.7753
 10
-40.3307
 20
15.4815
 10
-40.0543
 20
16.183
 10
-39.7658
 20
16.8796
 10
-39.4652
 20
17.571
 10
-39.1525
 20
18.2571
 10
-38.8279
 20
18.9376
 10
-38.4915
 20
19.6124
 10
-38.1433
 20
20.2812
 10
-37.7836
 20
20.9438
 10
-37.4123
 20
21.6
 10
-37.0296
 20
22.2496
 10
-36.6357
 20
22.8925
 10
-36.2306
 20
23.5284
 10
-35.8144
 20
24.1571
 10
-35.3874
 20
24.7785
 10
-34.9495
 20
25.3923
 10
-34.5011
 20
25.9984
 10
-34.0421
 20
26.5966
 10
-33.5727
 20
27.1866
 10
-33.0931
 20
27.7684
 10
-32.6035
 20
28.3417
 10
-32.1039
 20
28.9064
 10
-31.5945
 20
29.4623
 10
-31.0755
 20
30.0092
 10
-30.547
 20
30.547
 10
-30.0092
 20
31.0755
 10
-29.4623
 20
31.5945
 10
-28.9064
 20
32.1039
 10
-28.3417
 20
32.6035
 10
-27.7684
 20
33.0931
 10
-27.1866
 20
33.5727
 10
-26.5966
 20
34.0421
 10
-25.9984
 20
34.5011
 10
-25.3923
 20
34.9495
 10
-24.7785
 20
35.3874
 10
-24.1571
 20
35.8144
 10
-23.5284
 20
36.2306
 10
-22.8925
 20
36.6357
 10
-22.2496
 20
37.0296
 10
-21.6
 20
37.4123
 10
-20.9438
 20
37.7836
 10
-20.2812
 20
38.1433
 10
-19.6124
 20
38.4915
 10
-18.9376
 20
38.8279
 10
-18.2571
 20
39.1525
 10
-17.571
 20
39.4652
 10
-16.8796
 20
39.7658
 10
-16.183
 20
40.0543
 10
-15.4815
 20
40.3307
 10
-14.7753
 20
40.5947
 10
-14.0645
 20
40.8464
 10
-13.3495
 20
41.0856
 10
-12.6305
 20
41.3124
 10
-11.9075
 20
41.5265
 10
-11.181
 20
41.728
 10
-10.451
 20
41.9168
 10
-9.71789
 20
42.0928
 10
-8.98178
 20
42.256
 10
-8.24295
 20
42.4063
 10
-7.5016
 20
42.5437
 10
-6.75797
 20
42.6681
 10
-6.01228
 20
42.7796
 10
-5.26476
 20
42.878
 10
-4.51563
 20
42.9633
 10
-3.76513
 20
43.0356
 10
-3.01348
 20
43.0948
 10
-2.26091
 20
43.1408
 10
-1.50766
 20
43.1737
 10
-0.753943
 20
43.1934
 10
0
 20
43.2
 10
0.753943
 20
43.1934
 10
1.50766
 20
43.1737
 10
2.26091
 20
43.1408
 10
3.01348
 20
43.0948
 10
3.76513
 20
43.0356
 10
4.51563
 20
42.9633
 10
5.26476
 20
42.878
 10
6.01228
 20
42.7796
 10
6.75797
 20
42.6681
 10
7.5016
 20
42.5437
 10
8.24295
 20
42.4063
 10
8.98178
 20
42.256
 10
9.71789
 20
42.0928
 10
10.451
 20
41.9168
 10
11.181
 20
41.728
 10
11.9075
 20
41.5265
 10
12.6305
 20
41.3124
 10
13.3495
 20
41.0856
 10
14.0645
 20
40.8464
 10
14.7753
 20
40.5947
 10
15.4815
 20
40.3307
 10
16.183
 20
40.0543
 10
16.8796
 20
39.7658
 10
17.571
 20
39.4652
 10
18.2571
 20
39.1525
 10
18.9376
 20
38.8279
 10
19.6124
 20
38.4915
 10
20.2812
 20
38.1433
 10
20.9438
 20
37.7836
 10
21.6
 20
37.4123
 10
22.2496
 20
37.0296
 10
22.8925
 20
36.6357
 10
23.5284
 20
36.2306
 10
24.1571
 20
35.8144
 10
24.7785
 20
35.3874
 10
25.3923
 20
34.9495
 10
25.9984
 20
34.5011
 10
26.5966
 20
34.0421
 10
27.1866
 20
33.5727
 10
27.7684
 20
33.0931
 10
28.3417
 20
32.6035
 10
28.9064
 20
32.1039
 10
29.4623
 20
31.5945
 10
30.0092
 20
31.0755
 10
30.547
 20
30.547
 10
31.0755
 20
30.0092
 10
31.5945
 20
29.4623
 10
32.1039
 20
28.9064
 10
32.6035
 20
28.3417
 10
33.0931
 20
27.7684
 10
33.5727
 20
27.1866
 10
34.0421
 20
26.5966
 10
34.5011
 20
25.9984
 10
34.9495
 20
25.3923
 10
35.3874
 20
24.7785
 10
35.8144
 20
24.1571
 10
36.2306
 20
23.5284
 10
36.6357
 20
22.8925
 10
37.0296
 20
22.2496
 10
37.4123
 20
21.6
 10
37.7836
 20
20.9438
 10
38.1433
 20
20.2812
 10
38.4915
 20
19.6124
 10
38.8279
 20
18.9376
 10
39.1525
 20
18.2571
 10
39.4652
 20
17.571
 10
39.7658
 20
16.8796
 10
40.0543
 20
16.183
 10
40.3307
 20
15.4815
 10
40.5947
 20
14.7753
 10
40.8464
 20
14.0645
 10
41.0856
 20
13.3495
 10
41.3124
 20
12.6305
 10
41.5265
 20
11.9075
 10
41.728
 20
11.181
 10
41.9168
 20
10.451
 10
42.0928
 20
9.71789
 10
42.256
 20
8.98178
 10
42.4063
 20
8.24295
 10
42.5437
 20
7.5016
 10
42.6681
 20
6.75797
 10
42.7796
 20
6.01228
 10
42.878
 20
5.26476
 10
42.9633
 20
4.51563
 10
43.0356
 20
3.76513
 10
43.0948
 20
3.01348
 10
43.1408
 20
2.26091
 10
43.1737
 20
1.50766
 10
43.1934
 20
0.753943
 10
43.2
 20
0
 10
43.1934
 20
-0.753943
 10
43.1737
 20
-1.50766
 10
43.1408
 20
-2.26091
 10
43.0948
 20
-3.01348
 10
43.0356
 20
-3.76513
 10
42.9633
 20
-4.51563
 10
42.878
 20
-5.26476
 10
42.7796
 20
-6.01228
 10
42.6681
 20
-6.75797
 10
42.5437
 20
-7.5016
 10
42.4063
 20
-8.24295
 10
42.256
 20
-8.98178
 10
42.0928
 20
-9.71789
 10
41.9168
 20
-10.451
 10
41.728
 20
-11.181
 10
41.5265
 20
-11.9075
 10
41.3124
 20
-12.6305
 10
41.0856
 20
-13.3495
 10
40.8464
 20
-14.0645
 10
40.5947
 20
-14.7753
 10
40.3307
 20
-15.4815
 10
40.0543
 20
-16.183
 10
39.7658
 20
-16.8796
 10
39.4652
 20
-17.571
 10
39.1525
 20
-18.2571
 10
38.8279
 20
-18.9376
 10
38.4915
 20
-19.6124
 10
38.1433
 20
-20.2812
 10
37.7836
 20
-20.9438
 10
37.4123
 20
-21.6
 10
37.0296
 20
-22.2496
 10
36.6357
 20
-22.8925
 10
36.2306
 20
-23.5284
 10
35.8144
 20
-24.1571
 10
35.3874
 20
-24.7785
 10
34.9495
 20
-25.3923
 10
34.5011
 20
-25.9984
 10
34.0421
 20
-26.5966
 10
33.5727
 20
-27.1866
 10
33.0931
 20
-27.7684
 10
32.6035
 20
-28.3417
 10
32.1039
 20
-28.9064
 10
31.5945
 20
-29.4623
 10
31.0755
 20
-30.0092
 10
30.547
 20
-30.547
 10
30.0092
 20
-31.0755
 10
29.4623
 20
-31.5945
 10
28.9064
 20
-32.1039
 10
28.3417
 20
-32.6035
 10
27.7684
 20
-33.0931
 10
27.1866
 20
-33.5727
 10
26.5966
 20
-34.0421
 10
25.9984
 20
-34.5011
 10
25.3923
 20
-34.9495
 10
24.7785
 20
-35.3874
 10
24.1571
 20
-35.8144
 10
23.5284
 20
-36.2306
 10
22.8925
 20
-36.6357
 10
22.2496
 20
-37.0296
 10
21.6
 20
-37.4123
 10
20.9438
 20
-37.7836
 10
20.2812
 20
-38.1433
 10
19.6124
 20
-38.4915
 10
18.9376
 20
-38.8279
 10
18.2571
 20
-39.1525
 10
17.571
 20
-39.4652
 10
16.8796
 20
-39.7658
 10
16.183
 20
-40.0543
 10
15.4815
 20
-40.3307
 10
14.7753
 20
-40.5947
 10
14.0645
 20
-40.8464
 10
13.3495
 20
-41.0856
 10
12.6305
 20
-41.3124
 10
11.9075
 20
-41.5265
 10
11.181
 20
-41.728
 10
10.451
 20
-41.9168
 10
9.71789
 20
-42.0928
 10
8.98178
 20
-42.256
 10
8.24295
 20
-42.4063
 10
7.5016
 20
-42.5437
 10
6.75797
 20
-42.6681
 10
6.01228
 20
-42.7796
 10
5.26476
 20
-42.878
 10
4.51563
 20
-42.9633
 10
3.76513
 20
-43.0356
 10
3.01348
 20
-43.0948
 10
2.26091
 20
-43.1408
 10
1.50766
 20
-43.1737
 10
0.753943
 20
-43.1934
 10
0
 20
-43.2
 10
-0.753943
 20
-43.1934
 10
-1.50766
 20
-43.1737
 10
-2.26091
 20
-43.1408
 10
-3.01348
 20
-43.0948
 10
-3.76513
 20
-43.0356
 10
-4.51563
 20
-42.9633
 10
-5.26476
 20
-42.878
 10
-6.01228
 20
-42.7796
 10
-6.75797
 20
-42.6681
 10
-7.5016
 20
-42.5437
 10
-8.24295
 20
-42.4063
 10
-8.98178
 20
-42.256
 10
-9.71789
 20
-42.0928
 10
-10.451
 20
-41.9168
 10
-11.181
 20
-41.728
 10
-11.9075
 20
-41.5265
 10
-12.6305
 20
-41.3124
 10
-13.3495
 20
-41.0856
 10
-14.0645
 20
-40.8464
 10
-14.7753
 20
-40.5947
 10
-15.4815
 20
-40.3307
 10
-16.183
 20
-40.0543
 10
-16.8796
 20
-39.7658
 10
-17.571
 20
-39.4652
 10
-18.2571
 20
-39.1525
 10
-18.9376
 20
-38.8279
 10
-19.6124
 20
-38.4915
 10
-20.2812
 20
-38.1433
 10
-20.9438
 20
-37.7836
 10
-21.6
 20
-37.4123
 10
-22.2496
 20
-37.0296
 10
-22.8925
 20
-36.6357
 10
-23.5284
 20
-36.2306
 10
-24.1571
 20
-35.8144
 10
-24.7785
 20
-35.3874
 10
-25.3923
 20
-34.9495
 10
-25.9984
 20
-34.5011
 10
-26.5966
 20
-34.0421
 10
-27.1866
 20
-33.5727
 10
-27.7684
 20
-33.0931
 10
-28.3417
 20
-32.6035
 10
-28.9064
 20
-32.1039
 10
-29.4623
 20
-31.5945
 10
-30.0092
 20
-31.0755
 10
-30.547
 20
-30.547
 10
-31.0755
 20
-30.0092
 10
-31.5945
 20
-29.4623
 10
-32.1039
 20
-28.9064
 10
-32.6035
 20
-28.3417
 10
-33.0931
 20
-27.7684
 10
-33.5727
 20
-27.1866
 10
-34.0421
 20
-26.5966
 10
-34.5011
 20
-25.9984
 10
-34.9495
 20
-25.3923
 10
-35.3874
 20
-24.7785
 10
-35.8144
 20
-24.1571
 10
-36.2306
 20
-23.5284
 10
-36.6357
 20
-22.8925
 10
-37.0296
 20
-22.2496
 10
-37.4123
 20
-21.6
 10
-37.7836
 20
-20.9438
 10
-38.1433
 20
-20.2812
 10
-38.4915
 20
-19.6124
 10
-38.8279
 20
-18.9376
 10
-39.1525
 20
-18.2571
 10
-39.4652
 20
-17.571
 10
-39.7658
 20
-16.8796
 10
-40.0543
 20
-16.183
 10
-40.3307
 20
-15.4815
 10
-40.5947
 20
-14.7753
 10
-40.8464
 20
-14.0645
 10
-41.0856
 20
-13.3495
 10
-41.3124
 20
-12.6305
 10
-41.5265
 20
-11.9075
 10
-41.728
 20
-11.181
 10
-41.9168
 20
-10.451
 10
-42.0928
 20
-9.71789
 10
-42.256
 20
-8.98178
 10
-42.4063
 20
-8.24295
 10
-42.5437
 20
-7.5016
 10
-42.6681
 20
-6.75797
 10
-42.7796
 20
-6.01228
 10
-42.878
 20
-5.26476
 10
-42.9633
 20
-4.51563
 10
-43.0356
 20
-3.76513
 10
-43.0948
 20
-3.01348
 10
-43.1408
 20
-2.26091
 10
-43.1737
 20
-1.50766
 10
-43.1934
 20
-0.753943
  0
LWPOLYLINE
100
AcDbEntity
  8
0
100
AcDbPolyline
 90
60
 70
1
 10
-35.4333
 20
-57.735
 10
-35.4218
 20
-57.5155
 10
-35.3874
 20
-57.2984
 10
-35.3306
 20
-57.0861
 10
-35.2518
 20
-56.8809
 10
-35.152
 20
-56.685
 10
-35.0323
 20
-56.5007
 10
-34.8939
 20
-56.3299
 10
-34.7385
 20
-56.1744
 10
-34.5677
 20
-56.0361
 10
-34.3833
 20
-55.9164
 10
-34.1875
 20
-55.8166
 10
-33.9823
 20
-55.7378
 10
-33.7699
 20
-55.6809
 10
-33.5528
 20
-55.6465
 10
-33.3333
 20
-55.635
 10
-33.1138
 20
-55.6465
 10
-32.8967
 20
-55.6809
 10
-32.6844
 20
-55.7378
 10
-32.4792
 20
-55.8166
 10
-32.2833
 20
-55.9164
 10
-32.099
 20
-56.0361
 10
-31.9282
 20
-56.1744
 10
-31.7727
 20
-56.3299
 10
-31.6344
 20
-56.5007
 10
-31.5147
 20
-56.685
 10
-31.4149
 20
-56.8809
 10
-31.3361
 20
-57.0861
 10
-31.2792
 20
-57.2984
 10
-31.2448
 20
-57.5155
 10
-31.2333
 20
-57.735
 10
-31.2448
 20
-57.9545
 10
-31.2792
 20
-58.1716
 10
-31.3361
 20
-58.384
 10
-31.4149
 20
-58.5892
 10
-31.5147
 20
-58.785
 10
-31.6344
 20
-58.9694
 10
-31.7727
 20
-59.1402
 10
-31.9282
 20
-59.2956
 10
-32.099
 20
-59.434
 10
-32.2833
 20
-59.5537
 10
-32.4792
 20
-59.6535
 10
-32.6844
 20
-59.7322
 10
-32.8967
 20
-59.7891
 10
-33.1138
 20
-59.8235
 10
-33.3333
 20
-59.835
 10
-33.5528
 20
-59.8235
 10
-33.7699
 20
-59.7891
 10
-33.9823
 20
-59.7322
 10
-34.1875
 20
-59.6535
 10
-34.3833
 20
-59.5537
 10
-34.5677
 20
-59.434
 10
-34.7385
 20
-59.2956
 10
-34.8939
 20
-59.1402
 10
-35.0323
 20
-58.9694
 10
-35.152
 20
-58.785
 10
-35.2518
 20
-58.5892
 10
-35.3306
 20
-58.384
 10
-35.3874
 20
-58.1716
 10
-35.4218
 20
-57.9545
  0
LWPOLYLINE
100
AcDbEntity
  8
0
100
AcDbPolyline
 90
60
 70
1
 10
-35.4333
 20
57.735
 10
-35.4218
 20
57.9545
 10
-35.3874
 20
58.1716
 10
-35.3306
 20
58.384
 10
-35.2518
 20
58.5892
 10
-35.152
 20
58.785
 10
-35.0323
 20
58.9694
 10
-34.8939
 20
59.1402
 10
-34.7385
 20
59.2956
 10
-34.5677
 20
59.434
 10
-34.3833
 20
59.5537
 10
-34.1875
 20
59.6535
 10
-33.9823
 20
59.7322
 10
-33.7699
 20
59.7891
 10
-33.5528
 20
59.8235
 10
-33.3333
 20
59.835
 10
-33.1138
 20
59.8235
 10
-32.8967
 20
59.7891
 10
-32.6844
 20
59.7322
 10
-32.4792
 20
59.6535
 10
-32.2833
 20
59.5537
 10
-32.099
 20
59.434
 10
-31.9282
 20
59.2956
 10
-31.7727
 20
59.1402
 10
-31.6344
 20
58.9694
 10
-31.5147
 20
58.785
 10
-31.4149
 20
58.5892
 10
-31.3361
 20
58.384
 10
-31.2792
 20
58.1716
 10
-31.2448
 20
57.9545
 10
-31.2333
 20
57.735
 10
-31.2448
 20
57.5155
 10
-31.2792
 20
57.2984
 10
-31.3361
 20
57.0861
 10
-31.4149
 20
56.8809
 10
-31.5147
 20
56.685
 10
-31.6344
 20
56.5007
 10
-31.7727
 20
56.3299
 10
-31.9282
 20
56.1744
 10
-32.099
 20
56.0361
 10
-32.2833
 20
55.9164
 10
-32.4792
 20
55.8166
 10
-32.6844
 20
55.7378
 10
-32.8967
 20
55.6809
 10
-33.1138
 20
55.6465
 10
-33.3333
 20
55.635
 10
-33.5528
 20
55.6465
 10
-33.7699
 20
55.6809
 10
-33.9823
 20
55.7378
 10
-34.1875
 20
55.8166
 10
-34.3833
 20
55.9164
 10
-34.5677
 20
56.0361
 10
-34.7385
 20
56.1744
 10
-34.8939
 20
56.3299
 10
-35.0323
 20
56.5007
 10
-35.152
 20
56.685
 10
-35.2518
 20
56.8809
 10
-35.3306
 20
57.0861
 10
-35.3874
 20
57.2984
 10
-35.4218
 20
57.5155
  0
LWPOLYLINE
100
AcDbEntity
  8
0
100
AcDbPolyline
 90
30
 70
1
 10
-34.6
 20
63.2667
 10
-34.565
 20
63.5993
 10
-34.4617
 20
63.9174
 10
-34.2944
 20
64.2071
 10
-34.0706
 20
64.4557
 10
-33.8
 20
64.6523
 10
-33.4944
 20
64.7884
 10
-33.1672
 20
64.8579
 10
-32.8328
 20
64.8579
 10
-32.5056
 20
64.7884
 10
-32.2
 20
64.6523
 10
-31.9294
 20
64.4557
 10
-31.7056
 20
64.2071
 10
-31.5383
 20
63.9174
 10
-31.435
 20
63.5993
 10
-31.4
 20
63.2667
 10
-31.435
 20
62.934
 10
-31.5383
 20
62.6159
 10
-31.7056
 20
62.3262
 10
-31.9294
 20
62.0776
 10
-32.2
 20
61.881
 10
-32.5056
 20
61.745
 10
-32.8328
 20
61.6754
 10
-33.1672
 20
61.6754
 10
-33.4944
 20
61.745
 10
-33.8
 20
61.881
 10
-34.0706
 20
62.0776
 10
-34.2944
 20
62.3262
 10
-34.4617
 20
62.6159
 10
-34.565
 20
62.934
  0
LWPOLYLINE
100
AcDbEntity
  8
0
100
AcDbPolyline
 90
30
 70
1
 10
-27.4916
 20
-107.162
 10
-27.4763
 20
-106.723
 10
-27.3701
 20
-106.297
 10
-27.1776
 20
-105.903
 10
-26.9074
 20
-105.557
 10
-26.571
 20
-105.274
 10
-26.1834
 20
-105.068
 10
-25.7614
 20
-104.947
 10
-25.3235
 20
-104.917
 10
-24.8887
 20
-104.978
 10
-24.4762
 20
-105.128
 10
-24.1039
 20
-105.361
 10
-23.788
 20
-105.666
 10
-23.5426
 20
-106.03
 10
-23.3781
 20
-106.437
 10
-23.3019
 20
-106.869
 10
-23.3172
 20
-107.308
 10
-23.4234
 20
-107.734
 10
-23.6158
 20
-108.128
 10
-23.8861
 20
-108.474
 10
-24.2224
 20
-108.756
 10
-24.6101
 20
-108.962
 10
-25.0321
 20
-109.084
 10
-25.47
 20
-109.114
 10
-25.9048
 20
-109.053
 10
-26.3173
 20
-108.903
 10
-26.6896
 20
-108.67
 10
-27.0054
 20
-108.365
 10
-27.2509
 20
-108.001
 10
-27.4154
 20
-107.594
  0
LWPOLYLINE
100
AcDbEntity
  8
0
100
AcDbPolyline
 90
30
 70
1
 10
-27.4916
 20
107.162
 10
-27.4154
 20
107.594
 10
-27.2509
 20
108.001
 10
-27.0054
 20
108.365
 10
-26.6896
 20
108.67
 10
-26.3173
 20
108.903
 10
-25.9048
 20
109.053
 10
-25.47
 20
109.114
 10
-25.0321
 20
109.084
 10
-24.6101
 20
108.962
 10
-24.2224
 20
108.756
 10
-23.8861
 20
108.474
 10
-23.6158
 20
108.128
 10
-23.4234
 20
107.734
 10
-23.3172
 20
107.308
 10
-23.3019
 20
106.869
 10
-23.3781
 20
106.437
 10
-23.5426
 20
106.03
 10
-23.788
 20
105.666
 10
-24.1039
 20
105.361
 10
-24.4762
 20
105.128
 10
-24.8887
 20
104.978
 10
-25.3235
 20
104.917
 10
-25.7614
 20
104.947
 10
-26.1834
 20
105.068
 10
-26.571
 20
105.274
 10
-26.9074
 20
105.557
 10
-27.1776
 20
105.903
 10
-27.3701
 20
106.297
 10
-27.4763
 20
106.723
  0
LWPOLYLINE
100
AcDbEntity
  8
0
100
AcDbPolyline
 90
30
 70
1
 10
-12.4
 20
73.5667
 10
-12.365
 20
73.8993
 10
-12.2617
 20
74.2174
 10
-12.0944
 20
74.5071
 10
-11.8706
 20
74.7557
 10
-11.6
 20
74.9523
 10
-11.2944
 20
75.0884
 10
-10.9672
 20
75.1579
 10
-10.6328
 20
75.1579
 10
-10.3056
 20
75.0884
 10
-10
 20
74.9523
 10
-9.72939
 20
74.7557
 10
-9.50557
 20
74.5071
 10
-9.33833
 20
74.2174
 10
-9.23496
 20
73.8993
 10
-9.2
 20
73.5667
 10
-9.23496
 20
73.234
 10
-9.33833
 20
72.9159
 10
-9.50557
 20
72.6262
 10
-9.72939
 20
72.3776
 10
-10
 20
72.181
 10
-10.3056
 20
72.045
 10
-10.6328
 20
71.9754
 10
-10.9672
 20
71.9754
 10
-11.2944
 20
72.045
 10
-11.6
 20
72.181
 10
-11.8706
 20
72.3776
 10
-12.0944
 20
72.6262
 10
-12.2617
 20
72.9159
 10
-12.365
 20
73.234
  0
LWPOLYLINE
100
AcDbEntity
  8
0
100
AcDbPolyline
 90
30
 70
1
 10
-7.1
 20
-124.13
 10
-7.05411
 20
-123.694
 10
-6.91845
 20
-123.276
 10
-6.69894
 20
-122.896
 10
-6.40517
 20
-122.57
 10
-6.05
 20
-122.312
 10
-5.64894
 20
-122.133
 10
-5.21951
 20
-122.042
 10
-4.78049
 20
-122.042
 10
-4.35106
 20
-122.133
 10
-3.95
 20
-122.312
 10
-3.59483
 20
-122.57
 10
-3.30106
 20
-122.896
 10
-3.08155
 20
-123.276
 10
-2.94589
 20
-123.694
 10
-2.9
 20
-124.13
 10
-2.94589
 20
-124.567
 10
-3.08155
 20
-124.984
 10
-3.30106
 20
-125.365
 10
-3.59483
 20
-125.691
 10
-3.95
 20
-125.949
 10
-4.35106
 20
-126.128
 10
-4.78049
 20
-126.219
 10
-5.21951
 20
-126.219
 10
-5.64894
 20
-126.128
 10
-6.05
 20
-125.949
 10
-6.40517
 20
-125.691
 10
-6.69894
 20
-125.365
 10
-6.91844
 20
-124.984
 10
-7.05411
 20
-124.567
  0
LWPOLYLINE
100
AcDbEntity
  8
0
100
AcDbPolyline
 90
30
 70
1
 10
-7.1
 20
124.13
 10
-7.05411
 20
124.567
 10
-6.91844
 20
124.984
 10
-6.69894
 20
125.365
 10
-6.40517
 20
125.691
 10
-6.05
 20
125.949
 10
-5.64894
 20
126.128
 10
-5.21951
 20
126.219
 10
-4.78049
 20
126.219
 10
-4.35106
 20
126.128
 10
-3.95
 20
125.949
 10
-3.59483
 20
125.691
 10
-3.30106
 20
125.365
 10
-3.08155
 20
124.984
 10
-2.94589
 20
124.567
 10
-2.9
 20
124.13
 10
-2.94589
 20
123.694
 10
-3.08155
 20
123.276
 10
-3.30106
 20
122.896
 10
-3.59483
 20
122.57
 10
-3.95
 20
122.312
 10
-4.35106
 20
122.133
 10
-4.78049
 20
122.042
 10
-5.21951
 20
122.042
 10
-5.64894
 20
122.133
 10
-6.05
 20
122.312
 10
-6.40517
 20
122.57
 10
-6.69894
 20
122.896
 10
-6.91845
 20
123.276
 10
-7.05411
 20
123.694
  0
LWPOLYLINE
100
AcDbEntity
  8
0
100
AcDbPolyline
 90
60
 70
1
 10
-5.1
 20
-140
 10
-5.07206
 20
-139.467
 10
-4.98855
 20
-138.94
 10
-4.85039
 20
-138.424
 10
-4.65908
 20
-137.926
 10
-4.41673
 20
-137.45
 10
-4.12599
 20
-137.002
 10
-3.79004
 20
-136.587
 10
-3.41257
 20
-136.21
 10
-2.9977
 20
-135.874
 10
-2.55
 20
-135.583
 10
-2.07436
 20
-135.341
 10
-1.57599
 20
-135.15
 10
-1.06035
 20
-135.011
 10
-0.533094
 20
-134.928
 10
0
 20
-134.9
 10
0.533094
 20
-134.928
 10
1.06035
 20
-135.011
 10
1.57599
 20
-135.15
 10
2.07436
 20
-135.341
 10
2.55
 20
-135.583
 10
2.9977
 20
-135.874
 10
3.41257
 20
-136.21
 10
3.79004
 20
-136.587
 10
4.12599
 20
-137.002
 10
4.41673
 20
-137.45
 10
4.65908
 20
-137.926
 10
4.85039
 20
-138.424
 10
4.98855
 20
-138.94
 10
5.07206
 20
-139.467
 10
5.1
 20
-140
 10
5.07206
 20
-140.533
 10
4.98855
 20
-141.06
 10
4.85039
 20
-141.576
 10
4.65908
 20
-142.074
 10
4.41673
 20
-142.55
 10
4.12599
 20
-142.998
 10
3.79004
 20
-143.413
 10
3.41257
 20
-143.79
 10
2.9977
 20
-144.126
 10
2.55
 20
-144.417
 10
2.07436
 20
-144.659
 10
1.57599
 20
-144.85
 10
1.06035
 20
-144.989
 10
0.533094
 20
-145.072
 10
0
 20
-145.1
 10
-0.533094
 20
-145.072
 10
-1.06035
 20
-144.989
 10
-1.57599
 20
-144.85
 10
-2.07436
 20
-144.659
 10
-2.55
 20
-144.417
 10
-2.9977
 20
-144.126
 10
-3.41257
 20
-143.79
 10
-3.79004
 20
-143.413
 10
-4.12599
 20
-142.998
 10
-4.41673
 20
-142.55
 10
-4.65908
 20
-142.074
 10
-4.85039
 20
-141.576
 10
-4.98855
 20
-141.06
 10
-5.07206
 20
-140.533
  0
LWPOLYLINE
100
AcDbEntity
  8
0
100
AcDbPolyline
 90
60
 70
1
 10
-5.1
 20
140
 10
-5.07206
 20
140.533
 10
-4.98855
 20
141.06
 10
-4.85039
 20
141.576
 10
-4.65908
 20
142.074
 10
-4.41673
 20
142.55
 10
-4.12599
 20
142.998
 10
-3.79004
 20
143.413
 10
-3.41257
 20
143.79
 10
-2.9977
 20
144.126
 10
-2.55
 20
144.417
 10
-2.07436
 20
144.659
 10
-1.57599
 20
144.85
 10
-1.06035
 20
144.989
 10
-0.533094
 20
145.072
 10
0
 20
145.1
 10
0.533094
 20
145.072
 10
1.06035
 20
144.989
 10
1.57599
 20
144.85
 10
2.07436
 20
144.659
 10
2.55
 20
144.417
 10
2.9977
 20
144.126
 10
3.41257
 20
143.79
 10
3.79004
 20
143.413
 10
4.12599
 20
142.998
 10
4.41673
 20
142.55
 10
4.65908
 20
142.074
 10
4.85039
 20
141.576
 10
4.98855
 20
141.06
 10
5.07206
 20
140.533
 10
5.1
 20
140
 10
5.07206
 20
139.467
 10
4.98855
 20
138.94
 10
4.85039
 20
138.424
 10
4.65908
 20
137.926
 10
4.41673
 20
137.45
 10
4.12599
 20
137.002
 10
3.79004
 20
136.587
 10
3.41257
 20
136.21
 10
2.9977
 20
135.874
 10
2.55
 20
135.583
 10
2.07436
 20
135.341
 10
1.57599
 20
135.15
 10
1.06035
 20
135.011
 10
0.533094
 20
134.928
 10
0
 20
134.9
 10
-0.533094
 20
134.928
 10
-1.06035
 20
135.011
 10
-1.57599
 20
135.15
 10
-2.07436
 20
135.341
 10
-2.55
 20
135.583
 10
-2.9977
 20
135.874
 10
-3.41257
 20
136.21
 10
-3.79004
 20
136.587
 10
-4.12599
 20
137.002
 10
-4.41673
 20
137.45
 10
-4.65908
 20
137.926
 10
-4.85039
 20
138.424
 10
-4.98855
 20
138.94
 10
-5.07206
 20
139.467
  0
LWPOLYLINE
100
AcDbEntity
  8
0
100
AcDbPolyline
 90
30
 70
1
 10
-2.0885
 20
-72.4417
 10
-2.0885
 20
-72.0027
 10
-1.99722
 20
-71.5733
 10
-1.81865
 20
-71.1722
 10
-1.5606
 20
-70.817
 10
-1.23435
 20
-70.5233
 10
-0.854146
 20
-70.3038
 10
-0.436614
 20
-70.1681
 10
0
 20
-70.1222
 10
0.436614
 20
-70.1681
 10
0.854146
 20
-70.3038
 10
1.23435
 20
-70.5233
 10
1.5606
 20
-70.817
 10
1.81865
 20
-71.1722
 10
1.99722
 20
-71.5733
 10
2.0885
 20
-72.0027
 10
2.0885
 20
-72.4417
 10
1.99722
 20
-72.8712
 10
1.81865
 20
-73.2722
 10
1.5606
 20
-73.6274
 10
1.23435
 20
-73.9212
 10
0.854146
 20
-74.1407
 10
0.436614
 20
-74.2763
 10
0
 20
-74.3222
 10
-0.436614
 20
-74.2763
 10
-0.854146
 20
-74.1407
 10
-1.23435
 20
-73.9212
 10
-1.5606
 20
-73.6274
 10
-1.81865
 20
-73.2722
 10
-1.99722
 20
-72.8712
  0
LWPOLYLINE
100
AcDbEntity
  8
0
100
AcDbPolyline
 90
30
 70
1
 10
17.9254
 20
-133.09
 10
18.0017
 20
-132.658
 10
18.1661
 20
-132.251
 10
18.4116
 20
-131.887
 10
18.7274
 20
-131.582
 10
19.0997
 20
-131.349
 10
19.5123
 20
-131.199
 10
19.947
 20
-131.138
 10
20.385
 20
-131.169
 10
20.807
 20
-131.29
 10
21.1946
 20
-131.496
 10
21.5309
 20
-131.778
 10
21.8012
 20
-132.124
 10
21.9937
 20
-132.519
 10
22.0999
 20
-132.945
 10
22.1152
 20
-133.383
 10
22.039
 20
-133.816
 10
21.8745
 20
-134.223
 10
21.629
 20
-134.587
 10
21.3132
 20
-134.892
 10
20.9409
 20
-135.124
 10
20.5283
 20
-135.275
 10
20.0936
 20
-135.336
 10
19.6556
 20
-135.305
 10
19.2336
 20
-135.184
 10
18.846
 20
-134.978
 10
18.5097
 20
-134.696
 10
18.2394
 20
-134.35
 10
18.047
 20
-133.955
 10
17.9407
 20
-133.529
  0
LWPOLYLINE
100
AcDbEntity
  8
0
100
AcDbPolyline
 90
30
 70
1
 10
17.9254
 20
133.09
 10
17.9407
 20
133.529
 10
18.047
 20
133.955
 10
18.2394
 20
134.35
 10
18.5097
 20
134.696
 10
18.846
 20
134.978
 10
19.2336
 20
135.184
 10
19.6556
 20
135.305
 10
20.0936
 20
135.336
 10
20.5283
 20
135.275
 10
20.9409
 20
135.124
 10
21.3132
 20
134.892
 10
21.629
 20
134.587
 10
21.8745
 20
134.223
 10
22.039
 20
133.816
 10
22.1152
 20
133.383
 10
22.0999
 20
132.945
 10
21.9937
 20
132.519
 10
21.8012
 20
132.124
 10
21.5309
 20
131.778
 10
21.1946
 20
131.496
 10
20.807
 20
131.29
 10
20.385
 20
131.169
 10
19.947
 20
131.138
 10
19.5123
 20
131.199
 10
19.0997
 20
131.349
 10
18.7274
 20
131.582
 10
18.4116
 20
131.887
 10
18.1661
 20
132.251
 10
18.0017
 20
132.658
  0
LWPOLYLINE
100
AcDbEntity
  8
0
100
AcDbPolyline
 90
60
 70
1
 10
29.0333
 20
-57.735
 10
29.0569
 20
-57.2856
 10
29.1273
 20
-56.841
 10
29.2438
 20
-56.4063
 10
29.4051
 20
-55.9861
 10
29.6094
 20
-55.585
 10
29.8546
 20
-55.2076
 10
30.1378
 20
-54.8578
 10
30.4561
 20
-54.5395
 10
30.8059
 20
-54.2563
 10
31.1833
 20
-54.0111
 10
31.5844
 20
-53.8068
 10
32.0046
 20
-53.6455
 10
32.4393
 20
-53.529
 10
32.8839
 20
-53.4586
 10
33.3333
 20
-53.435
 10
33.7828
 20
-53.4586
 10
34.2274
 20
-53.529
 10
34.6621
 20
-53.6455
 10
35.0823
 20
-53.8068
 10
35.4833
 20
-54.0111
 10
35.8608
 20
-54.2563
 10
36.2106
 20
-54.5395
 10
36.5289
 20
-54.8578
 10
36.8121
 20
-55.2076
 10
37.0572
 20
-55.585
 10
37.2616
 20
-55.9861
 10
37.4229
 20
-56.4063
 10
37.5394
 20
-56.841
 10
37.6098
 20
-57.2856
 10
37.6333
 20
-57.735
 10
37.6098
 20
-58.1845
 10
37.5394
 20
-58.629
 10
37.4229
 20
-59.0638
 10
37.2616
 20
-59.484
 10
37.0572
 20
-59.885
 10
36.8121
 20
-60.2625
 10
36.5289
 20
-60.6123
 10
36.2106
 20
-60.9305
 10
35.8608
 20
-61.2138
 10
35.4833
 20
-61.4589
 10
35.0823
 20
-61.6633
 10
34.6621
 20
-61.8246
 10
34.2274
 20
-61.9411
 10
33.7828
 20
-62.0115
 10
33.3333
 20
-62.035
 10
32.8839
 20
-62.0115
 10
32.4393
 20
-61.9411
 10
32.0046
 20
-61.8246
 10
31.5844
 20
-61.6633
 10
31.1833
 20
-61.4589
 10
30.8059
 20
-61.2138
 10
30.4561
 20
-60.9305
 10
30.1378
 20
-60.6123
 10
29.8546
 20
-60.2625
 10
29.6094
 20
-59.885
 10
29.4051
 20
-59.484
 10
29.2438
 20
-59.0638
 10
29.1273
 20
-58.629
 10
29.0569
 20
-58.1845
  0
LWPOLYLINE
100
AcDbEntity
  8
0
100
AcDbPolyline
 90
60
 70
1
 10
29.0333
 20
57.735
 10
29.0569
 20
58.1845
 10
29.1273
 20
58.629
 10
29.2438
 20
59.0638
 10
29.4051
 20
59.484
 10
29.6094
 20
59.885
 10
29.8546
 20
60.2625
 10
30.1378
 20
60.6123
 10
30.4561
 20
60.9305
 10
30.8059
 20
61.2138
 10
31.1833
 20
61.4589
 10
31.5844
 20
61.6633
 10
32.0046
 20
61.8246
 10
32.4393
 20
61.9411
 10
32.8839
 20
62.0115
 10
33.3333
 20
62.035
 10
33.7828
 20
62.0115
 10
34.2274
 20
61.9411
 10
34.6621
 20
61.8246
 10
35.0823
 20
61.6633
 10
35.4833
 20
61.4589
 10
35.8608
 20
61.2138
 10
36.2106
 20
60.9305
 10
36.5289
 20
60.6123
 10
36.8121
 20
60.2625
 10
37.0572
 20
59.885
 10
37.2616
 20
59.484
 10
37.4229
 20
59.0638
 10
37.5394
 20
58.629
 10
37.6098
 20
58.1845
 10
37.6333
 20
57.735
 10
37.6098
 20
57.2856
 10
37.5394
 20
56.841
 10
37.4229
 20
56.4063
 10
37.2616
 20
55.9861
 10
37.0572
 20
55.585
 10
36.8121
 20
55.2076
 10
36.5289
 20
54.8578
 10
36.2106
 20
54.5395
 10
35.8608
 20
54.2563
 10
35.4833
 20
54.0111
 10
35.0823
 20
53.8068
 10
34.6621
 20
53.6455
 10
34.2274
 20
53.529
 10
33.7828
 20
53.4586
 10
33.3333
 20
53.435
 10
32.8839
 20
53.4586
 10
32.4393
 20
53.529
 10
32.0046
 20
53.6455
 10
31.5844
 20
53.8068
 10
31.1833
 20
54.0111
 10
30.8059
 20
54.2563
 10
30.4561
 20
54.5395
 10
30.1378
 20
54.8578
 10
29.8546
 20
55.2076
 10
29.6094
 20
55.585
 10
29.4051
 20
55.9861
 10
29.2438
 20
56.4063
 10
29.1273
 20
56.841
 10
29.0569
 20
57.2856
  0
LWPOLYLINE
100
AcDbEntity
  8
0
100
AcDbPolyline
 90
30
 70
1
 10
44.5515
 20
-133.383
 10
44.5668
 20
-132.945
 10
44.673
 20
-132.519
 10
44.8655
 20
-132.124
 10
45.1357
 20
-131.778
 10
45.4721
 20
-131.496
 10
45.8597
 20
-131.29
 10
46.2817
 20
-131.169
 10
46.7196
 20
-131.138
 10
47.1544
 20
-131.199
 10
47.5669
 20
-131.349
 10
47.9392
 20
-131.582
 10
48.2551
 20
-131.887
 10
48.5006
 20
-132.251
 10
48.665
 20
-132.658
 10
48.7412
 20
-133.09
 10
48.7259
 20
-133.529
 10
48.6197
 20
-133.955
 10
48.4273
 20
-134.35
 10
48.157
 20
-134.696
 10
47.8207
 20
-134.978
 10
47.433
 20
-135.184
 10
47.011
 20
-135.305
 10
46.5731
 20
-135.336
 10
46.1383
 20
-135.275
 10
45.7258
 20
-135.124
 10
45.3535
 20
-134.892
 10
45.0377
 20
-134.587
 10
44.7922
 20
-134.223
 10
44.6277
 20
-133.816
  0
LWPOLYLINE
100
AcDbEntity
  8
0
100
AcDbPolyline
 90
30
 70
1
 10
44.5515
 20
133.383
 10
44.6277
 20
133.816
 10
44.7922
 20
134.223
 10
45.0377
 20
134.587
 10
45.3535
 20
134.892
 10
45.7258
 20
135.124
 10
46.1383
 20
135.275
 10
46.5731
 20
135.336
 10
47.011
 20
135.305
 10
47.433
 20
135.184
 10
47.8207
 20
134.978
 10
48.157
 20
134.696
 10
48.4273
 20
134.35
 10
48.6197
 20
133.955
 10
48.7259
 20
133.529
 10
48.7412
 20
133.09
 10
48.665
 20
132.658
 10
48.5006
 20
132.251
 10
48.2551
 20
131.887
 10
47.9392
 20
131.582
 10
47.5669
 20
131.349
 10
47.1544
 20
131.199
 10
46.7196
 20
131.138
 10
46.2817
 20
131.169
 10
45.8597
 20
131.29
 10
45.4721
 20
131.496
 10
45.1357
 20
131.778
 10
44.8655
 20
132.124
 10
44.673
 20
132.519
 10
44.5668
 20
132.945
  0
LWPOLYLINE
100
AcDbEntity
  8
0
100
AcDbPolyline
 90
60
 70
1
 10
64.5667
 20
0
 10
64.5782
 20
0.219509
 10
64.6126
 20
0.436614
 10
64.6694
 20
0.648935
 10
64.7482
 20
0.854146
 10
64.848
 20
1.05
 10
64.9677
 20
1.23435
 10
65.1061
 20
1.40517
 10
65.2615
 20
1.5606
 10
65.4323
 20
1.69894
 10
65.6167
 20
1.81865
 10
65.8125
 20
1.91844
 10
66.0177
 20
1.99722
 10
66.2301
 20
2.05411
 10
66.4472
 20
2.0885
 10
66.6667
 20
2.1
 10
66.8862
 20
2.0885
 10
67.1033
 20
2.05411
 10
67.3156
 20
1.99722
 10
67.5208
 20
1.91844
 10
67.7167
 20
1.81865
 10
67.901
 20
1.69894
 10
68.0718
 20
1.5606
 10
68.2273
 20
1.40517
 10
68.3656
 20
1.23435
 10
68.4853
 20
1.05
 10
68.5851
 20
0.854146
 10
68.6639
 20
0.648935
 10
68.7208
 20
0.436614
 10
68.7552
 20
0.219509
 10
68.7667
 20
0
 10
68.7552
 20
-0.219509
 10
68.7208
 20
-0.436614
 10
68.6639
 20
-0.648935
 10
68.5851
 20
-0.854146
 10
68.4853
 20
-1.05
 10
68.3656
 20
-1.23435
 10
68.2273
 20
-1.40517
 10
68.0718
 20
-1.5606
 10
67.901
 20
-1.69894
 10
67.7167
 20
-1.81865
 10
67.5208
 20
-1.91844
 10
67.3156
 20
-1.99722
 10
67.1033
 20
-2.05411
 10
66.8862
 20
-2.0885
 10
66.6667
 20
-2.1
 10
66.4472
 20
-2.0885
 10
66.2301
 20
-2.05411
 10
66.0177
 20
-1.99722
 10
65.8125
 20
-1.91844
 10
65.6167
 20
-1.81865
 10
65.4323
 20
-1.69894
 10
65.2615
 20
-1.5606
 10
65.1061
 20
-1.40517
 10
64.9677
 20
-1.23435
 10
64.848
 20
-1.05
 10
64.7482
 20
-0.854146
 10
64.6694
 20
-0.648935
 10
64.6126
 20
-0.436614
 10
64.5782
 20
-0.219509
  0
LWPOLYLINE
100
AcDbEntity
  8
0
100
AcDbPolyline
 90
30
 70
1
 10
69.5667
 20
-124.13
 10
69.6126
 20
-123.694
 10
69.7482
 20
-123.276
 10
69.9677
 20
-122.896
 10
70.2615
 20
-122.57
 10
70.6167
 20
-122.312
 10
71.0177
 20
-122.133
 10
71.4472
 20
-122.042
 10
71.8862
 20
-122.042
 10
72.3156
 20
-122.133
 10
72.7167
 20
-122.312
 10
73.0718
 20
-122.57
 10
73.3656
 20
-122.896
 10
73.5851
 20
-123.276
 10
73.7208
 20
-123.694
 10
73.7667
 20
-124.13
 10
73.7208
 20
-124.567
 10
73.5851
 20
-124.984
 10
73.3656
 20
-125.365
 10
73.0718
 20
-125.691
 10
72.7167
 20
-125.949
 10
72.3156
 20
-126.128
 10
71.8862
 20
-126.219
 10
71.4472
 20
-126.219
 10
71.0177
 20
-126.128
 10
70.6167
 20
-125.949
 10
70.2615
 20
-125.691
 10
69.9677
 20
-125.365
 10
69.7482
 20
-124.984
 10
69.6126
 20
-124.567
  0
LWPOLYLINE
100
AcDbEntity
  8
0
100
AcDbPolyline
 90
30
 70
1
 10
69.5667
 20
124.13
 10
69.6126
 20
124.567
 10
69.7482
 20
124.984
 10
69.9677
 20
125.365
 10
70.2615
 20
125.691
 10
70.6167
 20
125.949
 10
71.0177
 20
126.128
 10
71.4472
 20
126.219
 10
71.8862
 20
126.219
 10
72.3156
 20
126.128
 10
72.7167
 20
125.949
 10
73.0718
 20
125.691
 10
73.3656
 20
125.365
 10
73.5851
 20
124.984
 10
73.7208
 20
124.567
 10
73.7667
 20
124.13
 10
73.7208
 20
123.694
 10
73.5851
 20
123.276
 10
73.3656
 20
122.896
 10
73.0718
 20
122.57
 10
72.7167
 20
122.312
 10
72.3156
 20
122.133
 10
71.8862
 20
122.042
 10
71.4472
 20
122.042
 10
71.0177
 20
122.133
 10
70.6167
 20
122.312
 10
70.2615
 20
122.57
 10
69.9677
 20
122.896
 10
69.7482
 20
123.276
 10
69.6126
 20
123.694
  0
LWPOLYLINE
100
AcDbEntity
  8
0
100
AcDbPolyline
 90
30
 70
1
 10
89.9685
 20
-106.869
 10
90.0448
 20
-106.437
 10
90.2092
 20
-106.03
 10
90.4547
 20
-105.666
 10
90.7705
 20
-105.361
 10
91.1428
 20
-105.128
 10
91.5554
 20
-104.978
 10
91.9901
 20
-104.917
 10
92.4281
 20
-104.947
 10
92.8501
 20
-105.068
 10
93.2377
 20
-105.274
 10
93.574
 20
-105.557
 10
93.8443
 20
-105.903
 10
94.0368
 20
-106.297
 10
94.143
 20
-106.723
 10
94.1583
 20
-107.162
 10
94.0821
 20
-107.594
 10
93.9176
 20
-108.001
 10
93.6721
 20
-108.365
 10
93.3563
 20
-108.67
 10
92.984
 20
-108.903
 10
92.5714
 20
-109.053
 10
92.1367
 20
-109.114
 10
91.6987
 20
-109.084
 10
91.2767
 20
-108.962
 10
90.8891
 20
-108.756
 10
90.5528
 20
-108.474
 10
90.2825
 20
-108.128
 10
90.0901
 20
-107.734
 10
89.9838
 20
-107.308
  0
LWPOLYLINE
100
AcDbEntity
  8
0
100
AcDbPolyline
 90
30
 70
1
 10
89.9685
 20
106.869
 10
89.9838
 20
107.308
 10
90.0901
 20
107.734
 10
90.2825
 20
108.128
 10
90.5528
 20
108.474
 10
90.8891
 20
108.756
 10
91.2767
 20
108.962
 10
91.6987
 20
109.084
 10
92.1367
 20
109.114
 10
92.5714
 20
109.053
 10
92.984
 20
108.903
 10
93.3563
 20
108.67
 10
93.6721
 20
108.365
 10
93.9176
 20
108.001
 10
94.0821
 20
107.594
 10
94.1583
 20
107.162
 10
94.143
 20
106.723
 10
94.0368
 20
106.297
 10
93.8443
 20
105.903
 10
93.574
 20
105.557
 10
93.2377
 20
105.274
 10
92.8501
 20
105.068
 10
92.4281
 20
104.947
 10
91.9901
 20
104.917
 10
91.5554
 20
104.978
 10
91.1428
 20
105.128
 10
90.7705
 20
105.361
 10
90.4547
 20
105.666
 10
90.2092
 20
106.03
 10
90.0448
 20
106.437
  0
LWPOLYLINE
100
AcDbEntity
  8
0
100
AcDbPolyline
 90
30
 70
1
 10
103.282
 20
-31.367
 10
103.358
 20
-30.9346
 10
103.522
 20
-30.5276
 10
103.768
 20
-30.1636
 10
104.084
 20
-29.8587
 10
104.456
 20
-29.626
 10
104.868
 20
-29.4759
 10
105.303
 20
-29.4148
 10
105.741
 20
-29.4454
 10
106.163
 20
-29.5664
 10
106.551
 20
-29.7725
 10
106.887
 20
-30.0547
 10
107.157
 20
-30.4007
 10
107.35
 20
-30.7952
 10
107.456
 20
-31.2212
 10
107.471
 20
-31.66
 10
107.395
 20
-32.0923
 10
107.231
 20
-32.4994
 10
106.985
 20
-32.8633
 10
106.669
 20
-33.1683
 10
106.297
 20
-33.4009
 10
105.884
 20
-33.5511
 10
105.45
 20
-33.6122
 10
105.012
 20
-33.5816
 10
104.59
 20
-33.4606
 10
104.202
 20
-33.2545
 10
103.866
 20
-32.9723
 10
103.596
 20
-32.6263
 10
103.403
 20
-32.2317
 10
103.297
 20
-31.8057
  0
LWPOLYLINE
100
AcDbEntity
  8
0
100
AcDbPolyline
 90
30
 70
1
 10
103.282
 20
31.367
 10
103.297
 20
31.8057
 10
103.403
 20
32.2317
 10
103.596
 20
32.6263
 10
103.866
 20
32.9723
 10
104.202
 20
33.2545
 10
104.59
 20
33.4606
 10
105.012
 20
33.5816
 10
105.45
 20
33.6122
 10
105.884
 20
33.5511
 10
106.297
 20
33.4009
 10
106.669
 20
33.1683
 10
106.985
 20
32.8633
 10
107.231
 20
32.4994
 10
107.395
 20
32.0923
 10
107.471
 20
31.66
 10
107.456
 20
31.2212
 10
107.35
 20
30.7952
 10
107.157
 20
30.4007
 10
106.887
 20
30.0547
 10
106.551
 20
29.7725
 10
106.163
 20
29.5664
 10
105.741
 20
29.4454
 10
105.303
 20
29.4148
 10
104.868
 20
29.4759
 10
104.456
 20
29.626
 10
104.084
 20
29.8587
 10
103.768
 20
30.1636
 10
103.522
 20
30.5276
 10
103.358
 20
30.9346
  0
LWPOLYLINE
100
AcDbEntity
  8
0
100
AcDbPolyline
 90
30
 70
1
 10
103.282
 20
-84.1031
 10
103.297
 20
-83.6643
 10
103.403
 20
-83.2383
 10
103.596
 20
-82.8437
 10
103.866
 20
-82.4978
 10
104.202
 20
-82.2156
 10
104.59
 20
-82.0095
 10
105.012
 20
-81.8885
 10
105.45
 20
-81.8579
 10
105.884
 20
-81.919
 10
106.297
 20
-82.0691
 10
106.669
 20
-82.3017
 10
106.985
 20
-82.6067
 10
107.231
 20
-82.9707
 10
107.395
 20
-83.3777
 10
107.471
 20
-83.8101
 10
107.456
 20
-84.2488
 10
107.35
 20
-84.6748
 10
107.157
 20
-85.0694
 10
106.887
 20
-85.4154
 10
106.551
 20
-85.6976
 10
106.163
 20
-85.9037
 10
105.741
 20
-86.0247
 10
105.303
 20
-86.0553
 10
104.868
 20
-85.9942
 10
104.456
 20
-85.844
 10
104.084
 20
-85.6114
 10
103.768
 20
-85.3064
 10
103.522
 20
-84.9425
 10
103.358
 20
-84.5354
  0
LWPOLYLINE
100
AcDbEntity
  8
0
100
AcDbPolyline
 90
30
 70
1
 10
103.282
 20
84.1031
 10
103.358
 20
84.5354
 10
103.522
 20
84.9425
 10
103.768
 20
85.3064
 10
104.084
 20
85.6114
 10
104.456
 20
85.844
 10
104.868
 20
85.9942
 10
105.303
 20
86.0553
 10
105.741
 20
86.0247
 10
106.163
 20
85.9037
 10
106.551
 20
85.6976
 10
106.887
 20
85.4154
 10
107.157
 20
85.0694
 10
107.35
 20
84.6748
 10
107.456
 20
84.2488
 10
107.471
 20
83.8101
 10
107.395
 20
83.3777
 10
107.231
 20
82.9707
 10
106.985
 20
82.6067
 10
106.669
 20
82.3017
 10
106.297
 20
82.0691
 10
105.884
 20
81.919
 10
105.45
 20
81.8579
 10
105.012
 20
81.8885
 10
104.59
 20
82.0095
 10
104.202
 20
82.2156
 10
103.866
 20
82.4978
 10
103.596
 20
82.8437
 10
103.403
 20
83.2383
 10
103.297
 20
83.6643
  0
LWPOLYLINE
100
AcDbEntity
  8
0
100
AcDbPolyline
 90
30
 70
1
 10
107.9
 20
-57.735
 10
107.946
 20
-57.2984
 10
108.082
 20
-56.8809
 10
108.301
 20
-56.5007
 10
108.595
 20
-56.1744
 10
108.95
 20
-55.9164
 10
109.351
 20
-55.7378
 10
109.78
 20
-55.6465
 10
110.22
 20
-55.6465
 10
110.649
 20
-55.7378
 10
111.05
 20
-55.9164
 10
111.405
 20
-56.1744
 10
111.699
 20
-56.5007
 10
111.918
 20
-56.8809
 10
112.054
 20
-57.2984
 10
112.1
 20
-57.735
 10
112.054
 20
-58.1716
 10
111.918
 20
-58.5892
 10
111.699
 20
-58.9694
 10
111.405
 20
-59.2956
 10
111.05
 20
-59.5537
 10
110.649
 20
-59.7322
 10
110.22
 20
-59.8235
 10
109.78
 20
-59.8235
 10
109.351
 20
-59.7322
 10
108.95
 20
-59.5537
 10
108.595
 20
-59.2956
 10
108.301
 20
-58.9694
 10
108.082
 20
-58.5892
 10
107.946
 20
-58.1716
  0
LWPOLYLINE
100
AcDbEntity
  8
0
100
AcDbPolyline
 90
30
 70
1
 10
107.9
 20
57.735
 10
107.946
 20
58.1716
 10
108.082
 20
58.5892
 10
108.301
 20
58.9694
 10
108.595
 20
59.2956
 10
108.95
 20
59.5537
 10
109.351
 20
59.7322
 10
109.78
 20
59.8235
 10
110.22
 20
59.8235
 10
110.649
 20
59.7322
 10
111.05
 20
59.5537
 10
111.405
 20
59.2956
 10
111.699
 20
58.9694
 10
111.918
 20
58.5892
 10
112.054
 20
58.1716
 10
112.1
 20
57.735
 10
112.054
 20
57.2984
 10
111.918
 20
56.8809
 10
111.699
 20
56.5007
 10
111.405
 20
56.1744
 10
111.05
 20
55.9164
 10
110.649
 20
55.7378
 10
110.22
 20
55.6465
 10
109.78
 20
55.6465
 10
109.351
 20
55.7378
 10
108.95
 20
55.9164
 10
108.595
 20
56.1744
 10
108.301
 20
56.5007
 10
108.082
 20
56.8809
 10
107.946
 20
57.2984
  0
LWPOLYLINE
100
AcDbEntity
  8
0
100
AcDbPolyline
 90
30
 70
1
 10
107.9
 20
0
 10
107.946
 20
0.436614
 10
108.082
 20
0.854146
 10
108.301
 20
1.23435
 10
108.595
 20
1.5606
 10
108.95
 20
1.81865
 10
109.351
 20
1.99722
 10
109.78
 20
2.0885
 10
110.22
 20
2.0885
 10
110.649
 20
1.99722
 10
111.05
 20
1.81865
 10
111.405
 20
1.5606
 10
111.699
 20
1.23435
 10
111.918
 20
0.854146
 10
112.054
 20
0.436614
 10
112.1
 20
0
 10
112.054
 20
-0.436614
 10
111.918
 20
-0.854146
 10
111.699
 20
-1.23435
 10
111.405
 20
-1.5606
 10
111.05
 20
-1.81865
 10
110.649
 20
-1.99722
 10
110.22
 20
-2.0885
 10
109.78
 20
-2.0885
 10
109.351
 20
-1.99722
 10
108.95
 20
-1.81865
 10
108.595
 20
-1.5606
 10
108.301
 20
-1.23435
 10
108.082
 20
-0.854146
 10
107.946
 20
-0.436614
  0
ENDSEC
  0
EOF
