999
DXF from OpenSCAD
  0
SECTION
  2
HEADER
  9
$ACADVER
  1
AC1006
  9
$INSBASE
 10
0.0
 20
0.0
 30
0.0
  9
$EXTMIN
 10
-77.6038
 20
-77.6038
  9
$EXTMAX
 10
77.6038
 20
77.6038
  9
$LINMIN
 10
-77.6038
 20
-77.6038
  9
$LINMAX
 10
77.6038
 20
77.6038
  0
ENDSEC
  0
SECTION
  2
TABLES
  0
TABLE
  2
LTYPE
 70
1
  0
LTYPE
  2
CONTINUOUS
 70
64
  3
Solid line
 72
65
 73
0
 40
0.000000
  0
ENDTAB
  0
TABLE
  2
LAYER
 70
6
  0
LAYER
  2
0
 70
64
 62
7
  6
CONTINUOUS
  0
ENDTAB
  0
TABLE
  2
STYLE
 70
0
  0
ENDTAB
  0
ENDSEC
  0
SECTION
  2
BLOCKS
  0
ENDSEC
  0
SECTION
  2
ENTITIES
  0
LWPOLYLINE
100
AcDbEntity
  8
0
100
AcDbPolyline
 90
720
 70
1
 10
-77.6038
 20
0
 10
-77.6031
 20
-0.0888361
 10
-77.592
 20
-1.35437
 10
-77.5589
 20
-2.61952
 10
-77.5566
 20
-2.70833
 10
-77.5014
 20
-3.97271
 10
-77.4975
 20
-4.06147
 10
-77.4202
 20
-5.3247
 10
-77.4148
 20
-5.41337
 10
-77.4078
 20
-5.50194
 10
-77.3085
 20
-6.76362
 10
-77.1872
 20
-8.02338
 10
-77.1787
 20
-8.11181
 10
-77.1687
 20
-8.20008
 10
-77.0254
 20
-9.45753
 10
-76.8602
 20
-10.7123
 10
-76.8486
 20
-10.8004
 10
-76.6615
 20
-12.052
 10
-76.6484
 20
-12.1399
 10
-76.6337
 20
-12.2275
 10
-76.4249
 20
-13.4758
 10
-76.1942
 20
-14.7202
 10
-76.178
 20
-14.8075
 10
-76.1603
 20
-14.8946
 10
-75.908
 20
-16.1347
 10
-75.8888
 20
-16.2215
 10
-75.6148
 20
-17.4571
 10
-75.5941
 20
-17.5434
 10
-75.2987
 20
-18.7741
 10
-75.2764
 20
-18.8601
 10
-74.9595
 20
-20.0853
 10
-74.6213
 20
-21.3049
 10
-74.5976
 20
-21.3905
 10
-74.5724
 20
-21.4757
 10
-74.2129
 20
-22.6892
 10
-73.8323
 20
-23.8962
 10
-73.8056
 20
-23.9809
 10
-73.7774
 20
-24.0652
 10
-73.3759
 20
-25.2653
 10
-72.9534
 20
-26.4583
 10
-72.9237
 20
-26.5421
 10
-72.8926
 20
-26.6253
 10
-72.4494
 20
-27.8107
 10
-72.4169
 20
-27.8934
 10
-71.953
 20
-29.0709
 10
-71.4687
 20
-30.2402
 10
-71.4347
 20
-30.3222
 10
-70.9301
 20
-31.4829
 10
-70.8946
 20
-31.5643
 10
-70.8578
 20
-31.6452
 10
-70.333
 20
-32.7968
 10
-70.2947
 20
-32.877
 10
-69.7499
 20
-34.0193
 10
-69.7102
 20
-34.0988
 10
-69.1455
 20
-35.2314
 10
-69.1045
 20
-35.3102
 10
-68.5201
 20
-36.4328
 10
-68.4777
 20
-36.5109
 10
-67.8738
 20
-37.6231
 10
-67.8301
 20
-37.7004
 10
-67.2069
 20
-38.8019
 10
-66.5646
 20
-39.8924
 10
-66.5195
 20
-39.9689
 10
-65.8582
 20
-41.048
 10
-65.8118
 20
-41.1238
 10
-65.764
 20
-41.1987
 10
-65.084
 20
-42.2661
 10
-64.3855
 20
-43.3214
 10
-64.3365
 20
-43.3955
 10
-64.2862
 20
-43.4687
 10
-63.5693
 20
-44.5117
 10
-63.5177
 20
-44.5841
 10
-62.7828
 20
-45.6144
 10
-62.73
 20
-45.6858
 10
-61.9772
 20
-46.7032
 10
-61.2067
 20
-47.7072
 10
-61.1527
 20
-47.7777
 10
-60.3648
 20
-48.7681
 10
-60.3095
 20
-48.8377
 10
-60.253
 20
-48.9062
 10
-59.448
 20
-49.8828
 10
-58.6261
 20
-50.8451
 10
-58.5684
 20
-50.9127
 10
-58.5095
 20
-50.9792
 10
-57.6709
 20
-51.9271
 10
-57.6109
 20
-51.9926
 10
-56.7558
 20
-52.9257
 10
-55.8847
 20
-53.8437
 10
-55.8235
 20
-53.9081
 10
-54.9365
 20
-54.8108
 10
-54.8742
 20
-54.8742
 10
-54.8108
 20
-54.9365
 10
-53.9081
 20
-55.8235
 10
-53.8437
 20
-55.8847
 10
-52.9257
 20
-56.7558
 10
-51.9926
 20
-57.6109
 10
-51.9271
 20
-57.6709
 10
-50.9792
 20
-58.5095
 10
-50.9127
 20
-58.5684
 10
-50.8451
 20
-58.6261
 10
-49.8828
 20
-59.448
 10
-48.9062
 20
-60.253
 10
-48.8377
 20
-60.3095
 10
-48.7681
 20
-60.3648
 10
-47.7777
 20
-61.1527
 10
-47.7072
 20
-61.2067
 10
-46.7032
 20
-61.9772
 10
-45.6858
 20
-62.73
 10
-45.6144
 20
-62.7828
 10
-44.5841
 20
-63.5177
 10
-44.5117
 20
-63.5693
 10
-43.4687
 20
-64.2862
 10
-43.3955
 20
-64.3365
 10
-43.3214
 20
-64.3855
 10
-42.2661
 20
-65.084
 10
-41.1987
 20
-65.764
 10
-41.1238
 20
-65.8118
 10
-41.048
 20
-65.8582
 10
-39.9689
 20
-66.5195
 10
-39.8924
 20
-66.5646
 10
-38.8019
 20
-67.2069
 10
-37.7004
 20
-67.8301
 10
-37.6231
 20
-67.8738
 10
-36.5109
 20
-68.4777
 10
-36.4328
 20
-68.5201
 10
-35.3102
 20
-69.1045
 10
-35.2314
 20
-69.1455
 10
-34.0988
 20
-69.7102
 10
-34.0193
 20
-69.7499
 10
-32.877
 20
-70.2947
 10
-32.7968
 20
-70.333
 10
-31.6452
 20
-70.8578
 10
-31.5643
 20
-70.8946
 10
-31.4829
 20
-70.9301
 10
-30.3222
 20
-71.4347
 10
-30.2402
 20
-71.4687
 10
-29.0709
 20
-71.953
 10
-27.8934
 20
-72.4169
 10
-27.8107
 20
-72.4494
 10
-26.6253
 20
-72.8926
 10
-26.5421
 20
-72.9237
 10
-26.4583
 20
-72.9534
 10
-25.2653
 20
-73.3759
 10
-24.0652
 20
-73.7774
 10
-23.9809
 20
-73.8056
 10
-23.8962
 20
-73.8323
 10
-22.6892
 20
-74.2129
 10
-21.4757
 20
-74.5724
 10
-21.3905
 20
-74.5976
 10
-21.3049
 20
-74.6213
 10
-20.0853
 20
-74.9595
 10
-18.8601
 20
-75.2764
 10
-18.7741
 20
-75.2987
 10
-17.5434
 20
-75.5941
 10
-17.4571
 20
-75.6148
 10
-16.2215
 20
-75.8888
 10
-16.1347
 20
-75.908
 10
-14.8946
 20
-76.1603
 10
-14.8075
 20
-76.178
 10
-14.7202
 20
-76.1942
 10
-13.4758
 20
-76.4249
 10
-12.2275
 20
-76.6337
 10
-12.1399
 20
-76.6484
 10
-12.052
 20
-76.6615
 10
-10.8004
 20
-76.8486
 10
-10.7123
 20
-76.8602
 10
-9.45753
 20
-77.0254
 10
-8.20008
 20
-77.1687
 10
-8.11181
 20
-77.1787
 10
-8.02338
 20
-77.1872
 10
-6.76362
 20
-77.3085
 10
-5.50194
 20
-77.4078
 10
-5.41337
 20
-77.4148
 10
-5.3247
 20
-77.4202
 10
-4.06147
 20
-77.4975
 10
-3.97271
 20
-77.5014
 10
-2.70833
 20
-77.5566
 10
-2.61952
 20
-77.5589
 10
-1.35437
 20
-77.592
 10
-0.0888361
 20
-77.6031
 10
0
 20
-77.6038
 10
0.0888361
 20
-77.6031
 10
1.35437
 20
-77.592
 10
2.61952
 20
-77.5589
 10
2.70833
 20
-77.5566
 10
3.97271
 20
-77.5014
 10
4.06147
 20
-77.4975
 10
5.3247
 20
-77.4202
 10
5.41337
 20
-77.4148
 10
5.50194
 20
-77.4078
 10
6.76362
 20
-77.3085
 10
8.02338
 20
-77.1872
 10
8.11181
 20
-77.1787
 10
8.20008
 20
-77.1687
 10
9.45753
 20
-77.0254
 10
10.7123
 20
-76.8602
 10
10.8004
 20
-76.8486
 10
12.052
 20
-76.6615
 10
12.1399
 20
-76.6484
 10
12.2275
 20
-76.6337
 10
13.4758
 20
-76.4249
 10
14.7202
 20
-76.1942
 10
14.8075
 20
-76.178
 10
14.8946
 20
-76.1603
 10
16.1347
 20
-75.908
 10
16.2215
 20
-75.8888
 10
17.4571
 20
-75.6148
 10
17.5434
 20
-75.5941
 10
18.7741
 20
-75.2987
 10
18.8601
 20
-75.2764
 10
20.0853
 20
-74.9595
 10
21.3049
 20
-74.6213
 10
21.3905
 20
-74.5976
 10
21.4757
 20
-74.5724
 10
22.6892
 20
-74.2129
 10
23.8962
 20
-73.8323
 10
23.9809
 20
-73.8056
 10
24.0652
 20
-73.7774
 10
25.2653
 20
-73.3759
 10
26.4583
 20
-72.9534
 10
26.5421
 20
-72.9237
 10
26.6253
 20
-72.8926
 10
27.8107
 20
-72.4494
 10
27.8934
 20
-72.4169
 10
29.0709
 20
-71.953
 10
30.2402
 20
-71.4687
 10
30.3222
 20
-71.4347
 10
31.4829
 20
-70.9301
 10
31.5643
 20
-70.8946
 10
31.6452
 20
-70.8578
 10
32.7968
 20
-70.333
 10
32.877
 20
-70.2947
 10
34.0193
 20
-69.7499
 10
34.0988
 20
-69.7102
 10
35.2314
 20
-69.1455
 10
35.3102
 20
-69.1045
 10
36.4328
 20
-68.5201
 10
36.5109
 20
-68.4777
 10
37.6231
 20
-67.8738
 10
37.7004
 20
-67.8301
 10
38.8019
 20
-67.2069
 10
39.8924
 20
-66.5646
 10
39.9689
 20
-66.5195
 10
41.048
 20
-65.8582
 10
41.1238
 20
-65.8118
 10
41.1987
 20
-65.764
 10
42.2661
 20
-65.084
 10
43.3214
 20
-64.3855
 10
43.3955
 20
-64.3365
 10
43.4687
 20
-64.2862
 10
44.5117
 20
-63.5693
 10
44.5841
 20
-63.5177
 10
45.6144
 20
-62.7828
 10
45.6858
 20
-62.73
 10
46.7032
 20
-61.9772
 10
47.7072
 20
-61.2067
 10
47.7777
 20
-61.1527
 10
48.7681
 20
-60.3648
 10
48.8377
 20
-60.3095
 10
48.9062
 20
-60.253
 10
49.8828
 20
-59.448
 10
50.8451
 20
-58.6261
 10
50.9127
 20
-58.5684
 10
50.9792
 20
-58.5095
 10
51.9271
 20
-57.6709
 10
51.9926
 20
-57.6109
 10
52.9257
 20
-56.7558
 10
53.8437
 20
-55.8847
 10
53.9081
 20
-55.8235
 10
54.8108
 20
-54.9365
 10
54.8742
 20
-54.8742
 10
54.9365
 20
-54.8108
 10
55.8235
 20
-53.9081
 10
55.8847
 20
-53.8437
 10
56.7558
 20
-52.9257
 10
57.6109
 20
-51.9926
 10
57.6709
 20
-51.9271
 10
58.5095
 20
-50.9792
 10
58.5684
 20
-50.9127
 10
58.6261
 20
-50.8451
 10
59.448
 20
-49.8828
 10
60.253
 20
-48.9062
 10
60.3095
 20
-48.8377
 10
60.3648
 20
-48.7681
 10
61.1527
 20
-47.7777
 10
61.2067
 20
-47.7072
 10
61.9772
 20
-46.7032
 10
62.73
 20
-45.6858
 10
62.7828
 20
-45.6144
 10
63.5177
 20
-44.5841
 10
63.5693
 20
-44.5117
 10
64.2862
 20
-43.4687
 10
64.3365
 20
-43.3955
 10
64.3855
 20
-43.3214
 10
65.084
 20
-42.2661
 10
65.764
 20
-41.1987
 10
65.8118
 20
-41.1238
 10
65.8582
 20
-41.048
 10
66.5195
 20
-39.9689
 10
66.5646
 20
-39.8924
 10
67.2069
 20
-38.8019
 10
67.8301
 20
-37.7004
 10
67.8738
 20
-37.6231
 10
68.4777
 20
-36.5109
 10
68.5201
 20
-36.4328
 10
69.1045
 20
-35.3102
 10
69.1455
 20
-35.2314
 10
69.7102
 20
-34.0988
 10
69.7499
 20
-34.0193
 10
70.2947
 20
-32.877
 10
70.333
 20
-32.7968
 10
70.8578
 20
-31.6452
 10
70.8946
 20
-31.5643
 10
70.9301
 20
-31.4829
 10
71.4347
 20
-30.3222
 10
71.4687
 20
-30.2402
 10
71.953
 20
-29.0709
 10
72.4169
 20
-27.8934
 10
72.4494
 20
-27.8107
 10
72.8926
 20
-26.6253
 10
72.9237
 20
-26.5421
 10
72.9534
 20
-26.4583
 10
73.3759
 20
-25.2653
 10
73.7774
 20
-24.0652
 10
73.8056
 20
-23.9809
 10
73.8323
 20
-23.8962
 10
74.2129
 20
-22.6892
 10
74.5724
 20
-21.4757
 10
74.5976
 20
-21.3905
 10
74.6213
 20
-21.3049
 10
74.9595
 20
-20.0853
 10
75.2764
 20
-18.8601
 10
75.2987
 20
-18.7741
 10
75.5941
 20
-17.5434
 10
75.6148
 20
-17.4571
 10
75.8888
 20
-16.2215
 10
75.908
 20
-16.1347
 10
76.1603
 20
-14.8946
 10
76.178
 20
-14.8075
 10
76.1942
 20
-14.7202
 10
76.4249
 20
-13.4758
 10
76.6337
 20
-12.2275
 10
76.6484
 20
-12.1399
 10
76.6615
 20
-12.052
 10
76.8486
 20
-10.8004
 10
76.8602
 20
-10.7123
 10
77.0254
 20
-9.45753
 10
77.1687
 20
-8.20008
 10
77.1787
 20
-8.11181
 10
77.1872
 20
-8.02338
 10
77.3085
 20
-6.76362
 10
77.4078
 20
-5.50194
 10
77.4148
 20
-5.41337
 10
77.4202
 20
-5.3247
 10
77.4975
 20
-4.06147
 10
77.5014
 20
-3.97271
 10
77.5566
 20
-2.70833
 10
77.5589
 20
-2.61952
 10
77.592
 20
-1.35437
 10
77.6031
 20
-0.0888361
 10
77.6038
 20
0
 10
77.6031
 20
0.0888361
 10
77.592
 20
1.35437
 10
77.5589
 20
2.61952
 10
77.5566
 20
2.70833
 10
77.5014
 20
3.97271
 10
77.4975
 20
4.06147
 10
77.4202
 20
5.3247
 10
77.4148
 20
5.41337
 10
77.4078
 20
5.50194
 10
77.3085
 20
6.76362
 10
77.1872
 20
8.02338
 10
77.1787
 20
8.11181
 10
77.1687
 20
8.20008
 10
77.0254
 20
9.45753
 10
76.8602
 20
10.7123
 10
76.8486
 20
10.8004
 10
76.6615
 20
12.052
 10
76.6484
 20
12.1399
 10
76.6337
 20
12.2275
 10
76.4249
 20
13.4758
 10
76.1942
 20
14.7202
 10
76.178
 20
14.8075
 10
76.1603
 20
14.8946
 10
75.908
 20
16.1347
 10
75.8888
 20
16.2215
 10
75.6148
 20
17.4571
 10
75.5941
 20
17.5434
 10
75.2987
 20
18.7741
 10
75.2764
 20
18.8601
 10
74.9595
 20
20.0853
 10
74.6213
 20
21.3049
 10
74.5976
 20
21.3905
 10
74.5724
 20
21.4757
 10
74.2129
 20
22.6892
 10
73.8323
 20
23.8962
 10
73.8056
 20
23.9809
 10
73.7774
 20
24.0652
 10
73.3759
 20
25.2653
 10
72.9534
 20
26.4583
 10
72.9237
 20
26.5421
 10
72.8926
 20
26.6253
 10
72.4494
 20
27.8107
 10
72.4169
 20
27.8934
 10
71.953
 20
29.0709
 10
71.4687
 20
30.2402
 10
71.4347
 20
30.3222
 10
70.9301
 20
31.4829
 10
70.8946
 20
31.5643
 10
70.8578
 20
31.6452
 10
70.333
 20
32.7968
 10
70.2947
 20
32.877
 10
69.7499
 20
34.0193
 10
69.7102
 20
34.0988
 10
69.1455
 20
35.2314
 10
69.1045
 20
35.3102
 10
68.5201
 20
36.4328
 10
68.4777
 20
36.5109
 10
67.8738
 20
37.6231
 10
67.8301
 20
37.7004
 10
67.2069
 20
38.8019
 10
66.5646
 20
39.8924
 10
66.5195
 20
39.9689
 10
65.8582
 20
41.048
 10
65.8118
 20
41.1238
 10
65.764
 20
41.1987
 10
65.084
 20
42.2661
 10
64.3855
 20
43.3214
 10
64.3365
 20
43.3955
 10
64.2862
 20
43.4687
 10
63.5693
 20
44.5117
 10
63.5177
 20
44.5841
 10
62.7828
 20
45.6144
 10
62.73
 20
45.6858
 10
61.9772
 20
46.7032
 10
61.2067
 20
47.7072
 10
61.1527
 20
47.7777
 10
60.3648
 20
48.7681
 10
60.3095
 20
48.8377
 10
60.253
 20
48.9062
 10
59.448
 20
49.8828
 10
58.6261
 20
50.8451
 10
58.5684
 20
50.9127
 10
58.5095
 20
50.9792
 10
57.6709
 20
51.9271
 10
57.6109
 20
51.9926
 10
56.7558
 20
52.9257
 10
55.8847
 20
53.8437
 10
55.8235
 20
53.9081
 10
54.9365
 20
54.8108
 10
54.8742
 20
54.8742
 10
54.8108
 20
54.9365
 10
53.9081
 20
55.8235
 10
53.8437
 20
55.8847
 10
52.9257
 20
56.7558
 10
51.9926
 20
57.6109
 10
51.9271
 20
57.6709
 10
50.9792
 20
58.5095
 10
50.9127
 20
58.5684
 10
50.8451
 20
58.6261
 10
49.8828
 20
59.448
 10
48.9062
 20
60.253
 10
48.8377
 20
60.3095
 10
48.7681
 20
60.3648
 10
47.7777
 20
61.1527
 10
47.7072
 20
61.2067
 10
46.7032
 20
61.9772
 10
45.6858
 20
62.73
 10
45.6144
 20
62.7828
 10
44.5841
 20
63.5177
 10
44.5117
 20
63.5693
 10
43.4687
 20
64.2862
 10
43.3955
 20
64.3365
 10
43.3214
 20
64.3855
 10
42.2661
 20
65.084
 10
41.1987
 20
65.764
 10
41.1238
 20
65.8118
 10
41.048
 20
65.8582
 10
39.9689
 20
66.5195
 10
39.8924
 20
66.5646
 10
38.8019
 20
67.2069
 10
37.7004
 20
67.8301
 10
37.6231
 20
67.8738
 10
36.5109
 20
68.4777
 10
36.4328
 20
68.5201
 10
35.3102
 20
69.1045
 10
35.2314
 20
69.1455
 10
34.0988
 20
69.7102
 10
34.0193
 20
69.7499
 10
32.877
 20
70.2947
 10
32.7968
 20
70.333
 10
31.6452
 20
70.8578
 10
31.5643
 20
70.8946
 10
31.4829
 20
70.9301
 10
30.3222
 20
71.4347
 10
30.2402
 20
71.4687
 10
29.0709
 20
71.953
 10
27.8934
 20
72.4169
 10
27.8107
 20
72.4494
 10
26.6253
 20
72.8926
 10
26.5421
 20
72.9237
 10
26.4583
 20
72.9534
 10
25.2653
 20
73.3759
 10
24.0652
 20
73.7774
 10
23.9809
 20
73.8056
 10
23.8962
 20
73.8323
 10
22.6892
 20
74.2129
 10
21.4757
 20
74.5724
 10
21.3905
 20
74.5976
 10
21.3049
 20
74.6213
 10
20.0853
 20
74.9595
 10
18.8601
 20
75.2764
 10
18.7741
 20
75.2987
 10
17.5434
 20
75.5941
 10
17.4571
 20
75.6148
 10
16.2215
 20
75.8888
 10
16.1347
 20
75.908
 10
14.8946
 20
76.1603
 10
14.8075
 20
76.178
 10
14.7202
 20
76.1942
 10
13.4758
 20
76.4249
 10
12.2275
 20
76.6337
 10
12.1399
 20
76.6484
 10
12.052
 20
76.6615
 10
10.8004
 20
76.8486
 10
10.7123
 20
76.8602
 10
9.45753
 20
77.0254
 10
8.20008
 20
77.1687
 10
8.11181
 20
77.1787
 10
8.02338
 20
77.1872
 10
6.76362
 20
77.3085
 10
5.50194
 20
77.4078
 10
5.41337
 20
77.4148
 10
5.3247
 20
77.4202
 10
4.06147
 20
77.4975
 10
3.97271
 20
77.5014
 10
2.70833
 20
77.5566
 10
2.61952
 20
77.5589
 10
1.35437
 20
77.592
 10
0.0888361
 20
77.6031
 10
0
 20
77.6038
 10
-0.0888361
 20
77.6031
 10
-1.35437
 20
77.592
 10
-2.61952
 20
77.5589
 10
-2.70833
 20
77.5566
 10
-3.97271
 20
77.5014
 10
-4.06147
 20
77.4975
 10
-5.3247
 20
77.4202
 10
-5.41337
 20
77.4148
 10
-5.50194
 20
77.4078
 10
-6.76362
 20
77.3085
 10
-8.02338
 20
77.1872
 10
-8.11181
 20
77.1787
 10
-8.20008
 20
77.1687
 10
-9.45753
 20
77.0254
 10
-10.7123
 20
76.8602
 10
-10.8004
 20
76.8486
 10
-12.052
 20
76.6615
 10
-12.1399
 20
76.6484
 10
-12.2275
 20
76.6337
 10
-13.4758
 20
76.4249
 10
-14.7202
 20
76.1942
 10
-14.8075
 20
76.178
 10
-14.8946
 20
76.1603
 10
-16.1347
 20
75.908
 10
-16.2215
 20
75.8888
 10
-17.4571
 20
75.6148
 10
-17.5434
 20
75.5941
 10
-18.7741
 20
75.2987
 10
-18.8601
 20
75.2764
 10
-20.0853
 20
74.9595
 10
-21.3049
 20
74.6213
 10
-21.3905
 20
74.5976
 10
-21.4757
 20
74.5724
 10
-22.6892
 20
74.2129
 10
-23.8962
 20
73.8323
 10
-23.9809
 20
73.8056
 10
-24.0652
 20
73.7774
 10
-25.2653
 20
73.3759
 10
-26.4583
 20
72.9534
 10
-26.5421
 20
72.9237
 10
-26.6253
 20
72.8926
 10
-27.8107
 20
72.4494
 10
-27.8934
 20
72.4169
 10
-29.0709
 20
71.953
 10
-30.2402
 20
71.4687
 10
-30.3222
 20
71.4347
 10
-31.4829
 20
70.9301
 10
-31.5643
 20
70.8946
 10
-31.6452
 20
70.8578
 10
-32.7968
 20
70.333
 10
-32.877
 20
70.2947
 10
-34.0193
 20
69.7499
 10
-34.0988
 20
69.7102
 10
-35.2314
 20
69.1455
 10
-35.3102
 20
69.1045
 10
-36.4328
 20
68.5201
 10
-36.5109
 20
68.4777
 10
-37.6231
 20
67.8738
 10
-37.7004
 20
67.8301
 10
-38.8019
 20
67.2069
 10
-39.8924
 20
66.5646
 10
-39.9689
 20
66.5195
 10
-41.048
 20
65.8582
 10
-41.1238
 20
65.8118
 10
-41.1987
 20
65.764
 10
-42.2661
 20
65.084
 10
-43.3214
 20
64.3855
 10
-43.3955
 20
64.3365
 10
-43.4687
 20
64.2862
 10
-44.5117
 20
63.5693
 10
-44.5841
 20
63.5177
 10
-45.6144
 20
62.7828
 10
-45.6858
 20
62.73
 10
-46.7032
 20
61.9772
 10
-47.7072
 20
61.2067
 10
-47.7777
 20
61.1527
 10
-48.7681
 20
60.3648
 10
-48.8377
 20
60.3095
 10
-48.9062
 20
60.253
 10
-49.8828
 20
59.448
 10
-50.8451
 20
58.6261
 10
-50.9127
 20
58.5684
 10
-50.9792
 20
58.5095
 10
-51.9271
 20
57.6709
 10
-51.9926
 20
57.6109
 10
-52.9257
 20
56.7558
 10
-53.8437
 20
55.8847
 10
-53.9081
 20
55.8235
 10
-54.8108
 20
54.9365
 10
-54.8742
 20
54.8742
 10
-54.9365
 20
54.8108
 10
-55.8235
 20
53.9081
 10
-55.8847
 20
53.8437
 10
-56.7558
 20
52.9257
 10
-57.6109
 20
51.9926
 10
-57.6709
 20
51.9271
 10
-58.5095
 20
50.9792
 10
-58.5684
 20
50.9127
 10
-58.6261
 20
50.8451
 10
-59.448
 20
49.8828
 10
-60.253
 20
48.9062
 10
-60.3095
 20
48.8377
 10
-60.3648
 20
48.7681
 10
-61.1527
 20
47.7777
 10
-61.2067
 20
47.7072
 10
-61.9772
 20
46.7032
 10
-62.73
 20
45.6858
 10
-62.7828
 20
45.6144
 10
-63.5177
 20
44.5841
 10
-63.5693
 20
44.5117
 10
-64.2862
 20
43.4687
 10
-64.3365
 20
43.3955
 10
-64.3855
 20
43.3214
 10
-65.084
 20
42.2661
 10
-65.764
 20
41.1987
 10
-65.8118
 20
41.1238
 10
-65.8582
 20
41.048
 10
-66.5195
 20
39.9689
 10
-66.5646
 20
39.8924
 10
-67.2069
 20
38.8019
 10
-67.8301
 20
37.7004
 10
-67.8738
 20
37.6231
 10
-68.4777
 20
36.5109
 10
-68.5201
 20
36.4328
 10
-69.1045
 20
35.3102
 10
-69.1455
 20
35.2314
 10
-69.7102
 20
34.0988
 10
-69.7499
 20
34.0193
 10
-70.2947
 20
32.877
 10
-70.333
 20
32.7968
 10
-70.8578
 20
31.6452
 10
-70.8946
 20
31.5643
 10
-70.9301
 20
31.4829
 10
-71.4347
 20
30.3222
 10
-71.4687
 20
30.2402
 10
-71.953
 20
29.0709
 10
-72.4169
 20
27.8934
 10
-72.4494
 20
27.8107
 10
-72.8926
 20
26.6253
 10
-72.9237
 20
26.5421
 10
-72.9534
 20
26.4583
 10
-73.3759
 20
25.2653
 10
-73.7774
 20
24.0652
 10
-73.8056
 20
23.9809
 10
-73.8323
 20
23.8962
 10
-74.2129
 20
22.6892
 10
-74.5724
 20
21.4757
 10
-74.5976
 20
21.3905
 10
-74.6213
 20
21.3049
 10
-74.9595
 20
20.0853
 10
-75.2764
 20
18.8601
 10
-75.2987
 20
18.7741
 10
-75.5941
 20
17.5434
 10
-75.6148
 20
17.4571
 10
-75.8888
 20
16.2215
 10
-75.908
 20
16.1347
 10
-76.1603
 20
14.8946
 10
-76.178
 20
14.8075
 10
-76.1942
 20
14.7202
 10
-76.4249
 20
13.4758
 10
-76.6337
 20
12.2275
 10
-76.6484
 20
12.1399
 10
-76.6615
 20
12.052
 10
-76.8486
 20
10.8004
 10
-76.8602
 20
10.7123
 10
-77.0254
 20
9.45753
 10
-77.1687
 20
8.20008
 10
-77.1787
 20
8.11181
 10
-77.1872
 20
8.02338
 10
-77.3085
 20
6.76362
 10
-77.4078
 20
5.50194
 10
-77.4148
 20
5.41337
 10
-77.4202
 20
5.3247
 10
-77.4975
 20
4.06147
 10
-77.5014
 20
3.97271
 10
-77.5566
 20
2.70833
 10
-77.5589
 20
2.61952
 10
-77.592
 20
1.35437
 10
-77.6031
 20
0.0888361
  0
LWPOLYLINE
100
AcDbEntity
  8
0
100
AcDbPolyline
 90
60
 70
1
 10
-39
 20
0
 10
-38.9781
 20
0.418114
 10
-38.9126
 20
0.831646
 10
-38.8042
 20
1.23607
 10
-38.6542
 20
1.62695
 10
-38.4641
 20
2
 10
-38.2361
 20
2.35114
 10
-37.9726
 20
2.67652
 10
-37.6765
 20
2.97258
 10
-37.3511
 20
3.23607
 10
-37
 20
3.4641
 10
-36.6269
 20
3.65418
 10
-36.2361
 20
3.80423
 10
-35.8316
 20
3.91259
 10
-35.4181
 20
3.97809
 10
-35
 20
4
 10
-34.5819
 20
3.97809
 10
-34.1684
 20
3.91259
 10
-33.7639
 20
3.80423
 10
-33.3731
 20
3.65418
 10
-33
 20
3.4641
 10
-32.6489
 20
3.23607
 10
-32.3235
 20
2.97258
 10
-32.0274
 20
2.67652
 10
-31.7639
 20
2.35114
 10
-31.5359
 20
2
 10
-31.3458
 20
1.62695
 10
-31.1958
 20
1.23607
 10
-31.0874
 20
0.831646
 10
-31.0219
 20
0.418114
 10
-31
 20
0
 10
-31.0219
 20
-0.418114
 10
-31.0874
 20
-0.831646
 10
-31.1958
 20
-1.23607
 10
-31.3458
 20
-1.62695
 10
-31.5359
 20
-2
 10
-31.7639
 20
-2.35114
 10
-32.0274
 20
-2.67652
 10
-32.3235
 20
-2.97258
 10
-32.6489
 20
-3.23607
 10
-33
 20
-3.4641
 10
-33.3731
 20
-3.65418
 10
-33.7639
 20
-3.80423
 10
-34.1684
 20
-3.91259
 10
-34.5819
 20
-3.97809
 10
-35
 20
-4
 10
-35.4181
 20
-3.97809
 10
-35.8316
 20
-3.91259
 10
-36.2361
 20
-3.80423
 10
-36.6269
 20
-3.65418
 10
-37
 20
-3.4641
 10
-37.3511
 20
-3.23607
 10
-37.6765
 20
-2.97258
 10
-37.9726
 20
-2.67652
 10
-38.2361
 20
-2.35114
 10
-38.4641
 20
-2
 10
-38.6542
 20
-1.62695
 10
-38.8042
 20
-1.23607
 10
-38.9126
 20
-0.831646
 10
-38.9781
 20
-0.418114
  0
LWPOLYLINE
100
AcDbEntity
  8
0
100
AcDbPolyline
 90
60
 70
1
 10
-4
 20
-35
 10
-3.97809
 20
-34.5819
 10
-3.91259
 20
-34.1684
 10
-3.80423
 20
-33.7639
 10
-3.65418
 20
-33.3731
 10
-3.4641
 20
-33
 10
-3.23607
 20
-32.6489
 10
-2.97258
 20
-32.3235
 10
-2.67652
 20
-32.0274
 10
-2.35114
 20
-31.7639
 10
-2
 20
-31.5359
 10
-1.62695
 20
-31.3458
 10
-1.23607
 20
-31.1958
 10
-0.831646
 20
-31.0874
 10
-0.418114
 20
-31.0219
 10
0
 20
-31
 10
0.418114
 20
-31.0219
 10
0.831646
 20
-31.0874
 10
1.23607
 20
-31.1958
 10
1.62695
 20
-31.3458
 10
2
 20
-31.5359
 10
2.35114
 20
-31.7639
 10
2.67652
 20
-32.0274
 10
2.97258
 20
-32.3235
 10
3.23607
 20
-32.6489
 10
3.4641
 20
-33
 10
3.65418
 20
-33.3731
 10
3.80423
 20
-33.7639
 10
3.91259
 20
-34.1684
 10
3.97809
 20
-34.5819
 10
4
 20
-35
 10
3.97809
 20
-35.4181
 10
3.91259
 20
-35.8316
 10
3.80423
 20
-36.2361
 10
3.65418
 20
-36.6269
 10
3.4641
 20
-37
 10
3.23607
 20
-37.3511
 10
2.97258
 20
-37.6765
 10
2.67652
 20
-37.9726
 10
2.35114
 20
-38.2361
 10
2
 20
-38.4641
 10
1.62695
 20
-38.6542
 10
1.23607
 20
-38.8042
 10
0.831646
 20
-38.9126
 10
0.418114
 20
-38.9781
 10
0
 20
-39
 10
-0.418114
 20
-38.9781
 10
-0.831646
 20
-38.9126
 10
-1.23607
 20
-38.8042
 10
-1.62695
 20
-38.6542
 10
-2
 20
-38.4641
 10
-2.35114
 20
-38.2361
 10
-2.67652
 20
-37.9726
 10
-2.97258
 20
-37.6765
 10
-3.23607
 20
-37.3511
 10
-3.4641
 20
-37
 10
-3.65418
 20
-36.6269
 10
-3.80423
 20
-36.2361
 10
-3.91259
 20
-35.8316
 10
-3.97809
 20
-35.4181
  0
LWPOLYLINE
100
AcDbEntity
  8
0
100
AcDbPolyline
 90
60
 70
1
 10
-4
 20
35
 10
-3.97809
 20
35.4181
 10
-3.91259
 20
35.8316
 10
-3.80423
 20
36.2361
 10
-3.65418
 20
36.6269
 10
-3.4641
 20
37
 10
-3.23607
 20
37.3511
 10
-2.97258
 20
37.6765
 10
-2.67652
 20
37.9726
 10
-2.35114
 20
38.2361
 10
-2
 20
38.4641
 10
-1.62695
 20
38.6542
 10
-1.23607
 20
38.8042
 10
-0.831646
 20
38.9126
 10
-0.418114
 20
38.9781
 10
0
 20
39
 10
0.418114
 20
38.9781
 10
0.831646
 20
38.9126
 10
1.23607
 20
38.8042
 10
1.62695
 20
38.6542
 10
2
 20
38.4641
 10
2.35114
 20
38.2361
 10
2.67652
 20
37.9726
 10
2.97258
 20
37.6765
 10
3.23607
 20
37.3511
 10
3.4641
 20
37
 10
3.65418
 20
36.6269
 10
3.80423
 20
36.2361
 10
3.91259
 20
35.8316
 10
3.97809
 20
35.4181
 10
4
 20
35
 10
3.97809
 20
34.5819
 10
3.91259
 20
34.1684
 10
3.80423
 20
33.7639
 10
3.65418
 20
33.3731
 10
3.4641
 20
33
 10
3.23607
 20
32.6489
 10
2.97258
 20
32.3235
 10
2.67652
 20
32.0274
 10
2.35114
 20
31.7639
 10
2
 20
31.5359
 10
1.62695
 20
31.3458
 10
1.23607
 20
31.1958
 10
0.831646
 20
31.0874
 10
0.418114
 20
31.0219
 10
0
 20
31
 10
-0.418114
 20
31.0219
 10
-0.831646
 20
31.0874
 10
-1.23607
 20
31.1958
 10
-1.62695
 20
31.3458
 10
-2
 20
31.5359
 10
-2.35114
 20
31.7639
 10
-2.67652
 20
32.0274
 10
-2.97258
 20
32.3235
 10
-3.23607
 20
32.6489
 10
-3.4641
 20
33
 10
-3.65418
 20
33.3731
 10
-3.80423
 20
33.7639
 10
-3.91259
 20
34.1684
 10
-3.97809
 20
34.5819
  0
LWPOLYLINE
100
AcDbEntity
  8
0
100
AcDbPolyline
 90
60
 70
1
 10
31
 20
0
 10
31.0219
 20
0.418114
 10
31.0874
 20
0.831646
 10
31.1958
 20
1.23607
 10
31.3458
 20
1.62695
 10
31.5359
 20
2
 10
31.7639
 20
2.35114
 10
32.0274
 20
2.67652
 10
32.3235
 20
2.97258
 10
32.6489
 20
3.23607
 10
33
 20
3.4641
 10
33.3731
 20
3.65418
 10
33.7639
 20
3.80423
 10
34.1684
 20
3.91259
 10
34.5819
 20
3.97809
 10
35
 20
4
 10
35.4181
 20
3.97809
 10
35.8316
 20
3.91259
 10
36.2361
 20
3.80423
 10
36.6269
 20
3.65418
 10
37
 20
3.4641
 10
37.3511
 20
3.23607
 10
37.6765
 20
2.97258
 10
37.9726
 20
2.67652
 10
38.2361
 20
2.35114
 10
38.4641
 20
2
 10
38.6542
 20
1.62695
 10
38.8042
 20
1.23607
 10
38.9126
 20
0.831646
 10
38.9781
 20
0.418114
 10
39
 20
0
 10
38.9781
 20
-0.418114
 10
38.9126
 20
-0.831646
 10
38.8042
 20
-1.23607
 10
38.6542
 20
-1.62695
 10
38.4641
 20
-2
 10
38.2361
 20
-2.35114
 10
37.9726
 20
-2.67652
 10
37.6765
 20
-2.97258
 10
37.3511
 20
-3.23607
 10
37
 20
-3.4641
 10
36.6269
 20
-3.65418
 10
36.2361
 20
-3.80423
 10
35.8316
 20
-3.91259
 10
35.4181
 20
-3.97809
 10
35
 20
-4
 10
34.5819
 20
-3.97809
 10
34.1684
 20
-3.91259
 10
33.7639
 20
-3.80423
 10
33.3731
 20
-3.65418
 10
33
 20
-3.4641
 10
32.6489
 20
-3.23607
 10
32.3235
 20
-2.97258
 10
32.0274
 20
-2.67652
 10
31.7639
 20
-2.35114
 10
31.5359
 20
-2
 10
31.3458
 20
-1.62695
 10
31.1958
 20
-1.23607
 10
31.0874
 20
-0.831646
 10
31.0219
 20
-0.418114
  0
ENDSEC
  0
EOF
